<svg xmlns="http://www.w3.org/2000/svg" width="69.72" height="61.176" viewBox="0 0 69.72 61.176">
  <g id="Group_1757" data-name="Group 1757" transform="translate(-1230.806 -403.801)">
    <rect id="Rectangle_570" data-name="Rectangle 570" width="69.72" height="61.175" rx="30.588" transform="translate(1230.806 403.801)" fill="#efa800"/>
    <g id="save-money" transform="translate(1244.195 409.659)">
      <path id="Path_2278" data-name="Path 2278" d="M189.557,159.039a.769.769,0,0,0-.277-.009,1.837,1.837,0,0,1-1.625-1.822.808.808,0,1,0-1.616,0,3.457,3.457,0,0,0,2.542,3.329v.808a.808.808,0,1,0,1.616,0v-.759a3.451,3.451,0,0,0-.707-6.829,1.835,1.835,0,1,1,1.835-1.835.808.808,0,1,0,1.616,0,3.457,3.457,0,0,0-2.744-3.378v-.736a.808.808,0,0,0-1.616,0v.785a3.451,3.451,0,0,0,.909,6.78,1.834,1.834,0,0,1,.067,3.666Zm0,0" transform="translate(-167.281 -132.15)" fill="#f8fffc"/>
      <path id="Path_2279" data-name="Path 2279" d="M104.2,118.211a11.719,11.719,0,1,0,11.719-11.719A11.719,11.719,0,0,0,104.2,118.211Zm11.719-10.1a10.1,10.1,0,1,1-10.1,10.1A10.1,10.1,0,0,1,115.914,108.108Zm0,0" transform="translate(-93.706 -95.734)" fill="#f8fffc"/>
      <path id="Path_2280" data-name="Path 2280" d="M38.272,329.576l-6.331,2.991a5.156,5.156,0,0,0-4.4-2.713l-5.844-.161a6.172,6.172,0,0,1-2.656-.686l-.595-.308a10.489,10.489,0,0,0-9.716.01l.037-1.347a.808.808,0,0,0-.786-.83l-6.408-.176a.808.808,0,0,0-.83.786L.36,341.205a.808.808,0,0,0,.786.83l6.408.176h.022a.808.808,0,0,0,.808-.786l.019-.673,1.665-.891a2.856,2.856,0,0,1,2.131-.233l9.942,2.79.052.013a10.643,10.643,0,0,0,2.185.225,10.783,10.783,0,0,0,4.5-.983.751.751,0,0,0,.1-.055L43.4,332.295a.809.809,0,0,0,.265-1.076,4.082,4.082,0,0,0-5.391-1.642ZM2,340.442l.343-12.448,4.793.132-.343,12.448Zm26.157-.211a9.163,9.163,0,0,1-5.6.625l-9.915-2.783a4.469,4.469,0,0,0-3.331.364l-.851.456.228-8.276a8.884,8.884,0,0,1,9.025-.481l.595.308a7.805,7.805,0,0,0,3.355.867l5.845.161A3.545,3.545,0,0,1,30.87,334.3l-8.706-.24a.808.808,0,1,0-.045,1.616l9.607.264h.022a.808.808,0,0,0,.807-.786,5.129,5.129,0,0,0-.078-1.048l6.493-3.068.019-.009a2.469,2.469,0,0,1,2.792.391Zm0,0" transform="translate(-0.36 -293.387)" fill="#f8fffc"/>
      <path id="Path_2281" data-name="Path 2281" d="M213.819,8.486V.808a.808.808,0,0,0-1.616,0V8.486a.808.808,0,0,0,1.616,0Zm0,0" transform="translate(-190.802)" fill="#f8fffc"/>
      <path id="Path_2282" data-name="Path 2282" d="M273.819,44.445V40.808a.808.808,0,0,0-1.616,0v3.637a.808.808,0,1,0,1.616,0Zm0,0" transform="translate(-244.741 -35.959)" fill="#f8fffc"/>
      <path id="Path_2283" data-name="Path 2283" d="M153.819,44.445V40.808a.808.808,0,1,0-1.616,0v3.637a.808.808,0,1,0,1.616,0Zm0,0" transform="translate(-136.864 -35.959)" fill="#f8fffc"/>
    </g>
  </g>
</svg>
