<svg xmlns="http://www.w3.org/2000/svg" width="110" height="110" viewBox="0 0 110 110">
  <g id="Group_1762" data-name="Group 1762" transform="translate(-1205 -314)">
    <path id="Path_2338" data-name="Path 2338" d="M52,0h6a52,52,0,0,1,52,52v6a52,52,0,0,1-52,52H52A52,52,0,0,1,0,58V52A52,52,0,0,1,52,0Z" transform="translate(1205 314)" fill="#6872d1" opacity="0.11"/>
    <g id="save-money" transform="translate(1227.81 326.771)">
      <path id="Path_2278" data-name="Path 2278" d="M191.335,165.125a1.158,1.158,0,0,0-.417-.014,2.766,2.766,0,0,1-2.446-2.743,1.217,1.217,0,0,0-2.433,0,5.205,5.205,0,0,0,3.827,5.012V168.6a1.217,1.217,0,1,0,2.433,0v-1.143a5.2,5.2,0,0,0-1.065-10.281A2.763,2.763,0,1,1,194,154.41a1.217,1.217,0,1,0,2.433,0,5.205,5.205,0,0,0-4.131-5.086v-1.107a1.217,1.217,0,0,0-2.433,0V149.4a5.2,5.2,0,0,0,1.369,10.207,2.761,2.761,0,0,1,.1,5.52Zm0,0" transform="translate(-157.439 -124.643)" fill="#6872d1"/>
      <path id="Path_2279" data-name="Path 2279" d="M104.2,124.135a17.643,17.643,0,1,0,17.643-17.643A17.643,17.643,0,0,0,104.2,124.135Zm17.643-15.21a15.21,15.21,0,1,1-15.21,15.21A15.21,15.21,0,0,1,121.838,108.925Zm0,0" transform="translate(-88.043 -90.296)" fill="#6872d1"/>
      <path id="Path_2280" data-name="Path 2280" d="M57.436,331.2l-9.531,4.5a7.763,7.763,0,0,0-6.618-4.084l-8.8-.242a9.292,9.292,0,0,1-4-1.033l-.9-.464a15.792,15.792,0,0,0-14.627.015l.056-2.028a1.217,1.217,0,0,0-1.183-1.25l-9.648-.266a1.216,1.216,0,0,0-1.249,1.183L.36,348.711a1.217,1.217,0,0,0,1.183,1.25l9.648.266h.033a1.217,1.217,0,0,0,1.217-1.183l.028-1.013,2.506-1.342a4.3,4.3,0,0,1,3.209-.351l14.967,4.2c.026.008.052.014.079.02a16.023,16.023,0,0,0,3.289.339,16.234,16.234,0,0,0,6.782-1.48,1.13,1.13,0,0,0,.151-.083l21.7-14.037a1.217,1.217,0,0,0,.4-1.621,6.146,6.146,0,0,0-8.116-2.473ZM2.826,347.562l.516-18.74,7.215.2-.516,18.741Zm39.379-.318a13.8,13.8,0,0,1-8.436.942L18.842,344a6.728,6.728,0,0,0-5.015.548l-1.281.686.343-12.46a13.374,13.374,0,0,1,13.587-.725l.9.464a11.751,11.751,0,0,0,5.051,1.3l8.8.242a5.337,5.337,0,0,1,5.072,4.253l-13.106-.362a1.217,1.217,0,1,0-.067,2.433l14.464.4h.034a1.217,1.217,0,0,0,1.216-1.183,7.722,7.722,0,0,0-.118-1.578l9.776-4.619.029-.014a3.718,3.718,0,0,1,4.2.589Zm0,0" transform="translate(0 -276.721)" fill="#6872d1"/>
      <path id="Path_2281" data-name="Path 2281" d="M214.636,12.775V1.217a1.217,1.217,0,0,0-2.433,0V12.775a1.217,1.217,0,0,0,2.433,0Zm0,0" transform="translate(-179.625)" fill="#6872d1"/>
      <path id="Path_2282" data-name="Path 2282" d="M274.636,46.692V41.217a1.217,1.217,0,1,0-2.433,0v5.475a1.217,1.217,0,1,0,2.433,0Zm0,0" transform="translate(-230.499 -33.917)" fill="#6872d1"/>
      <path id="Path_2283" data-name="Path 2283" d="M154.636,46.692V41.217a1.217,1.217,0,1,0-2.433,0v5.475a1.217,1.217,0,1,0,2.433,0Zm0,0" transform="translate(-128.75 -33.917)" fill="#6872d1"/>
    </g>
  </g>
</svg>
