<svg xmlns="http://www.w3.org/2000/svg" width="168.004" height="153.521" viewBox="0 0 168.004 153.521">
  <g id="OBJECTS" transform="translate(-84.494 -119.061)">
    <g id="Group_2" data-name="Group 2" transform="translate(84.494 119.061)">
      <g id="Group_1" data-name="Group 1">
        <rect id="Rectangle_1" data-name="Rectangle 1" width="68.545" height="5.418" transform="translate(58.502 8.836)" fill="#e2a82b"/>
        <path id="Path_1" data-name="Path 1" d="M145.792,141.824v33.105a4.673,4.673,0,0,1-4.672,4.672H112.57a4.044,4.044,0,1,1,0-8.089h13.524a4.047,4.047,0,0,0,0-8.093H116.37a4.044,4.044,0,0,1,0-8.089H138A4.058,4.058,0,0,0,142,150.624a4.141,4.141,0,0,0-4.124-3.387H122.587a4.13,4.13,0,0,1-4.12-3.408,4.059,4.059,0,0,1,4-4.681h20.651A2.674,2.674,0,0,1,145.792,141.824Z" transform="translate(-96.271 -128.907)" fill="#e2a82b"/>
        <path id="Path_2" data-name="Path 2" d="M266.527,142.566V176.5a6.364,6.364,0,0,1-.2,1.583,6.058,6.058,0,0,1-.35.975,6.292,6.292,0,0,1-1.876,2.394,6.2,6.2,0,0,1-3.853,1.333H211.386a8.275,8.275,0,0,1-2.058-.258,8.464,8.464,0,0,1-6.38-8.179V142.566a1.711,1.711,0,0,1,1.7-1.708h60.171A1.709,1.709,0,0,1,266.527,142.566Z" transform="translate(-142.552 -129.744)" fill="#e2a82b"/>
        <path id="Path_3" data-name="Path 3" d="M356.345,177.978v8.5a5.039,5.039,0,0,1-5.024,5.024H336.972a5.041,5.041,0,0,1-5.024-5.028v-22.8a5.039,5.039,0,0,1,5.024-5.024h8.509l.724.723,3.424,5.493,5.475,8.781A8.192,8.192,0,0,1,356.345,177.978Z" transform="translate(-205.779 -138.462)" fill="#e2a82b"/>
        <path id="Path_4" data-name="Path 4" d="M276.909,177.205a1.59,1.59,0,0,1-1.618,1.454H189.383a10.1,10.1,0,0,1-7.071-2.334c-3.326-3.007-3.326-8.1-3.326-10.22V132.09c0-3.775-1.186-4.841-3.149-6.148-2.2-1.467-5.28-4.068-5.41-4.176a1.535,1.535,0,1,1,1.984-2.343c.031.026,3.071,2.593,5.129,3.965,2.382,1.588,4.517,3.447,4.517,8.7v34.015c0,5.03,1.113,7.8,3.809,8.9a9.217,9.217,0,0,0,3.516.582h85.995A1.53,1.53,0,0,1,276.909,177.205Z" transform="translate(-126.346 -119.061)" fill="#3c5d70"/>
        <path id="Path_5" data-name="Path 5" d="M265.626,136.391v23.054a3.29,3.29,0,0,1-3.128,3.417H251.912a3.289,3.289,0,0,1-3.123-3.417V136.391Z" transform="translate(-165.02 -127.555)" fill="#b56d20"/>
        <path id="Path_6" data-name="Path 6" d="M228.516,245.27a10.3,10.3,0,0,1-20.6,0,10.154,10.154,0,0,1,.544-3.3h19.513A10.168,10.168,0,0,1,228.516,245.27Z" transform="translate(-144.987 -179.302)" fill="#3c5d70"/>
        <path id="Path_7" data-name="Path 7" d="M334.064,245.27a10.3,10.3,0,0,1-20.6,0,10.155,10.155,0,0,1,.544-3.3h19.513A10.167,10.167,0,0,1,334.064,245.27Z" transform="translate(-196.719 -179.302)" fill="#3c5d70"/>
        <path id="Path_8" data-name="Path 8" d="M309.591,202.563v2.394H292a1.2,1.2,0,0,1,0-2.394Z" transform="translate(-185.613 -159.988)" fill="#fffacf"/>
        <path id="Path_9" data-name="Path 9" d="M309.591,209.167v.811a6.258,6.258,0,0,1-.2,1.583H292a1.2,1.2,0,0,1,0-2.393Z" transform="translate(-185.613 -163.224)" fill="#fffacf"/>
        <path id="Path_10" data-name="Path 10" d="M309.043,215.77a6.285,6.285,0,0,1-1.876,2.394H292a1.2,1.2,0,0,1,0-2.394Z" transform="translate(-185.613 -166.461)" fill="#fffacf"/>
        <path id="Path_11" data-name="Path 11" d="M356.089,164.861v6.129a2.2,2.2,0,0,1-2.192,2.192h-6.576a2.2,2.2,0,0,1-2.192-2.192V158.645h6.812l.724.723Z" transform="translate(-212.239 -138.462)" fill="#fffacf"/>
        <circle id="Ellipse_1" data-name="Ellipse 1" cx="5.441" cy="5.441" r="5.441" transform="translate(65.845 64.193) rotate(-28.69)" fill="#fff"/>
        <circle id="Ellipse_2" data-name="Ellipse 2" cx="5.441" cy="5.441" r="5.441" transform="translate(119.996 63.27) rotate(-21.372)" fill="#fff"/>
        <rect id="Rectangle_2" data-name="Rectangle 2" width="7.343" height="2.192" rx="1.096" transform="translate(128.537 38.758)" fill="#fffacf"/>
        <path id="Path_12" data-name="Path 12" d="M113.656,143.161a4.019,4.019,0,0,1-4.008,4.008h-1.626a4.021,4.021,0,0,1-4.008-4.008,4.023,4.023,0,0,1,4.008-4.012h1.626a4.021,4.021,0,0,1,4.008,4.012Z" transform="translate(-94.061 -128.907)" fill="#e2a82b"/>
        <path id="Path_13" data-name="Path 13" d="M98.088,174.965a4.023,4.023,0,0,1-4.012,4.008H88.506a4.01,4.01,0,1,1,0-8.02h5.569a4.021,4.021,0,0,1,4.012,4.012Z" transform="translate(-84.494 -144.495)" fill="#e2a82b"/>
        <rect id="Rectangle_3" data-name="Rectangle 3" width="66.793" height="1.596" transform="translate(59.378 14.254)" fill="#fff"/>
      </g>
      <path id="Path_14" data-name="Path 14" d="M94.075,178.973H88.506a4.01,4.01,0,1,1,0-8.02h5.569a4.01,4.01,0,1,1,0,8.02Z" transform="translate(-84.494 -144.495)" fill="#fff" opacity="0.2"/>
      <path id="Path_15" data-name="Path 15" d="M105.192,145.991a4.005,4.005,0,0,1,2.83-6.842h1.626a4.01,4.01,0,0,1,0,8.02h-1.626A3.976,3.976,0,0,1,105.192,145.991Z" transform="translate(-94.061 -128.907)" fill="#fff" opacity="0.2"/>
      <path id="Path_16" data-name="Path 16" d="M145.792,141.824v33.105a4.673,4.673,0,0,1-4.672,4.672H112.57a4.044,4.044,0,1,1,0-8.089h13.524a4.047,4.047,0,0,0,0-8.093H116.37a4.044,4.044,0,0,1,0-8.089H138A4.058,4.058,0,0,0,142,150.624a4.141,4.141,0,0,0-4.124-3.387H122.587a4.13,4.13,0,0,1-4.12-3.408,4.059,4.059,0,0,1,4-4.681h20.651A2.674,2.674,0,0,1,145.792,141.824Z" transform="translate(-96.271 -128.907)" fill="#fff" opacity="0.2"/>
      <path id="Path_17" data-name="Path 17" d="M185.867,175.01c-1.173.461-2.36.9-3.555,1.315-3.326-3.007-3.326-8.1-3.326-10.22V132.09c0-3.775-1.186-4.841-3.149-6.148-2.2-1.467-5.28-4.068-5.41-4.176a1.535,1.535,0,1,1,1.984-2.343c.031.026,3.071,2.593,5.129,3.965,2.382,1.588,4.517,3.447,4.517,8.7v34.015C182.057,171.136,183.17,173.9,185.867,175.01Z" transform="translate(-126.346 -119.061)" fill="#fff" opacity="0.2"/>
      <path id="Path_18" data-name="Path 18" d="M253.619,136.391c-.418.763-.841,1.522-1.277,2.278q-.919,1.592-1.89,3.14c-.332.535-.673,1.066-1.022,1.6a103.472,103.472,0,0,1-8.093,10.824,104.187,104.187,0,0,1-33.83,26.1,8.464,8.464,0,0,1-6.38-8.179V143.405h-1.018v-1.6h-.876v-5.418Z" transform="translate(-140.731 -127.555)" fill="#fff" opacity="0.2"/>
    </g>
    <g id="Group_3" data-name="Group 3" transform="translate(104.498 186.798)">
      <text id="Company" transform="translate(0 38)" fill="#f8fffc" font-size="35" font-family="SegoeUI, Segoe UI"><tspan x="0" y="0">Company</tspan></text>
      <text id="LOGO" transform="translate(29.808 79.784)" fill="#f8fffc" font-size="25" font-family="Montserrat-Regular, Montserrat"><tspan x="0" y="0">LOGO</tspan></text>
    </g>
  </g>
</svg>
