<svg xmlns="http://www.w3.org/2000/svg" width="34" height="34" viewBox="0 0 34 34">
  <g id="debt" transform="translate(-1 -1)">
    <path id="Path_2407" data-name="Path 2407" d="M27.871,12.516a1.643,1.643,0,0,0,1.544-1.1H35V2.645H29.415a1.643,1.643,0,0,0-1.544-1.1H25.677A1.643,1.643,0,0,0,24.1,2.761l-1.4-.932A4.918,4.918,0,0,0,19.962,1H11.419a1.1,1.1,0,0,0-1.1,1.1,2.171,2.171,0,0,0,.3,1.1h-2.5A1.647,1.647,0,0,0,6.484,4.839a1.627,1.627,0,0,0,.1.548H5.935a1.645,1.645,0,0,0,0,3.29h.649A1.618,1.618,0,0,0,7.7,10.807a1.64,1.64,0,0,0,1.525,2.257H19.962a4.918,4.918,0,0,0,2.738-.829l1.4-.932a1.644,1.644,0,0,0,1.58,1.212h.548v1.152a2.742,2.742,0,0,0,0,5.373v1.208a2.733,2.733,0,0,0-.3,5.279,1.641,1.641,0,0,1-1.341.7H22.935a1.647,1.647,0,0,0-1.645-1.645h-.649a1.643,1.643,0,0,0-1.544-1.1H16.76a8.226,8.226,0,1,0,0,6.581H19.1a1.643,1.643,0,0,0,1.544-1.1h.649a1.647,1.647,0,0,0,1.645-1.645h1.645a2.746,2.746,0,0,0,2.527-1.679,2.734,2.734,0,0,0,.215-5.394V19.041a2.742,2.742,0,0,0,0-5.373V12.516ZM9.226,33.9a7.129,7.129,0,1,1,7.129-7.129A7.137,7.137,0,0,1,9.226,33.9Zm10.419-5.484a.549.549,0,0,1-.548.548H17.146a8.015,8.015,0,0,0,0-4.387H19.1a.549.549,0,0,1,.548.548Zm2.194-1.1a.549.549,0,0,1-.548.548h-.548V25.677h.548a.549.549,0,0,1,.548.548Zm6.581-4.387a1.643,1.643,0,0,1-1.1,1.544v-1h-1.1v1a1.636,1.636,0,0,1,0-3.089v1h1.1v-1A1.643,1.643,0,0,1,28.419,22.935Zm0-6.581a1.643,1.643,0,0,1-1.1,1.544v-1h-1.1v1a1.636,1.636,0,0,1,0-3.089v1h1.1v-1A1.643,1.643,0,0,1,28.419,16.355ZM33.9,10.323H29.516V3.742H33.9ZM5.387,7.032a.549.549,0,0,1,.548-.548H14.71v1.1H5.935A.549.549,0,0,1,5.387,7.032ZM8.129,8.677H14.71v1.1H8.129a.548.548,0,0,1,0-1.1Zm13.962,2.645a3.826,3.826,0,0,1-2.129.645H9.226a.548.548,0,1,1,0-1.1h5.621a2.4,2.4,0,0,0,.572.937l.775-.776a1.315,1.315,0,0,1-.388-.936V6.163a1.315,1.315,0,0,1,.388-.936l-.775-.776a2.4,2.4,0,0,0-.572.937H8.129a.548.548,0,0,1,0-1.1h8.547l.52.521a3.816,3.816,0,0,0,2.715,1.124h.831v-1.1h-.831a2.726,2.726,0,0,1-1.939-.8l-.842-.842H12.516a1.1,1.1,0,0,1-1.1-1.1h8.543a3.827,3.827,0,0,1,2.129.645l1.941,1.294v5.994Zm3.038-.452V3.194a.549.549,0,0,1,.548-.548h2.194a.549.549,0,0,1,.548.548v7.677a.549.549,0,0,1-.548.548H25.677A.549.549,0,0,1,25.129,10.871Z" fill="#00a662"/>
    <path id="Path_2408" data-name="Path 2408" d="M14.742,43.194a.549.549,0,0,1,.548.548h1.1A1.647,1.647,0,0,0,14.742,42.1V41h-1.1v1.1H12v1.645a1.647,1.647,0,0,0,1.645,1.645h1.1a.549.549,0,0,1,.548.548v.548H13.645a.549.549,0,0,1-.548-.548H12a1.647,1.647,0,0,0,1.645,1.645v1.1h1.1v-1.1h1.645V45.935a1.647,1.647,0,0,0-1.645-1.645h-1.1a.549.549,0,0,1-.548-.548v-.548Z" transform="translate(-4.968 -18.065)" fill="#00a662"/>
  </g>
</svg>
