<?xml version="1.0" standalone="no"?>
<!DOCTYPE svg PUBLIC "-//W3C//DTD SVG 20010904//EN"
 "http://www.w3.org/TR/2001/REC-SVG-20010904/DTD/svg10.dtd">
<svg version="1.0" xmlns="http://www.w3.org/2000/svg"
 width="1600.000000pt" height="1600.000000pt" viewBox="0 0 1600.000000 1600.000000"
 preserveAspectRatio="xMidYMid meet">
<metadata>
Created by potrace 1.16, written by Peter Selinger 2001-2019
</metadata>
<g transform="translate(0.000000,1600.000000) scale(0.100000,-0.100000)"
fill="#000000" stroke="none">
<path d="M8513 13977 c-74 -49 -96 -70 -108 -100 -13 -32 -15 -118 -15 -571 0
-478 -2 -535 -16 -540 -23 -9 -557 -7 -571 2 -7 5 -12 61 -15 172 -3 184 -6
191 -72 234 l-40 26 -417 0 c-460 0 -448 1 -540 -66 -25 -18 -49 -31 -53 -27
-3 3 -6 34 -6 68 0 34 -3 64 -6 68 -3 3 -27 -10 -53 -29 -25 -19 -72 -53 -103
-75 l-58 -40 0 -163 c0 -140 -2 -165 -16 -170 -9 -3 -64 -6 -123 -6 -103 0
-110 1 -153 30 -97 64 -162 143 -227 273 -109 216 -174 286 -268 287 -46 0
-121 -38 -142 -72 -12 -19 -24 -218 -14 -218 3 0 27 8 53 17 40 14 52 15 78 4
31 -13 48 -41 102 -165 9 -23 38 -61 64 -84 29 -26 45 -49 42 -58 -4 -12 -70
-14 -405 -14 -386 0 -401 1 -411 19 -6 13 -10 202 -10 546 0 626 12 569 -137
666 -47 31 -67 39 -72 30 -10 -16 -14 -1087 -5 -1331 l7 -190 1903 0 1904 0 0
770 c0 424 -1 770 -2 769 -2 0 -45 -28 -95 -62z m-1020 -1009 c54 -31 67 -55
67 -127 0 -54 -4 -70 -16 -75 -28 -11 -844 -7 -865 4 -17 9 -19 22 -19 104 0
51 3 96 7 99 3 4 186 7 405 7 300 0 404 -3 421 -12z"/>
<path d="M9110 13975 c-49 -36 -83 -69 -98 -97 l-22 -41 2 -666 3 -666 105 0
105 0 3 763 c2 606 0 762 -10 762 -7 -1 -47 -25 -88 -55z"/>
<path d="M11911 13834 c-23 -21 -34 -41 -37 -69 -13 -99 109 -165 182 -98 37
35 48 69 36 111 -16 53 -43 74 -100 80 -43 4 -53 1 -81 -24z"/>
<path d="M10364 13601 c-18 -10 -35 -25 -39 -31 -11 -18 -7 -97 5 -120 28 -53
128 -64 176 -19 34 32 34 116 1 154 -31 37 -99 44 -143 16z"/>
<path d="M3760 13309 c-54 -46 -125 -67 -264 -79 -89 -7 -138 -16 -170 -30
-61 -29 -160 -137 -192 -210 -7 -14 -17 -38 -25 -55 -9 -21 -15 -104 -19 -265
-6 -250 -9 -264 -59 -308 -44 -38 -93 -56 -165 -60 -77 -5 -132 9 -188 47 -61
42 -68 67 -68 254 0 91 -4 168 -9 171 -12 8 -78 -42 -119 -88 -65 -75 -86
-130 -90 -248 -4 -98 -2 -111 21 -162 98 -213 418 -301 652 -179 96 50 155
104 208 193 l32 55 5 260 c5 272 7 283 54 330 57 58 130 84 191 67 l30 -8 5
-245 5 -244 104 -3 c77 -2 107 1 113 10 4 7 8 196 8 421 0 319 -3 407 -12 407
-7 -1 -29 -14 -48 -31z"/>
<path d="M11962 13304 l-42 -36 0 -113 0 -114 28 15 c15 7 51 14 81 14 52 0
57 -2 100 -48 57 -59 164 -229 157 -248 -4 -12 -64 -14 -348 -14 -189 0 -349
4 -356 9 -10 6 -14 42 -14 140 0 97 -3 134 -12 137 -7 3 -54 -21 -104 -53 -98
-63 -115 -90 -111 -171 2 -21 -1 -43 -5 -50 -5 -9 -94 -12 -351 -12 -189 0
-350 3 -359 6 -13 5 -16 26 -16 129 0 68 -3 126 -7 128 -9 5 -143 -58 -185
-86 -61 -41 -63 -49 -68 -322 l-5 -250 -147 -3 c-142 -2 -148 -3 -148 -23 0
-20 27 -88 40 -99 3 -3 18 -22 33 -43 16 -20 52 -49 80 -64 44 -22 65 -26 132
-26 91 0 132 14 187 65 60 55 81 109 87 223 l6 100 936 3 937 2 32 -50 c18
-27 37 -50 42 -50 6 0 8 19 6 45 -2 25 -3 46 -3 47 0 2 236 5 525 8 l525 5 3
403 c1 221 0 402 -3 402 -3 0 -24 -14 -48 -31 -70 -51 -104 -61 -244 -70 -127
-8 -135 -10 -186 -42 -46 -30 -64 -47 -121 -118 -31 -37 -66 -130 -77 -199 -7
-41 -17 -78 -23 -82 -14 -10 -368 -10 -383 0 -6 4 -83 116 -171 248 -178 267
-193 287 -245 309 -62 26 -108 20 -155 -21z m1441 -321 c4 -2 7 -51 7 -108 0
-85 -3 -104 -16 -109 -30 -11 -229 -7 -242 6 -14 14 -16 57 -3 90 12 30 69 91
101 108 49 26 120 32 153 13z"/>
<path d="M4375 13003 c-91 -45 -140 -79 -162 -112 -16 -23 -19 -57 -23 -276
l-5 -250 -143 -3 c-160 -3 -161 -3 -142 -72 36 -134 234 -216 384 -160 32 12
76 38 97 57 66 60 70 85 67 495 l-3 356 -70 -35z"/>
<path d="M11213 12230 c-38 -23 -53 -48 -53 -90 0 -68 43 -110 112 -110 105 0
146 138 59 197 -42 28 -76 29 -118 3z"/>
<path d="M2590 11914 c-39 -28 -49 -46 -49 -84 0 -44 16 -66 63 -85 69 -29
156 15 156 78 0 30 -14 62 -37 86 -23 23 -104 26 -133 5z"/>
<path d="M3010 11902 c-82 -82 8 -202 117 -157 47 20 62 41 63 87 0 56 -33 89
-98 96 -47 4 -54 2 -82 -26z"/>
<path d="M7890 11558 c-249 -9 -475 -37 -715 -87 -198 -42 -570 -150 -690
-201 -11 -4 -72 -29 -135 -55 -241 -99 -450 -209 -715 -376 -72 -45 -263 -181
-325 -230 -19 -16 -65 -53 -103 -83 -252 -203 -522 -485 -745 -778 -85 -112
-222 -311 -222 -323 0 -3 -13 -25 -28 -48 -168 -248 -383 -738 -491 -1117 -62
-217 -139 -613 -141 -719 0 -42 10 -16 21 50 39 251 143 621 256 909 60 154
235 507 324 655 70 116 241 371 277 411 9 11 33 40 52 64 133 171 234 283 395
440 61 59 132 127 160 151 27 24 65 58 85 76 121 109 416 321 600 430 168 101
411 226 528 272 26 10 72 30 102 44 190 85 640 219 867 258 598 102 1077 106
1633 13 282 -47 693 -160 880 -242 14 -6 52 -23 85 -38 33 -14 54 -29 47 -31
-8 -3 -19 0 -25 6 -6 6 -19 11 -29 11 -10 0 -26 4 -36 9 -9 5 -51 19 -92 31
-41 12 -88 25 -105 30 -452 133 -962 201 -1405 187 -335 -11 -537 -34 -840
-97 -164 -34 -326 -77 -520 -140 -36 -11 -221 -80 -245 -90 -11 -5 -87 -39
-168 -75 -82 -36 -177 -81 -213 -100 -35 -19 -93 -51 -129 -70 -218 -118 -479
-298 -705 -484 -217 -180 -642 -605 -796 -796 -26 -33 -51 -62 -55 -65 -3 -3
-46 -59 -96 -125 -297 -398 -536 -857 -683 -1310 -48 -148 -94 -312 -112 -399
-5 -28 -14 -69 -19 -91 -32 -149 -39 -183 -39 -207 0 -14 -4 -28 -10 -30 -11
-4 -28 -213 -40 -508 -16 -391 12 -732 95 -1150 41 -209 163 -599 235 -757 11
-24 20 -45 20 -48 0 -19 169 -365 230 -470 28 -48 50 -91 50 -96 0 -5 4 -9 8
-9 5 0 16 -16 25 -35 9 -19 22 -35 28 -35 16 0 239 141 239 152 0 5 -17 35
-39 66 -89 132 -238 410 -306 572 -15 36 -37 88 -50 115 -81 181 -212 618
-250 835 -70 407 -80 507 -80 825 0 251 7 360 35 525 5 30 17 98 25 150 31
183 84 392 152 605 52 162 86 251 152 397 11 26 21 50 21 53 0 26 210 418 282
528 21 32 38 61 38 63 0 12 222 320 294 409 209 256 514 555 732 720 43 33 81
62 84 65 28 29 279 197 405 272 123 73 371 202 455 238 30 12 73 31 95 41 220
100 637 227 930 283 287 55 358 61 690 61 207 0 359 -5 430 -13 288 -35 604
-98 894 -178 30 -8 60 -18 65 -22 6 -5 57 -9 113 -10 99 -3 132 6 97 26 -14 8
-8 11 26 17 56 10 164 47 215 74 22 11 44 21 48 21 5 0 29 14 54 30 24 17 49
30 56 30 29 1 -23 18 -73 24 -75 9 -141 32 -227 78 -81 43 -310 183 -333 204
-19 16 -212 72 -370 108 -403 89 -787 122 -1230 104z"/>
<path d="M9745 10767 c160 -76 239 -108 258 -105 21 3 20 4 -8 20 l-30 17 55
1 c74 0 97 15 44 28 -38 9 -228 39 -309 48 l-40 5 30 -14z"/>
<path d="M11119 10363 c-30 -33 -59 -78 -59 -92 0 -6 12 -8 28 -5 41 8 165
-21 211 -50 27 -17 42 -22 47 -15 8 13 -168 189 -189 189 -7 0 -25 -12 -38
-27z"/>
<path d="M11453 9993 c-22 -34 -31 -44 -62 -66 -28 -18 -28 -18 64 -37 72 -15
122 -39 194 -92 l54 -41 -7 38 c-8 39 -38 83 -113 164 -24 25 -43 49 -43 54 0
4 -16 7 -35 7 -27 0 -38 -6 -52 -27z"/>
<path d="M11788 9583 c-10 -3 -18 -14 -18 -26 0 -16 -14 -31 -47 -51 l-48 -29
55 -18 c103 -35 170 -77 248 -157 44 -46 52 -51 52 -32 0 49 -26 109 -89 208
-50 79 -70 102 -87 102 -12 0 -28 2 -36 4 -7 2 -21 2 -30 -1z"/>
<path d="M12083 9073 c-7 -2 -13 -16 -13 -29 0 -21 -10 -30 -55 -50 -30 -14
-55 -27 -55 -29 0 -3 26 -17 58 -32 31 -15 63 -33 70 -40 7 -7 17 -13 20 -13
13 0 101 -89 141 -143 22 -28 51 -74 65 -102 26 -51 36 -38 16 21 -5 16 -13
81 -18 144 -9 110 -11 118 -52 189 l-43 73 -37 -6 c-27 -4 -41 -2 -50 9 -13
15 -25 17 -47 8z"/>
<path d="M12357 8473 c-9 -3 -24 -20 -32 -39 -8 -19 -20 -34 -27 -34 -7 0 -19
-4 -27 -9 -21 -14 6 -78 59 -136 59 -66 90 -104 90 -110 0 -2 15 -28 33 -57
32 -52 75 -166 96 -260 15 -63 14 -68 -9 -68 -14 0 -20 -7 -20 -22 0 -13 -4
-29 -9 -37 -5 -8 -3 -34 5 -65 26 -96 83 -391 98 -511 45 -357 53 -536 31
-696 -34 -245 -79 -467 -125 -625 -11 -38 -25 -85 -30 -104 -35 -127 -106
-323 -174 -485 -50 -118 -187 -394 -216 -435 -10 -14 -30 -49 -46 -79 -33 -61
-36 -67 -84 -141 -19 -30 -38 -56 -42 -58 -5 -2 -8 -8 -8 -14 0 -6 -22 -41
-50 -78 -27 -37 -50 -72 -50 -78 0 -12 121 -82 132 -76 31 19 257 437 342 634
15 36 32 74 37 85 8 20 46 123 92 250 14 39 35 104 47 145 12 41 28 95 36 120
17 56 73 281 84 335 5 25 6 7 3 -50 -3 -49 -9 -97 -13 -105 -4 -8 -10 -40 -14
-70 -9 -69 -84 -363 -126 -495 -78 -243 -259 -656 -377 -858 -28 -48 -28 -48
-8 -63 25 -19 28 -16 137 160 173 278 359 681 448 971 12 39 25 81 30 95 66
191 126 495 172 870 18 143 17 749 0 890 -36 285 -69 487 -84 506 -5 7 -38 14
-73 16 -36 2 -69 8 -74 13 -17 17 -41 126 -51 233 -10 110 -6 195 16 279 14
55 12 67 -25 165 l-22 56 -55 -5 c-51 -5 -58 -4 -77 19 -13 15 -29 23 -40 21z"/>
<path d="M6195 8218 c-3 -18 -4 -220 -3 -448 l3 -415 1190 0 1190 0 3 448 c2
337 -1 447 -10 447 -18 0 -106 -59 -114 -78 -4 -9 -10 -163 -13 -342 l-6 -325
-165 -3 c-91 -1 -175 0 -187 3 -22 5 -23 10 -23 104 0 98 0 99 -31 125 l-31
26 -266 0 c-266 0 -267 0 -311 -25 -23 -14 -47 -25 -51 -25 -5 0 -10 18 -12
40 l-3 40 -60 -41 c-33 -22 -62 -43 -65 -45 -3 -3 -7 -49 -10 -102 l-5 -97
-74 -3 c-81 -3 -93 2 -169 72 -28 25 -58 69 -80 114 -20 41 -55 94 -80 119
-42 43 -46 45 -89 40 -71 -8 -87 -31 -84 -124 l1 -41 30 11 c41 16 59 3 91
-61 14 -29 40 -67 57 -85 18 -18 29 -36 26 -40 -4 -4 -119 -7 -255 -7 -216 0
-248 2 -253 16 -3 9 -6 152 -6 319 0 170 -4 315 -10 329 -5 14 -28 37 -50 51
-64 40 -68 41 -75 3z m1702 -603 c24 -17 38 -64 28 -95 -6 -19 -14 -20 -286
-20 l-279 0 0 65 0 65 258 0 c213 0 261 -3 279 -15z"/>
<path d="M8895 8225 c-79 -49 -75 -22 -75 -473 l0 -403 63 3 62 3 3 448 c1
246 -1 447 -5 447 -5 0 -26 -12 -48 -25z"/>
<path d="M10690 7831 c-34 -18 -35 -20 -38 -85 l-3 -66 41 6 c27 4 50 2 65 -6
30 -16 129 -156 120 -170 -9 -15 -428 -13 -443 2 -7 7 -12 43 -12 91 l0 78
-62 -43 c-59 -41 -63 -47 -68 -88 l-5 -45 -219 -3 c-153 -2 -223 1 -232 9 -9
8 -14 33 -14 75 0 37 -4 64 -10 64 -22 0 -109 -51 -124 -72 -13 -18 -16 -51
-16 -154 0 -73 -3 -139 -6 -148 -5 -13 -23 -16 -95 -16 -102 0 -106 -4 -59
-68 73 -102 201 -109 278 -16 27 32 32 47 32 90 0 93 -62 84 596 84 l583 0 25
-36 25 -37 3 34 3 34 325 5 325 5 3 220 c1 121 0 225 -3 233 -3 9 -16 7 -52
-11 -35 -18 -70 -26 -130 -29 -70 -4 -87 -9 -120 -33 -72 -54 -98 -94 -117
-180 l-11 -50 -122 -3 -121 -3 -26 33 c-35 44 -32 39 -108 153 -68 102 -96
134 -135 154 -29 15 -32 14 -73 -8z m885 -261 l0 -65 -80 0 -80 0 -2 30 c-3
33 7 49 51 83 22 17 40 22 70 20 l41 -3 0 -65z"/>
<path d="M5542 7820 c-25 -21 -103 -40 -165 -40 -68 0 -109 -17 -158 -63 -73
-71 -83 -100 -89 -267 -6 -160 -12 -179 -69 -206 -24 -12 -53 -15 -102 -12
-61 3 -73 7 -100 35 -31 30 -31 31 -30 131 1 55 -3 103 -7 106 -15 9 -94 -66
-113 -108 -40 -87 -15 -197 57 -252 125 -98 297 -92 414 12 76 69 80 81 80
240 0 118 3 144 20 180 23 46 67 74 119 74 46 0 53 -23 49 -171 l-3 -130 65 3
65 3 3 234 c1 129 -1 238 -5 242 -5 4 -18 -1 -31 -11z"/>
<path d="M5906 7631 c-84 -42 -85 -45 -86 -203 0 -75 -3 -143 -6 -152 -5 -13
-23 -16 -89 -16 -46 0 -86 -4 -89 -9 -9 -13 12 -63 34 -83 10 -9 35 -24 56
-33 107 -45 232 7 248 103 9 56 7 410 -2 416 -5 3 -34 -8 -66 -23z"/>
<path d="M10645 6647 c-88 -4 -163 -11 -168 -16 -4 -4 -15 -104 -23 -222 -8
-118 -19 -263 -24 -324 -5 -60 -13 -173 -16 -251 -6 -122 -4 -144 10 -166 25
-38 62 -49 152 -46 l79 3 7 90 c4 50 11 126 15 170 l8 80 45 0 c51 0 55 -5 91
-125 50 -166 114 -240 209 -240 67 0 170 62 170 102 0 21 -27 63 -127 196 -34
47 -63 89 -63 94 0 4 17 19 39 32 96 61 151 173 151 307 0 145 -56 243 -164
290 -66 29 -183 36 -391 26z m245 -215 c45 -22 60 -53 60 -125 0 -65 -25 -114
-73 -142 -28 -17 -146 -23 -169 -9 -11 7 -6 234 7 266 8 20 25 25 90 27 30 1
64 -6 85 -17z"/>
<path d="M6903 6641 c-60 -15 -144 -64 -184 -108 -59 -65 -79 -119 -79 -218 0
-150 54 -216 241 -295 116 -49 134 -62 147 -97 21 -63 -25 -105 -115 -104 -66
0 -119 19 -183 66 -25 19 -58 37 -72 40 -35 9 -48 -16 -55 -109 -5 -67 -4 -73
21 -103 73 -87 307 -138 453 -99 86 23 154 74 190 141 29 54 42 150 29 208
-26 111 -75 157 -246 232 -56 24 -116 55 -135 70 -31 23 -35 31 -35 71 0 38 5
51 31 75 26 24 40 29 81 29 27 0 58 -5 69 -10 23 -13 49 -71 49 -111 0 -29 1
-29 58 -29 100 0 155 55 154 155 0 83 -29 130 -107 181 -25 15 -51 19 -155 21
-69 1 -140 -2 -157 -6z"/>
<path d="M4978 6623 c-43 -52 -234 -517 -319 -778 -59 -180 -33 -225 133 -225
l83 0 14 58 c7 31 19 81 27 110 l15 52 134 0 134 0 10 -37 c5 -21 12 -52 16
-70 3 -18 15 -44 27 -58 34 -44 69 -55 173 -55 l95 0 0 41 c0 39 -26 148 -145
614 -68 268 -79 297 -122 335 -33 30 -36 30 -147 30 -95 0 -115 -3 -128 -17z
m141 -265 c37 -196 52 -291 47 -304 -8 -20 -164 -20 -172 0 -3 7 9 63 26 122
76 263 81 273 99 182z"/>
<path d="M5716 6618 c-3 -12 -7 -70 -11 -128 -3 -58 -10 -157 -15 -220 -47
-592 -47 -586 4 -625 33 -25 35 -25 244 -25 116 0 218 3 227 6 26 10 45 59 45
117 0 41 -4 56 -16 61 -9 3 -73 6 -144 6 -103 0 -129 3 -133 15 -4 8 -2 54 3
102 14 136 30 360 36 511 6 135 5 137 -19 167 -24 29 -28 30 -121 33 -93 4
-95 3 -100 -20z"/>
<path d="M7746 6617 c-25 -37 -110 -224 -166 -362 -28 -71 -58 -143 -66 -160
-36 -81 -114 -339 -114 -380 0 -76 42 -99 175 -93 l70 3 8 40 c5 22 13 48 18
57 5 10 9 26 9 36 0 11 5 33 11 51 l11 31 134 0 c99 0 136 -3 139 -12 2 -7 9
-40 16 -73 9 -49 19 -67 51 -97 l39 -38 104 0 105 0 0 38 c0 49 -35 192 -184
762 -33 128 -42 150 -79 188 l-31 32 -118 0 c-111 0 -118 -1 -132 -23z m156
-327 c31 -184 37 -233 32 -242 -3 -4 -44 -8 -90 -8 l-86 0 7 42 c4 23 15 67
25 98 10 30 28 92 41 138 32 115 48 109 71 -28z"/>
<path d="M8485 6630 c-3 -5 -10 -72 -15 -147 -11 -150 -24 -330 -40 -518 -5
-66 -10 -158 -10 -203 0 -81 1 -85 31 -113 30 -28 35 -29 124 -29 l93 0 6 53
c3 28 11 113 16 187 16 203 -3 181 158 178 l137 -3 -1 -40 c0 -22 -5 -99 -9
-172 l-8 -132 35 -35 c36 -36 36 -36 127 -36 65 0 93 4 96 13 2 6 11 111 20
232 8 121 20 276 25 345 16 201 17 343 2 372 -24 44 -62 58 -156 58 l-86 0 -1
-67 c0 -38 -6 -126 -12 -198 l-12 -130 -138 -3 c-121 -2 -138 -1 -144 14 -3
10 -1 70 5 134 13 139 4 188 -40 225 -26 22 -39 25 -113 25 -46 0 -87 -4 -90
-10z"/>
<path d="M9724 6608 c-23 -39 -36 -65 -99 -213 -70 -164 -114 -272 -142 -350
-13 -38 -28 -79 -33 -90 -17 -42 -63 -200 -67 -237 -5 -33 -1 -41 27 -68 31
-29 35 -30 126 -30 l93 0 10 38 c5 20 18 69 28 107 l18 70 137 3 136 3 12 -57
c29 -139 65 -166 213 -162 l92 3 -3 52 c-1 29 -25 141 -53 250 -28 109 -55
214 -59 233 -5 19 -13 51 -19 70 -5 19 -26 98 -46 174 -60 229 -61 230 -229
234 l-121 3 -21 -33z m170 -360 c14 -81 26 -160 26 -177 l0 -31 -86 0 -86 0 5
38 c6 46 62 248 83 298 9 20 19 33 24 28 4 -5 20 -75 34 -156z"/>
<path d="M11419 6608 c0 -18 -2 -44 -4 -58 -2 -14 -9 -90 -15 -170 -7 -80 -16
-194 -21 -255 -5 -60 -12 -186 -15 -280 l-6 -170 27 -25 c24 -23 36 -25 125
-28 l98 -4 6 59 c3 32 11 126 16 208 6 83 15 206 20 275 21 260 24 377 10 410
-23 54 -57 70 -154 70 l-86 0 -1 -32z"/>
<path d="M7930 5144 c-195 -9 -549 -42 -790 -74 -123 -16 -530 -95 -620 -120
-19 -6 -78 -21 -130 -34 -201 -52 -335 -91 -518 -152 -164 -54 -453 -168 -662
-261 -75 -34 -419 -205 -500 -249 -242 -133 -683 -418 -688 -444 -1 -9 6 -24
15 -35 10 -11 29 -36 43 -55 13 -19 27 -37 31 -40 3 -3 55 -68 114 -145 58
-77 114 -149 123 -160 10 -11 33 -40 52 -65 19 -25 42 -54 52 -65 16 -19 156
-200 201 -259 34 -44 118 -150 126 -159 7 -7 94 50 216 140 55 41 105 73 113
73 6 0 12 3 14 8 4 10 196 130 298 186 47 26 101 56 120 67 125 71 476 233
605 279 33 12 69 25 80 30 11 5 61 23 110 40 50 17 101 35 115 40 111 39 405
120 528 145 310 63 478 89 752 117 166 17 823 17 985 0 365 -39 720 -103 1000
-182 17 -4 57 -16 90 -24 71 -20 212 -64 240 -76 11 -5 31 -12 45 -15 14 -4
39 -13 55 -20 17 -7 86 -34 155 -60 145 -56 282 -116 430 -189 94 -47 137 -70
286 -151 110 -61 450 -280 511 -329 65 -53 115 -86 124 -80 9 5 57 66 257 324
53 69 107 136 119 150 13 14 23 28 23 32 0 3 6 13 13 20 14 15 106 131 158
198 19 25 39 52 46 60 7 8 44 56 83 105 l70 90 -32 28 c-102 87 -485 326 -752
467 -174 92 -437 220 -451 220 -2 0 -35 14 -72 31 -38 17 -90 40 -118 50 -27
11 -59 23 -70 28 -121 54 -492 181 -655 225 -373 102 -500 132 -690 166 -36 6
-83 15 -105 20 -22 5 -76 14 -120 20 -44 6 -102 15 -130 20 -47 8 -231 27
-485 50 -119 10 -678 20 -810 14z m715 -244 c110 -7 233 -16 273 -21 40 -5 96
-9 122 -9 45 0 51 -3 65 -30 8 -16 15 -37 15 -48 0 -10 3 -22 7 -26 11 -10 33
-79 33 -103 0 -24 -42 -43 -96 -43 -28 0 -38 6 -58 39 -14 21 -39 49 -55 60
-35 25 -144 51 -217 51 -50 0 -52 -1 -58 -31 -3 -17 -6 -49 -6 -69 0 -37 1
-38 41 -45 46 -8 58 -1 73 47 12 37 29 43 93 33 l45 -7 -6 -61 c-4 -34 -9 -95
-12 -135 -7 -88 -20 -101 -91 -93 -46 6 -48 7 -54 45 -7 45 -21 56 -71 56 -34
0 -38 -3 -43 -33 -4 -17 -5 -55 -3 -82 l3 -50 75 -8 c137 -15 238 18 308 99
l40 47 48 -15 c69 -22 73 -34 32 -99 -19 -30 -53 -83 -74 -117 l-39 -64 -90 6
c-49 3 -189 12 -310 20 -121 9 -248 17 -283 20 -35 2 -66 7 -70 10 -9 10 -3
78 9 92 6 7 29 14 52 16 46 3 51 13 61 111 20 183 26 237 32 278 7 52 1 59
-56 69 -32 5 -35 9 -32 35 6 73 9 77 55 71 23 -3 132 -10 242 -16z m-513 -2
c3 -7 4 -28 4 -47 -1 -31 -5 -35 -39 -45 -46 -13 -248 -172 -241 -189 3 -7 71
-68 151 -137 123 -105 152 -125 187 -130 38 -5 42 -8 50 -43 16 -62 0 -70
-156 -78 -73 -4 -167 -10 -208 -14 -89 -8 -103 1 -98 61 3 32 7 39 36 49 l34
11 -86 78 c-96 87 -85 85 -160 23 -29 -23 -30 -26 -20 -73 l9 -49 50 -5 50 -5
3 -47 c2 -38 0 -47 -15 -52 -28 -8 -403 -28 -419 -22 -11 4 -14 19 -12 53 3
47 4 48 38 51 19 2 39 7 43 12 11 10 -30 397 -45 428 -9 17 -20 22 -48 22 -46
0 -60 15 -60 61 0 35 2 38 38 43 33 6 336 26 388 26 18 0 22 -8 27 -42 7 -50
-5 -68 -43 -68 -46 0 -53 -18 -40 -109 9 -55 16 -79 24 -74 6 4 49 39 95 77
46 39 92 77 102 85 27 20 23 29 -13 33 -32 3 -33 5 -36 51 -4 55 -9 52 113 65
142 14 292 14 297 0z m1388 -97 c25 -5 88 -19 140 -31 52 -12 111 -26 130 -31
19 -4 69 -15 110 -23 41 -8 106 -26 145 -38 118 -39 192 -129 171 -211 -19
-76 -110 -140 -218 -152 -32 -4 -58 -12 -58 -17 0 -6 23 -51 51 -100 51 -88
91 -128 132 -128 10 0 17 -8 17 -20 0 -22 -20 -72 -34 -81 -11 -9 -66 -1 -179
25 l-92 21 -85 170 c-80 161 -87 170 -114 170 -26 0 -30 -6 -53 -68 -28 -75
-24 -90 27 -101 34 -6 37 -20 16 -71 -13 -30 -20 -35 -49 -35 -19 0 -79 11
-133 24 -54 13 -134 32 -176 41 -86 20 -90 25 -60 85 17 33 20 35 61 32 47 -3
71 10 71 39 0 11 3 19 8 19 4 0 13 19 20 43 8 23 34 92 58 154 58 143 60 164
17 176 -39 12 -48 34 -31 73 18 41 31 54 48 49 8 -3 35 -9 60 -14z m-2850
-113 c28 -24 233 -218 354 -333 74 -70 98 -85 134 -85 34 0 39 -4 55 -41 20
-47 13 -64 -31 -72 -15 -3 -83 -19 -152 -37 -223 -57 -217 -57 -240 0 -15 37
-7 60 20 60 37 0 36 30 -2 66 -40 36 -25 36 -176 -1 -77 -19 -88 -32 -80 -86
3 -21 9 -24 50 -27 43 -3 49 -6 64 -37 9 -19 14 -41 11 -48 -6 -15 -321 -99
-341 -91 -14 5 -36 52 -36 75 0 10 9 21 20 24 38 12 39 15 70 430 15 195 15
193 64 205 22 6 55 14 71 19 65 19 108 13 145 -21z m3942 -174 c51 -20 107
-42 123 -49 17 -8 56 -23 88 -35 31 -12 57 -28 57 -35 0 -8 -10 -30 -21 -50
-21 -35 -23 -36 -65 -29 l-44 6 0 -65 c0 -36 4 -77 10 -91 10 -29 9 -29 148
35 65 30 76 43 42 54 -11 3 -20 13 -20 22 0 23 40 83 55 83 8 0 71 -22 142
-50 70 -27 133 -50 139 -50 20 0 25 -30 10 -59 -22 -42 -40 -53 -78 -46 -28 5
-64 -6 -193 -60 -88 -36 -179 -73 -203 -82 -33 -12 -51 -28 -82 -74 -47 -68
-51 -94 -15 -103 37 -9 40 -29 11 -75 -28 -44 -33 -46 -68 -31 -13 5 -66 26
-118 46 -52 19 -108 42 -125 49 -16 7 -45 18 -62 25 -39 15 -41 30 -12 77 22
34 23 35 74 28 59 -7 68 -1 112 68 24 38 25 47 19 116 -3 42 -15 123 -25 179
-16 91 -21 107 -47 127 l-28 23 28 41 c16 22 35 41 42 41 8 0 56 -16 106 -36z
m-4668 -77 c22 -12 49 -35 60 -50 27 -37 28 -103 2 -142 -26 -40 -27 -40 19
-37 102 8 225 -77 225 -155 0 -96 -73 -167 -246 -238 -49 -20 -102 -42 -119
-50 -78 -35 -294 -115 -311 -115 -21 0 -64 49 -64 73 0 8 14 20 30 27 17 7 30
19 30 26 0 8 -48 85 -107 172 -163 238 -141 216 -209 216 -55 1 -59 3 -77 34
-11 19 -16 37 -11 42 9 9 305 128 449 182 140 52 252 57 329 15z"/>
<path d="M9699 4593 c-6 -16 -15 -39 -19 -53 -4 -14 -11 -32 -14 -41 -5 -12 3
-18 31 -27 135 -42 236 -42 265 2 17 25 8 65 -19 84 -23 16 -189 62 -224 62
-5 0 -14 -12 -20 -27z"/>
<path d="M5630 4288 c-85 -32 -85 -32 -38 -99 34 -48 46 -58 62 -53 41 12 121
55 134 71 33 45 -5 103 -67 102 -20 0 -61 -9 -91 -21z"/>
<path d="M5773 4056 c-28 -12 -55 -24 -58 -28 -10 -10 77 -137 97 -143 22 -8
116 32 147 61 31 29 31 77 0 110 -19 20 -32 24 -78 23 -33 0 -77 -10 -108 -23z"/>
<path d="M7010 3590 c-39 -7 -81 -27 -92 -44 -26 -39 7 -83 74 -97 96 -21 126
-49 73 -69 -31 -12 -70 2 -85 30 -20 38 -87 20 -77 -22 17 -67 181 -81 242
-20 55 55 18 113 -82 127 -52 7 -80 25 -68 45 12 19 59 10 87 -17 24 -23 31
-25 53 -15 28 13 33 43 9 62 -20 17 -90 27 -134 20z"/>
<path d="M8644 3547 c-16 -14 -46 -32 -67 -40 -45 -19 -52 -52 -9 -45 15 3 35
8 44 12 15 7 17 -1 20 -76 3 -75 5 -83 24 -86 38 -5 45 18 42 139 -2 72 -7
114 -14 116 -6 2 -24 -7 -40 -20z"/>
<path d="M8868 3556 c-76 -27 -97 -82 -52 -135 27 -32 29 -33 86 -27 45 6 58
4 58 -7 0 -36 -59 -50 -91 -21 -21 19 -69 12 -69 -11 0 -25 42 -45 98 -45 64
0 84 9 111 54 32 51 29 127 -6 165 -34 35 -84 45 -135 27z"/>
<path d="M9112 3540 c-56 -35 -62 -90 -13 -134 17 -15 31 -18 76 -13 59 6 71
-5 39 -37 -21 -22 -47 -20 -69 4 -24 26 -59 22 -63 -7 -7 -52 97 -72 159 -30
18 12 39 34 46 47 15 30 17 114 3 141 -26 48 -121 64 -178 29z"/>
<path d="M9403 3546 c-34 -16 -58 -49 -49 -72 8 -20 21 -17 52 11 32 30 79 33
93 6 13 -24 1 -38 -71 -85 -31 -20 -63 -47 -71 -60 -27 -40 -10 -47 104 -44
96 3 104 4 104 23 0 17 -8 20 -52 23 -59 3 -66 13 -26 39 88 57 109 110 60
151 -24 20 -107 24 -144 8z"/>
<path d="M7350 3510 c-10 -6 -14 -30 -15 -92 0 -79 1 -83 23 -86 35 -5 52 15
52 63 0 58 8 75 34 75 35 0 46 -20 46 -81 0 -61 9 -72 47 -58 17 6 22 18 25
66 3 32 0 69 -6 83 -15 34 -56 47 -106 33 -23 -6 -43 -6 -46 -2 -7 12 -35 11
-54 -1z"/>
<path d="M7682 3506 c-80 -28 -106 -97 -59 -152 33 -38 109 -45 171 -14 31 14
46 28 46 41 0 26 -33 25 -70 -2 -26 -20 -32 -21 -60 -9 -28 12 -31 16 -28 54
3 37 6 41 31 44 17 2 36 -3 47 -13 11 -10 30 -15 47 -13 41 5 38 38 -7 60 -40
21 -71 22 -118 4z"/>
<path d="M7934 3496 c-65 -29 -82 -93 -39 -144 29 -34 75 -44 141 -30 49 11
84 42 66 60 -8 8 -7 17 4 34 43 65 -77 121 -172 80z"/>
<path d="M10664 3218 c-53 -37 -164 -105 -294 -182 -90 -53 -358 -185 -480
-236 -379 -160 -751 -262 -1175 -321 -349 -48 -864 -50 -1190 -4 -194 28 -378
63 -530 101 -141 35 -421 121 -440 134 -5 4 -23 10 -40 14 -54 13 -337 138
-494 218 -150 77 -310 170 -400 231 -41 28 -45 29 -70 15 -138 -79 -171 -101
-171 -111 0 -7 22 -45 50 -86 54 -79 64 -127 35 -165 -8 -11 -15 -25 -15 -32
0 -13 111 -92 249 -176 51 -32 95 -58 97 -58 2 0 27 -14 56 -32 53 -31 363
-188 373 -188 2 0 30 -12 61 -26 101 -46 283 -113 428 -158 235 -73 531 -140
731 -165 44 -6 123 -16 175 -23 61 -8 225 -13 460 -12 363 0 405 2 705 43 259
36 716 158 940 251 11 4 45 18 75 30 139 57 348 156 489 234 136 75 345 205
349 217 2 5 8 9 13 9 22 0 389 285 389 302 0 16 -20 5 -116 -64 -229 -165
-617 -377 -900 -491 -320 -130 -645 -220 -983 -272 -111 -18 -134 -18 -126 -5
3 6 23 10 44 10 20 0 41 4 47 9 5 5 27 11 49 14 51 6 245 57 420 110 349 107
715 275 1040 476 86 53 247 163 290 197 11 8 46 34 77 57 32 23 59 47 62 54 3
7 -23 28 -62 49 -37 21 -82 46 -100 56 -18 10 -38 18 -46 18 -7 0 -39 -19 -72
-42z"/>
<path d="M4238 3156 c-48 -24 -129 -60 -180 -81 -51 -20 -102 -41 -113 -46
-51 -21 -268 -88 -337 -104 -77 -17 -95 -29 -60 -39 176 -54 274 -67 515 -71
263 -3 262 -3 253 -77 -7 -49 -54 -170 -68 -176 -4 -2 -8 -8 -8 -13 0 -21 -93
-137 -192 -241 -10 -10 -18 -20 -18 -23 0 -29 428 57 633 126 183 62 351 141
476 224 111 74 227 186 164 160 -10 -4 -90 -22 -178 -40 -189 -38 -348 -51
-385 -32 -22 11 -140 155 -322 394 -35 46 -70 82 -78 82 -8 0 -54 -20 -102
-43z"/>
<path d="M12053 3163 c-15 -21 -46 -61 -68 -88 -22 -28 -53 -68 -70 -89 -16
-21 -60 -78 -98 -125 -37 -47 -78 -99 -91 -116 l-23 -30 -109 3 c-98 2 -351
42 -451 71 -18 5 -33 7 -33 4 0 -23 181 -161 280 -214 25 -13 47 -26 50 -29 5
-5 69 -36 131 -64 76 -33 258 -96 349 -119 229 -59 487 -102 479 -80 -2 6 -33
41 -68 79 -111 120 -188 250 -210 353 -9 43 -9 58 2 74 12 18 27 20 237 22
229 3 363 20 493 62 55 18 59 29 15 38 -18 4 -46 10 -63 15 -16 5 -50 14 -75
21 -151 39 -360 120 -546 210 -44 21 -86 39 -92 39 -6 0 -24 -17 -39 -37z"/>
<path d="M5154 2948 c-111 -74 -155 -108 -138 -108 5 0 41 7 79 15 39 8 104
22 145 31 116 24 117 26 78 81 -18 26 -38 48 -44 50 -5 2 -59 -29 -120 -69z"/>
<path d="M11122 2975 c-18 -25 -32 -49 -32 -54 0 -8 86 -30 273 -72 42 -10 69
-7 56 5 -14 13 -252 166 -258 166 -4 0 -22 -20 -39 -45z"/>
</g>
</svg>
