<svg id="Layer_1" enable-background="new 0 0 480.01 480.01" height="512" viewBox="0 0 480.01 480.01" width="512" xmlns="http://www.w3.org/2000/svg"><path d="m426.891 214.158c-.477-.396-42.345-35.287-42.822-35.684l-8.866 7.6c-3.355 2.876-8.405 2.486-11.281-.868-2.875-3.354-2.487-8.405.868-11.28l14-12c2.964-2.541 7.329-2.571 10.328-.072l34.878 29.065v-134.919c0-22.056-17.944-40-40-40s-40 17.944-40 40v416c0 4.418-3.582 8-8 8s-8-3.582-8-8v-416c0-15.658 6.467-29.828 16.862-40h-248.862c-22.056 0-40 17.944-40 40v398.92l34.878-29.065c2.967-2.472 7.276-2.472 10.243 0l42.878 35.732 42.878-35.732c2.967-2.472 7.276-2.472 10.243 0l42.878 35.732 42.878-35.732c2.967-2.472 7.276-2.472 10.243 0l12.082 10.068c3.394 2.828 3.853 7.873 1.024 11.267s-7.874 3.853-11.267 1.024l-6.96-5.801-42.878 35.732c-2.967 2.472-7.276 2.472-10.243 0l-42.878-35.732-42.878 35.732c-2.967 2.472-7.276 2.472-10.243 0l-42.878-35.732-42.878 35.732c-5.207 4.338-13.122.618-13.122-6.146v-415.999c0-30.878 25.122-56 56-56h288c30.878 0 56 25.122 56 56 0 163.182.115 152.471-.24 153.913-1.411 5.749-8.357 7.985-12.865 4.245zm-234.895-54.158c-4.411 0-8-3.589-8-8 0-4.418-3.582-8-8-8s-8 3.582-8 8c0 9.27 5.286 17.324 13 21.32v4.68c0 4.418 3.582 8 8 8s8-3.582 8-8v-2.528c10.841-2.307 19-11.953 19-23.472v-3.237c0-10.554-6.768-19.76-16.841-22.907l-9.545-2.983c-3.358-1.049-5.614-4.118-5.614-7.636v-3.237c0-4.411 3.589-8 8-8s8 3.589 8 8c0 4.418 3.582 8 8 8s8-3.582 8-8c0-10.429-6.689-19.322-16-22.624v-3.376c0-4.418-3.582-8-8-8s-8 3.582-8 8v3.376c-9.311 3.302-16 12.195-16 22.624v3.237c0 10.554 6.768 19.76 16.841 22.907l9.545 2.983c3.358 1.049 5.614 4.118 5.614 7.636v3.237c0 4.411-3.589 8-8 8zm-72-20h14c4.418 0 8-3.582 8-8s-3.582-8-8-8h-14c-4.418 0-8 3.582-8 8s3.582 8 8 8zm144-16h-14c-4.418 0-8 3.582-8 8s3.582 8 8 8h14c4.418 0 8-3.582 8-8s-3.581-8-8-8zm0 114h-144c-4.418 0-8 3.582-8 8s3.582 8 8 8h144c4.418 0 8-3.582 8-8s-3.581-8-8-8zm0 72h-16c-4.418 0-8 3.582-8 8s3.582 8 8 8h16c4.418 0 8-3.582 8-8s-3.581-8-8-8zm-144 0c-4.418 0-8 3.582-8 8s3.582 8 8 8h95.834c4.418 0 8-3.582 8-8s-3.582-8-8-8z"/></svg>