<svg xmlns="http://www.w3.org/2000/svg" width="110" height="110" viewBox="0 0 110 110">
  <g id="Group_1764" data-name="Group 1764" transform="translate(-884 -680)">
    <rect id="Rectangle_1522" data-name="Rectangle 1522" width="110" height="110" rx="52" transform="translate(884 680)" fill="#dbf1fb"/>
    <g id="destination" transform="translate(905 700)">
      <path id="Path_2299" data-name="Path 2299" d="M12.467,242a1.132,1.132,0,0,0,.884-.425c.476-.589,11.583-14.526,11.583-21.108a12.467,12.467,0,1,0-24.933,0c0,6.582,11.106,20.513,11.583,21.108a1.132,1.132,0,0,0,.884.425Zm0-31.733a10.211,10.211,0,0,1,10.2,10.2c0,4.4-6.7,14.012-10.2,18.563-3.5-4.549-10.2-14.163-10.2-18.563A10.211,10.211,0,0,1,12.467,210.267Zm0,0" transform="translate(0 -178.534)" fill="#0085c7"/>
      <path id="Path_2300" data-name="Path 2300" d="M65.067,260.533a4.533,4.533,0,1,0-4.533,4.533A4.534,4.534,0,0,0,65.067,260.533Zm-6.8,0a2.267,2.267,0,1,1,2.267,2.267A2.267,2.267,0,0,1,58.267,260.533Zm0,0" transform="translate(-48.067 -219.734)" fill="#0085c7"/>
      <path id="Path_2301" data-name="Path 2301" d="M361.067,23.8a1.131,1.131,0,0,0,.859-.395c.841-.976,8.208-9.671,8.208-14.339a9.067,9.067,0,1,0-18.133,0c0,4.667,7.367,13.363,8.208,14.339A1.131,1.131,0,0,0,361.067,23.8Zm0-21.533a6.807,6.807,0,0,1,6.8,6.8c0,2.872-4.327,8.79-6.8,11.831-2.474-3.041-6.8-8.953-6.8-11.831A6.807,6.807,0,0,1,361.067,2.267Zm0,0" transform="translate(-302.133)" fill="#0085c7"/>
      <path id="Path_2302" data-name="Path 2302" d="M398.8,35.4a3.4,3.4,0,1,0-3.4,3.4A3.4,3.4,0,0,0,398.8,35.4Zm-4.533,0a1.133,1.133,0,1,1,1.133,1.133A1.133,1.133,0,0,1,394.267,35.4Zm0,0" transform="translate(-336.467 -27.467)" fill="#0085c7"/>
      <path id="Path_2303" data-name="Path 2303" d="M401.133,186.267h1.133a1.133,1.133,0,0,0,0-2.267h-1.133a1.133,1.133,0,0,0,0,2.267Zm0,0" transform="translate(-343.333 -157.934)" fill="#0085c7"/>
      <path id="Path_2304" data-name="Path 2304" d="M297.08,234.267h2.292a1.133,1.133,0,1,0,0-2.267h-2.31a1.126,1.126,0,0,0-1.124,1.133A1.141,1.141,0,0,0,297.08,234.267Zm0,0" transform="translate(-254.013 -199.134)" fill="#0085c7"/>
      <path id="Path_2305" data-name="Path 2305" d="M393.688,233.133a1.133,1.133,0,0,0,1.133,1.133h2.309a1.133,1.133,0,0,0,0-2.267h-2.309A1.133,1.133,0,0,0,393.688,233.133Zm0,0" transform="translate(-337.916 -199.134)" fill="#0085c7"/>
      <path id="Path_2306" data-name="Path 2306" d="M352.231,186.267h2.309a1.133,1.133,0,1,0,0-2.267h-2.309a1.133,1.133,0,0,0,0,2.267Zm0,0" transform="translate(-301.359 -157.934)" fill="#0085c7"/>
      <path id="Path_2307" data-name="Path 2307" d="M124.857,464h-2.31a1.133,1.133,0,0,0,0,2.267h2.31a1.133,1.133,0,0,0,0-2.267Zm0,0" transform="translate(-104.214 -398.267)" fill="#0085c7"/>
      <path id="Path_2308" data-name="Path 2308" d="M273.2,201.6a1.112,1.112,0,0,0,.235-.025,1.133,1.133,0,0,0,.876-1.341,2.357,2.357,0,0,1-.049-.47,2.266,2.266,0,0,1,.247-1.032,1.133,1.133,0,1,0-2.02-1.028,4.534,4.534,0,0,0-.4,2.992A1.134,1.134,0,0,0,273.2,201.6Zm0,0" transform="translate(-233.466 -169.168)" fill="#0085c7"/>
      <path id="Path_2309" data-name="Path 2309" d="M345.934,234.267h2.31a1.133,1.133,0,0,0,0-2.267h-2.31a1.133,1.133,0,0,0,0,2.267Zm0,0" transform="translate(-295.954 -199.134)" fill="#0085c7"/>
      <path id="Path_2310" data-name="Path 2310" d="M303.324,186.267h2.31a1.133,1.133,0,1,0,0-2.267h-2.31a1.133,1.133,0,1,0,0,2.267Zm0,0" transform="translate(-259.381 -157.934)" fill="#0085c7"/>
      <path id="Path_2311" data-name="Path 2311" d="M225.93,313a1.1,1.1,0,0,0,.275.034,1.134,1.134,0,0,0,1.1-.859,4,4,0,0,1,.808-1.587,1.133,1.133,0,1,0-1.735-1.458,6.243,6.243,0,0,0-1.272,2.494A1.133,1.133,0,0,0,225.93,313Zm0,0" transform="translate(-193.186 -264.97)" fill="#0085c7"/>
      <path id="Path_2312" data-name="Path 2312" d="M369.224,463.607a5.526,5.526,0,0,1-.734.048h-1.427a1.133,1.133,0,1,0,0,2.267h1.427a7.954,7.954,0,0,0,1.02-.066,1.134,1.134,0,1,0-.29-2.248Zm0,0" transform="translate(-314.09 -397.921)" fill="#0085c7"/>
      <path id="Path_2313" data-name="Path 2313" d="M377.646,368.339a7.929,7.929,0,0,0-2.313-.34h-.3a1.133,1.133,0,0,0,0,2.267h.3a5.714,5.714,0,0,1,1.654.245,1.111,1.111,0,0,0,.33.05,1.133,1.133,0,0,0,.33-2.217Zm0,0" transform="translate(-320.933 -315.866)" fill="#0085c7"/>
      <path id="Path_2314" data-name="Path 2314" d="M362.411,298.267a1.133,1.133,0,1,0,0-2.267H360.1a1.133,1.133,0,1,0,0,2.267Zm0,0" transform="translate(-308.115 -254.067)" fill="#0085c7"/>
      <path id="Path_2315" data-name="Path 2315" d="M413.491,435.784a1.133,1.133,0,0,0-1.5.567,5.655,5.655,0,0,1-1.071,1.587,1.133,1.133,0,1,0,1.637,1.566,7.9,7.9,0,0,0,1.5-2.222A1.134,1.134,0,0,0,413.491,435.784Zm0,0" transform="translate(-352.423 -373.962)" fill="#0085c7"/>
      <path id="Path_2316" data-name="Path 2316" d="M457.006,273.124a1.134,1.134,0,0,0-1.409.766,3.438,3.438,0,0,1-.885,1.466,1.134,1.134,0,0,0,1.587,1.621,5.7,5.7,0,0,0,1.473-2.445,1.133,1.133,0,0,0-.766-1.409Zm0,0" transform="translate(-390.002 -234.392)" fill="#0085c7"/>
      <path id="Path_2317" data-name="Path 2317" d="M445.433,237.254a1.133,1.133,0,0,0,.844-1.89,5.7,5.7,0,0,0-2.38-1.578,1.134,1.134,0,1,0-.737,2.144,3.4,3.4,0,0,1,1.428.947,1.135,1.135,0,0,0,.844.376Zm0,0" transform="translate(-379.723 -200.613)" fill="#0085c7"/>
      <path id="Path_2318" data-name="Path 2318" d="M328.45,368h-2.309a1.133,1.133,0,0,0,0,2.267h2.309a1.133,1.133,0,0,0,0-2.267Zm0,0" transform="translate(-278.965 -315.867)" fill="#0085c7"/>
      <path id="Path_2319" data-name="Path 2319" d="M411.306,296H409a1.133,1.133,0,1,0,0,2.267h2.31a1.133,1.133,0,1,0,0-2.267Zm0,0" transform="translate(-350.083 -254.067)" fill="#0085c7"/>
      <path id="Path_2320" data-name="Path 2320" d="M173.762,464h-2.309a1.133,1.133,0,0,0,0,2.267h2.309a1.133,1.133,0,0,0,0-2.267Zm0,0" transform="translate(-146.191 -398.267)" fill="#0085c7"/>
      <path id="Path_2321" data-name="Path 2321" d="M417.788,389.562a1.135,1.135,0,1,0-1.874,1.281,5.606,5.606,0,0,1,.793,1.739,1.133,1.133,0,1,0,2.193-.567,7.871,7.871,0,0,0-1.112-2.454Zm0,0" transform="translate(-356.823 -333.95)" fill="#0085c7"/>
      <path id="Path_2322" data-name="Path 2322" d="M234.966,355.64a4.031,4.031,0,0,1-1.38-1.128A1.134,1.134,0,0,0,231.8,355.9a6.289,6.289,0,0,0,2.167,1.769,1.133,1.133,0,0,0,1-2.032Zm0,0" transform="translate(-198.754 -303.914)" fill="#0085c7"/>
      <path id="Path_2323" data-name="Path 2323" d="M222.645,464h-2.312a1.133,1.133,0,0,0,0,2.267h2.312a1.133,1.133,0,1,0,0-2.267Zm0,0" transform="translate(-188.146 -398.267)" fill="#0085c7"/>
      <path id="Path_2324" data-name="Path 2324" d="M320.473,464h-2.309a1.133,1.133,0,1,0,0,2.267h2.309a1.133,1.133,0,1,0,0-2.267Zm0,0" transform="translate(-272.118 -398.267)" fill="#0085c7"/>
      <path id="Path_2325" data-name="Path 2325" d="M264.61,298.267a1.133,1.133,0,1,0,0-2.267H262.3a1.133,1.133,0,1,0,0,2.267Zm0,0" transform="translate(-224.169 -254.067)" fill="#0085c7"/>
      <path id="Path_2326" data-name="Path 2326" d="M313.51,298.267a1.133,1.133,0,1,0,0-2.267H311.2a1.133,1.133,0,1,0,0,2.267Zm0,0" transform="translate(-266.137 -254.067)" fill="#0085c7"/>
      <path id="Path_2327" data-name="Path 2327" d="M279.548,368h-2.309a1.133,1.133,0,1,0,0,2.267h2.309a1.133,1.133,0,0,0,0-2.267Zm0,0" transform="translate(-236.99 -315.867)" fill="#0085c7"/>
      <path id="Path_2328" data-name="Path 2328" d="M271.572,464h-2.31a1.133,1.133,0,1,0,0,2.267h2.31a1.133,1.133,0,0,0,0-2.267Zm0,0" transform="translate(-230.144 -398.267)" fill="#0085c7"/>
      <path id="Path_2329" data-name="Path 2329" d="M82.267,464H81.133a1.133,1.133,0,1,0,0,2.267h1.133a1.133,1.133,0,1,0,0-2.267Zm0,0" transform="translate(-68.667 -398.267)" fill="#0085c7"/>
    </g>
  </g>
</svg>
