<svg xmlns="http://www.w3.org/2000/svg" width="110" height="110" viewBox="0 0 110 110">
  <g id="Group_1763" data-name="Group 1763" transform="translate(-566 -680)">
    <rect id="Rectangle_1519" data-name="Rectangle 1519" width="110" height="110" rx="52" transform="translate(566 680)" fill="#00a662" opacity="0.22"/>
    <g id="return-of-investment" transform="translate(589 705)">
      <path id="Path_2266" data-name="Path 2266" d="M33,38.858A3.992,3.992,0,0,0,32,31a2,2,0,1,1,2-2h2a4,4,0,0,0-3-3.858V23H31v2.142A3.992,3.992,0,0,0,32,33a2,2,0,1,1-2,2H28a4,4,0,0,0,3,3.858V41h2Z" fill="#00a662"/>
      <path id="Path_2267" data-name="Path 2267" d="M32,19A13.015,13.015,0,0,0,19,32h2A11.013,11.013,0,0,1,32,21Z" fill="#00a662"/>
      <path id="Path_2268" data-name="Path 2268" d="M43,32A11.013,11.013,0,0,1,32,43v2A13.015,13.015,0,0,0,45,32Z" fill="#00a662"/>
      <path id="Path_2269" data-name="Path 2269" d="M21.6,8.164a25.9,25.9,0,0,0-8.319,5.792l1.439,1.389A23.952,23.952,0,0,1,22.4,10Z" fill="#00a662"/>
      <path id="Path_2270" data-name="Path 2270" d="M25.761,6.754c-.7.173-1.4.377-2.082.606l.642,1.895c.624-.211,1.27-.4,1.918-.56Z" fill="#00a662"/>
      <path id="Path_2271" data-name="Path 2271" d="M29.922,6.082c-.683.054-1.383.138-2.08.249l.316,1.975c.644-.1,1.29-.181,1.92-.229Z" fill="#00a662"/>
      <path id="Path_2272" data-name="Path 2272" d="M32,3a28.81,28.81,0,0,1,20.506,8.494,1.029,1.029,0,0,0,1.414,0L56,9.414V17H48.414l1.971-1.971a1,1,0,0,0,0-1.414A25.829,25.829,0,0,0,32,6V8a23.828,23.828,0,0,1,16.249,6.337l-2.956,2.956A1,1,0,0,0,46,19H57a1,1,0,0,0,1-1V7a1,1,0,0,0-1.707-.707L53.2,9.384A31,31,0,0,0,1,32H3A29.033,29.033,0,0,1,32,3Z" fill="#00a662"/>
      <path id="Path_2273" data-name="Path 2273" d="M50.72,50.044l-1.439-1.389A23.952,23.952,0,0,1,41.6,54l.8,1.832A25.91,25.91,0,0,0,50.72,50.044Z" fill="#00a662"/>
      <path id="Path_2274" data-name="Path 2274" d="M38.239,57.246c.7-.173,1.4-.377,2.082-.606l-.642-1.9c-.624.211-1.27.4-1.918.56Z" fill="#00a662"/>
      <path id="Path_2275" data-name="Path 2275" d="M34.078,57.918c.683-.054,1.383-.138,2.08-.249l-.316-1.975c-.644.1-1.29.181-1.92.229Z" fill="#00a662"/>
      <path id="Path_2276" data-name="Path 2276" d="M61,32A29,29,0,0,1,11.494,52.506a1.029,1.029,0,0,0-1.414,0L8,54.586V47h7.586l-1.971,1.971a1,1,0,0,0,0,1.414A25.829,25.829,0,0,0,32,58V56a23.828,23.828,0,0,1-16.249-6.337l2.956-2.956A1,1,0,0,0,18,45H7a1,1,0,0,0-1,1V57a1,1,0,0,0,1.707.707L10.8,54.616A31,31,0,0,0,63,32Z" fill="#00a662"/>
      <path id="Path_2277" data-name="Path 2277" d="M49,32A17,17,0,1,0,32,49,17.019,17.019,0,0,0,49,32ZM32,47A15,15,0,1,1,47,32,15.017,15.017,0,0,1,32,47Z" fill="#00a662"/>
    </g>
  </g>
</svg>
