<?xml version="1.0" standalone="yes"?>
<svg width="1600" height="1600">
<path style="fill:#000000; stroke:none;" d="M0 0L0 1600L1600 1600L1600 0L0 0z"/>
<path style="fill:#da161b; stroke:none;" d="M479 196L479 350L862 350L862 196L856 198L856 199L861 198L861 297L860 347L854 346L854 347L856 349L481 349C483.653 338.281 482 325.075 482 314L482 248C482 233.509 485.183 214.772 481 201L488 201L479 196z"/>
<path style="fill:#fe020f; stroke:none;" d="M918 196C915.331 205.012 904.117 206.682 902.259 218C897.547 246.72 902 279.863 902 309C902 318.301 898.692 335.313 902.742 343.721C905.053 348.518 913.683 347 918 347L918 338C923.656 333.057 920 310.476 920 303L920 226C920 215.718 922.3 206.284 921 196L918 196z"/>
<path style="fill:#e82b28; stroke:none;" d="M901 350L901 346L899 346L900 296L901 212L919 197C912.041 199.236 902.309 205.881 899.688 213.015C896.059 222.89 898 235.661 898 246L898 311L898 339C898 343.206 897.171 347.518 901 350z"/>
<path style="fill:#fc0110; stroke:none;" d="M777 288C774.122 286.457 772.09 283.374 768.907 282.434C752.698 277.648 728.936 282 712 282C702.1 282 690.734 280.469 681.039 282.634C674.859 284.013 671.276 289.761 665 291L664 279C657.853 282.358 647.933 285.216 646.279 293.015C644.711 300.405 650.494 321.943 641.941 325.397C638.533 326.773 633.61 326.074 630 325.985C617.639 325.683 602.139 316.854 595.849 305.816C589.462 294.607 586.1 279.087 575.96 270.225C568.896 264.051 555.828 264.51 551.742 274.17C549.604 279.226 551.034 286.798 552 292C566.46 285.882 569.687 301.293 576.015 310.696C579.21 315.444 583.659 318.566 586 324C567.614 328.864 545.986 326 527 326C518.523 326 507.988 327.858 500 325C498.255 295.621 498 265.779 498 236C498 219.193 499.668 206.31 481 201L482 259L481 349L856 349L854 347L854 346L860 347C864.182 332.854 861 313.757 861 299L861 198C853.244 200.018 843.383 206.547 840.729 214.424C838.224 221.86 840 232.203 840 240L840 295C840 301.683 842.874 317.368 838.397 322.682C835.458 326.17 829.036 325 825 325L792 325C787.523 325 781.662 325.943 778.603 321.852C773.819 315.452 776.459 295.855 777 288z"/>
<path style="fill:#d52f3b; stroke:none;" d="M850 202L850 203L856 199L850 202z"/>
<path style="fill:#f2151a; stroke:none;" d="M486 201C488.592 204.695 493.442 205.822 495.57 210.043C500.617 220.056 498 235.133 498 246C498 272.162 496.058 299.303 500 325L524 326L582 326L582 325C556.983 325 526.321 329.791 502 324C505.417 292.916 502 259.349 502 228C502 216.026 500.659 202.949 486 201z"/>
<path style="fill:#ff353c; stroke:none;" d="M837 324C843.633 319.7 840 297.504 840 290L840 239C840 231.712 838.417 222.254 840.729 215.286C842.502 209.942 847.178 207.451 850 203C835.959 207.774 838 223.039 838 235C838 263.561 842.212 295.924 837 324z"/>
<path style="fill:#e80d13; stroke:none;" d="M903 211C896.409 219.881 900 238.393 900 249C900 280.082 904.672 315.451 899 346L901 346L900 349C904.116 350.217 919.089 352.431 921.396 347.682C922.861 344.666 921.434 340.205 921.345 337C921.094 328 921.394 318.997 921.231 310C920.835 288.032 921.041 265.972 921.205 244C921.276 234.505 923.023 223.22 921 214L920 214L920 304C920 312.803 923.387 330.89 918 338L918 347C913.872 347 907.869 347.956 904.434 345.142C898.462 340.249 902 319.209 902 312L902 239C902 231.321 905.204 217.692 903 211z"/>
<path style="fill:#e22426; stroke:none;" d="M1195 213.576C1180.53 217.569 1186.55 239.859 1201 236.427C1216.09 232.844 1210.16 209.393 1195 213.576z"/>
<path style="fill:#f8040c; stroke:none;" d="M1204 233C1206.74 226.691 1207.49 224.687 1206 218C1201.81 216.682 1196.69 214.158 1192.48 216.703C1186.6 220.26 1187.01 230.307 1193.19 233.337C1196.5 234.965 1200.49 233.012 1204 233z"/>
<path style="fill:#e4272e; stroke:none;" d="M1032 244C1035.35 241.947 1038.8 238.852 1043 239.399C1055.11 240.975 1053.64 257.348 1042 258.343C1038.43 258.648 1035.23 255.161 1032 254C1038.01 266.191 1055.2 260.189 1053.89 247C1052.72 235.3 1036.69 234.488 1032 244z"/>
<path style="fill:#fa030c; stroke:none;" d="M1038 239.859C1026.03 244.678 1032.82 261.935 1044 258.257C1057.81 253.709 1050.87 234.675 1038 239.859z"/>
<path style="fill:#ed0b19; stroke:none;" d="M381 264C373.939 269.604 367.136 274.394 358 275.7C348.608 277.042 337.989 274.554 330 281L370 278L370 274L376 274L379 271C374.325 286.816 378 308.49 378 325C378 331.169 376.347 339.785 380 345L377 346C376.368 350.838 363.973 350.383 362.333 345.972C358.816 336.512 362 320.126 362 310C362 305.744 363.338 299.148 358.778 296.694C353.421 293.812 347.263 297.64 342 298L334 307C340.446 303.92 349.475 297.07 356.852 301.318C361.111 303.771 360 309.849 360 314L360 350L382 350L382 291L381 264z"/>
<path style="fill:#ea2536; stroke:none;" d="M549 296C552.819 295.01 556.867 291.498 560.996 292.697C568.329 294.826 569.894 305.289 573.214 311C575.681 315.245 579.56 318.56 583 322C558.384 327.861 527.322 323 502 323L502 324L532 325L586 324C584.442 318.193 579.857 315.375 576.583 310.696C570.35 301.791 566.39 284.322 552 292C551.539 287.611 550.866 283.464 551 279C551.302 268.955 563.484 263.166 572 267.917C580.127 272.45 585.085 284.107 589.361 292C591.228 295.447 593.17 302.179 597 303C593.625 291.285 585.296 273.668 574.7 266.904C566.846 261.891 552.826 264.237 549.564 274.015C547.439 280.383 549 289.322 549 296z"/>
<path style="fill:#e9242d; stroke:none;" d="M1192 274C1195.23 272.413 1197.6 269.236 1201.01 268.025C1210.81 264.546 1217.17 276.048 1224 280C1220.17 265.955 1199.24 258.621 1192 274z"/>
<path style="fill:#fc0110; stroke:none;" d="M1193 292C1199.39 291.704 1206.18 290.238 1211.71 294.563C1216.42 298.246 1218.1 304.799 1223 308C1221.9 313.863 1225.72 318.729 1231 321C1226.65 326.526 1220.46 325 1214 325L1174 325C1169.4 325 1161.09 326.572 1157.32 323.397C1152.27 319.147 1155 304.064 1155 298C1149.66 298.595 1137.72 304.551 1135.91 310.184C1134.24 315.381 1138.24 321.523 1131.94 324.972C1127.72 327.286 1120.67 326 1116 326L1078 326C1072.84 326 1064.76 327.491 1060.89 323.196C1056.74 318.586 1059 306.831 1059 301C1030.74 304.667 1031.69 340.683 1037 363L1006 365L1016 386C1020.36 387.461 1024.33 389.694 1029 389.957C1054.74 391.402 1062 373.816 1062 351C1080.7 347.833 1099.97 349 1119 349L1207 349C1216.86 349 1249.62 343.751 1251 356L1256 356C1256.81 345.525 1272.31 349 1280 349L1333 349C1342.44 349 1352.78 347.804 1362 350C1357.3 324.706 1361 295.725 1361 270C1353.91 271.664 1347.99 276.847 1340.91 278.907C1333.95 280.931 1326.18 279.37 1319.29 281.498C1309.8 284.426 1302.23 295.698 1297.71 304C1294.06 310.722 1294.77 318.809 1292 326L1254.09 324.258L1240.87 309.706L1234 295C1224.4 286.831 1222.38 272.729 1209 268.464C1201.99 266.232 1192.38 269.375 1192.09 278.04C1191.94 282.646 1193 287.344 1193 292z"/>
<path style="fill:#eb2929; stroke:none;" d="M1360 268L1362 350L1363 350L1363 268L1360 268z"/>
<path style="fill:#fc020c; stroke:none;" d="M377 271L376 274L370 274L370 278C350.396 278.002 318.992 278.227 314 303C309.833 301.333 311.129 312.482 310 317C307.457 327.17 307.457 344.83 310 355C311.27 360.081 304.973 365.493 303 365C298.486 372.431 278.397 373.9 273 367C254.853 367.671 261 332.491 261 321C252.142 324.095 241.836 338.785 241 348L240 348L240 345L239 345L239 370L240 370L241 368L244 372C244.768 380.505 255.855 389.102 264 390L264 394C280.324 396.198 309.536 400.545 314 378L317 380L328.487 366.714L329.615 320L334.638 306.055L342 298C347.03 297.775 351.799 294.695 356.94 296.458C362.86 298.489 362 304.99 362 310C362 319.735 358.425 337.966 362.477 346.782C364.315 350.783 376.466 350.251 377 346L380 345L378 323L379 271L377 271z"/>
<path style="fill:#e62331; stroke:none;" d="M1191 274L1191 296C1196.86 295.003 1202.24 291.838 1208 295.09C1213.81 298.369 1216.76 307.749 1223 309C1214.03 296.019 1209.51 290.204 1193 292L1191 274z"/>
<path style="fill:#e21621; stroke:none;" d="M643 323L617.286 321.326L595 303C597.218 317.492 619.475 325.98 632 326C635.5 326.006 641.666 327.127 644.397 324.397C650.411 318.382 644.09 300.889 646.514 293.015C648.878 285.332 658.234 283.277 664 279L665 291L683.004 282.444L739 282L767.96 282.434L777 288C776.208 295.203 773.851 317.042 778.603 322.682C781.804 326.481 789.594 325 794 325L838 325L838 324C825.804 320.395 809.711 323 797 323C792.788 323 785.057 324.466 781.434 321.972C778.198 319.745 779.001 314.374 779 311C778.997 303.271 781.362 291.258 775.772 285.105C768.439 277.034 754.815 279 745 279C725.191 279 701.271 275.37 682 280.174C676.324 281.589 672.21 285.682 667 288L667 275C640.662 278.518 643 303.325 643 323z"/>
<path style="fill:#e4222b; stroke:none;" d="M1235 295C1232 300.343 1238.18 307.003 1241.44 311.151C1244.37 314.883 1248.87 322.365 1253.19 324.258C1264.2 329.082 1280.15 323.179 1292 326C1295.24 319.815 1293.94 313.19 1296.71 307C1306.66 284.777 1321.74 280.757 1344 279C1325.22 271.121 1304.4 285.702 1296.63 302C1294.16 307.194 1294.79 317.724 1290.57 321.397C1287.88 323.735 1283.29 323 1280 323C1271.68 323 1256.82 326.04 1251.04 318.891C1245.05 311.485 1240.32 302.891 1235 295z"/>
<path style="fill:#e0252f; stroke:none;" d="M1224 280C1225.86 285.449 1228.86 292.104 1234 295L1224 280z"/>
<path style="fill:#ed3343; stroke:none;" d="M313 303L331 281C323.084 284.067 312.988 294.033 313 303z"/>
<path style="fill:#eb232b; stroke:none;" d="M1061 296C1052.63 297.916 1039.94 304.06 1035.84 312.04C1029.35 324.7 1034 348.939 1034 363L1004 364C1004.68 371.776 1008.77 380.472 1016 384L1006 365L1037 363C1032.66 339.609 1030.5 306.609 1059 301C1059 306.659 1056.57 319.598 1060.89 323.852C1064.7 327.597 1073.14 326 1078 326L1117 326C1121.52 326 1128.82 327.359 1132.85 324.972C1138.25 321.777 1134.49 314.851 1136.46 310.184C1138.7 304.868 1149.72 299.064 1155 298C1155 304.244 1152.5 317.389 1156.03 322.682C1158.2 325.937 1163.66 325 1167 325L1196 325C1202.89 325 1230.14 328.739 1230 320L1228 320C1223.86 324.23 1217.56 323 1212 323L1175 323C1170.42 323 1161.92 324.624 1158.6 320.682C1154.23 315.49 1157 300.532 1157 294C1150.24 295.223 1138.33 301.76 1135.03 308.04C1132.9 312.082 1135.94 319.129 1131.68 321.972C1128.15 324.331 1121.06 323 1117 323L1079 323C1074.8 323 1065.89 324.653 1062.89 320.968C1059.2 316.431 1062.12 302.019 1061 296z"/>
<path style="fill:#eb1725; stroke:none;" d="M388 364L391 376L392 376L392 366C397.888 366.236 413.98 368.814 418.397 364.397C422.475 360.318 420 346.436 420 341C420 333.4 417.92 322.144 420.742 315.019C424.137 306.447 436.921 300.796 445 298L445 368C447.085 363.031 446 356.35 446 351L446 315C446 310.888 447.816 300.911 444.972 297.647C440.988 293.074 425.135 305.185 422.298 308.519C414.363 317.841 418 336.506 418 348C418 351.843 419.208 358.332 416.972 361.682C413.361 367.094 393.979 364 388 364z"/>
<path style="fill:#fd010e; stroke:none;" d="M392 366L392 378L395 377C403.077 392.087 432.593 391.048 440.6 375.91C445.916 365.859 445 356.09 445 345L445 298C436.954 299.928 424.106 305.842 420.742 314.054C417.669 321.558 420 333.951 420 342C420 347.565 422.379 360.44 417.682 364.397C412.624 368.659 398.328 366.078 392 366z"/>
<path style="fill:#e52227; stroke:none;" d="M1332 298.884C1323.79 299.844 1306.67 312.388 1314.08 322.579C1317.78 327.663 1331.51 326.755 1336.96 325.852C1342.82 324.879 1341.95 318.564 1342 314C1342.09 305.987 1343.13 297.584 1332 298.884z"/>
<path style="fill:#e02129; stroke:none;" d="M679 300.428C675.692 300.823 669.281 299.907 666.603 302.028C662.742 305.086 663.875 322.068 668.148 324.347C674.177 327.563 683.411 326 690 326L735 326C740.774 326 749.457 327.704 754.866 325.682C764.272 322.166 756.226 303.619 748.911 301.558C740.857 299.289 730.332 301 722 301C708.141 301 692.615 298.803 679 300.428z"/>
<path style="fill:#ff3636; stroke:none;" d="M358 301C358 316.056 354.735 335.571 359 350L360 350L360 316L358 301z"/>
<path style="fill:#000000; stroke:none;" d="M1332 301.483C1325.48 302.503 1309.31 312.828 1316.03 321.397C1318.69 324.784 1332.02 323.52 1335.94 322.852C1343.15 321.624 1342.99 299.763 1332 301.483M669.318 302.742C665.458 304.71 665.418 320.478 669.318 322.397C674.002 324.702 682.851 323 688 323L734 323C738.826 323 750.364 325.122 754.258 321.972C762.852 315.019 750.44 304.047 744 302.669C727.258 299.086 707.112 302 690 302C684.308 302 674.472 300.114 669.318 302.742z"/>
<path style="fill:#e01c28; stroke:none;" d="M310 305C309.586 310.073 308.065 314.876 308.004 320C307.817 335.655 313.572 360.43 295 367.438C287.818 370.147 280.366 368.581 273 368L273 369C279.779 372.527 299.676 373.351 303 365C307.776 364.446 309.946 359.552 309.671 355C308.644 337.955 308.867 321.819 312 305L310 305z"/>
<path style="fill:#ea2c33; stroke:none;" d="M317 380L314 378C311.515 387.162 305.309 388.374 298 393L298 394C303.445 393.184 308.464 390.903 313 387.779C330.81 375.515 332 359.779 332 340C332 328.14 329.304 314.69 339 306C331.277 304.202 329.709 316.613 329.171 322C327.841 335.295 333.052 353.363 328.476 365.87C326.291 371.842 320.684 375.111 317 380z"/>
<path style="fill:#f03548; stroke:none;" d="M240 348L241 348L255 325C246.539 328.948 240.224 338.703 240 348z"/>
<path style="fill:#da161b; stroke:none;" d="M1067 349L1067 350L1202 350C1213.73 350 1241.64 344.948 1250 354C1251.55 348.355 1244.87 349.002 1241 349L1208 349L1067 349z"/>
<path style="fill:#d91516; stroke:none;" d="M1258 349L1258 350L1361 350L1329 349L1258 349z"/>
<path style="fill:#a93230; stroke:none;" d="M496 350L496 351L504 351L496 350z"/>
<path style="fill:#d83a4e; stroke:none;" d="M1256 350L1256 356L1252 355L1255 362L1257 362L1260 351L1256 350z"/>
<path style="fill:#e9233a; stroke:none;" d="M261 354C261.159 361.442 264.363 366.464 272 368L261 354z"/>
<path style="fill:#e82631; stroke:none;" d="M240 368C240.645 379.917 253.225 389.89 264 393C262.292 384.99 244.703 383.12 244 372L240 368z"/>
<path style="fill:#e91f2b; stroke:none;" d="M444 368C437.587 379.172 429.559 388.568 415 387.644C409.873 387.319 405.205 384.454 400 384L400 385C412.607 390.24 425.282 392.719 436.985 383.471C441.442 379.949 446.102 373.88 444 368z"/>
<path style="fill:#ea1d24; stroke:none;" d="M1122.02 375.742C1107.88 381.303 1117.84 402.854 1131.98 396.772C1145.82 390.82 1135.91 370.278 1122.02 375.742z"/>
<path style="fill:#fa030c; stroke:none;" d="M1124.04 376.78C1113.68 379.98 1117.14 397.625 1127.71 395.447C1141.97 392.51 1137.09 372.748 1124.04 376.78z"/>
<path style="fill:#db2531; stroke:none;" d="M393 377L400 384L393 377z"/>
<path style="fill:#e11e2d; stroke:none;" d="M264 406.555C248.524 408.232 251.71 428.449 267 426.891C281.414 425.423 278.021 405.035 264 406.555z"/>
<path style="fill:#fa0315; stroke:none;" d="M304 407C297.69 418.855 299.279 424.004 314 425C317.052 414.686 318.095 407.05 304 407z"/>
<path style="fill:#ee293b; stroke:none;" d="M312 407C315.743 414.065 318.612 415.627 316 424C323.729 419.271 319.071 409.426 312 407z"/>
<path style="fill:#d7162b; stroke:none;" d="M318 418L314 425C301.279 422.704 296.858 419.88 304 408C284.07 413.732 312.928 441.282 318 418z"/>
<path style="fill:#ff010c; stroke:none;" d="M262.04 409.48C249.27 412.187 257.229 426.622 267.961 424.655C280.668 422.327 273.702 407.008 262.04 409.48z"/>
<path style="fill:#b96f2e; stroke:none;" d="M1007 421L1008 422L1007 421z"/>
<path style="fill:#f59b06; stroke:none;" d="M1008 422C1011.21 430.353 1017.25 437.538 1020.47 446C1028.06 465.95 1027.87 487.271 1051 497C1069.12 469.273 1030.9 434.764 1008 422z"/>
<path style="fill:#cf7a36; stroke:none;" d="M1045 437L1046 438L1045 437z"/>
<path style="fill:#da9032; stroke:none;" d="M1047 439L1047 441L1049 439L1047 439z"/>
<path style="fill:#f69a07; stroke:none;" d="M1048 441C1052.27 450.558 1057.42 459.59 1059.64 470C1062.2 482.031 1061.4 494.097 1067.92 504.999C1070.77 509.767 1079.23 522.519 1085.91 520.878C1094.99 518.65 1095.39 501.79 1093.03 495C1087.45 478.932 1074.7 464.919 1063.04 453.015C1058.59 448.472 1054.29 442.765 1048 441z"/>
<path style="fill:#f59b07; stroke:none;" d="M931 442L931 443L997.001 482.655L1027 487C1015.28 452.376 962.662 442 931 442z"/>
<path style="fill:#f90312; stroke:none;" d="M720 453L720 454L723 454L723 455C694.654 458.601 669.062 467.994 642 476.435C633.313 479.145 613.799 485.126 609 493L581 504L558 524C543.361 523.008 539.569 538.644 528 541C519.991 552.437 506.665 557.61 497.005 567.019C485.028 578.684 476.883 595.039 462 604L450 621L418 668L407 686L394 719L391 718C386.339 731.777 375.689 752.461 377 767C383.174 762.997 384.289 755.51 386.811 749C391.284 737.454 396.712 726.069 402.247 715C413.153 693.189 425.905 671.594 440.478 652C452.036 636.46 466.126 622.427 476.398 606.093C482.655 596.145 499.221 589.155 501 577C511.094 574.587 517.534 564.45 525.174 558.275C529.142 555.068 533.951 553.382 538 550L537 547L538 546C541.587 546.741 544.201 546.952 545 543L561.875 534.255L613.023 505.606L634 494C653.519 491.228 671.971 479.44 691 474.884C744.326 462.118 805.162 455.419 859.961 462.13C869.471 463.294 879.387 467.587 889 469.389C909.878 473.302 931.942 475.943 952 482.749C956.735 484.356 960.315 487.917 965.015 489.521C969.834 491.166 975.14 491.09 979.83 493.256C985.254 495.762 991.847 500.402 998 500.596C1002.33 500.733 1006.83 497.153 1011 496C1004.18 492.716 995.701 494.57 989.116 491.266C973.729 483.546 961.498 468.89 945 462.71C896.37 444.492 840.325 441.757 789 443.015C772.626 443.416 755.107 445.08 739 448.21C732.24 449.524 727.239 452.708 720 453z"/>
<path style="fill:#e7181e; stroke:none;" d="M638 476L638 477L668 467.38L723 455L723 454L720 454L720 453L735 450C727.422 447.676 714.615 452.756 707 454.626C683.377 460.427 660.999 468.219 638 476z"/>
<path style="fill:#f59b07; stroke:none;" d="M1087 459C1089.85 470.316 1096.27 480.174 1098.25 492C1100.61 506.191 1097.6 519.215 1103.5 532.911C1105.83 538.327 1113.58 551.412 1120.17 552.093C1132.02 553.319 1134.27 531.293 1132.1 524C1125.29 501.168 1106.4 472.903 1087 459z"/>
<path style="fill:#e2131d; stroke:none;" d="M634 494C634 497.326 630.629 496.629 628 497.833C622.668 500.277 611.105 503.26 609 509C633.755 501.92 657.011 488.456 682 481.036C742.446 463.088 811.672 455.429 874 467C866.849 461.497 856.573 462.041 848 461.999C836.363 461.943 824.701 461 813 461C771.46 461 728.244 464.723 688.001 475.379C669.899 480.172 652.26 489.466 634 494z"/>
<path style="fill:#af3337; stroke:none;" d="M800 462L800 463L825 463L800 462z"/>
<path style="fill:#000000; stroke:none;" d="M356 875L357 875C362.365 857.026 365.129 838.109 370.424 820C379.027 790.582 390.991 762.082 405.298 735C428.553 690.98 459.971 653.029 495 618C572.221 540.779 668.674 485.208 779 474.169C822.427 469.824 866.948 470.828 910 478.321C931.736 482.104 953.278 491.351 975 494C960.234 484.078 938.163 479.888 921 475.989C882.611 467.269 845.363 463 806 463C620.434 463 448.962 583.647 383.575 757C369.933 793.168 356.323 835.989 356 875z"/>
<path style="fill:#e02222; stroke:none;" d="M800 472L800 473C830.391 473 867.371 468.808 896 480L896 478L912 480L912 478L859 472.089L800 472z"/>
<path style="fill:#fa040f; stroke:none;" d="M690 493L690 494L693 494L693 495L659 504L659 505L661 505L661 506C644.151 508.995 627.965 527.154 611 527L588 545C582.988 545.517 577.057 547.646 576 553C564.309 556.152 552.64 567.248 543.289 574.695C539.173 577.973 534.518 580.777 533 586L506 606C503.77 614.619 491.723 623.258 485.409 629.375C471.109 643.228 458.133 658.02 445 673C448.17 676.74 432.715 692.408 430.194 696.083C428.942 697.91 427.089 703.63 425 702L424 702C423.07 708.72 418.816 717.234 414 722L395 762C387.991 764.215 383.943 784.965 381.655 792C374.21 814.893 367.36 836.362 362.487 860C360.6 869.154 357.032 878.647 357 888L354 888C354 948.013 345.873 1012.19 368 1070L370 1069L380.425 1110L398 1152C408.11 1153.58 411.114 1171.2 415.646 1179C417.736 1182.59 419.882 1188.03 425.001 1187.43C428.476 1187.02 431.961 1183.96 435 1182.35C438.516 1180.49 441.793 1178.35 445 1176L445 1175C440.311 1168.92 438.456 1162.42 434.633 1156.04C428.279 1145.43 419.016 1135.97 417 1123L415 1124C413.772 1112.07 405.834 1101.31 400.942 1090.83C395.569 1079.31 391 1064.76 391 1052L390 1052L388 1054L381.769 1023L374 952L373 952L373 956L372 956L372 911L374 912L377.795 870L379 855C387.58 843.042 388.286 824.698 391.789 811C395.446 796.704 404.8 782.674 406 768L409 768C411.719 752.202 422.675 740.568 430.346 727C449.855 692.495 472.077 660.067 498.655 631.486C509.002 620.36 522.18 601.746 537 597C538.859 590.184 553.095 580.732 560 580L566 570L578 568L578 567L576 566C580.817 563.813 588.377 560.212 590 555L592 557L593 557C598.906 551.454 607.655 544.741 616 545C626.232 532.926 646.841 527.098 661 521.11C666.121 518.945 674.827 518.51 678 514C684.071 515.145 706.039 509.825 708 504C718.496 504 728.518 501.627 739 500.94C742.446 500.714 747.527 500.765 748 497C773.618 496.929 797.892 488.559 824 491.171C841.438 492.915 859.649 495.504 877 498.414C891.493 500.844 905.388 504.481 920 501L920 500L913 498L908 499L908 496L898 492L914.985 495.963L932 492C933.772 497.473 940.238 497.962 944.985 500.181C957.515 506.036 966.095 508.047 980 507.089C985.09 506.739 990.788 507.689 994 503C980.133 499.597 964.824 488.511 950 492L936 485.526L896 478L896 480C880.225 471.41 853.724 473 836 473C813.583 473 791.253 472.285 769 475.282C741.944 478.927 716.439 486.884 690 493z"/>
<path style="fill:#e82931; stroke:none;" d="M592 498L592 499L609 493L638 478L624 482.231L592 498z"/>
<path style="fill:#ef1a35; stroke:none;" d="M927 477L927 478L960 487C952.718 479.704 936.998 477.206 927 477z"/>
<path style="fill:#ea1624; stroke:none;" d="M931 483L931 484L950 492L965 492C956.002 486.504 941.404 484.343 931 483z"/>
<path style="fill:#e9242d; stroke:none;" d="M979 483C983.49 491.781 993.159 492.981 1002 493L1002 492L979 483z"/>
<path style="fill:#f59b07; stroke:none;" d="M1130 488C1133.49 497.007 1137.27 507.319 1137.95 517.015C1139.48 538.984 1128.53 573.492 1153.33 588.152C1166.08 595.69 1172.54 569.845 1171.91 562C1170.32 542.253 1157.22 521.753 1146.09 506C1141.91 500.092 1136.01 494.55 1133 488L1130 488z"/>
<path style="fill:#ed2027; stroke:none;" d="M748 497L748 498L777 495.169L835 494C827.859 489.695 818.017 491 810 491C788.911 491 768.844 496.828 748 497z"/>
<path style="fill:#ff2f2b; stroke:none;" d="M969 490L969 491L975 493L975 494L961 492L961 493L979 497L982 494L969 490z"/>
<path style="fill:#ff282d; stroke:none;" d="M898 492C900.318 495.968 903.682 495.961 908 496L908 499L913 498C913.839 501.893 916.703 500.346 920 500L920 501L917 502L928 502C921.204 496.549 906.607 492.254 898 492z"/>
<path style="fill:#fa1b0a; stroke:none;" d="M914 496L914 497C934.727 498.346 951.764 517 973 517L968 511L984 509L984 507C968.268 507.043 959.476 506.077 944.985 499.749C940.137 497.632 934.647 496.922 932 492L914 496z"/>
<path style="fill:#fd601b; stroke:none;" d="M1002 493L1002 494L1011 495L1011 496L997 501L997 502C1003.55 503.049 1009.99 499.001 1014 494L1002 493z"/>
<path style="fill:#ee252f; stroke:none;" d="M663 503L663 504L693 495C684.911 491.638 670.521 499.651 663 503z"/>
<path style="fill:#ff464f; stroke:none;" d="M979 494C980.057 500.351 989.83 501.838 995 505L998 503C993.667 497.73 985.549 495.363 979 494z"/>
<path style="fill:#f59b07; stroke:none;" d="M968 511L973 516C985.055 512.272 998.78 518.499 1011 519.871C1019.67 520.844 1028.67 517.742 1037 519L1005 532C1010.44 535.324 1017.85 536.431 1024 538.025C1041.82 542.641 1073.11 552.271 1081 528L1053 512C1050.08 516.661 1043.03 517.582 1038 519C1039.83 514.67 1045.86 509.813 1045.72 505.015C1045.5 497.727 1031.33 495.433 1026 494.733C1006.41 492.16 988.437 510.998 968 511z"/>
<path style="fill:#e6282c; stroke:none;" d="M583 503L583 504L592 499L583 503z"/>
<path style="fill:#ee262f; stroke:none;" d="M708 504L705 508L705 509L738 502L708 504z"/>
<path style="fill:#e73a40; stroke:none;" d="M904 503L904 504L951 515L951 514L944 511C941.933 499.059 912.701 502.313 904 503z"/>
<path style="fill:#f31c2e; stroke:none;" d="M552 523L558 524L581 505C571.354 508.531 559.424 515.896 552 523z"/>
<path style="fill:#ef2229; stroke:none;" d="M613 528L661 506C656.494 504.402 652.119 507.331 648 509.139C638.35 513.374 618.344 518.583 613 528z"/>
<path style="fill:#e21d28; stroke:none;" d="M678 514L665.996 518.736L629.196 535.199L617 544C637.799 536.906 657.005 525.21 678 518.166C684.866 515.862 699.669 513.766 704 508L678 514z"/>
<path style="fill:#e22c00; stroke:none;" d="M1044 508L1040 517L1053 515C1051.64 510.366 1048.68 508.626 1044 508z"/>
<path style="fill:#f25453; stroke:none;" d="M944 509C948.367 515.125 954.98 516.921 962 518C958.929 512.055 950.12 510.273 944 509z"/>
<path style="fill:#ff5512; stroke:none;" d="M1043 510L1040 515L1043 510z"/>
<path style="fill:#000000; stroke:none;" d="M962 517L962 518C978.248 520.762 994.764 523.647 1011 526.464C1019.21 527.887 1032.21 527.01 1037 519L1013 519.946L980 514.225L962 517z"/>
<path style="fill:#fb6318; stroke:none;" d="M1039 515L1038 519L1048 517L1048 516L1039 515z"/>
<path style="fill:#c02523; stroke:none;" d="M956 517L956 518L960 518L956 517z"/>
<path style="fill:#e73623; stroke:none;" d="M960 518L960 519C972.678 524.045 991.477 536.472 1005 534L1005 533L998 530L1008 529L1008 527L960 518z"/>
<path style="fill:#f59b07; stroke:none;" d="M1172 518C1176.06 532.189 1180.29 545.909 1178.83 561C1177.44 575.396 1171.22 588.254 1173.59 603C1174.93 611.359 1180.05 628.699 1188.26 632.947C1191.74 634.748 1196.1 632.131 1199 630.289C1209.9 623.358 1211.75 614.247 1210.97 602C1209.56 579.698 1197.68 556.793 1186.34 538C1182.28 531.272 1178.09 523.032 1172 518z"/>
<path style="fill:#fe882e; stroke:none;" d="M1006 526L1006 527L1008 529L998 530C1002.22 535.547 1010.74 529.687 1016 528L1006 526z"/>
<path style="fill:#e92330; stroke:none;" d="M522 592L533 586C539.151 573.159 563.13 558.474 576 553C577.495 548.202 583.358 545.84 588 545L595.667 539.5L611 528L592 538.139L543 572.449L522 592z"/>
<path style="fill:#d9483e; stroke:none;" d="M1080 531L1083 533L1080 531z"/>
<path style="fill:#f21400; stroke:none;" d="M1073 542L1088 541C1083.85 532.211 1074.73 530.845 1073 542z"/>
<path style="fill:#ed1726; stroke:none;" d="M545 543C544.159 546.769 541.404 546.493 538 546L537 547L538 550L501 577C497.479 590.535 479.04 595.688 475 609L520.424 567.039L564 534L545 543z"/>
<path style="fill:#d74217; stroke:none;" d="M1083 533C1085.6 539.055 1090.27 543.511 1097 544L1097 543L1083 533z"/>
<path style="fill:#da2939; stroke:none;" d="M532 537L528 541C530.754 540.736 532.707 540.038 532 537z"/>
<path style="fill:#f96e11; stroke:none;" d="M1072 540L1070 544L1091 543L1091 542L1072 540z"/>
<path style="fill:#f42f41; stroke:none;" d="M527 541L504 562C509.551 560.343 527.637 547.29 527 541z"/>
<path style="fill:#f59a0d; stroke:none;" d="M1029 550L1026 552L1026 553C1046.78 561.06 1075.96 577.435 1099 571.525C1105.23 569.926 1109.42 564.012 1115 561C1098.01 524.596 1056.04 556.354 1029 550z"/>
<path style="fill:#e01c28; stroke:none;" d="M593 557L592 557L590 555L576 566L576 567L603 552.424L615 544C607.47 545.559 597.519 550.605 593 557z"/>
<path style="fill:#e65c1b; stroke:none;" d="M1026 547C1030.47 551.81 1035.77 551.999 1042 552L1042 550L1026 547z"/>
<path style="fill:#ac7e2f; stroke:none;" d="M1215 556L1216 557L1215 556z"/>
<path style="fill:#c07e1d; stroke:none;" d="M1216.33 558.667L1216.67 559.333L1216.33 558.667z"/>
<path style="fill:#ff6b17; stroke:none;" d="M1115 560C1108.94 564.048 1105.21 567.888 1103 575L1131 579L1131 578L1106 573L1115 560z"/>
<path style="fill:#f70907; stroke:none;" d="M1116 560L1108 572L1131 577L1118 565L1120 562L1116 560z"/>
<path style="fill:#f59a0d; stroke:none;" d="M1217 560C1219.5 577.023 1221.72 592.864 1217.66 610C1214.12 624.951 1204.62 637.882 1207.26 654C1208.53 661.75 1212.67 683.371 1221.21 686.306C1230 689.328 1242.16 678.716 1245.99 672C1253.88 658.134 1248.73 638.43 1245.23 624C1244.01 618.977 1243.19 611.338 1239 608C1240.36 596.946 1229.76 580.446 1224.42 571C1222.26 567.17 1220.65 562.565 1217 560z"/>
<path style="fill:#eb313f; stroke:none;" d="M1118 563L1131 574L1118 563z"/>
<path style="fill:#e5152b; stroke:none;" d="M566 570L560 580L576 568L566 570z"/>
<path style="fill:#e63f08; stroke:none;" d="M1108 569L1106 573L1114 573L1114 572L1108 572L1108 569z"/>
<path style="fill:#e81e2e; stroke:none;" d="M464 603C472.194 598.627 488.555 582.963 491 574C481.975 578.397 468.271 593.839 464 603z"/>
<path style="fill:#f49b09; stroke:none;" d="M1054 579L1054 580C1074.95 590.231 1103.62 609.772 1128 606.816C1136.25 605.815 1142.06 601.505 1149 598L1135 579L1111 574.179L1084 578.714L1054 579z"/>
<path style="fill:#d9481b; stroke:none;" d="M1129 574L1129 575L1131 577L1126 576L1126 577L1135 581L1136 581C1134.86 576.981 1133.02 575.141 1129 574z"/>
<path style="fill:#bc8746; stroke:none;" d="M1053 578L1054 579L1053 578z"/>
<path style="fill:#e61f24; stroke:none;" d="M537 597C530.906 598.182 528.821 602.608 523.961 605.816C510.495 614.708 491.827 633.269 485 648L534.714 600.499L559 579C552.22 581.35 538.128 589.633 537 597z"/>
<path style="fill:#ee2631; stroke:none;" d="M507 607L522 592C515.916 594.837 509.837 600.916 507 607z"/>
<path style="fill:#f45b15; stroke:none;" d="M1144 603L1145 603L1152 598C1147.82 596.781 1145.38 599.209 1144 603z"/>
<path style="fill:#d32d2f; stroke:none;" d="M1150 598L1150 599L1169 621C1168.69 611.15 1159.6 604.424 1154 597L1150 598z"/>
<path style="fill:#fe000d; stroke:none;" d="M1141 608L1163 614L1167 619C1164.21 605.563 1149.78 592.609 1141 608z"/>
<path style="fill:#f73309; stroke:none;" d="M1137 610L1162 616L1162 619L1166 619L1166 618L1163 614L1141 608L1144 603L1137 610z"/>
<path style="fill:#eb2729; stroke:none;" d="M461 605C446.51 623.537 432.507 641.892 420.189 662C415.844 669.094 407.936 678.435 408 687L436.425 641.005L463 605L461 605z"/>
<path style="fill:#ae7b2c; stroke:none;" d="M1259 605L1260 606L1259 605z"/>
<path style="fill:#f59b07; stroke:none;" d="M1260 606C1261.54 625.382 1263.24 640.722 1257.43 660C1254.11 671.021 1246.4 679.519 1242.09 690C1236.97 702.491 1237.74 717.145 1240.77 730C1241.96 735.063 1242.74 743.645 1246.7 747.397C1250.48 750.97 1258.79 748.703 1263 747.21C1277.74 741.983 1283.24 731.885 1285.56 717C1289.84 689.511 1281.14 655.388 1270.86 630C1267.66 622.09 1265.27 612.806 1260 606z"/>
<path style="fill:#db2633; stroke:none;" d="M505 607C494.761 617.239 478.134 628.847 472 642C482.174 637 489.841 625.339 497.919 617.551C500.675 614.894 506.079 611.15 505 607z"/>
<path style="fill:#ae8344; stroke:none;" d="M1076 607L1077 608L1076 607z"/>
<path style="fill:#f59b07; stroke:none;" d="M1077 608L1077 609C1099.78 621.962 1124.81 645.357 1152 647.896C1163 648.922 1172 644.764 1182 641L1172 624L1162 616L1137 608L1136 608C1131.13 612.618 1124.32 612 1118 612C1103.96 612 1090.8 610.029 1077 608z"/>
<path style="fill:#db5820; stroke:none;" d="M1169 618L1168 621L1164 619L1171 624L1169 618z"/>
<path style="fill:#e23129; stroke:none;" d="M1180 641L1180 642C1192.81 643.426 1194.52 659.849 1202 668L1202 669L1200 672L1204 674C1201.66 661.562 1194.91 641.135 1180 641z"/>
<path style="fill:#f59b07; stroke:none;" d="M1099 642C1104.31 649.061 1113.15 654.051 1120 659.611C1136.84 673.288 1155.68 688.954 1176.42 696.247C1182.79 698.486 1206.48 698.726 1209.34 690.775C1213.22 680.016 1196.63 668.151 1189.83 663.138C1172.69 650.485 1158.12 654.664 1138 651.701C1124.51 649.713 1112.14 644.807 1099 642z"/>
<path style="fill:#f93e2b; stroke:none;" d="M1177 642L1171 649L1171 650C1175.94 649.232 1178.23 646.557 1180 642L1177 642z"/>
<path style="fill:#f7030b; stroke:none;" d="M1168 653C1174.97 653.574 1182.81 656.279 1188.37 660.618C1192.95 664.193 1195.27 670.244 1202 669C1199 662.736 1190.93 641.045 1182.18 642.427C1179 642.93 1177.37 646.67 1174.91 648.402C1172.26 650.269 1169.81 650.19 1168 653z"/>
<path style="fill:#e52429; stroke:none;" d="M467 646L448 670C453.925 666.968 468.044 653.165 467 646z"/>
<path style="fill:#e9272f; stroke:none;" d="M465 673L466 673L478 656C471.625 658.729 466.042 666.127 465 673z"/>
<path style="fill:#fe5b0c; stroke:none;" d="M1184 658L1192 664L1184 658z"/>
<path style="fill:#f59b07; stroke:none;" d="M1302 664C1304.08 687.841 1302.71 708.249 1290.57 729.911C1282.21 744.832 1267.99 755.317 1264.88 773C1262.67 785.554 1258.67 811.641 1268.14 822.397C1270.91 825.545 1280.27 824.281 1284 823.675C1302.23 820.719 1310.99 810.191 1315.86 793C1324.47 762.594 1320 728.321 1313.12 698C1310.65 687.107 1308.25 673.416 1302 664z"/>
<path style="fill:#e32026; stroke:none;" d="M425 704C433.654 696.242 441.552 683.316 447 673C438.405 677.191 426.811 694.638 425 704z"/>
<path style="fill:#a58951; stroke:none;" d="M1118 680L1119 681L1118 680z"/>
<path style="fill:#f59b07; stroke:none;" d="M1120 682C1123.97 689.709 1132.66 695.87 1138.59 702.17C1155.13 719.754 1174.85 741.592 1197 751.954C1206.11 756.216 1217.28 755.547 1227 754.282C1229.97 753.894 1235.02 754.148 1236.93 751.297C1238.82 748.474 1235.84 742.904 1235 740L1234 742L1233 742L1233 736L1230 736C1229.64 724.757 1211.23 707.523 1200 707L1198 701C1189.84 704.594 1182.49 702.157 1174 700.449C1154.9 696.606 1138.19 687.795 1120 682z"/>
<path style="fill:#e92b37; stroke:none;" d="M406 687C401.669 695.259 391.179 709.571 393 719L394 719C394.86 710.603 409.911 694.093 406 687z"/>
<path style="fill:#ee5f1b; stroke:none;" d="M1210 690L1207 693L1207 694L1213 693L1210 690z"/>
<path style="fill:#e13543; stroke:none;" d="M1210 693L1210 694L1219 695L1230 708C1226.28 696.242 1221.49 693.875 1210 693z"/>
<path style="fill:#fa030c; stroke:none;" d="M1206 694L1198 704C1213.48 707.648 1220.12 725.059 1232 733C1231.34 717.729 1229.54 706.307 1219 695L1206 694z"/>
<path style="fill:#e42934; stroke:none;" d="M423 704C412.027 721.925 397.866 741.637 392 762L398.056 753L409.028 732.111L414 722C418.221 719.235 424.155 709.107 423 704z"/>
<path style="fill:#f84409; stroke:none;" d="M1200 704C1200.65 707.054 1202.01 706.936 1205 707L1205 706L1200 704z"/>
<path style="fill:#e34137; stroke:none;" d="M1230 708L1231 728L1232 728L1230 708z"/>
<path style="fill:#ff5719; stroke:none;" d="M1221 720L1224 724L1221 720z"/>
<path style="fill:#c7883f; stroke:none;" d="M1134 724L1135 725L1134 724z"/>
<path style="fill:#f59b07; stroke:none;" d="M1135 725C1138.15 734.87 1147.43 743.095 1153.57 751.286C1170.53 773.909 1188.82 803.557 1214.04 817.821C1219.52 820.921 1226.67 823.604 1233 823.957C1238.5 824.263 1245.42 822.53 1250 826L1251 826L1252 826L1256 824C1255.75 811.821 1250.68 796.437 1243.71 786.421C1239.4 780.223 1231.51 775.056 1229 768C1221.23 768.139 1214.32 762.699 1207 760.355C1181.05 752.047 1157.41 740.323 1135 725z"/>
<path style="fill:#df4220; stroke:none;" d="M1232 729L1230 736L1233 742L1234 742L1232 729z"/>
<path style="fill:#df221e; stroke:none;" d="M385 733C375.812 756.212 368.694 780.526 363.8 805C362.595 811.028 356.9 825.041 363 829L380 765L377 767L385 733z"/>
<path style="fill:#e01e2a; stroke:none;" d="M419 743L409 768L406 768L391 816L393 816C396.842 789.987 413.908 767.798 421 743L419 743z"/>
<path style="fill:#f32a34; stroke:none;" d="M1238 751L1231 754L1227 768L1228 768L1227 762L1238 754L1243 758L1238 751z"/>
<path style="fill:#f90215; stroke:none;" d="M1227 762C1229.48 773.97 1239.25 779.731 1245.38 789.87C1248.31 794.706 1248.83 801.058 1254 804C1254 791.766 1262.05 770.606 1253.1 760.279C1248.9 755.424 1241.63 759.779 1238 754L1227 762z"/>
<path style="fill:#d83633; stroke:none;" d="M1245 757L1245 758L1256 764C1254.79 757.005 1251.86 754.738 1245 757z"/>
<path style="fill:#d22512; stroke:none;" d="M1256 764L1256 787L1257 787C1257.65 779.099 1261.28 771.099 1256 764z"/>
<path style="fill:#e81c25; stroke:none;" d="M389 768C381.994 785.076 372.715 803.614 370 822L371 822L391 768L389 768z"/>
<path style="fill:#ec2127; stroke:none;" d="M619 774L619 840L620.028 864.397L634 866L673 866L808 866L843 866L856.397 864.972L858 844L858 781L857 781L857 841L855.397 862.258L839 864L796 864L621 864L621 778C632.079 781.643 631 789.923 631 800L631 848C636.306 835.355 632 812.776 632 799C632 794.004 633.306 786.792 631.397 782.104C629.605 777.705 623.282 775.006 619 774z"/>
<path style="fill:#e70b15; stroke:none;" d="M845 842L846 842L846 799C846 790.19 844.754 783.703 854 780L854 863L797 862.985L622 863L622 780C629.2 782.279 630 788.263 630 795L630 833C630 837.576 627.7 849.864 633 851C627.488 835.876 631 815.007 631 799C631 789.572 632.464 780.135 621 778L621 864L798 864L841 864L855.972 862.258L857 839L858 774L845.938 781.339L845 799L845 842z"/>
<path style="fill:#f62a2d; stroke:none;" d="M894 866L894 865L883 864L883 810L884.148 785.04L894 776L894 864L896 864L896 804L895 774C872.572 782.211 881 820.41 881 840C881 846.279 878.739 857.922 881.603 863.566C883.487 867.277 890.593 866 894 866z"/>
<path style="fill:#fc0611; stroke:none;" d="M893 776C881.012 784.743 883 794.143 883 808L883 864L896 865L896 864C891.884 858.566 894 847.626 894 841L894 797C894 790.58 895.497 781.951 893 776z"/>
<path style="fill:#fc020c; stroke:none;" d="M622 780L622 863L854 863L854 780C844.181 782.738 846 790.373 846 799L846 833C845.993 837.358 846.505 844.923 843.973 848.682C841.918 851.733 837.163 850.999 834 851L805 851C805 845.107 807.054 834.474 803.972 829.305C798.788 820.608 772.876 825 764 825C756.404 825 735.66 829.514 735 821C721.223 826.795 720.474 837.335 722 851C716.104 851 709.477 851.881 704 849.276C689.914 842.577 690.879 826.346 678.845 818.059C669.718 811.774 665.067 821.054 665 829L675 830L684.383 848.772L671 851L630 851L630 798C630 790.553 630.802 782.155 622 780z"/>
<path style="fill:#f92d37; stroke:none;" d="M844 783L844 830C844 834.363 845.787 843.938 842.397 847.258C838.554 851.019 813.744 850.926 809.318 847.972C803.264 843.932 809.521 831.855 803.772 826.279C799.384 822.023 792.59 823 787 823C772.95 823 757.84 821.431 744 824L744 825L787 825C792.716 825 799.484 824.107 803.397 829.305C807.095 834.219 805 845.105 805 851L833 851C835.91 851 840.948 851.912 843.397 849.972C846.716 847.343 845 837.786 845 834C845 819.7 849.506 796.121 844 783z"/>
<path style="fill:#fd2c31; stroke:none;" d="M632 784L632 832C632 836.32 630.221 845.852 633.028 849.397C635.261 852.216 641.849 851 645 851L675 851C679.54 851 684.345 851.987 686 847C679.261 849.103 673.014 849 666 849C658.742 849 642.439 852.057 636.318 847.972C632.159 845.197 634 835.312 634 831L634 799C634 793.994 634.921 788.275 632 784z"/>
<path style="fill:#e02f41; stroke:none;" d="M1065.06 785.029C1056.94 789.431 1064.31 801.033 1071.94 796.968C1080.31 792.512 1073.23 780.6 1065.06 785.029z"/>
<path style="fill:#f20309; stroke:none;" d="M1066.15 786.747C1059.93 789.444 1065.12 797.487 1070.94 795.242C1078.12 792.476 1072.23 784.108 1066.15 786.747z"/>
<path style="fill:#ec3136; stroke:none;" d="M1254 787L1254 804L1251 803L1256 811L1257 787L1254 787z"/>
<path style="fill:#ef2026; stroke:none;" d="M968.468 798.772C960.088 802.124 965.442 814.641 973.945 811.254C982.521 807.838 976.749 795.46 968.468 798.772z"/>
<path style="fill:#f70017; stroke:none;" d="M966 802C966.19 807.84 968.16 809.81 974 810C976.783 801.977 972.839 801.842 966 802z"/>
<path style="fill:#db4910; stroke:none;" d="M1256 803L1256 824C1260.67 820.621 1258.06 807.903 1256 803z"/>
<path style="fill:#e0222c; stroke:none;" d="M663 832C676.81 830.959 673.774 845.066 685 847L675 830L665 829C665.359 812.251 676 817.056 685 824C682.293 816.06 671.046 809.622 664.742 818.214C662.039 821.899 663 827.693 663 832z"/>
<path style="fill:#e62636; stroke:none;" d="M546 820L546 821L556 819L557 851L555.258 862.397L546 864L546 834L540 834C548.05 846.764 536.265 870.413 559 865L558 815L546 820z"/>
<path style="fill:#fd0012; stroke:none;" d="M1088 851L1042 851L1042 832L1030.12 840.104L1027.68 849.821L1014 851L982 851L983 837C977.47 838.363 970.354 839.028 967.013 844.459C962.891 851.161 970.861 869.369 964.593 873.972C961.286 876.401 953.922 875 950 875C953.457 888.089 975.944 891.694 980 877L983 878L982 864L1068 864C1078.21 864 1094.47 860.862 1103 867L1104 867C1110.06 862.644 1117.83 864 1125 864L1171 864L1171 817L1144 823L1144 824L1146 824L1146 825L1134 830C1134.22 834.06 1132.36 835.666 1130.76 839.184C1129.39 842.211 1129.8 847.009 1127.4 849.397C1123.04 853.721 1106.49 851.308 1101 850C1101.02 843.238 1096 841.142 1092.09 836.522C1086.64 830.077 1084.01 820.254 1075 818L1077 816C1069.04 812.67 1062.95 821.241 1066.6 828.682C1067.95 831.425 1072.46 831.427 1074.91 832.835C1082.35 837.111 1087.18 841.995 1088 851z"/>
<path style="fill:#df2936; stroke:none;" d="M1075 816L1081.87 822.491L1096 840C1092.77 831.608 1084.5 817.467 1075 816z"/>
<path style="fill:#d42b38; stroke:none;" d="M1066 817L1064 833L1074 832L1074 831C1063.79 830.668 1067.69 824.017 1066 817z"/>
<path style="fill:#fd000b; stroke:none;" d="M482 874L481 852C470.919 855.464 467.356 868.503 471.634 877.83C473.639 882.201 477.842 884.838 480 889L510 891L510 890L508 889L513 887L512 885C515.514 883.43 520.507 882.002 522.721 878.657C530.515 866.882 518.098 847.438 530.21 837.514C534.385 834.093 540.94 834.782 546 834L546 864L555.821 862.397L557 851L556 819C544.621 822.012 527.715 819.524 519.904 829C507.059 844.582 524.953 879.203 494 877.852C489.741 877.666 486.094 874.936 482 874z"/>
<path style="fill:#b91520; stroke:none;" d="M735 820L735 827L736 827L735 820z"/>
<path style="fill:#f43034; stroke:none;" d="M536 821L536 823L546 823L546 821L536 821z"/>
<path style="fill:#ff3741; stroke:none;" d="M369 823L368 829L371 823L369 823z"/>
<path style="fill:#ed231f; stroke:none;" d="M1253 847L1254 847L1254 826L1259 826C1259.63 833.917 1267.89 832 1274 832L1279 844C1278.68 840.021 1278.5 833.41 1274.72 831.028C1268.68 827.22 1261.96 832.611 1260 823C1245.62 824.874 1251.62 836.771 1253 847z"/>
<path style="fill:#f24249; stroke:none;" d="M1136 830L1146 825C1141.5 823.302 1138.03 826.044 1136 830z"/>
<path style="fill:#f8040e; stroke:none;" d="M1254 826L1254 848L1257 848L1261 888C1266.66 894.513 1266 908.707 1266 917C1266 927.319 1267.98 937.677 1266.71 948C1265.18 960.493 1259.65 975.654 1261 988L1258 989L1258 1004C1252.23 1004.71 1248.92 1028.29 1247.15 1034C1240.43 1055.8 1234.2 1076.55 1224.11 1097.25C1220.61 1104.45 1217.09 1114.88 1211 1120C1210.39 1129.79 1199.91 1139.89 1194.22 1147.29C1189.94 1152.87 1186.56 1161.35 1184 1168C1186.69 1169.43 1191.34 1173.33 1194.57 1172.26C1197.14 1171.41 1198.08 1166.28 1199.43 1164.17C1205.08 1155.36 1212.48 1146.69 1214 1136C1224.54 1132.25 1228.88 1114.25 1232.85 1105C1242.28 1083.02 1247.9 1060.85 1252.75 1038C1255.18 1026.53 1260.37 1014.64 1261 1003L1262 1003C1262 1038.02 1251.5 1074.57 1237.27 1106.09C1233.26 1114.96 1234.23 1130.42 1225 1136C1225.44 1145.33 1217.17 1158.67 1212.88 1166.83C1210.38 1171.57 1206.18 1174.22 1207 1180L1212 1172L1214 1173L1229.98 1148.96L1253.47 1100L1256.67 1079.21L1263.64 1062.71L1269 1049L1268 1045C1272.05 1042.34 1269.91 1037.32 1271 1033C1274.25 1020.16 1278.47 1007.16 1280.12 994C1284.7 957.61 1285.84 921.651 1283.09 885C1281.74 866.95 1280.78 848.726 1274 832C1267.96 832 1260.23 833.527 1259 826L1254 826z"/>
<path style="fill:#d23a35; stroke:none;" d="M360 828L356 868L357 868L363 829L360 828z"/>
<path style="fill:#da2127; stroke:none;" d="M689 830C689.475 838.671 697.041 848.325 706 849L706 848L689 830z"/>
<path style="fill:#ef3331; stroke:none;" d="M367 831C362.948 846.654 357.054 863.764 358 880L359 880L365.204 846.911L367 831z"/>
<path style="fill:#f01a24; stroke:none;" d="M734 831C734 836.475 732.046 846.481 736.768 850.486C740.246 853.436 747.743 852 752 852C765.734 852 780.471 853.512 794 851L790 835C779.173 833.632 756.54 838.47 748 832L747 832L746 832L736 836L736 831L734 831z"/>
<path style="fill:#e4383f; stroke:none;" d="M517 832L509 874C517.568 869.388 513.16 855.146 514.129 847.039C514.672 842.498 517.353 837.305 519 833L517 832z"/>
<path style="fill:#f72d39; stroke:none;" d="M1132 832C1130.36 835.995 1129.3 844.513 1126.4 847.397C1121.97 851.787 1106.58 849.036 1101 848C1103.79 852.302 1123.16 853.301 1127.4 849.972C1129.78 848.1 1134.08 835.366 1135 832L1132 832z"/>
<path style="fill:#e9233a; stroke:none;" d="M562 875C566.163 888.632 588.554 896.017 596.682 880.96C598.981 876.701 598 870.673 598 866L598 833C595.185 833.811 592.601 834.893 590 836.263C573.854 844.77 587.317 859.018 579.972 870.777C576.564 876.233 567.134 872.564 562 875z"/>
<path style="fill:#db2f3d; stroke:none;" d="M967 843C971.517 841.741 981.535 838.419 983 834C976.515 834.664 970.883 837.773 967 843z"/>
<path style="fill:#ff2b37; stroke:none;" d="M1151 834.704C1135.73 839.476 1139.67 855.485 1155.85 850.682C1162.25 848.781 1160.22 831.822 1151 834.704z"/>
<path style="fill:#f2252a; stroke:none;" d="M523 880L524 880C530.855 866.923 519.303 839.974 539 836C532.837 833.487 527.17 837.953 525.499 844C522.498 854.865 524.668 868.653 523 880z"/>
<path style="fill:#ec1f26; stroke:none;" d="M385 836L379 855L376 883L378 883C378.314 867.788 382.404 850.467 387 836L385 836z"/>
<path style="fill:#fc020c; stroke:none;" d="M594 836C590.092 838.427 584.556 840.196 583.303 845.171C581.462 852.48 586.844 867.689 581.258 873.397C578.049 876.674 569.227 875 565 875L565 880C568.98 881.769 571.643 885.801 576.015 886.721C604.004 892.615 597 853.499 597 837L594 836z"/>
<path style="fill:#f92e37; stroke:none;" d="M1080 836L1087 848C1073.95 851.108 1055.16 850.444 1042 848C1042.98 852.583 1049.12 851 1053 851L1088 851C1087.74 845.451 1085.76 837.884 1080 836z"/>
<path style="fill:#000000; stroke:none;" d="M1142 849C1144.99 849 1148.01 849.113 1151 848.981C1161.14 848.533 1157.75 830.646 1146.19 839.133C1144.76 840.18 1143.59 841.466 1142.86 843.089C1142.01 844.967 1142.06 846.992 1142 849M737.603 838.028C734.649 840.368 735.56 847.557 739.228 848.682C750.166 852.035 766.541 849 778 849C781.315 849 787.632 850.18 790.396 847.972C795.143 844.181 788.843 838.144 784.996 837.344C774.147 835.088 761.075 837 750 837C746.672 837 740.384 835.825 737.603 838.028z"/>
<path style="fill:#f82c37; stroke:none;" d="M1028 843C1026.93 849.703 1021.68 849 1016 849C1004.8 849.001 993.042 850.05 982 848C983.064 852.964 991.811 851 996 851C1006.1 851 1030 856.115 1030 843L1028 843z"/>
<path style="fill:#df2339; stroke:none;" d="M480 888C472.976 875.741 462.379 861.755 481 852L482 874L499 878L499 877C481.459 875.565 483 861.764 483 848C467.194 854.124 460.969 881.513 480 888z"/>
<path style="fill:#dd2220; stroke:none;" d="M1254 848L1261 887L1262 887L1257 848L1254 848z"/>
<path style="fill:#fc2f36; stroke:none;" d="M704 849L704 850L722 851L722 849L704 849z"/>
<path style="fill:#e11419; stroke:none;" d="M1280 852C1280 867.181 1283.81 881.935 1284.91 897C1285.72 908.036 1283.95 918.98 1284 930C1284.13 957.182 1284.66 985.882 1275.54 1012C1272.55 1020.55 1273.83 1038.93 1268 1045L1269 1049L1263.93 1060.91L1257 1089L1258 1089C1263.23 1069.84 1270.52 1051.41 1275.12 1032C1284.57 992.111 1288.89 949.867 1286.09 909C1284.95 892.327 1288 867.057 1280 852z"/>
<path style="fill:#f2222b; stroke:none;" d="M982 864L982 873L983 873C983.852 861.831 1003.7 866 1012 866L1072 866C1079.58 866 1090.84 863.906 1097.96 866.603C1100.98 867.746 1103.11 870.548 1106 872L1106 866C1125.73 866 1152.12 870.58 1171 865L1171 864L1123 864C1116.84 864 1108.6 862.308 1104 867C1095.47 860.862 1079.21 864 1069 864L982 864z"/>
<path style="fill:#e94037; stroke:none;" d="M355 868L355 888L357 888L355 868z"/>
<path style="fill:#ea2e3a; stroke:none;" d="M966 871C961.374 873.469 952.296 870.779 948.836 874.028C942.727 879.766 957.755 887.768 962 888L962 887C955.729 884.996 952.265 881.088 950 875C953.791 875 967.365 877.076 966 871z"/>
<path style="fill:#ff6a6f; stroke:none;" d="M356 875L356 880L358 880L358 875L356 875z"/>
<path style="fill:#e31c21; stroke:none;" d="M980 877C973.992 891.636 963.374 883.497 953 882L953 883L962 887L962 888L960 888L960 889C965.833 889.412 986.214 887.365 980 877z"/>
<path style="fill:#e5172b; stroke:none;" d="M512 885L513 887L508 889L508 890C514.48 889.332 519.691 885.568 523 880L512 885z"/>
<path style="fill:#e72e3e; stroke:none;" d="M1020.21 881.028C1011.91 885.939 1019.99 897.041 1027.81 892.678C1035.78 888.227 1027.93 876.465 1020.21 881.028z"/>
<path style="fill:#f51108; stroke:none;" d="M1024.01 882.006C1017.46 882.099 1018.65 891.965 1024.96 891.338C1031.15 890.723 1029.91 881.923 1024.01 882.006z"/>
<path style="fill:#ec1c29; stroke:none;" d="M1261 888C1262.94 912.558 1266.78 936.356 1263.27 961C1262.44 966.801 1256.53 983.937 1261 988C1260.21 975.642 1265.19 961.43 1266.71 949C1268.1 937.705 1266 926.298 1266 915C1266 908.196 1266.77 892.396 1261 888z"/>
<path style="fill:#f22933; stroke:none;" d="M481 889L481 890L493 892L481 889z"/>
<path style="fill:#d61019; stroke:none;" d="M488 892L488 893L499 893L499 891L488 892z"/>
<path style="fill:#d51730; stroke:none;" d="M482.109 899.743C473.503 903.394 481.374 913.511 488.867 910.257C497.064 906.696 489.519 896.6 482.109 899.743z"/>
<path style="fill:#ff283d; stroke:none;" d="M508 902L512 899L508 902z"/>
<path style="fill:#fb0c09; stroke:none;" d="M507 901C507 904.064 506.577 907.654 509 909C511.655 910.475 517.549 908.478 518 906C518.706 902.117 514.428 901.286 515 899L507 901z"/>
<path style="fill:#eb282a; stroke:none;" d="M514 900C520.745 909.049 507.723 911.537 507 901C502.944 907.918 511.436 914.543 517.424 909.258C521.472 905.684 518.657 900.23 514 900z"/>
<path style="fill:#fe030a; stroke:none;" d="M482 901L482 909C491.95 908.882 491.969 901.241 482 901z"/>
<path style="fill:#ef383a; stroke:none;" d="M372 911L372 956L373 956L374 925L372 911z"/>
<path style="fill:#fd010e; stroke:none;" d="M665 1008L664 1008C654.988 1022.6 665.243 1030.93 678 1036.13C698.12 1044.32 728.256 1036.65 728.004 1011C727.969 1007.48 728.549 1003.46 727.03 1000.17C722.559 990.496 714.603 988.23 708 981L687 973L688 957C693.812 957.591 697.599 952.178 703.996 954.732C712.646 958.183 711.897 972.873 723.71 968.436C737.875 963.115 728.006 938.634 716 937L716 936L718 936C692.496 922.441 657.743 948.658 665.471 976.714C667.752 984.996 676.411 993.264 684.093 996.75C690.52 999.666 697.477 998.508 702.397 1005.21C707.205 1011.76 700.612 1018.54 693.999 1018.96C682.158 1019.7 674.889 1013.42 665 1008M1042 1032L1043 1032L1043 1030L1044 1030C1045.05 1036.3 1058.84 1039.12 1063.17 1034.26C1066.47 1030.55 1064 1016.94 1064 1012L1065 1012L1065 1016L1066 1016C1066.71 1006.95 1072.94 994.614 1081.47 1007.3C1087.11 1015.69 1087.48 1043.37 1104 1039.34C1106.91 1038.64 1110.06 1037.07 1112.71 1035.7C1116.14 1033.93 1118.24 1031.33 1120 1028L1116 1028C1115.33 1019.22 1098.26 1008.4 1101.07 999.344C1102.08 996.109 1107.14 995.05 1109 992L1112 994C1122.76 976.129 1127.35 947.699 1104 937.198C1094.52 932.934 1084.13 933.984 1074 934C1068.1 934.009 1053.23 932.724 1048.43 936.028C1043.54 939.394 1045.28 954.591 1044.91 960C1043.28 983.844 1038.98 1008.11 1042 1032z"/>
<path style="fill:#ee2932; stroke:none;" d="M464 1024L465 1024C466.703 1005.07 478.683 984.617 485.641 967.039C488.829 958.986 492.111 946.984 497.724 940.394C502.045 935.321 516.665 935.403 521.996 938.742C538.924 949.347 528.37 977.286 542 989C540.915 980.943 538.612 972.784 536.28 965C534.079 957.655 533.543 948.685 529.468 942.09C524.278 933.693 502.299 930.699 495.966 939.133C490.665 946.194 487.962 955.93 484.576 964C477.043 981.952 464.166 1004.26 464 1024z"/>
<path style="fill:#e11d27; stroke:none;" d="M571 939C585.924 935.588 595.929 938.906 595 956C602.534 946.055 593.229 935.794 583 935.089C578.442 934.776 572.745 934.036 571 939z"/>
<path style="fill:#ec2932; stroke:none;" d="M765 958L766 958C773.337 944.601 778.195 930.769 796.985 937.89C800.707 939.3 803.283 942.498 807 944C802.381 935.127 783.256 930.097 774.637 936.938C769.589 940.946 766.056 951.866 765 958z"/>
<path style="fill:#ef2e3a; stroke:none;" d="M848 938C856.898 938 864.143 937.34 872 942C868.725 935.2 852.743 930.683 848 938z"/>
<path style="fill:#ec223a; stroke:none;" d="M904 935L904 937C913.708 937 918.86 937.463 927 943C925.408 933.162 911.585 935 904 935z"/>
<path style="fill:#e6242c; stroke:none;" d="M944 1008L945 1008C948.068 998.646 951.225 985.272 958 978C958.662 964.151 973.923 952.568 973 939L1002 940L1013 980L1015 980C1014.12 960.746 1008.15 935 986 935C982.055 935 976.862 934.262 973.532 936.858C968.545 940.746 965.848 950.33 963.421 956C956.581 971.985 945.749 990.548 944 1008z"/>
<path style="fill:#e6202f; stroke:none;" d="M1140 974L1141 974C1141 965.124 1141.98 956.785 1142.67 948C1142.9 945.148 1141.36 941.04 1143.62 938.742C1148.35 933.921 1158.87 938.269 1164 940L1165 986C1166.46 982.51 1165.81 978.737 1166.17 975C1167.1 965.21 1172.32 945.967 1163.78 938.433C1160.15 935.24 1144.41 931.897 1141.6 937.434C1137.62 945.282 1137.99 965.576 1140 974z"/>
<path style="fill:#f31524; stroke:none;" d="M716 936L716 937C727.767 939.773 738.282 964.826 721.911 968.696C712.03 971.032 712.848 958.885 705.96 955.175C698.898 951.372 694.575 956.377 688 957L687 973L694 978.5L707 982C703.75 977.568 697.313 976.826 693.044 973.443C684.519 966.687 690.879 955.692 700.999 956.403C713.508 957.281 705.738 974.999 721 971.471C722.712 971.075 724.432 970.458 725.96 969.583C740.983 960.98 731.393 936.8 716 936z"/>
<path style="fill:#fd010e; stroke:none;" d="M903 936C902.925 945.019 901.111 953.987 901.004 963C900.961 966.582 902.114 972.455 899.972 975.566C896.681 980.349 873.952 979.79 871.028 974.852C865.892 966.178 871.14 950.064 868 940L851 939C848.994 962.006 847.143 984.846 845.501 1008C844.99 1015.2 841.308 1025.84 846.013 1032.53C849.648 1037.69 858.525 1037 864 1037C866.725 1029.37 867.922 1020.12 868 1012C868.044 1007.44 868.029 999.028 871.589 995.603C876.622 990.761 893.655 994.198 900 995C900 1006.72 895.792 1026.32 903 1036L920 1036C920 1014.94 923.107 992.898 926.066 972C927.645 960.845 930.968 952.473 928 941L926 943C919.98 934.922 911.671 938.064 903 936M465 1024L464 1024L464 1021L463 1021C459.763 1038.44 470.478 1035.02 483 1038C486.779 1031.13 486.65 1019.25 494.174 1015.03C498.719 1012.48 507.062 1013.9 512 1014.58C515.046 1014.99 519.153 1014.76 521.643 1016.86C527.557 1021.85 520.475 1033.39 533 1034L534 1037L551 1036L543 989C539.288 986.603 538.799 981.102 537.421 977.015C533.649 965.837 534.016 945.769 522.985 938.742C517.978 935.553 502.061 935.114 497.724 939.653C492.395 945.229 488.979 957.387 486.215 964.576C479.239 982.723 465.909 1004.4 465 1024M591 1020C587.116 999.08 592.428 975.236 597 955L595 956C596.123 945.481 592.848 936.768 581 937.015C578.138 937.075 573.945 937.165 572.028 939.703C568.423 944.474 572.295 954.484 571.945 960C570.79 978.207 568.346 996.646 567.089 1015C566.723 1020.36 565.083 1032.4 571.144 1035.11C574.887 1036.78 580.008 1036 584 1036C593.361 1036 605.983 1038.22 614.96 1035.49C619.697 1034.05 625.66 1024.06 620.411 1020.05C618.077 1018.26 614.464 1020.58 611.961 1020.87C604.938 1021.7 597.95 1019.99 591 1020M764 957C762.481 969.895 755.956 978.503 751.58 990.17C747.338 1001.48 743.258 1016.94 742.318 1029C741.611 1038.06 760.161 1038.43 764 1033L765 1033L765 1036L766 1036C768.924 1014.29 779.564 1013.54 799 1016C799.043 1028.62 804.854 1036.98 818 1037C821.283 1037 826.593 1037.83 828.667 1034.57C830.982 1030.92 828.324 1024.97 828 1021L827 1021L826 1023L820 1005L815 974C806.282 964.04 812.616 941.833 796.995 937.495C793.831 936.617 790.248 937 787 937C783.92 937 779.189 936.131 776.477 937.889C770.321 941.878 771.201 955.163 764 957z"/>
<path style="fill:#fc020e; stroke:none;" d="M1141 974L1140 974L1139 972C1135.66 983.308 1136.72 997.225 1135.91 1009C1135.43 1015.98 1133.56 1024.09 1135.57 1031C1137.75 1038.49 1154.16 1042.91 1160.4 1037.97C1164.54 1034.69 1163 1018.05 1163 1013C1163 988.777 1168.79 963.876 1164 940C1159.54 937.925 1146.98 933.743 1143.03 938.742C1141.19 941.073 1142.69 945.274 1142.48 948C1141.83 956.765 1141 965.154 1141 974z"/>
<path style="fill:#eb1722; stroke:none;" d="M847 938C847 967.572 838.167 998.589 841.105 1028C842.12 1038.16 857.14 1042.57 865.683 1038.4C868.652 1036.95 868.714 1031.84 868.911 1029C869.394 1021.99 866.932 998.625 876.019 997.148C878.916 996.677 882.074 997 885 997C888.154 997 892.915 996.177 895.682 998.028C899.225 1000.4 897.324 1005.58 897.089 1009C896.611 1016 894.422 1031.08 900.394 1036.03C904.551 1039.48 920.292 1041.98 922.968 1035.85C925.951 1029.02 924.59 1019.3 925.089 1012C926.186 995.981 927.737 980.007 929 964L928 964L924.74 989L920 1036L903 1036C896.823 1024.45 900 1007.87 900 995C893.838 993.856 876.843 991.024 871.589 995.028C868.816 997.141 868.326 1003.79 868.09 1007C867.339 1017.25 866.348 1027.01 864 1037C858.308 1037 849.553 1037.26 846.013 1031.74C841.313 1024.41 845.545 1014.95 845.807 1007.29C846.591 984.385 849.961 961.728 851 939L868 940L871 977L874 976C870.504 961.318 882.211 938.039 859 938L847 938z"/>
<path style="fill:#fd010c; stroke:none;" d="M973 939C973.243 952.61 956.361 964.1 958 978L943 1008C943.943 1014.26 932.574 1034.19 945 1034C948.724 1039.16 957.295 1036.58 963 1037L967 1014L997 1014L999 1027L1000 1027L1000 1024L1001 1024C1001.68 1027.64 1001.57 1032.85 1005.15 1034.97C1009.1 1037.31 1025.23 1037.99 1025.8 1031.94C1026.41 1025.41 1021.68 1016.61 1020.53 1010C1016.34 986.012 1008.83 963.279 1002 940C992.611 937.907 982.592 936.716 973 939z"/>
<path style="fill:#e42930; stroke:none;" d="M673 944L665 958L666 958L673 944z"/>
<path style="fill:#ee2337; stroke:none;" d="M807 944L813 974L815 974L807 944z"/>
<path style="fill:#e4171e; stroke:none;" d="M570 947C570 966.207 567.68 985.883 565.83 1005C565.088 1012.67 562.405 1025.87 566.179 1032.96C568.3 1036.94 572.746 1038.56 577 1038.91C587.491 1039.77 616.827 1043.7 621 1032C613.512 1035.45 608.306 1036 600 1036C592.409 1036 576.584 1038.97 570.303 1034.14C564.282 1029.51 567.194 1016.37 567.831 1010C569.158 996.726 568.65 983.172 570.129 970C571.015 962.103 573.719 954.738 570 947z"/>
<path style="fill:#eb1d29; stroke:none;" d="M1072 986C1070.46 979.02 1068.6 964.622 1073.01 958.318C1078.49 950.49 1091.8 958.558 1094 965C1098.67 952.878 1078.63 949.57 1071.6 955.934C1067.46 959.678 1069 970.01 1069 975C1069 979.206 1068.17 983.518 1072 986z"/>
<path style="fill:#fc2a35; stroke:none;" d="M510 954L508 962L509 962L510 960L512 971L513 971C514.248 964.277 513.426 959.912 510 954z"/>
<path style="fill:#000000; stroke:none;" d="M1071 984C1074.94 984.498 1079.04 985.51 1083 984.606C1093.44 982.224 1100.08 964.671 1089.89 957.858C1086.12 955.333 1074.21 953.896 1072.23 959.148C1070.72 963.146 1071.09 967.82 1070.99 972C1070.88 976.139 1070.32 979.874 1071 984z"/>
<path style="fill:#ec2734; stroke:none;" d="M782 972L783 972L788 961L791 975C792.385 971.701 792.302 956.851 786.084 957.921C781.379 958.731 782.009 968.649 782 972z"/>
<path style="fill:#e82722; stroke:none;" d="M664 958C663.311 974.04 663.595 990.174 682 996L666.105 977.576L664 958z"/>
<path style="fill:#ef1e22; stroke:none;" d="M595 959C590.559 976.165 586.853 1002.58 591 1020L616 1021L616 1018L592 1018L595.015 974L595 959z"/>
<path style="fill:#000000; stroke:none;" d="M509 960L500 995L516 995C515.805 985.548 514.924 967.528 509 960M985 960C980.591 970.244 976.232 983.822 976 995L992 995C991.241 985.468 990.402 967.862 985 960z"/>
<path style="fill:#ef2533; stroke:none;" d="M763 961L752 988C757.474 984.513 765.083 967.323 763 961z"/>
<path style="fill:#000000; stroke:none;" d="M786 961L776 994C779.445 995.018 789.398 996.905 791.933 993.397C793.611 991.074 792.013 986.545 791.586 984C790.31 976.385 788.608 968.698 788 961L786 961z"/>
<path style="fill:#f9282e; stroke:none;" d="M900 969C899.156 980.065 880.217 976 872 976L872 978C879.353 978 905.582 982.323 900 969z"/>
<path style="fill:#ea1b2f; stroke:none;" d="M814 975L820 1005L826 1023L827 1023L816 975L814 975z"/>
<path style="fill:#e92c3b; stroke:none;" d="M792 976C792 980.318 793.829 988.932 791.802 992.682C789.152 997.588 778.915 994.976 776 992L775 992L775 997C779.54 997 789.714 998.911 793.396 995.972C796.685 993.347 793.456 979.468 792 976z"/>
<path style="fill:#ea3f4b; stroke:none;" d="M1084 984L1084 985C1088.92 984.451 1091.63 982.299 1094 978L1084 984z"/>
<path style="fill:#e9161e; stroke:none;" d="M1015 980C1015.28 993.249 1019.89 1007.03 1022.46 1020C1023.19 1023.68 1026.1 1028.19 1025.55 1031.94C1024.65 1038.11 1008.88 1037.19 1005.15 1034.4C1001.92 1031.98 1001.87 1027.6 1001 1024L1000 1024L1000 1027L999 1027L997 1014L967 1014L966 1026L967 1026C968.799 1016.89 986.966 1011.31 994.4 1018.6C999.486 1023.59 996.766 1032.24 1004.04 1036.63C1008.33 1039.22 1026.08 1042.15 1028.31 1035.85C1029.89 1031.37 1026.62 1023.45 1025.53 1019C1024.13 1013.33 1022.68 1007.68 1021.35 1002C1019.69 994.919 1018.47 986.395 1015 980z"/>
<path style="fill:#de2336; stroke:none;" d="M708 981L718 987L708 981z"/>
<path style="fill:#e72837; stroke:none;" d="M515 984L516 995C510.103 995 503.544 996.29 499 992C495.503 999.188 513.015 997 517 997L517 984L515 984z"/>
<path style="fill:#f42632; stroke:none;" d="M992 984L992 995L976 995L976 987L974 987L974 997L993 997L992 984z"/>
<path style="fill:#ea1c33; stroke:none;" d="M718 987C720 992.72 726.196 996.754 727.687 1003.01C731.895 1020.68 718.995 1037.17 701 1038L701 1040C726.693 1039.45 745.91 1000.05 718 987z"/>
<path style="fill:#ed2226; stroke:none;" d="M376 989L380 1014L381 1014L378 989L376 989z"/>
<path style="fill:#ea2e3b; stroke:none;" d="M1164 989L1163 1013L1164 1013L1164 989z"/>
<path style="fill:#f52e43; stroke:none;" d="M1258 990L1257 1004L1258 1004L1258 990z"/>
<path style="fill:#e31723; stroke:none;" d="M542 992L551 1036L534 1037L533 1034C521.206 1032.46 527.64 1022.02 522.382 1016.86C520.014 1014.54 515.072 1014.83 512 1014.42C507.048 1013.77 497.776 1012.4 493.301 1015.03C486.741 1018.88 485.571 1031.42 483 1038L468 1037L468 1038C472.872 1038.9 484.424 1041.4 487.86 1036.68C491.58 1031.57 489.322 1021.62 495.228 1018.03C500.903 1014.58 513.473 1017 520 1017C521.102 1030.5 526.711 1038.93 541 1039C543.96 1039.01 549.876 1040.07 551.971 1037.4C554.139 1034.63 552.312 1029.07 551.739 1026C549.9 1016.13 548.268 999.926 542 992z"/>
<path style="fill:#e2151d; stroke:none;" d="M750 992C746.684 1002.17 735.578 1021.28 739.743 1031.98C742.947 1040.22 764.173 1043.61 765 1033L764 1033C759.635 1037.09 743.358 1038.62 742.577 1029.98C741.546 1018.59 754.057 1002.5 750 992z"/>
<path style="fill:#ec2b40; stroke:none;" d="M1109 992C1102.7 999.051 1095.91 1003.39 1108 1011L1103.87 1001.1L1111 992L1109 992z"/>
<path style="fill:#e22237; stroke:none;" d="M687 997L687 998C689.971 999.627 693.076 1001.02 695.996 1002.75C704.874 1007.99 702.257 1016.98 692 1017.77C684.043 1018.39 677.426 1012.96 671 1009.22C668.544 1007.79 665.142 1006.22 662.434 1008.03C659.703 1009.86 659.968 1014.13 659.576 1017C657.43 1032.76 674.484 1039.41 688 1040L688 1038C670.015 1037.57 656.26 1025.76 664 1008C674.316 1013.66 686.06 1023.42 698.826 1018.27C714.232 1012.06 695.675 997.763 687 997z"/>
<path style="fill:#de1a26; stroke:none;" d="M1066 1016L1065 1016L1065 1012L1064 1012C1064 1017.44 1066.18 1028.45 1063.54 1033.2C1059.98 1039.58 1045.78 1035.88 1044 1030L1043 1030L1043 1032L1042 1032L1041 1015L1040 1015C1040 1019.29 1039.68 1023.73 1040.1 1028C1041.01 1037.03 1058.22 1045 1065.06 1037.4C1069.51 1032.46 1067.64 1017.39 1068.04 1011C1068.26 1007.53 1069.68 1003.6 1073.97 1004.38C1079.3 1005.34 1080 1012.82 1081.34 1017C1084.29 1026.19 1088.66 1037.54 1099 1040C1095.55 1035.88 1090.97 1033.08 1088.76 1028C1085.69 1020.93 1085.98 1011.78 1080.87 1005.68C1071.44 994.445 1066.36 1007.7 1066 1016z"/>
<path style="fill:#ff3a44; stroke:none;" d="M1261 1003L1258 1018L1259 1018L1261 1003z"/>
<path style="fill:#ef2731; stroke:none;" d="M943 1009L939 1022L940 1022L943 1009z"/>
<path style="fill:#e71c22; stroke:none;" d="M1106 1010L1116 1028L1120 1028C1117.47 1021.09 1112.6 1013.5 1106 1010z"/>
<path style="fill:#e62128; stroke:none;" d="M1261 1012L1253 1056L1254 1056C1257.95 1045.15 1265.67 1023.13 1261 1012z"/>
<path style="fill:#e61c32; stroke:none;" d="M381 1014L388 1054C391.033 1051.34 389.35 1047.53 388.474 1044C386.127 1034.55 385.186 1022.71 381 1014z"/>
<path style="fill:#e7162b; stroke:none;" d="M772 1016L772 1017C778.02 1017 789.055 1014.82 794.467 1017.45C799.076 1019.7 798.284 1028.01 800.843 1031.98C805.489 1039.19 829.09 1044.68 830 1033L829 1033C826.515 1037.25 822.58 1037.02 818 1037C805.482 1036.95 799.132 1027.94 799 1016C790.161 1014.36 780.727 1013.41 772 1016z"/>
<path style="fill:#ff5b61; stroke:none;" d="M1259 1014L1255 1036C1260.61 1032.18 1260.98 1020.4 1261 1014L1259 1014z"/>
<path style="fill:#e61626; stroke:none;" d="M938 1023C938 1026.7 937.287 1031.5 939.742 1034.61C943.394 1039.23 958.661 1041.95 963.066 1037.26C965.594 1034.56 965.842 1029.47 966 1026L964 1026L963 1037C956.695 1036.3 950.014 1038.73 945 1034C938.717 1032.52 940.047 1027.87 938 1023z"/>
<path style="fill:#e02835; stroke:none;" d="M1120 1028L1104 1039L1104 1040C1110 1039.73 1122.55 1036.15 1120 1028z"/>
<path style="fill:#f63e40; stroke:none;" d="M1255 1029L1252 1043C1255.55 1040.3 1256.26 1033.1 1255 1029z"/>
<path style="fill:#000000; stroke:none;" d="M1256 1035L1257 1036L1256 1035M1255 1036L1255 1040L1256 1040L1255 1036z"/>
<path style="fill:#f2272d; stroke:none;" d="M1241 1051L1211 1120L1222.04 1102.39L1243 1051L1241 1051z"/>
<path style="fill:#ed1d2b; stroke:none;" d="M391 1056C391.032 1065.4 395.165 1072.35 397.871 1081C399.786 1087.12 400.362 1095.02 406 1099C403.84 1086.45 397.775 1066.77 391 1056z"/>
<path style="fill:#e31b28; stroke:none;" d="M1252 1056L1247 1078L1248 1078C1250.97 1071.95 1254.76 1062.58 1252 1056z"/>
<path style="fill:#ed2235; stroke:none;" d="M369 1069L373 1087L374 1087L369 1069z"/>
<path style="fill:#eb2b35; stroke:none;" d="M1246 1079L1239 1103L1240 1103L1248 1079L1246 1079z"/>
<path style="fill:#e21b1d; stroke:none;" d="M728 1090L728 1093L785 1087.04L879 1088C868.445 1081.68 848.018 1085 836 1085C818.455 1085 800.501 1083.89 783 1085.09C764.768 1086.34 746.264 1089.85 728 1090z"/>
<path style="fill:#fd010e; stroke:none;" d="M680 1099L664 1103.07L637 1108L638 1111C614.379 1117.44 589.034 1121.52 566 1130.19C554.249 1134.62 539.664 1146.59 527 1146C515.163 1158.73 492.178 1163.82 476.999 1172.24C470.745 1175.71 463.227 1182.52 456 1183L442 1195L425.827 1204.14L402 1219L411 1234C419.321 1235.81 429.452 1251.47 433 1259L436 1258L436 1261L440 1264L438 1264C441.382 1270.21 447.083 1274.65 451.381 1280.13C460.682 1291.99 468.14 1310.68 484 1313C486.142 1308.42 488.947 1306.35 494 1306L502.394 1299.98L525 1288L523 1286L551 1270.07L561 1263C568.968 1262.02 575.948 1257.33 583 1253.82C594.551 1248.06 606.962 1243.06 619 1238.47C650.071 1226.62 684.411 1222.05 716 1211.76C728.138 1207.81 738.387 1206.77 751 1205.29C755.619 1204.74 761.196 1206.32 764 1202C771.566 1206.39 785.489 1202.11 794 1202C819.371 1201.7 844.706 1203 870 1203L869 1206C913.19 1206 959.032 1217.3 1000.91 1230.09C1018.91 1235.59 1038.04 1253.74 1058 1250L1077.02 1264.37L1105.83 1277.64L1131.74 1292.26L1142 1298C1143.57 1302.65 1147.95 1304.17 1151.96 1306.51C1155.61 1308.64 1158.35 1313.59 1162.91 1313.72C1168.52 1313.88 1171.5 1306.9 1173.97 1303.08C1177.92 1296.96 1186.96 1285.68 1193 1282L1192 1278C1200.75 1273.98 1201.98 1266.16 1207.34 1259.3C1210.62 1255.1 1215.68 1252.29 1218.57 1247.74C1222.46 1241.61 1225.38 1234.01 1233 1232L1239 1222C1237.54 1215.46 1232.92 1214.08 1228 1210.17C1221.49 1205.01 1213.01 1199.09 1205.7 1195.21C1198.94 1191.62 1187.71 1187.96 1184 1181L1172 1178C1170.34 1173.37 1164.38 1171.57 1160 1170C1158.35 1161.31 1143.65 1160.89 1137 1157.98C1120.16 1150.61 1103.42 1143.21 1086.71 1136.03C1079.36 1132.87 1071.44 1133.87 1066 1127C1056.44 1126.73 1046.14 1121.33 1037 1118.57C1018.28 1112.93 999.667 1108.41 980 1108C977.838 1100.61 962.144 1102 956 1102L956 1101L960 1101L960 1100L944 1098L944 1094L885 1087.09L784 1087.04L733.011 1092.21L722.166 1091.26L680 1099z"/>
<path style="fill:#ec192c; stroke:none;" d="M688 1096L688 1097L720 1093L688 1096z"/>
<path style="fill:#e71f2a; stroke:none;" d="M944 1095L944 1098L960 1100L960 1101L956 1101L956 1102C963.141 1102 975.75 1101.05 980 1108C999.39 1108.83 1017.49 1112.99 1036 1118.57C1044.81 1121.23 1056.87 1128.04 1066 1127C1069.87 1134.39 1079.04 1133.22 1085.83 1136.03C1099.54 1141.72 1113.03 1148.06 1127 1153.61C1132.84 1155.92 1137.58 1159.42 1144 1160C1132.05 1148.02 1106.7 1141.55 1091 1135.58C1057.54 1122.83 1023.88 1111.98 989 1103.77C974.438 1100.34 959.006 1095.64 944 1095z"/>
<path style="fill:#e91d28; stroke:none;" d="M656 1103L656 1104C662.065 1103.74 676.568 1104.29 680 1099L688 1099L688 1097L656 1103z"/>
<path style="fill:#e0273d; stroke:none;" d="M408 1104L411 1110L408 1104z"/>
<path style="fill:#f01e21; stroke:none;" d="M772 1108L772 1109L776 1109L776 1111L771 1111C771 1115.69 769.763 1121.26 775 1123L766 1134C771.698 1131.79 778.233 1127.02 780 1121C773.674 1120.79 772.147 1118.08 772 1112C782.684 1111.54 793.29 1110.28 804 1109.96C807.765 1109.85 814.746 1109.78 812.377 1115.86C811.061 1119.24 805.802 1119.96 803 1121.76C796.494 1125.96 787.331 1131.92 784 1139L800 1151L789 1136L807 1125L807 1124L804 1124L804 1123L816 1119L812 1105L772 1108z"/>
<path style="fill:#e92931; stroke:none;" d="M577 1126L577 1127L614 1116.32L638 1111L637 1108L577 1126z"/>
<path style="fill:#000000; stroke:none;" d="M772 1112C772.059 1118.54 773.209 1120.92 780 1121C775.734 1129.76 763.688 1137.16 756 1143L754 1123C761.527 1122.02 763.808 1119.62 762 1112C752.972 1113.68 743.177 1113.79 734 1114.01C730.611 1114.1 723.334 1113.84 720.604 1116.03C717.784 1118.29 719.801 1122.51 721 1125C735.669 1124.48 734.528 1159.88 734 1171C726.468 1171.62 723.979 1174.79 727 1182C738.082 1179.36 758.237 1184.54 767.667 1177.97C769.996 1176.35 769.844 1172.61 768.061 1170.6C765.457 1167.67 760.581 1169.84 758.565 1165.77C755.835 1160.27 761.373 1151.68 767.576 1151.6C771.09 1151.55 775.131 1156.85 777.576 1159C780.489 1161.56 783.25 1164.27 786 1167C781.152 1168.33 774.361 1176.37 783.059 1177.85C794.86 1179.86 812.247 1177.18 824 1175L824 1166C807.352 1165.24 797.816 1146.17 784 1139C788.687 1132.4 796.35 1127.02 803 1122.44C805.569 1120.67 811.013 1119.58 812.396 1116.69C815.709 1109.75 808.398 1109.63 804 1109.91C793.315 1110.59 782.675 1111.16 772 1112M836 1109C833.985 1119.89 841.738 1115.38 843.833 1123.06C846.137 1131.5 841.614 1143.37 841.025 1152C840.779 1155.6 840.893 1160.78 838.4 1163.68C836.202 1166.24 832.868 1165.3 830.318 1167.03C827.966 1168.62 827.196 1173.06 829.603 1174.97C834.396 1178.78 848.969 1176.68 855 1177.09C865.55 1177.81 876.535 1178.05 887 1179.42C891.471 1180.01 899.446 1181.54 903.482 1178.97C907.055 1176.7 908.927 1171.48 911.061 1168C912.768 1165.22 916.091 1161.56 916.183 1158.13C916.294 1154 909.064 1152.63 906.17 1154.07C902.634 1155.83 900.26 1159.91 896.999 1162.2C890.286 1166.91 882.861 1167.04 875 1167C871.09 1166.98 865.401 1167.23 863.607 1162.87C861.18 1156.95 864.739 1145.12 872.852 1149.44C876.214 1151.23 875.295 1155.72 878.434 1157.41C880.482 1158.51 884.623 1158.91 886.682 1157.73C892.378 1154.46 891 1135.78 891 1130C888.029 1130 883.243 1129.13 880.723 1131.03C876.854 1133.94 876.519 1139.32 870.059 1137.68C865.145 1136.43 865.299 1126.63 868.603 1123.69C871.062 1121.51 877.946 1122.86 881 1123.17C896.026 1124.68 901.226 1141.28 916 1135L908.501 1114.99L891 1112.71L836 1109z"/>
<path style="fill:#e92b37; stroke:none;" d="M411 1110L415 1124L416 1124L411 1110z"/>
<path style="fill:#f52229; stroke:none;" d="M718 1113C716.704 1117.38 715.878 1123.09 720 1126C720.09 1123.18 718.423 1118.91 720.619 1116.6C722.689 1114.43 727.24 1114.79 730 1114.42C738.365 1113.32 754.373 1110.23 762 1114C763.149 1108.88 755.351 1109.93 752 1110.01C740.794 1110.31 729.307 1113.71 718 1113z"/>
<path style="fill:#ff2a36; stroke:none;" d="M763 1114C762.846 1118.73 761.923 1121.21 757 1122L757 1124C763.806 1123.62 764.943 1120.33 765 1114L763 1114z"/>
<path style="fill:#f02f34; stroke:none;" d="M1233 1117L1226 1136L1235 1117L1233 1117z"/>
<path style="fill:#e31c23; stroke:none;" d="M946 1132L940 1147L941 1152C937.141 1154.84 937.04 1159.5 937 1164L938 1164L948.323 1135.02L942.367 1126.78L944 1119L952 1120L952 1118C949.196 1118 945.067 1117.3 942.649 1119.03C935.929 1123.83 939.129 1130.9 946 1132z"/>
<path style="fill:#000000; stroke:none;" d="M944 1119C939.334 1129.01 948.153 1127.19 947.893 1135.02C947.579 1144.52 939.24 1161.68 934.562 1169.98C931.668 1175.12 918.116 1173.3 920.789 1181.69C921.996 1185.47 930.779 1185.77 934 1186.5C944.12 1188.79 962.169 1197.97 963 1182C953.477 1179.5 956.324 1162.93 964.003 1164.06C967.971 1164.64 969.824 1169.91 971.297 1173C974.628 1179.98 977.689 1189.93 982.8 1195.72C986.789 1200.24 1014.08 1207.89 1012.49 1196.22C1012.04 1192.87 1006.49 1191.24 1004.38 1188.89C999.36 1183.29 995.521 1175.61 992 1169C999.548 1167.6 1007.4 1167.8 1013.96 1163.15C1024.15 1155.92 1022.3 1142.23 1012 1136.21C994.071 1125.74 964.462 1121.64 944 1119z"/>
<path style="fill:#e10e1f; stroke:none;" d="M840 1120C844.879 1132.73 838 1150.27 838 1164L840 1164C840.472 1153.01 842.305 1141.91 843.718 1131C844.337 1126.23 845.857 1121.02 840 1120z"/>
<path style="fill:#e42131; stroke:none;" d="M1210 1120L1202 1136C1206.11 1133.56 1212.35 1124.66 1210 1120z"/>
<path style="fill:#de1e29; stroke:none;" d="M912 1121L916 1135C912.81 1136.01 908.441 1138.04 905.104 1136.68C901.284 1135.13 899.343 1130.06 895.985 1127.65C887.613 1121.63 867.047 1117.58 867 1131L870 1131L870 1126L876 1124L880 1126C875.96 1133.22 874.81 1137.83 866 1134C869.754 1145.31 878.324 1132.35 882.228 1130.6C884.767 1129.47 888.286 1130 891 1130L891 1139L892 1139L896 1132C901.613 1140.79 909.369 1141.83 918 1136L912 1121z"/>
<path style="fill:#e52539; stroke:none;" d="M417 1123C417.727 1131.08 424.599 1148.3 432 1152L417 1123z"/>
<path style="fill:#eb2235; stroke:none;" d="M968 1123L968 1124C982.295 1128.84 1000.45 1128.23 1013 1137.5C1025.77 1146.94 1020.41 1161.01 1007 1166C1019.98 1171.39 1026.83 1149.45 1020.58 1140.67C1010.99 1127.19 983.078 1125.03 968 1123z"/>
<path style="fill:#f5040d; stroke:none;" d="M870 1126L870 1131L866 1131C869.735 1143.1 877.584 1132.13 880 1126L876 1124L870 1126z"/>
<path style="fill:#e91a23; stroke:none;" d="M654 1125L639.457 1132.31L638 1148L637 1179L636 1179L636 1168L634 1168L635 1190L632 1189C621.108 1212.37 656.19 1206.71 666.678 1197.3C674.156 1190.58 661.862 1182.78 656 1182L656 1181C666.298 1176.98 673.194 1173.58 683 1179L683 1180L677 1182L679 1190L680 1190C679.468 1185.22 681.101 1183.57 685 1181C681.349 1170.27 664.596 1169.88 656.603 1177.09C645.459 1187.14 671.199 1188.15 665.292 1195.27C661.783 1199.5 636.252 1205.62 632.877 1200.82C629.923 1196.61 634.666 1194.38 636.107 1190.9C637.715 1187.01 637.777 1181.19 637.961 1177C638.63 1161.74 635.177 1122.48 661 1128.79C665.167 1129.8 668.132 1134.16 672 1136C668.159 1128.12 661.894 1126.47 654 1125z"/>
<path style="fill:#ec1324; stroke:none;" d="M726 1125L733 1169C728.882 1168.74 726.082 1169.29 724 1173L709.171 1168.33L693 1156C699.549 1164.8 708.661 1173.97 720 1174C722.821 1191.9 697.154 1182.31 689 1192C699.79 1190.63 715.568 1189.37 724 1182L725 1182C733.66 1187.01 750.28 1182.4 760 1181.96C763.293 1181.81 768.866 1181.46 770.972 1178.49C773.433 1175.01 770.95 1169.59 770 1166C753.437 1168.56 769.556 1145.75 774 1160L781 1166C775.154 1169.31 776.916 1174.25 778 1180L800 1179L800 1177C794.675 1177.01 788.224 1179.09 783.059 1177.68C774.711 1175.4 781.68 1168.62 786 1167C783.804 1163.91 781.271 1161.51 778.424 1159C776.278 1157.11 774.271 1154.97 771.996 1153.23C764.67 1147.65 755.861 1157.18 757.979 1164.89C759.407 1170.09 764.287 1167.57 767.431 1170.6C769.302 1172.41 769.54 1175.57 767.592 1177.4C759.607 1184.89 737.219 1178.98 727 1182C724.837 1174.98 726.656 1172.02 734 1171C735.54 1160.21 732.609 1147.78 731.285 1137C730.672 1132.01 731.292 1127.11 726 1125z"/>
<path style="fill:#000000; stroke:none;" d="M685 1181C681.319 1182.67 675.892 1188.65 682.394 1191.36C685 1192.44 688.445 1190.83 691 1190.23C698.066 1188.57 715.391 1187.69 720.353 1182.26C722.381 1180.04 720.643 1176.46 720 1174C695.375 1173.78 684.01 1135.59 662 1128.64C657.451 1127.21 643.609 1130.46 641.603 1135.13C636.233 1147.63 639.345 1166.56 637.576 1180C636.894 1185.18 630.454 1196.17 631.913 1199.96C634.841 1207.55 652.361 1199.81 658 1198.37C660.356 1197.78 664.418 1197.46 665.929 1195.27C671.59 1187.07 646.579 1188.11 656.603 1177.7C664.593 1169.41 680.074 1171.51 685 1181z"/>
<path style="fill:#e52534; stroke:none;" d="M1219 1130L1214 1136L1199.43 1163.29L1194.57 1171.7L1184 1168L1186 1160L1185 1160C1180.64 1166.74 1187.17 1178.88 1195.81 1174.18C1199.51 1172.17 1201.71 1166.45 1203.81 1163C1210.04 1152.77 1217.67 1141.57 1221 1130L1219 1130z"/>
<path style="fill:#e71b26; stroke:none;" d="M756 1132L756 1143L766 1136L766 1135L758 1137L758 1132L756 1132z"/>
<path style="fill:#de2439; stroke:none;" d="M1201 1136L1195 1146C1198.44 1143.95 1202.15 1140.21 1201 1136z"/>
<path style="fill:#e82430; stroke:none;" d="M1225 1137C1219.44 1147.6 1214.44 1158.5 1208.69 1169C1207.04 1172.01 1202.47 1177.06 1204.22 1180.75C1206.49 1185.58 1211.05 1180.28 1212.64 1177.99C1217.85 1170.5 1224.24 1161.72 1227 1153C1221.22 1157.29 1216.05 1166.11 1214 1173L1212 1172L1207 1180C1207.19 1166.56 1228.71 1150.94 1225 1137z"/>
<path style="fill:#eb2637; stroke:none;" d="M529 1147C534.798 1145.11 543.457 1143.24 547 1138C541.389 1139.6 532.299 1142.01 529 1147z"/>
<path style="fill:#f11d2b; stroke:none;" d="M972 1154C966.978 1140.87 976.687 1142.7 986 1141C982.426 1139.09 974.418 1136.25 970.702 1139.03C965.389 1143 964.706 1152.84 972 1154z"/>
<path style="fill:#f50510; stroke:none;" d="M992 1155C993 1152.27 995.483 1148.39 993.731 1145.51C991.175 1141.32 976.29 1139.4 972.514 1142.03C964.116 1147.89 974.721 1155.99 981 1155.87C984.68 1155.8 988.294 1155.03 992 1155z"/>
<path style="fill:#d21b28; stroke:none;" d="M986 1141L986 1143C994.891 1143.81 993.656 1148.02 992 1155L984 1155L984 1157C998.943 1156.87 1002.18 1142.42 986 1141z"/>
<path style="fill:#f11e2d; stroke:none;" d="M890 1142C889.901 1153.97 888.175 1158.03 876 1158L876 1160C879.527 1160.07 884.652 1161.76 887.852 1159.96C891.792 1157.74 893.361 1144.57 890 1142z"/>
<path style="fill:#f6283e; stroke:none;" d="M1047 1144L1045 1152L1046 1152L1053 1146L1053 1144L1047 1144z"/>
<path style="fill:#000000; stroke:none;" d="M1045 1154C1056.18 1163.13 1057.86 1192.51 1048.25 1202.77C1042.14 1209.29 1033.35 1201.56 1032 1214C1042.61 1216.9 1069.65 1235.29 1073 1218C1063.76 1213.8 1070.73 1204.32 1077.09 1199.99C1086.66 1193.49 1103.67 1186.65 1115 1184.38C1118.92 1183.59 1128.46 1184.16 1127.12 1177.21C1126.4 1173.49 1119.93 1172.32 1117 1171.19C1113.24 1169.73 1091.55 1159.49 1094.43 1171.83C1094.92 1173.95 1097.04 1176.03 1098 1178L1075 1186L1075.03 1169.41L1082.62 1167.38L1088 1160C1077.51 1155.64 1050.09 1138.11 1045 1154z"/>
<path style="fill:#eb1734; stroke:none;" d="M1055 1146L1055 1147L1072 1153C1071.06 1148.59 1059.41 1146.22 1055 1146z"/>
<path style="fill:#e4171e; stroke:none;" d="M496 1160L496 1161C504.206 1160.97 521.397 1153.97 526 1147L496 1160z"/>
<path style="fill:#d21d1b; stroke:none;" d="M864 1156L865 1156C867.589 1150.97 869.505 1150.37 875 1151L876 1158C878.444 1147.78 864.143 1144.01 864 1156z"/>
<path style="fill:#e72334; stroke:none;" d="M400 1152C401.857 1162.42 409.473 1173.07 414.939 1182C416.593 1184.7 418.248 1189.45 421.329 1190.84C425.456 1192.69 445.384 1180.37 445.978 1175.9C446.578 1171.37 440.083 1164.9 438 1161L437 1161L445 1175C442.163 1177.35 439.22 1179.47 436 1181.29C432.892 1183.04 428.547 1186.52 425.001 1186.97C420.254 1187.57 418.116 1182.31 416.231 1179C412.089 1171.71 408.556 1154.66 400 1152z"/>
<path style="fill:#e42930; stroke:none;" d="M516 1173C513.829 1186.43 523.819 1184.37 533 1186C533.273 1190.81 536.908 1195.59 541 1198C539.848 1193.14 535.736 1185.42 530.907 1183.28C524.42 1180.41 520.08 1185.22 517 1176C537.45 1170.41 556.71 1156.45 578 1154.17C587.046 1153.21 601.031 1156.77 601.681 1168C601.934 1172.37 598.592 1176.16 597 1180C607.27 1180 623.79 1182.04 623.79 1196C623.79 1200.41 620.621 1204.09 619 1208C623.359 1205.82 624.571 1202.73 625 1198L628 1199L622 1182L616 1177L608 1176L607 1176L606 1176L606 1178C602.132 1174.76 603.242 1167.76 604 1163C600.294 1159.95 597.647 1155.85 592.999 1154.01C577.221 1147.75 554.332 1156.34 540 1162.89C532.631 1166.25 524.069 1172.76 516 1173z"/>
<path style="fill:#e1152e; stroke:none;" d="M657 1152C653.86 1162.62 657.528 1167.51 668 1163L657 1152z"/>
<path style="fill:#e22122; stroke:none;" d="M801 1152C805.594 1159.95 814.893 1165.81 824 1166L824 1175L808 1176L808 1177L872 1179L872 1178C859.843 1178 843.773 1178.9 832.059 1175.68C822.522 1173.06 832.776 1166.06 838 1166L819.286 1163.3L801 1152z"/>
<path style="fill:#e21d1f; stroke:none;" d="M904 1152C894.905 1162.85 884.883 1163.36 872 1166L872 1167C885.368 1167 900.302 1166.71 906 1152L904 1152z"/>
<path style="fill:#ed2528; stroke:none;" d="M909 1152L909 1153C911.003 1153.91 914.793 1154.85 915.473 1157.28C916.703 1161.67 906.415 1176.73 902.674 1178.97C895.831 1183.08 879.92 1179 872 1179C876.613 1185.53 897.424 1181.66 905 1182C910.342 1172.84 927.722 1154.54 909 1152z"/>
<path style="fill:#e7211e; stroke:none;" d="M1072 1153L1088 1160C1084.79 1154.72 1077.95 1152.6 1072 1153z"/>
<path style="fill:#e62d3f; stroke:none;" d="M1190 1152L1186 1160L1192 1152L1190 1152z"/>
<path style="fill:#000000; stroke:none;" d="M517 1176C518.83 1185.05 523.581 1181.45 529.96 1183.55C533.242 1184.64 535.249 1188.36 537.14 1191C543.217 1199.5 553.047 1210.03 556.319 1219.98C557.912 1224.83 548.088 1230.05 556.189 1233.87C561.212 1236.23 573.131 1228.94 578 1227C591.131 1221.78 608.333 1217.84 618.532 1207.54C635.587 1190.3 611.765 1180 597 1180C606.232 1164.65 597.375 1153.61 580 1154.01C559.091 1154.5 536.236 1168.54 517 1176z"/>
<path style="fill:#e71e2d; stroke:none;" d="M1046 1155L1049 1158L1054 1193C1049.53 1195.01 1048.57 1199.81 1044.54 1202.18C1037.35 1206.4 1028.18 1202.86 1031 1216L1041 1218L1041 1217L1032 1214C1034.34 1201.92 1042.88 1209.54 1048.99 1202.77C1057.93 1192.85 1053.59 1181.91 1052.16 1170C1051.47 1164.33 1051.51 1157.97 1046 1155z"/>
<path style="fill:#e82028; stroke:none;" d="M1088 1160L1081.79 1167.31L1075.03 1168.64L1075 1186L1098 1178C1095.87 1170.87 1092.94 1168.86 1101 1164L1099 1161L1098 1161C1093.17 1166.8 1091.4 1170.6 1091 1178L1077 1184L1076 1169L1083 1169L1083 1170L1080 1170L1080 1171L1085 1168L1087 1170L1088 1170L1090 1160L1088 1160z"/>
<path style="fill:#f0253b; stroke:none;" d="M456 1183C470.299 1183.1 484.783 1165.58 499 1162L486 1165.63L456 1183z"/>
<path style="fill:#eb232e; stroke:none;" d="M935 1162C934.13 1175.26 918.533 1169.23 918.343 1180.91C918.276 1185.06 922.584 1186.68 926.004 1187.47C935.377 1189.64 950.531 1196.56 959.812 1192.85C968.63 1189.33 964.535 1180.05 957 1179L961 1165L967 1165L967 1164C956.934 1161.91 950.953 1180.07 963 1182C961.433 1197.2 944.936 1188.75 935 1186.5C931.585 1185.73 922.938 1185.44 921.357 1181.69C917.424 1172.34 942.887 1175.91 935 1162z"/>
<path style="fill:#eb1828; stroke:none;" d="M1102 1165C1105.24 1167.42 1109.25 1168.51 1113 1170L1120 1172.69C1124.99 1174.6 1129.85 1179.14 1122.91 1182.97C1115.53 1187.04 1103.89 1184.15 1098 1192C1102.73 1190.76 1107.58 1188.32 1112.42 1187.87C1115.93 1187.54 1120.72 1189.25 1123.9 1187.94C1127.69 1186.37 1130.77 1179.21 1129.47 1175.34C1128.37 1172.08 1123.85 1171.04 1122 1168L1102 1165z"/>
<path style="fill:#df1f2a; stroke:none;" d="M568 1168L568 1170C585.429 1170.21 574.015 1184.18 563 1185L557 1175L567 1169L555 1173C555.299 1175.69 555.844 1177.68 557.329 1180C569.246 1198.59 593.745 1168.23 568 1168z"/>
<path style="fill:#eb2131; stroke:none;" d="M992 1169C994.516 1175.87 999.275 1184.47 1004.38 1189.78C1006.38 1191.85 1010.53 1192.8 1011.78 1195.42C1013.1 1198.17 1010.54 1201.47 1007.95 1202.23C1003.28 1203.58 996.788 1200.39 992 1200C997.139 1206.76 1018.17 1208.92 1015.07 1195.1C1014.26 1191.5 1009.87 1190.75 1007.58 1188.38C1003.1 1183.73 997.609 1175.96 995 1170L1002 1170L992 1169z"/>
<path style="fill:#e41f29; stroke:none;" d="M1160 1169L1172 1178L1184 1181C1178.73 1176.07 1167.32 1168.51 1160 1169z"/>
<path style="fill:#fb0009; stroke:none;" d="M567 1169L557 1175L563 1185C567.951 1184.84 584.262 1178.32 576.566 1171.6C574.196 1169.54 569.953 1169.71 567 1169z"/>
<path style="fill:#e52032; stroke:none;" d="M1184 1181C1186.09 1187.5 1197.95 1192.05 1203.95 1194.8C1207.77 1196.55 1210.54 1199.83 1214.04 1202.1C1222.13 1207.35 1235.87 1212.26 1239 1222C1235.08 1224.17 1233.2 1227.56 1233 1232C1235.88 1229.18 1241.88 1223.5 1241.12 1219.04C1240.27 1214.07 1231.79 1210.19 1228 1207.67C1214.53 1198.68 1199.52 1185.95 1184 1181z"/>
<path style="fill:#ed2a38; stroke:none;" d="M404 1223L402 1219L442 1195L456 1183C441.214 1187.68 425.554 1200.13 413 1209.16C408.578 1212.33 398.288 1217.17 404 1223z"/>
<path style="fill:#e31d2e; stroke:none;" d="M570 1197C571.535 1200.56 573.445 1203.84 575.721 1206.98C588.446 1224.58 611.085 1191.13 588 1191.08C585.232 1191.07 582.597 1191.8 580 1192.7C576.549 1193.88 573.215 1195.29 570 1197z"/>
<path style="fill:#e51c24; stroke:none;" d="M1073 1218L1072 1223C1077.75 1218.89 1069.92 1215.07 1071.84 1209.96C1075.36 1200.59 1087.22 1196.89 1096 1194C1088.54 1191.12 1075.85 1199.21 1071.58 1205.02C1067.59 1210.45 1065.13 1215.58 1073 1218z"/>
<path style="fill:#ff030b; stroke:none;" d="M574 1198C574.52 1200.62 575.312 1202.68 576.773 1204.96C586.71 1220.46 606.917 1194.33 588 1194C586.048 1193.97 583.968 1193.87 582.039 1194.23C579.097 1194.77 576.686 1196.8 574 1198z"/>
<path style="fill:#e92332; stroke:none;" d="M544 1202C544.864 1208.61 549.336 1215.48 555 1219L554 1225L549 1226C549.815 1230.21 552.069 1235.68 557.015 1236.24C562.124 1236.82 567.422 1232.86 572 1231.18C585.208 1226.34 611.79 1221.18 619 1208C603.23 1214.63 588.225 1222.86 572 1228.95C567.815 1230.52 559.458 1236.12 555.363 1232.58C550.104 1228.03 557.991 1225.59 557.153 1220.96C555.986 1214.51 548.904 1205.99 544 1202z"/>
<path style="fill:#de1420; stroke:none;" d="M764 1202C757.661 1208.47 741.572 1205.26 733 1206.1C726.046 1206.79 717.812 1210.87 711 1213L711 1214L757 1207.17L791 1204L791 1203L764 1202z"/>
<path style="fill:#e33034; stroke:none;" d="M787 1202L787 1203L844 1204L870 1204L842 1202L787 1202z"/>
<path style="fill:#ed2d32; stroke:none;" d="M928 1213L928 1214C949.5 1215.87 971.401 1223.52 992 1229.72C999.872 1232.09 1007.79 1236.28 1016 1237C1009.23 1230.91 998.432 1229.46 990 1226.69C970.558 1220.3 948.745 1213.06 928 1213z"/>
<path style="fill:#e3212c; stroke:none;" d="M1042 1218C1046.18 1223.99 1069.86 1233.26 1072 1223C1063.02 1229.7 1051.84 1219.47 1042 1218z"/>
<path style="fill:#e8232b; stroke:none;" d="M561 1263C561 1266.64 553.158 1268.6 550 1270C542.538 1273.32 526.198 1279.11 523 1287C533.521 1285.1 543.671 1276.52 553 1271.46C570.833 1261.79 589.166 1253.13 608 1245.6C616.186 1242.33 634.811 1238.91 640 1232C620.459 1235.84 600.992 1245.03 583 1253.35C575.719 1256.71 568.964 1261.34 561 1263z"/>
<path style="fill:#f51c25; stroke:none;" d="M1192 1278L1193 1282C1187.07 1284.46 1177.68 1296.59 1173.97 1302.18C1171.58 1305.78 1168.42 1313.7 1162.91 1313.4C1158.74 1313.18 1155.47 1307.96 1151.96 1306C1148.06 1303.83 1144.22 1301.96 1142 1298L1119 1287L1119 1288C1129.94 1294.72 1140.56 1301.96 1151 1309.43C1154.44 1311.88 1159.48 1317.49 1164 1317.38C1170.46 1317.22 1178.47 1302.78 1182.13 1298C1192.09 1284.97 1201.92 1271.72 1212.26 1259C1218.88 1250.86 1228.2 1241.83 1232 1232C1224.54 1234.01 1222.07 1241.96 1218.01 1247.74C1214.91 1252.17 1209.77 1254.9 1206.7 1259.3C1201.71 1266.45 1199.66 1272.75 1192 1278z"/>
<path style="fill:#e31a22; stroke:none;" d="M412 1233C415.768 1241.46 423.148 1248.68 428.765 1256C439.559 1270.06 450.698 1283.85 461.374 1298C464.801 1302.54 472.956 1317.32 479.039 1317.69C482.787 1317.92 487.156 1313.32 490 1311.29C498.227 1305.43 506.443 1299.37 515 1294L515 1293C509.795 1293.81 495.086 1300.87 494 1306C488.768 1306.16 485.497 1307.76 484 1313C468.759 1309.51 460.947 1292.15 452.049 1280.13C447.878 1274.49 442.376 1269.58 438 1264L440 1264L436 1261L436 1258L433 1259C430.3 1250.81 419.752 1236.76 412 1233z"/>
<path style="fill:#211f21; stroke:none;" d="M721 1243L721 1252L725 1248L726 1248L729 1251L728 1246L728 1245L721 1243z"/>
<path style="fill:#181617; stroke:none;" d="M880 1267C886.862 1270.2 892.244 1270.78 899 1267L899 1266L894 1267L896 1262C891.619 1264.36 889.495 1264.83 886 1261L893 1261L893 1260C885.531 1259.13 875.033 1251.89 886.443 1246.15C890.633 1244.04 895.609 1245.45 900 1246C893.883 1241.14 881.631 1242.12 879.449 1251C878.164 1256.24 881.24 1261.27 880 1267z"/>
<path style="fill:#1c1a1a; stroke:none;" d="M896 1255C886.593 1256.64 885.906 1249.84 895 1248C882.18 1239.3 884.696 1266.53 896 1255z"/>
<path style="fill:#121212; stroke:none;" d="M921 1258L918 1260L918 1261L922 1261C919.637 1265.27 914.749 1265.36 914 1260L907 1257L911 1262C904.793 1265.52 910.219 1269.23 915 1270L915 1269C912.174 1267.27 909.976 1266.11 912 1263C912.579 1267.38 920.377 1268.47 922.935 1264.66C924.271 1262.66 923.81 1260.22 923.648 1258C923.464 1255.48 924.228 1252.46 923.227 1250.08C919.165 1240.44 905.541 1254.17 916.069 1257.5C917.658 1258.01 919.36 1257.95 921 1258z"/>
<path style="fill:#000000; stroke:none;" d="M916.314 1249.24C912.134 1251.21 915.522 1257.68 919.687 1256.15C924.131 1254.51 920.524 1247.26 916.314 1249.24z"/>
<path style="fill:#e6202f; stroke:none;" d="M1048 1249C1051.81 1254.58 1065.42 1259.81 1072 1261L1058 1250L1048 1249z"/>
<path style="fill:#1a1a1a; stroke:none;" d="M692 1263L692 1258L696 1258C698.864 1262.91 702.7 1262.98 708 1263C704.413 1261.43 698.509 1257.02 694.926 1256.66C690.687 1256.24 688.844 1260.58 692 1263z"/>
<path style="fill:#161616; stroke:none;" d="M839 1259L826 1260L826 1259L837 1258C834.97 1256.46 823.896 1254.24 825.752 1259.79C827.33 1264.51 837.025 1261.8 839 1259z"/>
<path style="fill:#151415; stroke:none;" d="M949 1265L949 1266L956 1267L956 1268L948 1270L948 1271C952.758 1270.96 956.155 1270.82 958 1266L949 1265z"/>
<path style="fill:#e02633; stroke:none;" d="M1064 1280L1081 1278C1081.58 1282.23 1089.23 1283.27 1093 1284L1090 1291L1096 1284C1086.24 1279.93 1072.08 1266.68 1064 1280z"/>
<path style="fill:#e3252c; stroke:none;" d="M1097 1274L1097 1275L1119 1287C1114.91 1280.52 1104.34 1275.57 1097 1274z"/>
<path style="fill:#ff000e; stroke:none;" d="M1056 1284C1054.63 1296.47 1029.7 1294.45 1026 1306C1020.59 1306.29 1011.13 1309.49 1008 1314L981.714 1325.27L957 1331L957 1332L959 1335C940.652 1339.63 922.265 1345 903.866 1349.61C892.667 1352.41 880.861 1352.39 870 1355.55C865.341 1356.9 843.839 1354.97 843 1360C820.048 1354.72 791.589 1359 768 1359L768 1356C752.661 1356 738.049 1353.96 723 1351C718.634 1350.14 709.792 1350.34 709 1345L686 1344C678.718 1334.24 654.744 1339.42 649 1329C635.034 1327.77 625.232 1318.6 613.285 1313.12C607.8 1310.61 603.292 1306.53 597 1307L601 1305L601 1304L581 1298L579 1292L557 1282.29L540 1291C540.907 1296 542.779 1299.17 548 1300L546 1322L559 1327L574 1342C585.084 1347.44 595.332 1353.99 608 1355L608 1358L621 1363L620 1366C639.656 1372.59 660.886 1384 682 1384L681 1387L700 1390L700 1393C724.716 1393.02 747.461 1403.23 772 1404.91C840.043 1409.57 908.046 1399.97 972 1376.05C992.492 1368.39 1011.89 1356.93 1031 1346.26C1036.13 1343.39 1049.03 1338.66 1048 1332L1050 1334C1058.12 1331.19 1073.97 1321.7 1078 1314C1070.88 1313.59 1064.9 1319.26 1059 1322.67C1045.35 1330.54 1031.31 1337.65 1017 1344.23C984.706 1359.08 950.016 1369.74 915.089 1376.09C903.016 1378.29 892.731 1381.89 880 1382C888.723 1372.99 909.639 1376.77 921 1373.17C924.978 1371.91 933.426 1371.64 934 1367C935.916 1366.8 946.502 1365.38 943 1363L943 1362L962 1359L960 1356C982.098 1360.09 1002.76 1335.37 1024 1333L1024 1330L1025 1330C1046.21 1324.61 1060.62 1301.58 1082 1297L1093 1284L1081 1278C1071.75 1275.12 1063.96 1278.82 1056 1284z"/>
<path style="fill:#e51f29; stroke:none;" d="M351 1309L351 1311L358 1313L357 1309L358 1308C365.672 1308.79 372.968 1305.6 380.17 1303.41C397.866 1298.04 418.378 1292.05 434 1282L435 1287L448 1296C445.891 1291.4 439.445 1280.37 433.91 1279.65C426.786 1278.72 413.576 1288.03 407 1291C388.853 1299.2 370.044 1303.65 351 1309z"/>
<path style="fill:#cb2e2f; stroke:none;" d="M1110 1320L1119 1328L1115 1322C1126.75 1327.75 1141.27 1327.75 1154 1329.42C1159.98 1330.21 1167.59 1331.29 1172.62 1327.21C1181.48 1320.04 1190.18 1307.17 1196.68 1297.83C1202.25 1289.82 1206.53 1281.64 1217 1284C1210.24 1273.69 1202.89 1285.27 1198.26 1291C1191.36 1299.54 1184.86 1308.42 1178 1317C1175.2 1320.5 1172.3 1325.52 1167.96 1327.26C1150.71 1334.15 1127.46 1320.41 1110 1320z"/>
<path style="fill:#e92026; stroke:none;" d="M575 1341L575 1340L559 1327L546 1322C549.83 1313.52 549.839 1308.96 548 1300C543.266 1298.64 541.367 1295.6 540 1291L557 1282.6L576 1291C566.128 1281.55 557.817 1278.79 546 1285.31C543.29 1286.8 538.57 1288.72 537.828 1292.1C536.67 1297.39 544.284 1303.39 546.207 1307.96C548.328 1313 543.145 1317.39 545.136 1321.82C548.501 1329.3 567.396 1338.76 575 1341z"/>
<path style="fill:#fd010e; stroke:none;" d="M432 1282C426.064 1287.95 415.825 1290.37 408 1292.83C392.26 1297.78 375.089 1309.07 358 1308L357 1309L358 1313C367.613 1311.97 376.814 1315.55 386.039 1316.86C396.783 1318.38 407.297 1316.95 418 1316.53C423.432 1316.32 431.339 1316.18 432.657 1323.04C436.658 1343.86 412.089 1354.88 406 1371L432 1369L443 1364.19L468 1356L490 1349L490 1346C497.269 1345.97 514.355 1338.72 516 1331L520 1333L529 1322L503 1327L503 1328L506 1328L506 1329C492.576 1329 468.844 1336.61 464 1318L462 1319C460.428 1307.17 451.621 1300.44 443.495 1293.25C440.339 1290.46 439.497 1287.59 435 1287L434 1282L432 1282M1115 1322L1119 1326C1119.12 1328.77 1120.76 1333.33 1124 1331C1134.28 1336.75 1142.57 1345.74 1155 1346L1154 1348C1157.94 1348.64 1159.19 1350.13 1160 1354L1206 1363L1206 1364L1204 1364L1204 1365L1232 1372L1237 1371C1231.62 1356.07 1215.37 1349.34 1210.51 1333.01C1208.85 1327.45 1205.47 1317.65 1214.01 1315.94C1220.71 1314.6 1229.13 1316 1236 1316L1256 1316L1255 1314L1285 1312L1285 1309L1266 1303L1259 1303L1234 1292L1219 1283C1215.77 1283.12 1211.22 1281.51 1208.3 1283.07C1203.4 1285.69 1199.26 1293.44 1196.05 1297.83C1189.39 1306.93 1180.38 1321.64 1170.9 1327.86C1165.55 1331.36 1158.91 1329.74 1153 1329.17C1140.26 1327.94 1127.12 1326.45 1115 1322z"/>
<path style="fill:#eb1320; stroke:none;" d="M1218 1284L1218 1285C1238.45 1294.39 1262.01 1307.88 1285 1309L1285 1312L1255 1314L1256 1316C1245.33 1316 1234.67 1316.05 1224 1316C1220.02 1315.98 1214.78 1314.43 1211.15 1316.47C1201.3 1322.01 1213.92 1349.36 1222 1352C1218.95 1344.23 1205.6 1329.43 1212.03 1320.36C1214.89 1316.32 1229.39 1320 1234 1320C1253.58 1319.99 1273.39 1317.05 1292 1311L1292 1309L1247 1295.57L1218 1284z"/>
<path style="fill:#ec1d2f; stroke:none;" d="M1000 1314L1000 1315L1008 1314L1026 1306C1031.69 1295.33 1049.46 1295.37 1057 1286L1040 1293.69L1000 1314z"/>
<path style="fill:#df1a29; stroke:none;" d="M1082 1297L1090 1292C1085.7 1290.39 1083.17 1292.96 1082 1297z"/>
<path style="fill:#e6282e; stroke:none;" d="M1104 1292L1076 1312L1078 1314C1073.12 1320.25 1056.04 1334.03 1048 1332C1047.77 1338.25 1040.23 1340.05 1035.57 1343.02C1023.78 1350.55 1003.2 1355.06 995 1366C1025.39 1357.25 1054.52 1334.97 1080 1316.96C1088.42 1311.01 1103.49 1302.54 1106 1292L1104 1292z"/>
<path style="fill:#df1a2b; stroke:none;" d="M578 1293L578 1294L581 1298L597 1304C593.543 1298.61 584.178 1294.19 578 1293z"/>
<path style="fill:#eb1d2a; stroke:none;" d="M503 1312L503 1314L518 1314L518 1313L508 1313C513.682 1307.49 522.922 1299.48 531 1303C527.486 1290.99 509.151 1308.58 503 1312z"/>
<path style="fill:#e81621; stroke:none;" d="M1024 1330C1025.32 1336.05 1035.89 1327.25 1039 1325.39C1053.41 1316.78 1067.28 1305.79 1082 1298C1076.56 1296.21 1069.62 1301.7 1065.09 1304.45C1051.68 1312.6 1039.4 1325.36 1024 1330z"/>
<path style="fill:#e91724; stroke:none;" d="M1108 1310L1138 1316C1136.12 1302.16 1111.89 1290.44 1108 1310z"/>
<path style="fill:#ff0b0e; stroke:none;" d="M508 1313L523 1313L523 1310C528.464 1309.84 531.503 1308.47 533 1303C523.831 1299.48 513.731 1305.1 508 1313z"/>
<path style="fill:#f40b07; stroke:none;" d="M1114 1302C1114.5 1308.25 1118.03 1307.76 1123 1306L1131 1313C1130.67 1305.4 1120.48 1302.41 1114 1302z"/>
<path style="fill:#e92840; stroke:none;" d="M533 1304C530.4 1308.1 527.856 1309.67 523 1310L523 1312L536 1309L533 1304z"/>
<path style="fill:#ec1012; stroke:none;" d="M597 1307C615.802 1306.68 629.381 1328.1 649 1329C650.632 1333.92 655.488 1333.07 659.911 1334.17C667.373 1336.03 680.385 1338.93 686 1344L709 1345C709.292 1350.57 718.487 1350.33 723 1351.2C738.078 1354.11 752.634 1356 768 1356L768 1359L843 1360L850 1358L871 1355.83L904.833 1349.83L937 1339.17L959 1335L959 1332C949.335 1332.49 939.314 1336.99 930 1339.58C913.03 1344.29 895.447 1348.24 878 1350.71C812.84 1359.95 748.466 1354.26 685 1337.78C662.456 1331.92 640.041 1323.15 619 1313.22C614.001 1310.86 601.65 1301.71 597 1307z"/>
<path style="fill:#ed2a30; stroke:none;" d="M458 1309L462 1319L464 1318C465.452 1327.91 474.805 1329 483 1329L483 1330L475 1330L475 1331L506 1329L506 1328L503 1328L503 1327L529 1322L520 1333L533 1320C516.524 1320.39 490.832 1334.93 475.001 1326.97C467.636 1323.27 464.403 1313.94 458 1309z"/>
<path style="fill:#ec1b21; stroke:none;" d="M360 1312C362.866 1315.77 369.51 1316.13 374 1316.92C386.458 1319.1 399.365 1320.02 412 1320C416.647 1319.99 425.715 1317.13 429.397 1320.74C433.984 1325.24 427.862 1336.61 425.525 1341C423.096 1345.57 420.111 1349.77 417.025 1353.91C412.104 1360.51 405.153 1365.91 401 1373L431 1369L431 1368L406 1371C413.776 1357.29 439.586 1340.47 432.435 1321.19C430.174 1315.09 421.137 1315.87 416 1316.45C396.394 1318.68 379.172 1314.42 360 1312z"/>
<path style="fill:#c51f1e; stroke:none;" d="M1137 1312C1138.42 1315.62 1140.17 1316.54 1144 1316L1137 1312z"/>
<path style="fill:#c51c36; stroke:none;" d="M500 1317L508 1316C504.807 1314.01 501.244 1312.64 500 1317z"/>
<path style="fill:#e4222b; stroke:none;" d="M970 1327L970 1328C978.221 1326.45 995.921 1322.93 1000 1315L970 1327z"/>
<path style="fill:#e42937; stroke:none;" d="M1230 1360C1225.74 1350.43 1203.89 1329.09 1216 1319C1209.53 1316.88 1210.65 1327.11 1211.53 1331C1213.57 1340.04 1220.84 1356.57 1230 1360z"/>
<path style="fill:#fe3a48; stroke:none;" d="M475 1329L475 1330L483 1330L475 1329z"/>
<path style="fill:#ea1529; stroke:none;" d="M516 1331C511.66 1338.31 498.404 1345.57 490 1346L490 1349L468 1356C459.851 1355.67 448.395 1362.63 439.995 1364.62C436.342 1365.48 433.18 1364.97 432 1369C463.945 1360.02 490.888 1350.15 520 1334L519 1331L516 1331z"/>
<path style="fill:#f11a1f; stroke:none;" d="M1124 1331C1126.99 1341.1 1150.33 1350.56 1160 1353C1159.17 1349.21 1157.83 1348.3 1154 1348L1155 1346C1142.34 1345.42 1135.1 1335.41 1124 1331z"/>
<path style="fill:#f11d29; stroke:none;" d="M1022 1332C1009.2 1339.64 994.769 1344.59 981 1350.37C973.413 1353.55 968.479 1357.04 960 1356L962 1359L943 1362L943 1363L945 1364L934 1368C941.66 1369.23 950.719 1364.49 958 1362.19C978.062 1355.85 1008.4 1347.48 1024 1333L1022 1332z"/>
<path style="fill:#ea1a2a; stroke:none;" d="M591 1351L591 1352C600.192 1355.35 610.937 1365.24 621 1364L608 1358L608 1355L591 1351z"/>
<path style="fill:#ea1c26; stroke:none;" d="M1162 1353L1162 1354L1210 1368.35L1233 1371L1233 1370L1204 1365L1204 1364L1206 1364L1185 1359.49L1162 1353z"/>
<path style="fill:#dd243c; stroke:none;" d="M1230 1360L1235 1373L1242 1373L1230 1360z"/>
<path style="fill:#ff6768; stroke:none;" d="M890 1379L890 1380C896.179 1380 910.701 1381.48 912 1374L890 1379z"/>
<path style="fill:#ed1c2c; stroke:none;" d="M647 1376L647 1377L686 1389L681 1387L682 1384L647 1376z"/>
<path style="fill:#ff353e; stroke:none;" d="M880 1382L904 1381L904 1379L890 1380L890 1379L901 1377C895.542 1375.69 883.369 1377.23 880 1382z"/>
<path style="fill:#e3262c; stroke:none;" d="M686 1389L686 1390L700 1393C698.982 1388.25 690.185 1389 686 1389z"/>
<path style="fill:#e01d25; stroke:none;" d="M702 1393L702 1394L749 1402L749 1400L702 1393z"/>
</svg>
