<svg id="money" xmlns="http://www.w3.org/2000/svg" width="26" height="26.001" viewBox="0 0 26 26.001">
  <g id="Group_1672" data-name="Group 1672" transform="translate(3.453 22.954)">
    <g id="Group_1671" data-name="Group 1671">
      <path id="Path_2409" data-name="Path 2409" d="M68.87,452.15a.507.507,0,1,0,.149.359A.511.511,0,0,0,68.87,452.15Z" transform="translate(-68.003 -452.001)" fill="#00a662"/>
    </g>
  </g>
  <g id="Group_1674" data-name="Group 1674" transform="translate(22.977 9.141)">
    <g id="Group_1673" data-name="Group 1673">
      <path id="Path_2410" data-name="Path 2410" d="M453.321,180.157a.506.506,0,1,0,.149.359A.51.51,0,0,0,453.321,180.157Z" transform="translate(-452.454 -180.008)" fill="#00a662"/>
    </g>
  </g>
  <g id="Group_1676" data-name="Group 1676">
    <g id="Group_1675" data-name="Group 1675" transform="translate(0)">
      <path id="Path_2411" data-name="Path 2411" d="M25.859.149A.508.508,0,0,0,25.5,0H13.007A.508.508,0,0,0,12.5.508V1.961L7.686,3.251a.508.508,0,0,0-.359.622l2.495,9.311L7.663,15.341a1.523,1.523,0,0,0-1.258-.665H1.53A1.525,1.525,0,0,0,.007,16.2v8.277A1.525,1.525,0,0,0,1.53,26H6.406a1.526,1.526,0,0,0,1.479-1.157l.6.527A2.559,2.559,0,0,0,10.17,26H25.5a.508.508,0,0,0,.508-.508V.508A.508.508,0,0,0,25.859.149ZM6.913,24.477a.508.508,0,0,1-.508.508H1.53a.508.508,0,0,1-.508-.508V16.2a.508.508,0,0,1,.508-.508H3.46v5.85a.508.508,0,1,0,1.016,0v-5.85h1.93a.508.508,0,0,1,.508.508v8.277ZM8.439,4.1,12.5,3.012V4.894l-.34.091a.508.508,0,0,0-.359.622,1.369,1.369,0,0,1-.967,1.675.508.508,0,0,0-.359.623l1.979,7.33H11.434l-.525-2.055A.507.507,0,0,0,10.824,13ZM12.5,7.223v4.285l-.926-3.43A2.379,2.379,0,0,0,12.5,7.223Zm7.3,17.762H10.17a1.543,1.543,0,0,1-1.014-.38l-1.226-1.07V16.512l2.217-2.217.4,1.573a.508.508,0,0,0,.492.382h9.984a.711.711,0,0,1,0,1.422H15.908a.508.508,0,1,0,0,1.016h6.705a.711.711,0,1,1,0,1.422H15.908a.508.508,0,1,0,0,1.016h5.619a.711.711,0,1,1,0,1.422H15.908a.508.508,0,1,0,0,1.016h3.887a.711.711,0,1,1,0,1.422Zm5.2,0H21.368a1.72,1.72,0,0,0,0-1.422h.159a1.725,1.725,0,0,0,1.543-2.5A1.725,1.725,0,0,0,24,18.371V11.934a.508.508,0,1,0-1.016,0v5.779a1.727,1.727,0,0,0-.37-.04H22.6a1.725,1.725,0,0,0-1.573-2.438h-.816a2.43,2.43,0,1,0-1.909,0H15.522V5.579a2.391,2.391,0,0,0,1.821-1.821h3.82a2.391,2.391,0,0,0,1.821,1.821V7.158a.508.508,0,1,0,1.016,0V5.126a.508.508,0,0,0-.508-.508,1.369,1.369,0,0,1-1.367-1.367.508.508,0,0,0-.508-.508H16.89a.508.508,0,0,0-.508.508,1.369,1.369,0,0,1-1.367,1.367.508.508,0,0,0-.508.508V15.235h-.992V1.016H24.992Zm-5.738-10.57A1.415,1.415,0,1,1,20.668,13,1.416,1.416,0,0,1,19.253,14.415Z" transform="translate(-0.007)" fill="#00a662"/>
    </g>
  </g>
</svg>
