<svg xmlns="http://www.w3.org/2000/svg" width="110" height="110" viewBox="0 0 110 110">
  <g id="Group_1758" data-name="Group 1758" transform="translate(-565 -318)">
    <rect id="Rectangle_1521" data-name="Rectangle 1521" width="110" height="110" rx="52" transform="translate(565 318)" fill="#008585" opacity="0.1"/>
    <g id="_24-payment" data-name="24-payment" transform="translate(500 332.166)">
      <g id="linear_color" data-name="linear color" transform="translate(92 6.012)">
        <path id="Path_2295" data-name="Path 2295" d="M147.789,139.4l-7.575-11.9a1.353,1.353,0,0,0-1.019-.621l-8.78-.8v-.56A3.521,3.521,0,0,0,126.9,122H95.517A3.521,3.521,0,0,0,92,125.517V145a3.521,3.521,0,0,0,3.517,3.517h21.216a1.344,1.344,0,0,0,.585-.135l9.58,14.739v9.473a1.353,1.353,0,0,0,2.705,0v-9.874a1.354,1.354,0,0,0-.218-.737l-11.5-17.692c1.515-.687,4.044-1.486,5.206.142.322.451.651.91.971,1.357,2.956,4.112,5.511,7.557,5.536,7.591a1.353,1.353,0,0,0,2.253-.122l7.3-12.444a1.353,1.353,0,0,0,.043-1.29l-3.246-6.493a1.353,1.353,0,0,0-1.019-.734l-4.52-.645v-2.855l7.872.716,6.917,10.87L141,159.311a1.356,1.356,0,0,0-.032.293v12.986a1.353,1.353,0,0,0,2.705,0V159.753l4.3-19.333a1.354,1.354,0,0,0-.179-1.02Zm-53.083-9.283h33v1.758h-33Zm.812-5.411H126.9a.812.812,0,0,1,.812.812v1.894h-33v-1.894a.812.812,0,0,1,.812-.812Zm35.041,25.411c-1.025-1.395-2.594-3.541-4.3-5.91l-.243-.34c-1.478-2.541-3.827-3.749-7.248-2.784a14.338,14.338,0,0,0-3.555,1.553,1.361,1.361,0,0,0-.407,1.878l.84,1.292H95.517a.812.812,0,0,1-.812-.812V134.58h33V145a1.353,1.353,0,1,0,2.705,0v-5.062l.15.031,2.661,5.607Zm5.895-10.043-1.571,2.676-2.162-4.557a1.353,1.353,0,0,0-.951-.746l-1.353-.276v-2.791l3.436.491Z" transform="translate(-92 -106.311)" fill="#008585"/>
        <path id="Path_2296" data-name="Path 2296" d="M137.309,233H126.353a1.353,1.353,0,0,0,0,2.705h10.957a1.353,1.353,0,0,0,0-2.705Z" transform="translate(-120.536 -202.296)" fill="#008585"/>
        <path id="Path_2297" data-name="Path 2297" d="M382.582,56.688h0a2.968,2.968,0,0,1,2.969,2.971,1.353,1.353,0,0,0,2.705,0,5.673,5.673,0,0,0-5.675-5.677h0a1.353,1.353,0,1,0,0,2.705Z" transform="translate(-342.106 -47.493)" fill="#008585"/>
        <path id="Path_2298" data-name="Path 2298" d="M382.605,8.717h.006a9.45,9.45,0,0,1,9.452,9.459,1.353,1.353,0,0,0,2.705,0A12.155,12.155,0,0,0,382.611,6.012H382.6a1.353,1.353,0,1,0,0,2.705Z" transform="translate(-342.126 -6.012)" fill="#008585"/>
      </g>
    </g>
  </g>
</svg>
