<svg xmlns="http://www.w3.org/2000/svg" width="36.82" height="44.468" viewBox="0 0 36.82 44.468">
  <g id="Group_1655" data-name="Group 1655" transform="translate(-304.526 -934.496)">
    <path id="Path_2295" data-name="Path 2295" d="M128.681,133.44l-4.981-7.827a.889.889,0,0,0-.67-.408l-5.773-.525v-.368A2.315,2.315,0,0,0,114.946,122H94.312A2.315,2.315,0,0,0,92,124.312v12.807a2.315,2.315,0,0,0,2.312,2.312h13.95a.884.884,0,0,0,.385-.089l6.3,9.691v6.229a.889.889,0,1,0,1.779,0V148.77a.89.89,0,0,0-.144-.485l-7.561-11.632c1-.452,2.659-.977,3.423.093.212.3.428.6.639.892,1.943,2.7,3.623,4.969,3.64,4.991a.889.889,0,0,0,1.481-.08l4.8-8.182a.889.889,0,0,0,.028-.848l-2.134-4.269a.889.889,0,0,0-.67-.483l-2.972-.424v-1.877l5.176.471,4.548,7.147-2.766,12.447a.892.892,0,0,0-.021.193v8.538a.889.889,0,1,0,1.779,0v-8.44l2.825-12.712a.89.89,0,0,0-.118-.671Zm-34.9-6.1h21.7v1.156h-21.7Zm.534-3.558h20.634a.534.534,0,0,1,.534.534v1.245h-21.7v-1.245a.534.534,0,0,1,.534-.534Zm23.039,16.708c-.674-.917-1.706-2.328-2.825-3.885l-.16-.223a3.811,3.811,0,0,0-4.765-1.83,9.428,9.428,0,0,0-2.338,1.021A.9.9,0,0,0,107,136.8l.552.849H94.312a.534.534,0,0,1-.534-.534v-6.848h21.7v6.848a.889.889,0,1,0,1.779,0v-3.328l.1.02,1.749,3.687Zm3.876-6.6-1.033,1.759-1.422-3a.889.889,0,0,0-.626-.49l-.889-.181V130.14l2.259.323Z" transform="translate(212.526 822.812)" fill="#00a662"/>
    <path id="Path_2296" data-name="Path 2296" d="M133.093,233h-7.2a.889.889,0,1,0,0,1.779h7.2a.889.889,0,0,0,0-1.779Z" transform="translate(182.461 721.684)" fill="#00a662"/>
    <path id="Path_2297" data-name="Path 2297" d="M382.119,55.761h0a1.952,1.952,0,0,1,1.952,1.953.889.889,0,0,0,1.779,0,3.73,3.73,0,0,0-3.731-3.733h0a.889.889,0,0,0,0,1.779Z" transform="translate(-50.98 884.78)" fill="#00a662"/>
    <path id="Path_2298" data-name="Path 2298" d="M382.142,7.791h0a6.214,6.214,0,0,1,6.215,6.219.889.889,0,0,0,1.779,0,7.992,7.992,0,0,0-7.993-8h0a.889.889,0,0,0,0,1.779Z" transform="translate(-51.001 928.484)" fill="#00a662"/>
  </g>
</svg>
