<svg xmlns="http://www.w3.org/2000/svg" width="431.366" height="259.85" viewBox="0 0 431.366 259.85">
  <g id="undraw_online_payments_luau" transform="translate(0 0)">
    <path id="Path_2019" data-name="Path 2019" d="M184.247,554.957l-2.59-10.217a132.661,132.661,0,0,0-14.075-5.049l-.327,4.748-1.326-5.231c-5.932-1.694-9.967-2.44-9.967-2.44s5.451,20.728,16.884,36.574l13.322,2.34-10.349,1.492a53.681,53.681,0,0,0,4.629,4.906c16.631,15.438,35.156,22.52,41.375,15.82s-2.221-24.647-18.853-40.084a70.661,70.661,0,0,0-18.116-11.649Z" transform="translate(-155.96 -364.697)" fill="#e6e6e6"/>
    <path id="Path_2020" data-name="Path 2020" d="M244.235,519.406l3.064-10.085a132.653,132.653,0,0,0-9.439-11.6l-2.734,3.9,1.569-5.164c-4.2-4.516-7.271-7.241-7.271-7.241s-6.048,20.561-4.452,40.037l10.194,8.889-9.631-4.072a53.679,53.679,0,0,0,1.427,6.593c6.258,21.812,18.454,37.45,27.242,34.929s10.839-22.247,4.581-44.059a70.666,70.666,0,0,0-9.487-19.336Z" transform="translate(-191.312 -340.242)" fill="#e6e6e6"/>
    <rect id="Rectangle_574" data-name="Rectangle 574" width="431.327" height="1.088" transform="translate(0.039 236.865)" fill="#3f3d56"/>
    <path id="Path_2021" data-name="Path 2021" d="M284.26,433.547s-3.359,40.388-4.08,49.042a61.549,61.549,0,0,1-3.606,15.866,14.917,14.917,0,0,0-1.442,5.769v36.781a2.144,2.144,0,0,0-2.164,2.885c.721,2.885,1.442,7.933,1.442,7.933h10.818a2.234,2.234,0,0,1,1.442-2.885c2.164-.721,0-6.491,0-6.491l11.539-43.272,17.309-36.06s10.1,32.454,12.26,36.06c0,0,7.933,40.387,9.375,43.993s2.164,3.606,1.442,5.048-.721,2.885,0,3.606,14.424,0,14.424,0l-3.606-51.205-6.491-61.3-33.175-10.1Z" transform="translate(-216.074 -309.389)" fill="#2f2e41"/>
    <path id="Path_2022" data-name="Path 2022" d="M272.891,662.628s-3.606-12.981-9.376-2.885-5.77,13.7-5.77,13.7-9.375,13.7,3.606,12.26,10.1-7.933,10.1-7.933,5.048-2.885,5.048-5.048S272.891,662.628,272.891,662.628Z" transform="translate(-206.622 -425.963)" fill="#2f2e41"/>
    <path id="Path_2023" data-name="Path 2023" d="M408.841,659.659s3.606-12.982,9.376-2.885,5.77,13.7,5.77,13.7,9.376,13.7-3.606,12.26-10.1-7.933-10.1-7.933-5.048-2.885-5.048-5.048S408.841,659.659,408.841,659.659Z" transform="translate(-284.155 -424.436)" fill="#2f2e41"/>
    <path id="Path_2024" data-name="Path 2024" d="M338.935,237.686s1.442,9.376-2.885,11.539,9.376,10.1,12.982,10.1,10.1-7.212,10.1-7.212-3.606-10.818-2.885-12.981Z" transform="translate(-248.145 -210.888)" fill="#a0616a"/>
    <circle id="Ellipse_48" data-name="Ellipse 48" cx="15.145" cy="15.145" r="15.145" transform="translate(83.578 3.72)" fill="#a0616a"/>
    <path id="Path_2025" data-name="Path 2025" d="M355.664,272.217l-18.029-10.923s-10.258,11.645-21.356-1.337l-19.031,5.048,2.885,49.041s-4.327,19.472-2.885,23.078-3.606,5.048-2.164,5.77,0,5.77,0,5.77,28.127,14.424,59.138,3.606l-2.885-9.375a7.568,7.568,0,0,0-1.442-7.212s2.885-4.327-.721-7.933c0,0,1.442-6.491-2.164-9.376l-.721-10.1,2.164-5.048Z" transform="translate(-227.373 -222.341)" fill="#cfcce0"/>
    <path id="Path_2026" data-name="Path 2026" d="M334.554,194.347s-1.806,3.908,5.417,2.345c0,0,2.708,1.563,2.708-.782,0,0,3.611,3.908,4.514,1.563s2.708.782,2.708.782l1.806-3.908,1.806,2.345h6.319s1.806-15.63-19.862-14.067-11.008,26.327-11.008,26.327.174-4.445,1.98-2.1S334.554,194.347,334.554,194.347Z" transform="translate(-243.582 -182.515)" fill="#2f2e41"/>
    <path id="Path_2027" data-name="Path 2027" d="M419.1,344.589l.721,15.145s2.885,28.127-2.885,40.387v6.491s-1.442,16.587-8.654,15.866,2.164-23.8,2.164-23.8l-1.442-31.733-1.442-18.03Z" transform="translate(-284.322 -265.865)" fill="#a0616a"/>
    <path id="Path_2028" data-name="Path 2028" d="M396.878,285.445l7.194-1.169a35.125,35.125,0,0,1,10.114,18.478c2.164,11.539,2.885,13.7,2.885,13.7l-17.309,4.327-9.375-18.03Z" transform="translate(-276.519 -234.848)" fill="#cfcce0"/>
    <rect id="Rectangle_575" data-name="Rectangle 575" width="113.812" height="56.536" transform="translate(89.382 42.367)" fill="#fff"/>
    <path id="Path_2029" data-name="Path 2029" d="M357.314,275.085a13.3,13.3,0,0,0-7.79-1.49,11.485,11.485,0,0,0,12.756,7.675A13.31,13.31,0,0,0,357.314,275.085Z" transform="translate(-255.505 -229.318)" fill="#00a662"/>
    <path id="Path_2030" data-name="Path 2030" d="M370.147,348.571H351.873a4.112,4.112,0,0,0,0,8.224h18.275a4.112,4.112,0,0,0,0-8.224Z" transform="translate(-254.598 -267.913)" fill="#00a662"/>
    <path id="Path_2031" data-name="Path 2031" d="M446.129,259.215H343.668a9.076,9.076,0,0,0-9.076,9.076v49.921a9.076,9.076,0,0,0,9.076,9.076H446.129a9.076,9.076,0,0,0,9.076-9.076V268.291a9.076,9.076,0,0,0-9.076-9.076Zm-105,6.191a12.525,12.525,0,0,1,14.535,8.745l.161.5-.516.091a13.674,13.674,0,0,1-2.223.163,13.239,13.239,0,0,1-6.75-1.7A14.336,14.336,0,0,1,340.778,266l-.161-.5Zm22.242,46.349H345.1a5.026,5.026,0,1,1,0-10.051h18.275a5.026,5.026,0,1,1,0,10.051Zm83.15-.914a5.5,5.5,0,0,1-5.482,5.482H427.337a5.5,5.5,0,0,1-5.482-5.482v-8.223a5.5,5.5,0,0,1,5.482-5.482h13.706a5.5,5.5,0,0,1,5.482,5.482Z" transform="translate(-247.825 -221.96)" fill="#00a662"/>
    <path id="Path_2032" data-name="Path 2032" d="M526.485,362.209h-5.939a1.6,1.6,0,0,0,0,3.2h5.939a1.6,1.6,0,1,0,0-3.2Zm0,2.284h-5.939a.685.685,0,0,1,0-1.371h5.939a.685.685,0,1,1,0,1.371Z" transform="translate(-342.634 -274.927)" fill="#00a662"/>
    <path id="Path_2033" data-name="Path 2033" d="M549.06,362.209h-5.94a1.6,1.6,0,0,0,0,3.2h5.939a1.6,1.6,0,1,0,0-3.2Zm0,2.284h-5.94a.685.685,0,0,1,0-1.371h5.939a.685.685,0,1,1,0,1.371Z" transform="translate(-354.243 -274.927)" fill="#00a662"/>
    <path id="Path_2034" data-name="Path 2034" d="M526.485,353.744h-5.939a1.6,1.6,0,0,0,0,3.2h5.939a1.6,1.6,0,1,0,0-3.2Zm0,2.284h-5.939a.685.685,0,0,1,0-1.371h5.939a.685.685,0,1,1,0,1.371Z" transform="translate(-342.634 -270.573)" fill="#00a662"/>
    <path id="Path_2035" data-name="Path 2035" d="M549.06,353.744h-5.94a1.6,1.6,0,0,0,0,3.2h5.939a1.6,1.6,0,1,0,0-3.2Zm0,2.284h-5.94a.685.685,0,0,1,0-1.371h5.939a.685.685,0,1,1,0,1.371Z" transform="translate(-354.243 -270.573)" fill="#00a662"/>
    <path id="Path_2036" data-name="Path 2036" d="M526.485,345.279h-5.939a1.6,1.6,0,0,0,0,3.2h5.939a1.6,1.6,0,1,0,0-3.2Zm0,2.284h-5.939a.685.685,0,0,1,0-1.371h5.939a.685.685,0,1,1,0,1.371Z" transform="translate(-342.634 -266.22)" fill="#00a662"/>
    <path id="Path_2037" data-name="Path 2037" d="M549.06,345.279h-5.94a1.6,1.6,0,0,0,0,3.2h5.939a1.6,1.6,0,1,0,0-3.2Zm0,2.284h-5.94a.685.685,0,0,1,0-1.371h5.939a.685.685,0,1,1,0,1.371Z" transform="translate(-354.243 -266.22)" fill="#00a662"/>
    <path id="Path_2038" data-name="Path 2038" d="M274.9,307.572s-6.491,27.405,1.442,27.405,26.684-31.011,26.684-31.011,19.472-10.1,11.539-13.7-18.03,5.77-18.03,5.77l-11.65,16.175-.61-8.242Z" transform="translate(-215.84 -237.503)" fill="#a0616a"/>
    <path id="Path_2039" data-name="Path 2039" d="M289.636,274.678l-4.327-4.327s-8.654,5.048-9.375,10.1-4.327,20.915-4.327,20.915l13.342,1.082,4.327-6.491Z" transform="translate(-215.433 -227.687)" fill="#cfcce0"/>
    <path id="Path_2040" data-name="Path 2040" d="M725.948,237.863c-.543-1.6-7.357-7.058-3.182-7.974l3.424,4.565,15.741-15.741,1.583,1.583Z" transform="translate(-446.76 -201.131)" fill="#00a662"/>
    <path id="Path_2041" data-name="Path 2041" d="M725.948,348.057c-.543-1.6-7.357-7.058-3.182-7.974l3.424,4.565,15.741-15.741,1.583,1.583Z" transform="translate(-446.76 -257.801)" fill="#00a662"/>
    <path id="Path_2042" data-name="Path 2042" d="M725.948,459.825c-.543-1.6-7.357-7.058-3.182-7.974l3.424,4.565,15.741-15.741,1.583,1.583Z" transform="translate(-446.76 -315.28)" fill="#00a662"/>
    <circle id="Ellipse_49" data-name="Ellipse 49" cx="4.857" cy="4.857" r="4.857" transform="translate(322.009 25.366)" fill="#3f3d56"/>
    <rect id="Rectangle_576" data-name="Rectangle 576" width="78.202" height="0.971" transform="translate(345.081 29.738)" fill="#3f3d56"/>
    <circle id="Ellipse_50" data-name="Ellipse 50" cx="4.857" cy="4.857" r="4.857" transform="translate(322.009 78.89)" fill="#3f3d56"/>
    <rect id="Rectangle_577" data-name="Rectangle 577" width="78.202" height="0.971" transform="translate(345.081 83.262)" fill="#3f3d56"/>
    <circle id="Ellipse_51" data-name="Ellipse 51" cx="4.857" cy="4.857" r="4.857" transform="translate(322.009 133.179)" fill="#3f3d56"/>
    <rect id="Rectangle_578" data-name="Rectangle 578" width="78.202" height="0.971" transform="translate(345.081 137.551)" fill="#3f3d56"/>
    <path id="Path_2043" data-name="Path 2043" d="M574.326,286.257H550.04V261.485h16.515v.971H551.011v22.829h22.344V274.114h.971Z" transform="translate(-282.87 -134.474)" fill="#3f3d56"/>
    <path id="Path_2044" data-name="Path 2044" d="M574.326,174.257H550.04V149.485h16.515v.971H551.011v22.829h22.344V162.114h.971Z" transform="translate(-282.87 -76.876)" fill="#3f3d56"/>
    <path id="Path_2045" data-name="Path 2045" d="M574.326,60.257H550.04V35.485h16.515v.971H551.011V59.286h22.344V48.114h.971Z" transform="translate(-282.87 -18.249)" fill="#3f3d56"/>
  </g>
</svg>
