<svg xmlns="http://www.w3.org/2000/svg" width="258.571" height="279.673" viewBox="0 0 258.571 279.673">
  <g id="Group_9" data-name="Group 9" transform="translate(-365.054 -89.714)">
    <path id="Path_2" data-name="Path 2" d="M443.583,669.354s-11.682-20.7-29.287-26.666c-7.388-2.5-10.518-3.885-14.928-10.32" transform="translate(0.327 -317.387)" fill="none" stroke="#e6e6e6" stroke-miterlimit="10" stroke-width="2"/>
    <path id="Path_5" data-name="Path 5" d="M409.038,690.234c2.641-.914,8.635-8.347,8.635-8.347s-9.313-2.131-11.954-1.216a5.062,5.062,0,0,0,3.3,9.564Z" transform="translate(-4.587 -357.152)" fill="#e6e6e6"/>
    <path id="Path_6" data-name="Path 6" d="M480.57,730.784c2.756-.454,9.93-6.765,9.93-6.765s-8.82-3.675-11.578-3.22a5.061,5.061,0,1,0,1.648,9.987Z" transform="translate(-58.469 -387.23)" fill="#e6e6e6"/>
    <path id="Path_7" data-name="Path 7" d="M10.123,5.057c0,2.793-5.057,10.9-5.057,10.9S0,7.855,0,5.062a5.061,5.061,0,1,1,10.123,0Z" transform="translate(386.576 313.245) rotate(-54.975)" fill="#e6e6e6"/>
    <path id="Path_17" data-name="Path 17" d="M504.487,608.767s-2.772-28.7-19.365-43.963A43.63,43.63,0,0,1,471.6,540.7a73.341,73.341,0,0,1-1.211-13.383" transform="translate(-61.393 -257.298)" fill="none" stroke="#535461" stroke-miterlimit="10" stroke-width="2"/>
    <path id="Path_18" data-name="Path 18" d="M435.62,476.93c1.266,3.145,10.633,9.968,10.633,9.968s2.018-11.412.751-14.557a6.143,6.143,0,1,0-11.4,4.589Z" transform="translate(-37.015 -216.589)" fill="#00a662"/>
    <path id="Path_19" data-name="Path 19" d="M423.021,539.666c2.772,1.95,14.344,2.587,14.344,2.587s-4.506-10.676-7.278-12.629a6.138,6.138,0,1,0-7.066,10.039Z" transform="translate(-26.811 -258.118)" fill="#00a662"/>
    <path id="Path_20" data-name="Path 20" d="M456.458,633.285c3.388.283,13.688-5.008,13.688-5.008s-9.281-6.949-12.659-7.223a6.138,6.138,0,1,0-1.029,12.233Z" transform="translate(-47.84 -322.143)" fill="#00a662"/>
    <path id="Path_21" data-name="Path 21" d="M505.673,699.518c3.283.85,14.338-2.624,14.338-2.624s-7.975-8.409-11.255-9.259a6.138,6.138,0,0,0-3.08,11.884Z" transform="translate(-82.627 -368.096)" fill="#00a662"/>
    <path id="Path_22" data-name="Path 22" d="M488.609,540.095c-1.374,3.1-10.965,9.6-10.965,9.6s-1.632-11.474-.262-14.572a6.139,6.139,0,0,1,11.227,4.969Z" transform="translate(-65.852 -260.17)" fill="#00a662"/>
    <path id="Path_23" data-name="Path 23" d="M538.9,614.28c-2.236,2.547-13.334,5.884-13.334,5.884s1.876-11.437,4.112-13.981a6.136,6.136,0,0,1,9.222,8.1Z" transform="translate(-99.576 -310.425)" fill="#00a662"/>
    <path id="Path_24" data-name="Path 24" d="M583.5,698.837c-1.787,2.889-12.15,8.055-12.15,8.055s-.086-11.588,1.688-14.477a6.143,6.143,0,0,1,10.472,6.425Z" transform="translate(-131.258 -369.512)" fill="#00a662"/>
    <ellipse id="Ellipse_1" data-name="Ellipse 1" cx="129.227" cy="8.461" rx="129.227" ry="8.461" transform="translate(365.054 352.464)" fill="#e6e6e6"/>
    <path id="Path_79" data-name="Path 79" d="M1015.32,298.738s10.88-3.485,11.994,0Z" transform="translate(-421.893 -132.065)" opacity="0.1"/>
    <g id="Group_8" data-name="Group 8" transform="translate(481.747 89.714)">
      <path id="Path_26" data-name="Path 26" d="M695.55,288.857s2.459-12.9,10.377-12.967L711.71,287.8l-3.857,2.66S699.472,290.721,695.55,288.857Z" transform="translate(-679.382 -198.808)" fill="#d0cde1"/>
      <path id="Path_27" data-name="Path 27" d="M711.709,287.811l-3.857,2.663a45.6,45.6,0,0,1-10.114-.851,11.665,11.665,0,0,1-2.19-.747.765.765,0,0,1,.045-.207.4.4,0,0,1,0-.049,29.205,29.205,0,0,1,1.5-4.739c.242-.578.519-1.176.816-1.771a12.1,12.1,0,0,1,5.016-5.5,6.849,6.849,0,0,1,2.639-.692h.353l.124.263L708,280.2Z" transform="translate(-679.381 -198.827)" opacity="0.502"/>
      <path id="Path_28" data-name="Path 28" d="M920.8,395.509s8.3-.8,9.045-.2,5.455,3.659,8.246,1.729.93-8.647.93-8.914-.263-9.775-.263-9.775l-4.991-6.717-6.25-11.76-12.77-1.262.346,18.678-.066,9.578Z" transform="translate(-822.764 -252.917)" fill="#d0cde1"/>
      <path id="Path_29" data-name="Path 29" d="M920.8,395.509s8.3-.8,9.045-.2,5.455,3.659,8.246,1.729.93-8.647.93-8.914-.263-9.775-.263-9.775l-4.991-6.717-6.25-11.76-12.77-1.262.346,18.678-.066,9.578Z" transform="translate(-822.764 -252.917)" opacity="0.503"/>
      <path id="Path_30" data-name="Path 30" d="M684.89,251.778s-.661,8.115-5.718,8.246c0,0-1.432-.865-3.358-2.3-4.441-3.324-11.49-9.713-9.543-15.655,2.795-8.512,16.361,7.184,16.361,7.184l1.038,1.169Z" transform="translate(-660.013 -175.028)" fill="#fbbebe"/>
      <path id="Path_31" data-name="Path 31" d="M702.748,272.361s-.661,8.115-5.718,8.246c0,0-1.432-.865-3.358-2.3l-.432-.553a6.6,6.6,0,0,0,2.767.743,3.739,3.739,0,0,0,3.615-2.276,28.975,28.975,0,0,0,1.384-3.22,9.5,9.5,0,0,0,.512-1.995Z" transform="translate(-677.871 -195.611)" opacity="0.1"/>
      <path id="Path_32" data-name="Path 32" d="M701.287,285.775l-1.138-1.463-3.839-4.929-1.951-2.518a6.572,6.572,0,0,0,2.767.747,3.745,3.745,0,0,0,3.618-2.279,28.844,28.844,0,0,0,1.384-3.22c.633-1.8.619-2.72.4-3.03a20.7,20.7,0,0,1,2.2,1.951l.028.028c.225.207.37.346.37.346l.135.27,1.927,3.853.021.162C707.379,276.917,708.029,284.675,701.287,285.775Z" transform="translate(-678.603 -194.328)" fill="#e6e6e6"/>
      <path id="Path_33" data-name="Path 33" d="M759.564,792.24s-5.585,3.659-8.378,3.113a9.911,9.911,0,0,0-5.655.934,16.832,16.832,0,0,1-7.053,4.59c-4.521,1.529-10.837.93-14.427-.27-1.7-.564-1.837-1.3-1.02-2.2a28.42,28.42,0,0,1,5.41-3.656c4.586-2.726,9.508-8.115,9.508-8.115a2.886,2.886,0,0,1,.865-1.927,10.328,10.328,0,0,0,1.342-1.384c.713-.844,1.384-1.729,1.384-1.729l16.429.533s.28,1.186.5,2.4a8.529,8.529,0,0,1,.232,2.394,2.162,2.162,0,0,0,.467,1.66l.294,2.715Z" transform="translate(-697.041 -529.6)" fill="#2f2e41"/>
      <path id="Path_34" data-name="Path 34" d="M897.431,799.181c-.2.8-.435,2.224-.544,2.895-.036.228-.056.367-.056.367s-1.332,2.926-8.713,3.992-7.381-2.463-7.381-2.463.027-.38.076-.951c.128-1.557.394-4.534.588-5.167a23.537,23.537,0,0,0-.2-4.656l-.079-3.964-.056-2.767,12.24-1.266a23.416,23.416,0,0,0,.394,2.726,3.461,3.461,0,0,0,.536,1.384c.664.737,1.065,3.991,1.065,3.991S897.69,798.115,897.431,799.181Z" transform="translate(-800.516 -531.955)" fill="#2f2e41"/>
      <path id="Path_35" data-name="Path 35" d="M791.158,782.116s.28,1.186.5,2.4c-1.774.326-9.533,1.67-11.473.73-2.193-1.065-6.918-1.664-6.918-1.664l.079-.27c.713-.844,1.384-1.729,1.384-1.729Z" transform="translate(-730.216 -529.587)" opacity="0.1"/>
      <path id="Path_36" data-name="Path 36" d="M894.312,787.939c-3.113-.526-9.9.747-12.576,1.294l-.056-2.767,12.238-1.266A23.411,23.411,0,0,0,894.312,787.939Z" transform="translate(-801.132 -531.955)" opacity="0.1"/>
      <path id="Path_37" data-name="Path 37" d="M828.054,425.438l-.266,9.377s.346,14.3-.664,16.561-1,11.373-1,11.373.668,4.323-.066,5.25-.2,4.393.346,6.188.062,6.254.062,6.254l-.131,25.139s-.73,6.517-1.664,7.45a2.179,2.179,0,0,0-.529,2.127s-.8,3.722-.6,4.388a2.2,2.2,0,0,1-.93,2.923c-1.529.73-1.134,3.061-1.134,3.061C817.823,524.665,807.45,527,807.45,527a60.68,60.68,0,0,1-2.93-7.118,3.673,3.673,0,0,1,2.66-4.842c1.394-.187-1-2.664-1-2.664s.266-.346-.4-2.726.131-8.516.346-10.11,1.2-9.311,1.2-9.311-.529-9.775-.131-10.176,1.729-4.258,1.065-5.534-1.729-9.578-1.729-10.031-.865-11.241-.865-11.241-.8-7.516-.6-9.111a59.7,59.7,0,0,0-.533-7.513c0-4.926-2.857-10.245-2.857-10.245l-.073.19-6.181,16.256s-1,4.919-1.864,7.713a50.556,50.556,0,0,0-1.3,5.773l-.059.346c-.024.149-.045.277-.059.374l-.041.27h0s.464,3.525-.266,4.656a16.635,16.635,0,0,0-1.56,5.465c0,.944.062,4.528.062,4.528s.27,7.115-.464,7.914a1.256,1.256,0,0,0-.346,1.463s1.2,5.385.668,6.782-.131,4.652-.131,4.652-1.055,10.287-1.172,10.826-.865,4.656-.069,4.988a10.723,10.723,0,0,1,2.328,2.328s.346,8.713-.861,9.377-.536,4.057-.536,4.057-9.64,1.864-11.836.8S771,523.467,771,523.467l.661-2.186c-.036.076-.477.785-.792-1.937-.346-2.86,2.463-1.463,2.463-1.463s2.193.533-1.335-2.926-1.8-6.983-1.6-6.983a44.928,44.928,0,0,0,.664-5.119,17.01,17.01,0,0,0,.131-5.455c-.467-2.394-.861-9.844-.861-9.844s.346-5.652-.266-7.713.4-5.787.6-6.655-.6-8.777-.6-8.777a24.466,24.466,0,0,0,.266-6.447c-.4-2.726.4-12.77.4-12.77l1.2-11.574a24.543,24.543,0,0,0,.73-5.053c-.132-1.463,1-6.572,1-6.572a7.234,7.234,0,0,1,.533-3.192c.664-1.327.934-5.718.934-5.718l6.385-14.635,3.113-12.9,42.233-.4s.156,1.117.408,3.151.619,5.046,1.038,8.761c.367,3.376.768,7.346,1.161,11.76C830.714,422.909,828.054,425.438,828.054,425.438Z" transform="translate(-727.953 -270.275)" fill="#2f2e41"/>
      <path id="Path_38" data-name="Path 38" d="M884.358,144.383,874.511,154.9s-12.632-5.057-11.3-6.786c.515-.671.432-2.767.135-5.114-.467-3.68-1.463-7.924-1.463-7.924s22.078-3.591,20.214.131a6.039,6.039,0,0,0-.138,4.417,16.6,16.6,0,0,0,2.4,4.763Z" transform="translate(-788.18 -105.678)" fill="#fbbebe"/>
      <path id="Path_39" data-name="Path 39" d="M882.094,135.206c-.692,1.363-1,1.494-.578,2.961-2.888,3.113-6.572,6.485-11.124,6.485A15.749,15.749,0,0,1,863.343,143c-.467-3.68-1.463-7.924-1.463-7.924S883.958,131.484,882.094,135.206Z" transform="translate(-788.181 -105.68)" opacity="0.1"/>
      <path id="Path_40" data-name="Path 40" d="M872.373,88.642a15.831,15.831,0,1,1-31.662,0v-.228a15.828,15.828,0,1,1,31.656.228Z" transform="translate(-774.334 -65.898)" fill="#fbbebe"/>
      <path id="Path_41" data-name="Path 41" d="M854.681,404.141c-2.1.017-9.079.076-16.883.2h-.094l-2.579.043h-.079c-9.252.149-18.37-1.66-22.03-1.314-7.782.73,2.793-7.184,2.793-7.184a65.038,65.038,0,0,0,17.727,1.792l2.238-.114c7.072-.4,14.181-1.065,17.889-2.179C853.921,397.438,854.28,400.44,854.681,404.141Z" transform="translate(-754.349 -276.971)" opacity="0.1"/>
      <path id="Path_42" data-name="Path 42" d="M854.679,402.981c-2.1,0-9.079.076-16.883.2H837.7l-2.581.045h-.079c-9.252.149-18.37-1.66-22.03-1.318-7.782.73,2.793-7.181,2.793-7.181a65.195,65.195,0,0,0,17.727,1.792l2.238-.118c7.072-.4,14.181-1.065,17.889-2.179C853.918,396.274,854.278,399.266,854.679,402.981Z" transform="translate(-754.346 -276.209)" fill="#7c5c5c"/>
      <path id="Path_43" data-name="Path 43" d="M833.18,173.1l-12.238,5.721L811.5,251.848s5.585-2.525,8.777-.93,13.033.135,13.033.135,7.184-.4,8.249.4,13.564-3.324,13.564-3.324,2.262-5.057.533-5.852.533-8.647.533-8.647l-1.065-52.675L853,174.171l-5.718-3.461-5.859,4.656-2.767.4Z" transform="translate(-755.226 -130.008)" opacity="0.1"/>
      <path id="Path_44" data-name="Path 44" d="M833.18,170.787l-12.238,5.721-9.442,73.03s5.585-2.528,8.777-.93,13.033.131,13.033.131,7.184-.4,8.249.4,13.564-3.324,13.564-3.324,2.262-5.053.533-5.852.533-8.647.533-8.647l-1.065-52.682L853,171.851l-5.718-3.461-5.859,4.659-2.767.394Z" transform="translate(-755.226 -128.491)" fill="#e6e6e6"/>
      <path id="Path_45" data-name="Path 45" d="M855.616,183.094s3.525,4.189,3.459,5.053-.2,2.926-.2,2.926l-2.663,5.389s-1.463,6.717-1.463,8.115-2.328,13.49-2.328,13.49l-2.793,18.623L846.107,261.1l3.591,6.184,4.258-3.591,5.652-43.5,1.2-8.578s1.262-15.43,1.262-17.025a54.522,54.522,0,0,0-.73-5.787s.865-3.992,4.455-4.922-.266-.2-.266-.2l-2.075-1.664-1.8.733S856.682,181.234,855.616,183.094Z" transform="translate(-777.863 -137.405)" opacity="0.1"/>
      <path id="Path_46" data-name="Path 46" d="M854.495,181.972s3.525,4.189,3.459,5.053-.2,2.926-.2,2.926l-2.66,5.389s-1.446,6.71-1.446,8.1-2.328,13.49-2.328,13.49l-2.812,18.65L845,259.977l3.594,6.188,4.237-3.6,5.658-43.488,1.2-8.578s1.263-15.43,1.263-17.028a54.4,54.4,0,0,0-.73-5.787s.865-3.99,4.455-4.922-.266-.2-.266-.2l-2.075-1.664-1.767.725S855.56,180.1,854.495,181.972Z" transform="translate(-777.139 -136.674)" fill="#2f2e41"/>
      <path id="Path_47" data-name="Path 47" d="M860.692,163.79s-.533.4-.664,3.058-1.995,8.647-1.995,8.647,6.918-4.791,10.377-4.258Z" transform="translate(-785.664 -125.482)" opacity="0.1"/>
      <path id="Path_48" data-name="Path 48" d="M860.692,161.48s-.533.4-.664,3.061-1.995,8.647-1.995,8.647,6.918-4.787,10.377-4.254Z" transform="translate(-785.664 -123.971)" fill="#e6e6e6"/>
      <path id="Path_49" data-name="Path 49" d="M899.7,157.63l-10.909,9.578s9.18,5.455,10.377,6.786,2.393-13.038,2.393-13.038Z" transform="translate(-805.783 -121.452)" opacity="0.1"/>
      <path id="Path_50" data-name="Path 50" d="M900.888,155.33,890,164.9s9.176,5.451,10.377,6.782,2.4-13.037,2.4-13.037Z" transform="translate(-806.574 -119.948)" fill="#e6e6e6"/>
      <path id="Path_51" data-name="Path 51" d="M806.825,163.6s-1.2-.6-2.328,1.131a7.5,7.5,0,0,1-3.258,2.525s-12.106,1.93-12.569,3.525l-5.652.346s-1.995.263-2.2,4.455-1.276,4.58-1.276,4.58-2.328,4.123-2.131,6.25a3.494,3.494,0,0,1-1.8,3.192l8.3,21.616s.266,8.914-1.266,12.172-4.388,17.692-4.388,17.692,1.2-.266,1.131.529-1.463,9.512-1.463,9.512a19.217,19.217,0,0,1-1.062,4.656c-.663,1.2-.733,7.451-.733,7.451l-1.065,4.521s2.528,5.655,6.385,4.842,10.885-15.876,10.885-15.876l4.455-16.295,3.459-16.094,1-10.906,1.6-24.143,2.328-15.963S807.759,164.734,806.825,163.6Z" transform="translate(-731.399 -125.293)" opacity="0.1"/>
      <path id="Path_52" data-name="Path 52" d="M805.725,161.291s-1.2-.6-2.328,1.131a7.521,7.521,0,0,1-3.258,2.528s-12.106,1.927-12.569,3.525l-5.655.346s-1.995.266-2.193,4.455-1.266,4.59-1.266,4.59-2.328,4.123-2.127,6.25a3.487,3.487,0,0,1-1.8,3.192l8.3,21.616s.266,8.914-1.263,12.172-4.388,17.692-4.388,17.692,1.2-.266,1.131.533-1.463,9.508-1.463,9.508a19.1,19.1,0,0,1-1.065,4.656c-.666,1.2-.73,7.451-.73,7.451L774,265.441s2.528,5.655,6.385,4.842,10.84-15.893,10.84-15.893l4.458-16.295,3.459-16.1,1-10.906,1.6-24.143,2.328-15.963S806.655,162.422,805.725,161.291Z" transform="translate(-730.697 -123.782)" fill="#2f2e41"/>
      <path id="Path_53" data-name="Path 53" d="M710.977,287.036l-3.857,2.665a45.6,45.6,0,0,1-10.114-.851l-2.145-.955-.432-.187.443.138a8.782,8.782,0,0,0,5.323.19c5.458-1.837,4.843-10.85,4.645-12.891-.021-.2-.036-.346-.045-.387a.108.108,0,0,1,0-.024l.031.052a2.447,2.447,0,0,0,.254.346c.076.086.156.176.242.259h0l1.927,3.853.021.162Z" transform="translate(-678.649 -198.052)" opacity="0.1"/>
      <path id="Path_54" data-name="Path 54" d="M725.078,235.12l-1.861.533-.266,3.8a2.542,2.542,0,0,0-2.795,2.262,9.139,9.139,0,0,1-1.66,3.8s-3.659,3.061-3.86,5.652l-2.259,1.384s-5.259-1.224-6.451-3.337c0,0,2.394,17.16-10.377,12.967,0,0,14.3,6.254,14.963,7.118s5.057,3.39,9.045,1.263a9.624,9.624,0,0,0,4.856-5.4s3.857-5.389,3.992-6.188,3.113-1.729,3.113-1.729l5.721-13.837Z" transform="translate(-679.382 -172.14)" fill="#2f2e41"/>
      <path id="Path_55" data-name="Path 55" d="M913.366,164.112l1.927-8.777s.865,2.86,1.73,3.525l2.861,2.193a16.619,16.619,0,0,0,3.857,1.332c1,0,6.385,1.384,7.049,2.127s3.328.2,3.328.2,2.193.73,4.123,1.2,2.86,3.659,2.459,4.922a3.836,3.836,0,0,0,.934,3.591c.8.8,1.2,3.393,1.2,3.393a3.891,3.891,0,0,1,2.259,1.927c.668,1.463.467,4.656.467,4.656l-9.91,13.967s.131,5.389-.266,6.572,1.384,21.549,1.384,21.549l2.075,34.983a37.054,37.054,0,0,1-3.324,2.594c-.6.267-1.2-12.373-1.2-12.836s-15.361-23.012-15.361-23.012-2.075-3.327-2.075-4.057-1.93-7.451-1.93-7.451l-2.927-12.969Z" transform="translate(-820.978 -119.951)" opacity="0.1"/>
      <path id="Path_56" data-name="Path 56" d="M947.912,183.589c0,.457-.024.762-.024.762l-9.9,13.956h0s.139,5.385-.263,6.572c-.232.692.277,7.852.747,13.728.346,4.243.65,7.82.65,7.82L940,241.266l1.183,20.144A37.045,37.045,0,0,1,937.855,264c-.6.267-1.2-12.373-1.2-12.839s-15.364-23.008-15.364-23.008-2.075-3.327-2.075-4.057-1.927-7.451-1.927-7.451l-2.926-12.971,1.328-39.635,1.131-8.777a19.186,19.186,0,0,0,2.528,3.521c.865.661,2.857,2.2,2.857,2.2a16.6,16.6,0,0,0,3.86,1.332c1,0,6.385,1.384,7.049,2.127s3.328.2,3.328.2,2.193.73,4.119,1.2,2.86,3.659,2.463,4.918a3.836,3.836,0,0,0,.93,3.594c.8.8,1.2,3.39,1.2,3.39a3.9,3.9,0,0,1,2.262,1.933A10.909,10.909,0,0,1,947.912,183.589Z" transform="translate(-822.512 -119.907)" fill="#2f2e41"/>
      <path id="Path_57" data-name="Path 57" d="M776.31,749.48c.346,0,14.3.533,14.032,2.795S776.31,749.48,776.31,749.48Z" transform="translate(-732.208 -508.59)" opacity="0.1"/>
      <path id="Path_58" data-name="Path 58" d="M785.35,760.44s9.377,1.529,6.918,2.926S785.35,760.44,785.35,760.44Z" transform="translate(-738.121 -515.759)" opacity="0.1"/>
      <path id="Path_59" data-name="Path 59" d="M886.1,745.25s15.565,1.332,13.238,3.058-7.848,1.995-8.115,2.075S886.1,745.25,886.1,745.25Z" transform="translate(-804.023 -505.823)" opacity="0.1"/>
      <path id="Path_60" data-name="Path 60" d="M880.72,765.06s8.647,1.463,8.91,3.113S880.72,765.06,880.72,765.06Z" transform="translate(-800.504 -518.781)" opacity="0.1"/>
      <path id="Path_61" data-name="Path 61" d="M894.56,649.3s7.914,1.861,8.381,3.113Z" transform="translate(-809.557 -443.061)" opacity="0.1"/>
      <path id="Path_62" data-name="Path 62" d="M802.76,665.84s-4.123,1.2-.131,3.591S802.76,665.84,802.76,665.84Z" transform="translate(-748.285 -453.88)" opacity="0.1"/>
      <path id="Path_63" data-name="Path 63" d="M859.18,478.022c.467,0,7.717-2.394,10.242-1.328a16.811,16.811,0,0,0,5.655,1.062Z" transform="translate(-786.415 -329.978)" opacity="0.1"/>
      <path id="Path_64" data-name="Path 64" d="M844.077,496.119l-.073.657-6.181,16.257s-1,4.918-1.864,7.713a50.54,50.54,0,0,0-1.3,5.773l5.49-34.038Z" transform="translate(-770.377 -340.483)" opacity="0.1"/>
      <path id="Path_65" data-name="Path 65" d="M881.912,407.3l-2.581.045h-.079l-1.512-6.7c.743-.036,1.487-.076,2.238-.121Z" transform="translate(-798.555 -280.329)" fill="#2f2e41"/>
      <path id="Path_66" data-name="Path 66" d="M929.854,384.574l-1.657,1.363-5.533,4.549s-14.966,7.983-19.089.4c-3.635-6.679,13.334-11.449,17.419-12.49.557-.142.87-.211.87-.211Z" transform="translate(-815.122 -265.721)" fill="#fbbebe"/>
      <path id="Path_67" data-name="Path 67" d="M795.73,207.63s2.926,1.328,3.591,3.192S795.73,207.63,795.73,207.63Z" transform="translate(-744.911 -154.158)" opacity="0.1"/>
      <path id="Path_68" data-name="Path 68" d="M764.017,265.31s-4.258,5.188-2.528,7.184S764.017,265.31,764.017,265.31Z" transform="translate(-722.243 -191.888)" opacity="0.1"/>
      <path id="Path_69" data-name="Path 69" d="M981.755,216.09s-3.992.4-4.123,3.857Z" transform="translate(-863.895 -159.692)" opacity="0.1"/>
      <path id="Path_70" data-name="Path 70" d="M882.64,349.469c.4-.4,9.578-13.967,11.7-12.77Z" transform="translate(-801.76 -238.535)" opacity="0.1"/>
      <path id="Path_71" data-name="Path 71" d="M872.388,88.615a15.773,15.773,0,0,1-1.871,7.471l-.117-.021c-1-.211-1.525-1.384-2.293-2.11a3.113,3.113,0,0,0-3.591-.5,3.653,3.653,0,0,0-1.764,3.414c-.5-2.131-.346-4.4-.841-6.53s-1.985-4.292-4.023-4.33c-.878,0-1.906.326-2.539-.346-.384-.4-.464-1.038-.751-1.5-1.456-2.357-5.88-1.166-7.7.041-1.75,1.161-3.917,3.141-6.166,4.178a15.828,15.828,0,0,1,31.656.228Z" transform="translate(-774.349 -65.872)" opacity="0.1"/>
      <path id="Path_72" data-name="Path 72" d="M846.994,70.93c.29.481.367,1.11.751,1.5.633.657,1.66.322,2.539.346,2.037.036,3.528,2.2,4.022,4.33s.346,4.4.84,6.528a3.646,3.646,0,0,1,1.767-3.409,3.113,3.113,0,0,1,3.587.5c.768.73,1.29,1.9,2.293,2.11s1.972-.751,2.331-1.809a27.7,27.7,0,0,0,.574-3.313c.453-2.075,1.805-3.772,2.556-5.745a10.418,10.418,0,0,0-.069-7.43c-.5-1.249-1.242-2.373-1.729-3.621-.768-1.9-5.026-4.448-5.956-6.254-1.567-3.023-.557-1.138-3.587,0-1.446.544-3.341-1.391-4.808-.91-1.968.63-4.067.156-6.1-.128s-4.282-.311-5.918,1.038c-1.882,1.539-2.4,4.434-4.151,6.126-.744.709-1.668,1.161-2.452,1.819a3.4,3.4,0,0,0-1.384,2.7c.117,1.384,1.467,2.629.968,3.9a3.161,3.161,0,0,1-.737.972,13.854,13.854,0,0,0-3.22,5.479c3.559,1.11,7.412-2.812,10.2-4.666C841.108,69.767,845.538,68.588,846.994,70.93Z" transform="translate(-766.744 -53.036)" fill="#2f2e41"/>
      <path id="Path_73" data-name="Path 73" d="M963.281,384.58l-1.657,1.363c-1.46-2.421-7.454-7.288-7.454-7.288l.259-.249c.557-.142.87-.211.87-.211Z" transform="translate(-848.549 -265.727)" opacity="0.1"/>
      <path id="Path_74" data-name="Path 74" d="M965.637,378.1s-.595,1.48-1.211,2.767-1.283,2.442-1.318,1.5c-.066-1.864-7.779-8.118-7.779-8.118l1.038-1.016,1.214-1.176Z" transform="translate(-849.308 -261.711)" fill="#e6e6e6"/>
      <path id="Path_75" data-name="Path 75" d="M966.019,346.277l.875,14.838c-2.075-3.213-7.737-11.449-11.388-11.183l8.849-10.172a11.9,11.9,0,0,0,1.013-1.306C965.708,342.7,966.019,346.277,966.019,346.277Z" transform="translate(-849.423 -239.733)" opacity="0.1"/>
      <path id="Path_76" data-name="Path 76" d="M967.614,378.1s-.595,1.48-1.211,2.767c-2.318-3.179-5.507-6.935-8.052-7.637l1.214-1.176Z" transform="translate(-851.284 -261.708)" opacity="0.1"/>
      <path id="Path_77" data-name="Path 77" d="M973.163,234l2.394,1.861s3.99.069,4.388,3.393S984,244.1,984,244.1s2.726,2.726,2.726,3.989,2.075,3.528,2.075,3.725,1.995,4.258,1.729,4.988,2.127,3.926,1.384,5.122a29.32,29.32,0,0,0-1.6,3.324s-3.113,5.987-4.721,7.118-8.91,10.64-8.91,10.64-7.848,9.045-7.848,11.84c0,0-7.652-12.77-12.172-12.452l8.844-10.176s1.532-1.66,1.6-2.66,4.254-5.585,6.25-5.787c0,0,.346-2.726-.533-2.793s-1.6-2.2-1.6-2.2-5.852-6.918-5.918-11.307S973.163,234,973.163,234Z" transform="translate(-850.182 -171.407)" fill="#2f2e41"/>
      <path id="Path_78" data-name="Path 78" d="M1005.931,252.24s-5.59,4.123-4.388,5.451S1005.931,252.24,1005.931,252.24Z" transform="translate(-879.425 -183.338)" opacity="0.1"/>
      <path id="Path_80" data-name="Path 80" d="M759.564,810.556s-5.585,3.66-8.378,3.113a9.911,9.911,0,0,0-5.655.934,16.831,16.831,0,0,1-7.053,4.59c-4.521,1.529-10.837.93-14.427-.27-1.7-.564-1.837-1.3-1.02-2.2,3.905.778,12.632,2.324,14.984,1.2a62.083,62.083,0,0,0,7.447-4.656s5.725-.8,6.52-.8a71.24,71.24,0,0,0,7.478-2.871Z" transform="translate(-697.041 -547.916)" opacity="0.1"/>
      <path id="Path_82" data-name="Path 82" d="M800.571,249.93s0,15.164-1.3,16.661S800.571,249.93,800.571,249.93Z" transform="translate(-746.992 -181.827)" opacity="0.1"/>
      <path id="Path_83" data-name="Path 83" d="M977.05,264.06l1.927,5.418S979.744,264.16,977.05,264.06Z" transform="translate(-863.515 -191.07)" opacity="0.1"/>
      <g id="Group_1" data-name="Group 1" transform="translate(62.351 11.056)" opacity="0.1">
        <path id="Path_84" data-name="Path 84" d="M838.868,88.8c.488-1.249-.788-2.47-.955-3.8a2.5,2.5,0,0,0-.214,1.2c.086,1.006.83,1.951,1.038,2.881a1.573,1.573,0,0,0,.131-.28Z" transform="translate(-834.711 -85)"/>
        <path id="Path_85" data-name="Path 85" d="M855.3,111.029c-.477-2.1-.346-4.32-.823-6.416s-1.982-4.3-4.019-4.33c-.878,0-1.906.322-2.542-.346-.38-.394-.46-1.038-.747-1.5-1.456-2.357-5.88-1.161-7.7.045-2.722,1.809-6.458,5.59-9.944,4.732a12.654,12.654,0,0,0-.453,1.233c3.559,1.11,7.412-2.812,10.2-4.666,1.816-1.207,6.247-2.421,7.7-.045.29.481.367,1.11.751,1.5.633.657,1.66.322,2.539.346,2.037.036,3.528,2.2,4.022,4.33s.346,4.4.84,6.528a3.589,3.589,0,0,1,.181-1.408Z" transform="translate(-829.071 -92.901)"/>
        <path id="Path_86" data-name="Path 86" d="M914.946,128c-.346,1.058-1.311,2.027-2.335,1.809s-1.525-1.384-2.29-2.11a3.113,3.113,0,0,0-3.59-.5,3.625,3.625,0,0,0-1.764,3.223,3.459,3.459,0,0,1,1.567-1.927,3.113,3.113,0,0,1,3.587.5c.768.73,1.29,1.9,2.293,2.11s1.972-.751,2.331-1.809a9.051,9.051,0,0,0,.367-1.909A5.358,5.358,0,0,1,914.946,128Z" transform="translate(-878.715 -112.369)"/>
        <path id="Path_87" data-name="Path 87" d="M937.666,101.216c-.747,1.972-2.1,3.673-2.553,5.749-.09.419-.142.848-.194,1.276.457-2.075,1.8-3.763,2.549-5.728a10.27,10.27,0,0,0,.617-2.767,10.12,10.12,0,0,1-.418,1.47Z" transform="translate(-898.308 -94.646)"/>
      </g>
      <rect id="Rectangle_1" data-name="Rectangle 1" width="0.304" height="2.497" rx="0.152" transform="translate(11.011 67.293) rotate(-26.744)" fill="#3a3768"/>
      <rect id="Rectangle_5" data-name="Rectangle 5" width="10.134" height="20.601" rx="2.24" transform="translate(0 67.605) rotate(-26.744)" fill="#3a3768"/>
      <path id="Path_88" data-name="Path 88" d="M658.074,238.637a.346.346,0,0,0-.159.488l.036.066a.346.346,0,0,1-.162.488l-3.836,1.933a.346.346,0,0,1-.488-.159l-.036-.069a.346.346,0,0,0-.488-.159l-.747.374a.692.692,0,0,0-.308.934l8.16,16.2a.692.692,0,0,0,.934.308l6.693-3.373a.692.692,0,0,0,.308-.93l-8.15-16.2a.692.692,0,0,0-.93-.3Z" transform="translate(-650.771 -174.124)" fill="#00a662"/>
    </g>
    <rect id="Rectangle_10" data-name="Rectangle 10" width="13.226" height="2.094" transform="translate(432.989 344.383)" opacity="0.1"/>
    <path id="Path_95" data-name="Path 95" d="M629.385,263.256v41.256a4.132,4.132,0,0,1-4.139,4.139H620.8V259.12h4.445a4.132,4.132,0,0,1,4.139,4.135Z" transform="translate(-153.67 -107.74)" fill="#d0cde1"/>
    <path id="Path_96" data-name="Path 96" d="M632.288,259.182v39.139a4.608,4.608,0,0,1-.762.062h-.636V259.12h.638A4.607,4.607,0,0,1,632.288,259.182Z" transform="translate(-159.948 -102.515)" opacity="0.2"/>
    <rect id="Rectangle_7" data-name="Rectangle 7" width="16.028" height="128.513" transform="translate(440.062 215.468)" fill="#d0cde1"/>
    <path id="Path_97" data-name="Path 97" d="M412.022,726.54h36.7a15.192,15.192,0,0,1,15.192,15.192v2.337H396.83v-2.337A15.192,15.192,0,0,1,412.022,726.54Z" transform="translate(16.783 -384.576)" fill="#d0cde1"/>
    <rect id="Rectangle_11" data-name="Rectangle 11" width="16.028" height="15.415" transform="translate(440.062 233.16)" opacity="0.1"/>
    <rect id="Rectangle_12" data-name="Rectangle 12" width="16.028" height="15.415" transform="translate(440.062 232.111)" opacity="0.1"/>
    <rect id="Rectangle_13" data-name="Rectangle 13" width="19.181" height="15.415" transform="translate(438.576 232.634)" fill="#d0cde1"/>
    <path id="Path_98" data-name="Path 98" d="M558.47,395.244v6.4a6,6,0,0,1-6,6H531.192a6,6,0,0,1-6-6v-6.4a6,6,0,0,1,6-5.994h21.275a6,6,0,0,1,6,5.994Z" transform="translate(-93.747 -189.459)" fill="#d0cde1"/>
    <path id="Path_99" data-name="Path 99" d="M558.451,395.244v.653a20.936,20.936,0,0,1-33.291,0v-.653a6,6,0,0,1,6-5.994h21.276a6,6,0,0,1,6.013,5.994Z" transform="translate(-93.728 -189.459)" opacity="0.1"/>
    <path id="Path_100" data-name="Path 100" d="M434.771,202h38.487a1.691,1.691,0,0,1,1.691,1.691v48.15A18.144,18.144,0,0,1,456.8,269.985h-5.581a18.144,18.144,0,0,1-18.144-18.144v-48.15A1.691,1.691,0,0,1,434.771,202Z" transform="translate(-5.937 -55.824)" fill="#d0cde1"/>
    <path id="Path_101" data-name="Path 101" d="M445.853,135.364h24.263c3.558,0,6.442,2.244,6.442,5.012v14.36a2.113,2.113,0,0,1-2.321,1.806H441.732a2.113,2.113,0,0,1-2.321-1.806V140.374c0-2.768,2.884-5.012,6.442-5.012Z" transform="translate(-10.059 -8.171)" fill="#d0cde1"/>
    <rect id="Rectangle_14" data-name="Rectangle 14" width="26.095" height="1.926" transform="translate(434.588 138.189)" opacity="0.2"/>
    <rect id="Rectangle_15" data-name="Rectangle 15" width="33.283" height="24.153" transform="translate(431.436 152.357)" opacity="0.1"/>
    <rect id="Rectangle_16" data-name="Rectangle 16" width="33.283" height="24.153" transform="translate(431.436 151.831)" fill="#00a662"/>
    <g id="Group_2" data-name="Group 2" transform="translate(431.622 180.124)" opacity="0.1">
      <rect id="Rectangle_17" data-name="Rectangle 17" width="7.488" height="2.673" rx="0.79"/>
      <rect id="Rectangle_18" data-name="Rectangle 18" width="7.488" height="2.673" rx="0.79" transform="translate(8.473)"/>
      <rect id="Rectangle_19" data-name="Rectangle 19" width="7.488" height="2.673" rx="0.79" transform="translate(16.946)"/>
      <rect id="Rectangle_20" data-name="Rectangle 20" width="7.488" height="2.673" rx="0.79" transform="translate(25.423)"/>
      <rect id="Rectangle_21" data-name="Rectangle 21" width="7.488" height="2.673" rx="0.79" transform="translate(0 5.233)"/>
      <rect id="Rectangle_22" data-name="Rectangle 22" width="7.488" height="2.673" rx="0.79" transform="translate(8.473 5.233)"/>
      <rect id="Rectangle_23" data-name="Rectangle 23" width="7.488" height="2.673" rx="0.79" transform="translate(16.946 5.233)"/>
      <rect id="Rectangle_24" data-name="Rectangle 24" width="7.488" height="2.673" rx="0.79" transform="translate(0 10.335)"/>
      <rect id="Rectangle_25" data-name="Rectangle 25" width="7.488" height="2.673" rx="0.79" transform="translate(8.473 10.335)"/>
      <rect id="Rectangle_26" data-name="Rectangle 26" width="7.488" height="2.673" rx="0.79" transform="translate(16.946 10.335)"/>
      <rect id="Rectangle_27" data-name="Rectangle 27" width="7.488" height="2.673" rx="0.79" transform="translate(0 15.964)"/>
      <rect id="Rectangle_28" data-name="Rectangle 28" width="7.488" height="2.673" rx="0.79" transform="translate(8.473 15.964)"/>
      <rect id="Rectangle_29" data-name="Rectangle 29" width="7.488" height="2.673" rx="0.79" transform="translate(16.946 15.964)"/>
      <rect id="Rectangle_30" data-name="Rectangle 30" width="7.488" height="2.673" rx="0.79" transform="translate(25.423 5.233)"/>
      <rect id="Rectangle_31" data-name="Rectangle 31" width="6.636" height="9.525" rx="1.97" transform="translate(25.882 10.048)"/>
    </g>
    <rect id="Rectangle_32" data-name="Rectangle 32" width="7.488" height="2.673" rx="0.79" transform="translate(431.622 179.598)" fill="#fff"/>
    <rect id="Rectangle_33" data-name="Rectangle 33" width="7.488" height="2.673" rx="0.79" transform="translate(440.095 179.598)" fill="#fff"/>
    <rect id="Rectangle_34" data-name="Rectangle 34" width="7.488" height="2.673" rx="0.79" transform="translate(448.568 179.598)" fill="#fff"/>
    <rect id="Rectangle_35" data-name="Rectangle 35" width="7.488" height="2.673" rx="0.79" transform="translate(457.045 179.598)" fill="#2f2e41"/>
    <rect id="Rectangle_36" data-name="Rectangle 36" width="7.488" height="2.673" rx="0.79" transform="translate(431.622 184.831)" fill="#fff"/>
    <rect id="Rectangle_37" data-name="Rectangle 37" width="7.488" height="2.673" rx="0.79" transform="translate(440.095 184.831)" fill="#fff"/>
    <rect id="Rectangle_38" data-name="Rectangle 38" width="7.488" height="2.673" rx="0.79" transform="translate(448.568 184.831)" fill="#fff"/>
    <rect id="Rectangle_39" data-name="Rectangle 39" width="7.488" height="2.673" rx="0.79" transform="translate(431.622 189.933)" fill="#fff"/>
    <rect id="Rectangle_40" data-name="Rectangle 40" width="7.488" height="2.673" rx="0.79" transform="translate(440.095 189.933)" fill="#fff"/>
    <rect id="Rectangle_41" data-name="Rectangle 41" width="7.488" height="2.673" rx="0.79" transform="translate(448.568 189.933)" fill="#fff"/>
    <rect id="Rectangle_42" data-name="Rectangle 42" width="7.488" height="2.673" rx="0.79" transform="translate(431.622 195.562)" fill="#fff"/>
    <rect id="Rectangle_43" data-name="Rectangle 43" width="7.488" height="2.673" rx="0.79" transform="translate(440.095 195.562)" fill="#fff"/>
    <rect id="Rectangle_44" data-name="Rectangle 44" width="7.488" height="2.673" rx="0.79" transform="translate(448.568 195.562)" fill="#fff"/>
    <rect id="Rectangle_45" data-name="Rectangle 45" width="7.488" height="2.673" rx="0.79" transform="translate(457.045 184.831)" fill="#2f2e41"/>
    <rect id="Rectangle_46" data-name="Rectangle 46" width="6.636" height="9.525" rx="1.97" transform="translate(457.504 189.649)" fill="#00a662"/>
    <rect id="Rectangle_47" data-name="Rectangle 47" width="3.587" height="0.429" transform="translate(448.031 173.051)" fill="#fff"/>
    <rect id="Rectangle_48" data-name="Rectangle 48" width="3.587" height="0.429" transform="translate(453.055 173.051)" fill="#fff"/>
    <rect id="Rectangle_49" data-name="Rectangle 49" width="3.587" height="0.429" transform="translate(458.079 173.051)" fill="#fff"/>
  </g>
</svg>
