<svg id="undraw_wallet_aym5" xmlns="http://www.w3.org/2000/svg" xmlns:xlink="http://www.w3.org/1999/xlink" width="580.648" height="375.41" viewBox="0 0 580.648 375.41">
  <defs>
    <linearGradient id="linear-gradient" x1="0.5" y1="1" x2="0.5" gradientUnits="objectBoundingBox">
      <stop offset="0" stop-color="gray" stop-opacity="0.251"/>
      <stop offset="0.54" stop-color="gray" stop-opacity="0.122"/>
      <stop offset="1" stop-color="gray" stop-opacity="0.102"/>
    </linearGradient>
  </defs>
  <rect id="Rectangle_631" data-name="Rectangle 631" width="580.649" height="4.243" transform="translate(0 371.167)" fill="#85848b"/>
  <path id="Path_2089" data-name="Path 2089" d="M849.912,651.8c0,3.264-19.025,12.779-41.624,12.779S768.08,655.065,768.08,651.8s18.317-2.213,40.938-2.213S849.912,648.532,849.912,651.8Z" transform="translate(-389.887 -355.557)" fill="#504f60"/>
  <path id="Path_2090" data-name="Path 2090" d="M849.912,653.72c0,3.264-19.025,12.779-41.624,12.779s-40.208-9.515-40.208-12.779" transform="translate(-389.887 -357.476)" opacity="0.2"/>
  <path id="Path_2091" data-name="Path 2091" d="M503.337,538.456c3.668.47,7.474.769,10.987-.371.553-.172,1.162-.553,1.106-1.106a1.339,1.339,0,0,0-.249-.553,34.174,34.174,0,0,1-3.319-6.323.553.553,0,0,0-.2-.288.52.52,0,0,0-.354,0c-1.621.426-3.021,1.472-4.63,1.92a6.584,6.584,0,0,1-2.523.188c-.73-.083-1.726-.686-2.39-.609C502.136,533.732,503.055,535.989,503.337,538.456Z" transform="translate(-270.901 -302.104)" fill="#00a662"/>
  <path id="Path_2092" data-name="Path 2092" d="M626.747,524.257c2.418-1.66,4.924-3.4,6.351-5.964a1.034,1.034,0,0,0,.172-.515,1.063,1.063,0,0,0-.2-.5,20.557,20.557,0,0,0-5.161-5.571,15.056,15.056,0,0,0-2.877,2.655c-.609.642-2.29,1.66-2.307,2.639,0,.553.642,1.195.94,1.66.4.6.786,1.206,1.151,1.826C625.021,520.794,626.941,524.135,626.747,524.257Z" transform="translate(-324.943 -294.029)" fill="#00a662"/>
  <path id="Path_2093" data-name="Path 2093" d="M500.328,549.052a2.462,2.462,0,0,1-.443,1.6,2.174,2.174,0,0,1-.929.553c-5.128,1.837-11.064-.454-16.182,1.355-1.051.371-2.047.907-3.1,1.261a16.888,16.888,0,0,1-3.873.686c-1.809.172-3.629.282-5.444.332a13.089,13.089,0,0,1-4.1-.36,4.929,4.929,0,0,1-3.148-2.5,2.4,2.4,0,0,1-.155-1.776,1.915,1.915,0,0,1,.337-.553,4.852,4.852,0,0,1,1.206-.979l1.887-1.217a12.664,12.664,0,0,1,2.86-1.516c.747-.243,1.538-.349,2.3-.553,2.65-.775,4.675-2.877,6.556-4.9l2.567-2.738a2.584,2.584,0,0,1,.891-.714,2.469,2.469,0,0,1,1.106-.105,14.792,14.792,0,0,1,7,2.346,9.07,9.07,0,0,0,1.726,1.018,6.163,6.163,0,0,0,4.824-.6c.658-.354.514-.553.791-1.184s.952-1.034,1.538-.459a1.626,1.626,0,0,1,.365.7,19.624,19.624,0,0,1,.343,5.7,2.512,2.512,0,0,0,.111.885,5.008,5.008,0,0,0,.5.819,1.871,1.871,0,0,1,.105.21,5.626,5.626,0,0,1,.371,2.672Z" transform="translate(-253.514 -305.292)" fill="#514e7f"/>
  <path id="Path_2094" data-name="Path 2094" d="M500.328,556.679a2.462,2.462,0,0,1-.443,1.6,2.174,2.174,0,0,1-.929.553c-5.128,1.837-11.064-.454-16.182,1.355-1.051.371-2.047.907-3.1,1.261a16.885,16.885,0,0,1-3.873.686c-1.809.172-3.629.282-5.444.332a13.092,13.092,0,0,1-4.1-.36,4.929,4.929,0,0,1-3.148-2.5,2.4,2.4,0,0,1-.155-1.776,1.915,1.915,0,0,1,.337-.553c.3.625.514,1.455.7,1.754a3.59,3.59,0,0,0,2.4,1.732,5.965,5.965,0,0,0,2.213-.282c4.647-1.151,9.587-1.167,14.052-2.91a32.5,32.5,0,0,1,4.6-1.77,36.193,36.193,0,0,1,4.979-.4c2.622-.21,5.162-1,7.745-1.416a5.626,5.626,0,0,1,.349,2.689Z" transform="translate(-253.514 -312.919)" fill="#464353"/>
  <path id="Path_2095" data-name="Path 2095" d="M627.77,526.626a9.325,9.325,0,0,1-2.832,5.045,33,33,0,0,0-3.967,4.337c-1.328,2.03-1.925,4.547-3.651,6.263a10.013,10.013,0,0,1-2.213,1.577,15.441,15.441,0,0,1-2.849,1.311c-2.578.824-5.355.636-8.049.437a7.24,7.24,0,0,1-2.556-.492,7.693,7.693,0,0,1-1.062-.653,5.073,5.073,0,0,1-1.66-1.66,1.659,1.659,0,0,1-.16-1.206,2.832,2.832,0,0,1,.769-1.173,18.264,18.264,0,0,1,1.947-1.754,11.658,11.658,0,0,0,2.534-2.213,7.148,7.148,0,0,0,.979-2.213,19.624,19.624,0,0,0,.714-4.232,13.414,13.414,0,0,1,.293-2.833c.409-1.461,1.494-2.766,1.372-4.276a1.068,1.068,0,0,1,.055-.647.9.9,0,0,1,.509-.315,9.017,9.017,0,0,1,2.644-.614,3.082,3.082,0,0,1,2.456.963c.376.454.625,1.106,1.178,1.284a1.87,1.87,0,0,0,.841.033,7.045,7.045,0,0,0,3.873-1.189,4.83,4.83,0,0,0,1.6-3.524c0-.5-.227-1.029.553-1.106.586-.077,1.051.553,1.35.94a13.107,13.107,0,0,1,2.589,4.713,1.388,1.388,0,0,1,.492-.094,2.141,2.141,0,0,1,1.765.9,3.513,3.513,0,0,1,.481,2.39Z" transform="translate(-314.222 -296.735)" fill="#514e7f"/>
  <path id="Path_2096" data-name="Path 2096" d="M627.939,531.055a9.325,9.325,0,0,1-2.832,5.045,32.991,32.991,0,0,0-3.967,4.337c-1.328,2.03-1.925,4.547-3.651,6.262a10.015,10.015,0,0,1-2.213,1.577,15.44,15.44,0,0,1-2.849,1.311c-2.578.824-5.355.636-8.049.437a7.242,7.242,0,0,1-2.556-.492,7.7,7.7,0,0,1-1.062-.653,5.074,5.074,0,0,1-1.66-1.66,4.045,4.045,0,0,1,1.66-.4c1.195.066,2.069,1.2,3.214,1.544,1.632.492,3.258-.658,4.913-1.051,1.079-.254,2.213-.188,3.281-.553a8.109,8.109,0,0,0,2.429-1.472,12.362,12.362,0,0,0,2.595-2.5,16.067,16.067,0,0,0,1.521-3.037,43.424,43.424,0,0,1,3.076-5.886,4.156,4.156,0,0,1,.625-.819,8.711,8.711,0,0,1,.846-.614,6.429,6.429,0,0,0,1.953-3.563,6.238,6.238,0,0,1,.437-1.189,2.141,2.141,0,0,1,1.765.9A3.513,3.513,0,0,1,627.939,531.055Z" transform="translate(-314.39 -301.164)" fill="#464353"/>
  <path id="Path_2097" data-name="Path 2097" d="M439.8,210.96a11.734,11.734,0,0,1,3.319,3.873c.774,1.516,5.239,13.277,4.979,14.987,1.455-1.466,7.192-1.7,8.663-3.17.614-.614,3.928-3.679,4.426-4.393s4.193-2.213,4.6-2.965c1.51-2.705-10.71-12.956-9.145-15.628a.7.7,0,0,0,.127-.42.686.686,0,0,0-.2-.326,18.328,18.328,0,0,0-3.535-2.418,5.606,5.606,0,0,1-2.694-3.209,11.618,11.618,0,0,0-3.126,2.113q-3.364,2.882-6.611,5.881c-.846.786-2.484,1.831-2.877,2.954C437.253,209.444,438.99,210.3,439.8,210.96Z" transform="translate(-242.253 -153.552)" fill="#a1616a"/>
  <path id="Path_2098" data-name="Path 2098" d="M464.866,214.13a36.006,36.006,0,0,0-5.233,4.282,10.416,10.416,0,0,0-3.319,5.333c-.155.824-.133,1.66-.26,2.5-.553,3.624-3.684,6.279-5.068,9.67a16.766,16.766,0,0,0-.88,3.236,38.25,38.25,0,0,0-.636,6.351c-.033,2.064,1.992,3.485,2.733,5.411a33.033,33.033,0,0,1,1.317,5.881,69.678,69.678,0,0,0,3.319,10.9c2.727,7.535,11.568,28.364,14.3,35.9,8.359-2.1,30.61-6.915,38.012-11.335,2.467-1.472-17.122-18.074-14.483-19.219a.985.985,0,0,0,.741-1.389c-2.639-11.54-10.893-21.022-14.638-32.258-1.3-3.9-3.635-7.231-5.4-10.937-1.6-3.358-2.462-7.07-4.382-10.262a6.473,6.473,0,0,0-1.4-1.743,8.256,8.256,0,0,0-1.544-.935C466.94,214.982,465.922,214.667,464.866,214.13Z" transform="translate(-247.539 -161.076)" fill="#514e7f"/>
  <circle id="Ellipse_115" data-name="Ellipse 115" cx="13.084" cy="13.084" r="13.084" transform="translate(184.903 29.929)" fill="#a1616a"/>
  <path id="Path_2099" data-name="Path 2099" d="M466.4,206.151a4.387,4.387,0,0,1,4.918-.708,2.377,2.377,0,0,1,1.461,2.362l6.489.1a13.028,13.028,0,0,1,3.076.282,4.47,4.47,0,0,1,2.567,1.61c.077.105.166.232.3.249a.476.476,0,0,0,.3-.1,5.632,5.632,0,0,1,3.231-.553,17.453,17.453,0,0,1,9.5,4.171,3.071,3.071,0,0,1,1.106,1.378c.227.736-.044,1.66.553,2.185,0,6.085,2.091,11.773,3.485,17.7a7.941,7.941,0,0,0,1.964,2.821,11.382,11.382,0,0,1,2.1,3.131c1.184,3.076-.448,6.694.7,9.781a16.761,16.761,0,0,0,2.213,3.513,9.084,9.084,0,0,1,1.892,4.536c.05.741-.044,1.488,0,2.213a13.393,13.393,0,0,0,.553,2.938q.708,2.678,1.483,5.35c.841,2.877,1.936,5.98,4.514,7.513-6.224,1.057-12.785,2.091-18.715-.072a9.705,9.705,0,0,1-2.335-1.167c-2.141-1.527-3.175-4.138-4.1-6.605a31.19,31.19,0,0,1-2.285-8.525,9.788,9.788,0,0,0-.393-2.766c-.6-1.6-2.213-2.572-3.673-3.463a17.636,17.636,0,0,1-4.426-3.441,6.877,6.877,0,0,1-1.792-5.167c.111-.913.47-1.792.5-2.711a2.124,2.124,0,0,0-1.256-2.213c-4.531-1.372-6.694-6.738-7.7-11.363a36.479,36.479,0,0,1-.581-7.247l-.061-4.719a6.229,6.229,0,0,1-2.036-4.476,5.316,5.316,0,0,0-.028-1.483,4.088,4.088,0,0,0-1.04-1.577A14.073,14.073,0,0,1,466.4,206.151Z" transform="translate(-255.103 -156.992)" fill="#464353"/>
  <path id="Path_2100" data-name="Path 2100" d="M440.474,230.989c-.149,1.461.183,2.96-.144,4.393-.127.553-.349,1.106-.509,1.621a9.515,9.515,0,0,0,.6,6.157,34.3,34.3,0,0,0,3.148,5.449,8.852,8.852,0,0,1,1.007,1.886,9.764,9.764,0,0,1,.387,2.152,66.843,66.843,0,0,0,1.538,8.7c.62,2.478,7.657,23.667,9.294,25.631a2.085,2.085,0,0,0,1.261.858,2.3,2.3,0,0,0,1.073-.221l3.319-1.272a2.168,2.168,0,0,0,.769-.42,1.981,1.981,0,0,0,.476-1.306c.238-2.7-6.816-24.037-7.712-26.588-2.711-7.7-6.318-15.125-8.083-23.1-.492-2.213-.752-5.621-2.373-7.385-.669-.73-.443-.42-1.245-.039a9.087,9.087,0,0,0-1.173.614A3.839,3.839,0,0,0,440.474,230.989Z" transform="translate(-243.113 -166.871)" fill="#464353"/>
  <path id="Path_2101" data-name="Path 2101" d="M556.62,320.79" transform="translate(-295.411 -208.73)" fill="#464353"/>
  <path id="Path_2102" data-name="Path 2102" d="M458.786,242.253c.891,4.708,1.809,9.4,2.722,14.113l12.99-3.4c.105-1.361-.62-2.622-1.106-3.873-1.184-2.971-1.212-6.279-2.169-9.333-.725-2.324-1.986-4.459-2.667-6.8-.393-1.361-.592-2.766-.979-4.144a30.088,30.088,0,0,0-1.527-3.956,24.764,24.764,0,0,0-2.833-5.25c-1.66.62-3.43,1.339-4.376,2.838a6.129,6.129,0,0,0-.808,2.766c-.227,2.915.83,5.848.481,8.746a25.725,25.725,0,0,0,.271,8.293Z" transform="translate(-251.351 -163.525)" fill="#00a662"/>
  <path id="Path_2103" data-name="Path 2103" d="M482.381,351.061c.73,2.766-.326,5.676-1.189,8.414a65.216,65.216,0,0,0-2.644,12.669,10.964,10.964,0,0,1-.653,3.2c-.409.924-1.106,1.7-1.582,2.584-1.306,2.312-1.272,5.134-.99,7.778.188,1.743.47,3.48.819,5.195.426,2.1.952,4.287.337,6.334,1.029-.227,1.726,1.106,1.66,2.152s-.4,2.213.1,3.115c1.272.465,1.283,2.213,1.245,3.568a30.014,30.014,0,0,0,.885,6.971q2.888,13.886,6.13,27.694c4.675,1.449,10.135,2.96,14.594.952a2.927,2.927,0,0,0,1.848-1.859,3.242,3.242,0,0,0-.177-1.427l-2.113-7.69a14.12,14.12,0,0,1-.758-5.687c.2-1.422.824-2.954.127-4.21-.238-.432-.614-.769-.891-1.178-1.106-1.621-.526-3.79-.437-5.753a4.56,4.56,0,0,0-.089-1.317,6.577,6.577,0,0,0-.631-1.444,22.085,22.085,0,0,1-2.434-10.987,2.716,2.716,0,0,0-.194-1.433,4.634,4.634,0,0,1-.36-.586,1.6,1.6,0,0,1,.116-1.057,9.684,9.684,0,0,1-1.7-1.66,2.384,2.384,0,0,0,.409-3.729,1.245,1.245,0,0,0,.592-2.141c-.271-.188-.631-.271-.824-.553-.3-.409-.055-.979.188-1.416l1.289-2.329c.963-1.732,1.178-3.873,2.213-5.532a41.462,41.462,0,0,0,3.408-7.778l3.723-10.273,2.506,2.174a7.922,7.922,0,0,1,2.058,2.346,10.122,10.122,0,0,1,.669,2.81c.918,5.576,4.426,10.412,5.726,15.905a10.477,10.477,0,0,0,1.184,3.552,7.738,7.738,0,0,1,.675,1.018,5.4,5.4,0,0,1,.282,1.687,7.873,7.873,0,0,0,3.319,5.643c1.234.846,2.766,1.427,3.435,2.766a5.157,5.157,0,0,0,.553,1.178c.6.719,1.886.8,2.141,1.7.144.5-.122,1.106.16,1.549a1.466,1.466,0,0,0,.614.459l3.6,1.8c4.027,2.014,6.085,6.639,9.056,10.008a21.576,21.576,0,0,1,2.711,3.585c1.284,2.3,1.875,5.178,4.044,6.639a6.119,6.119,0,0,1,1.571,1.167c.68.9.432,2.152.492,3.281s.924,2.473,2,2.13a7.872,7.872,0,0,0,0,4.177,21.023,21.023,0,0,0,12.757-5.167,5.034,5.034,0,0,0,2.075-3.485,1.251,1.251,0,0,0-.155-.692,1.975,1.975,0,0,0-.813-.614c-3.369-1.826-4.382-6.058-6.085-9.493-1.488-3.032-3.69-5.643-5.532-8.459-4.005-6.058-6.738-13.388-12.8-17.388-1.333-.88-2.882-1.66-3.552-3.115-.371-.813-.415-1.743-.708-2.584a2.242,2.242,0,0,0-1.892-1.66,11.6,11.6,0,0,0,.432-4.016,5.074,5.074,0,0,0-.2-1.732,8.427,8.427,0,0,0-.891-1.715,16.453,16.453,0,0,1-2.279-8.851,14.513,14.513,0,0,0-.155-4.774c-.243-.769-.669-1.472-.963-2.213a13.83,13.83,0,0,1-.692-4.16l-.332-5.316a26.166,26.166,0,0,0-.686-5.256c-1.106-4.127-2.213-21.415-6-23.363s-10.3,11.358-14.566,11.618a18.967,18.967,0,0,0-5.532,1.068c-2.838,1.062-5.217,3.043-7.535,4.979l-7.845,6.589A28.9,28.9,0,0,1,482.381,351.061Z" transform="translate(-259.018 -209.707)" fill="#464353"/>
  <path id="Path_2104" data-name="Path 2104" d="M417.463,166.715A9.862,9.862,0,0,1,425.075,163a17.729,17.729,0,0,1,8.414,2.113,10.394,10.394,0,0,0,2.456,1.007c1.383.282,2.921-.094,4.171.553,1.66.88,1.981,3.12,1.837,4.979s-.492,3.922.5,5.532a12.792,12.792,0,0,1,.957,1.444,4.774,4.774,0,0,1-.077,3.076,19.934,19.934,0,0,1-1.588-2.03,1.87,1.87,0,0,0-2.29-.592c-.714.481-.7,1.355-.741,2.141s-.238,1.726-.979,1.981a1.588,1.588,0,0,1-1.66-.647c-1.267-1.549-.758-4.022-2.014-5.582-.714-.885-1.9-1.317-2.561-2.246-.52-.73-.653-1.66-1.106-2.445s-1.51-1.361-2.213-.819a2.992,2.992,0,0,0-.592.791,3.4,3.4,0,0,1-4.039,1.217,6.755,6.755,0,0,0-1.748-.758,2.163,2.163,0,0,0-2,1.106,4.321,4.321,0,0,0-.553,2.312c0,1.106.2,2.285-.432,3.17a3.28,3.28,0,0,1-.885.841c-.924.592-2.213.99-3.065.315a2.3,2.3,0,0,1-.686-2.146,17.355,17.355,0,0,1,.653-2.268c.487-1.715-.149-3.646.382-5.261A16.8,16.8,0,0,1,417.463,166.715Z" transform="translate(-231.752 -138.23)" fill="#464353"/>
  <path id="Path_2105" data-name="Path 2105" d="M432.787,221.23a2.013,2.013,0,0,0,.122,1.2,1.909,1.909,0,0,0,.653.625,13.421,13.421,0,0,0,6.163,2,1.876,1.876,0,0,1,.852.221,1.5,1.5,0,0,1,.36,1.715,4.465,4.465,0,0,0-.393,1.826c.16,1.156,1.532,1.66,2.689,1.831a6.254,6.254,0,0,0,4.68-.913,7.231,7.231,0,0,0,1.931-2.893c3.175-7.3,4.287-15.363,7.5-22.638a4.8,4.8,0,0,0,.481-1.516,1.494,1.494,0,0,0-.6-1.394c-.6-.371-1.527-.16-1.931-.741-.2-.293-.177-.692-.354-1-.371-.658-1.344-.553-2.008-.935-.52-.277-.88-.846-1.461-.957a1.837,1.837,0,0,0-1.51.653c-1.887,1.759-2.877,4.254-3.928,6.611a77.5,77.5,0,0,1-5.621,10.423c.249-.387-1.2-3.319-1.759-3.447-.99-.2-2.257,1.538-2.794,2.185a13.919,13.919,0,0,0-3.076,7.148Z" transform="translate(-240.067 -153.715)" fill="#00a662"/>
  <path id="Path_2106" data-name="Path 2106" d="M464.168,200.32a2.65,2.65,0,0,0-2.052,1.029,5.853,5.853,0,0,0-.857,2.766A24.037,24.037,0,0,1,458,212.867" transform="translate(-251.35 -154.906)" opacity="0.1"/>
  <path id="Path_2107" data-name="Path 2107" d="M469.371,204.31a3.159,3.159,0,0,0-2.683,1.61,9.044,9.044,0,0,0-.675,2.733,15,15,0,0,1-2.683,5.748" transform="translate(-253.731 -156.689)" opacity="0.1"/>
  <path id="Path_2108" data-name="Path 2108" d="M461.959,378.861V371.99a19.075,19.075,0,0,0-19.075-19.07H171.535a19.075,19.075,0,0,0-19.075,19.07v12.669Z" transform="translate(-114.841 -223.085)" fill="#33323d"/>
  <path id="Path_2109" data-name="Path 2109" d="M323.375,304.152s-.775,48.053,7.745,63.864,12.171,84.593,12.171,84.593,89.312,9.239,151.549-11.064,194.667-28.607,194.667-28.607L667.191,262.522s-110.251-7.07-172.97,22.842S323.375,304.152,323.375,304.152Z" transform="translate(-191.194 -182.371)" fill="#8dd070"/>
  <path id="Path_2110" data-name="Path 2110" d="M323.375,304.152s-.775,48.053,7.745,63.864,12.171,84.593,12.171,84.593,89.312,9.239,151.549-11.064,194.667-28.607,194.667-28.607L667.191,262.522s-110.251-7.07-172.97,22.842S323.375,304.152,323.375,304.152Z" transform="translate(-191.194 -182.371)" opacity="0.1"/>
  <path id="Path_2111" data-name="Path 2111" d="M358.676,330.282s-2.794,39.649,4.216,52.318,7.336,69.224,7.336,69.224,80.377,3.729,137.553-15.734S685.1,404,685.1,404L671.451,281s-99.414-1.023-157.436,26.372S358.676,330.282,358.676,330.282Z" transform="translate(-206.728 -190.948)" fill="#8dd070"/>
  <ellipse id="Ellipse_116" data-name="Ellipse 116" cx="20.867" cy="44.756" rx="20.867" ry="44.756" transform="translate(274.632 136.376) rotate(-7.1)" opacity="0.1"/>
  <path id="Path_2112" data-name="Path 2112" d="M581.656,130.66s-107.109,27.108-157.618,74.823S267.2,275.792,267.2,275.792s14.008,45.967,26.964,58.4,37.53,76.787,37.53,76.787,87.835-18.621,140.833-57.059S649.044,266.94,649.044,266.94Z" transform="translate(-166.104 -123.783)" opacity="0.2"/>
  <path id="Path_2113" data-name="Path 2113" d="M264.29,263.356s14,45.973,26.947,58.409,37.53,76.781,37.53,76.781,87.846-18.616,140.85-57.054,176.511-86.966,176.511-86.966l-67.388-136.3s-107.1,27.108-157.613,74.823S264.29,263.356,264.29,263.356Z" transform="translate(-164.804 -118.23)" fill="#8dd070"/>
  <path id="Path_2114" data-name="Path 2114" d="M264.29,263.356s14,45.973,26.947,58.409,37.53,76.781,37.53,76.781,87.846-18.616,140.85-57.054,176.511-86.966,176.511-86.966l-67.388-136.3s-107.1,27.108-157.613,74.823S264.29,263.356,264.29,263.356Z" transform="translate(-164.804 -118.23)" opacity="0.1"/>
  <path id="Path_2115" data-name="Path 2115" d="M308,284.4s9.51,38.6,20.071,48.5,28.214,63.62,28.214,63.62S433.924,375.4,482.37,339.326s158.935-84.9,158.935-84.9L590.569,141.5s-94.927,29.525-141.746,73.407S308,284.4,308,284.4Z" transform="translate(-184.333 -128.627)" fill="#8dd070"/>
  <ellipse id="Ellipse_117" data-name="Ellipse 117" cx="20.867" cy="44.756" rx="20.867" ry="44.756" transform="translate(239.542 115.306) rotate(-24.97)" opacity="0.1"/>
  <path id="Path_2116" data-name="Path 2116" d="M469.3,396.461V587.322a16.5,16.5,0,0,1-16.508,16.5h-283.8a16.5,16.5,0,0,1-16.5-16.5V377.22c8.132,3.021,8.132,3.021,16.5,2.766h283.8A16.508,16.508,0,0,1,469.3,396.461Z" transform="translate(-114.854 -233.941)" opacity="0.1"/>
  <path id="Path_2117" data-name="Path 2117" d="M469.3,400.847V591.708a16.508,16.508,0,0,1-16.508,16.5h-283.8a16.5,16.5,0,0,1-16.5-16.5V381.6c8.132,3.015,8.132,3.015,16.5,2.766h283.8A16.508,16.508,0,0,1,469.3,400.847Z" transform="translate(-114.854 -235.898)" fill="#504f60"/>
  <path id="Path_2118" data-name="Path 2118" d="M651.236,543.938v61.037H592.041a30.52,30.52,0,1,1,0-61.04Z" transform="translate(-297.601 -308.426)" opacity="0.1"/>
  <path id="Path_2119" data-name="Path 2119" d="M652.7,541v61.048H593.5a30.52,30.52,0,1,1,0-61.04Z" transform="translate(-298.253 -307.115)" fill="#33323d"/>
  <circle id="Ellipse_118" data-name="Ellipse 118" cx="11.9" cy="11.9" r="11.9" transform="translate(286.187 254.133)" opacity="0.1"/>
  <circle id="Ellipse_119" data-name="Ellipse 119" cx="11.9" cy="11.9" r="11.9" transform="translate(286.994 252.518)" fill="#00a662"/>
  <path id="Path_2120" data-name="Path 2120" d="M879.584,533.152c.47,5.1-3.386,10.041-2.263,15.031.243,1.068.7,2.075.869,3.153.465,2.965-1.3,5.77-2.987,8.248l-14.494,21.266a13.206,13.206,0,0,1-2.069,2.556c-2.766,2.467-6.926,2.213-10.567,2.949a18.055,18.055,0,0,0-7.081,3.131.454.454,0,0,0-.066.62,6.086,6.086,0,0,0,5.267,2.473c.382.5,0,1.239-.553,1.6-.78.553-1.848.686-2,2a2.173,2.173,0,0,0,.266,1.328,4.121,4.121,0,0,0,2.534,1.765c5.018,1.532,10.439-1.162,14.2-4.83s6.451-8.3,10.135-12.033c2.041-2.063,4.359-3.834,6.462-5.836,4.193-3.994,7.452-8.852,10.6-13.714a15.3,15.3,0,0,0,2.3-4.669c.4-1.7.21-3.413.658-5.056.586-2.158,2.163-3.873,3.474-5.682,2.572-3.541,4.287-7.872,3.95-12.232s-3.043-8.669-7.159-10.152a6.362,6.362,0,0,0-4.011-.243,9.528,9.528,0,0,0-4.083,3.247l-2.766,3.181a7.457,7.457,0,0,0-1.6,2.434,2.55,2.55,0,0,0,.553,2.705" transform="translate(-422.392 -299.793)" fill="#fbbebe"/>
  <path id="Path_2121" data-name="Path 2121" d="M879.584,533.152c.47,5.1-3.386,10.041-2.263,15.031.243,1.068.7,2.075.869,3.153.465,2.965-1.3,5.77-2.987,8.248l-14.494,21.266a13.206,13.206,0,0,1-2.069,2.556c-2.766,2.467-6.926,2.213-10.567,2.949a18.055,18.055,0,0,0-7.081,3.131.454.454,0,0,0-.066.62,6.086,6.086,0,0,0,5.267,2.473c.382.5,0,1.239-.553,1.6-.78.553-1.848.686-2,2a2.173,2.173,0,0,0,.266,1.328,4.121,4.121,0,0,0,2.534,1.765c5.018,1.532,10.439-1.162,14.2-4.83s6.451-8.3,10.135-12.033c2.041-2.063,4.359-3.834,6.462-5.836,4.193-3.994,7.452-8.852,10.6-13.714a15.3,15.3,0,0,0,2.3-4.669c.4-1.7.21-3.413.658-5.056.586-2.158,2.163-3.873,3.474-5.682,2.572-3.541,4.287-7.872,3.95-12.232s-3.043-8.669-7.159-10.152a6.362,6.362,0,0,0-4.011-.243,9.528,9.528,0,0,0-4.083,3.247l-2.766,3.181a7.457,7.457,0,0,0-1.6,2.434,2.55,2.55,0,0,0,.553,2.705" transform="translate(-422.392 -299.793)" opacity="0.05"/>
  <path id="Path_2122" data-name="Path 2122" d="M920.49,772.391c-3.164,1.931-7.109,2.047-10.788,1.6-.592-.072-1.295-.116-1.66.343-.553.664.1,1.66.775,2.174a15.959,15.959,0,0,0,7.408,3.048,48.784,48.784,0,0,0,7.247.481c6.639.116,13.277.227,19.811-.725a2.8,2.8,0,0,0,1.106-.321,2.025,2.025,0,0,0,.819-1.245,4.938,4.938,0,0,0-1.72-4.713,14.442,14.442,0,0,0-4.619-2.478l-5.753-2.241c-1.35-.526-3.513-1.92-4.979-1.809C925.38,766.7,922.775,771.052,920.49,772.391Z" transform="translate(-452.327 -407.863)" fill="#3f3d56"/>
  <path id="Path_2123" data-name="Path 2123" d="M920.49,772.391c-3.164,1.931-7.109,2.047-10.788,1.6-.592-.072-1.295-.116-1.66.343-.553.664.1,1.66.775,2.174a15.959,15.959,0,0,0,7.408,3.048,48.784,48.784,0,0,0,7.247.481c6.639.116,13.277.227,19.811-.725a2.8,2.8,0,0,0,1.106-.321,2.025,2.025,0,0,0,.819-1.245,4.938,4.938,0,0,0-1.72-4.713,14.442,14.442,0,0,0-4.619-2.478l-5.753-2.241c-1.35-.526-3.513-1.92-4.979-1.809C925.38,766.7,922.775,771.052,920.49,772.391Z" transform="translate(-452.327 -407.863)" opacity="0.05"/>
  <path id="Path_2124" data-name="Path 2124" d="M934.47,612.722c-2.4,3.187-4.874,6.865-4.282,10.81.321,2.124,1.51,4,2.384,5.964a42.077,42.077,0,0,1,2.412,8.387c.9,4.171,1.8,8.354,2.346,12.591.625,4.785-2.312,18.632-2.583,23.451a4.956,4.956,0,0,1-1.012,3.253c-.315.332-.736.6-.88,1.029a1.759,1.759,0,0,0,.194,1.217,13.388,13.388,0,0,0,7.192,6.605c3.081,1.295,10.511,3.53,13.869,3.646a2.765,2.765,0,0,0,1.306-.172,2.539,2.539,0,0,0,1.007-1.156c2.406-4.6.094-20.967.127-26.162.033-4.332,1.057-8.636.869-12.962-.155-3.474-1.106-6.871-1.422-10.334-.553-5.676.487-11.38,1.532-16.989.8-4.3,1.6-8.608,2.622-12.857a24.688,24.688,0,0,1,2.766-7.463c1.106-1.787,2.661-3.281,3.95-4.979a22.472,22.472,0,0,0,4.426-16.453c-.077-.553-8.3,2.086-9.023,2.4a28.109,28.109,0,0,0-8.044,5.173c-1.9,1.815-3.4,4.238-5.068,6.268q-3.535,4.31-6.982,8.68Q938.243,607.666,934.47,612.722Z" transform="translate(-462.274 -324.572)" fill="#464353"/>
  <path id="Path_2125" data-name="Path 2125" d="M934.47,612.395c-2.4,3.187-4.874,6.871-4.282,10.81.321,2.13,1.51,4.005,2.384,5.969a42.026,42.026,0,0,1,2.412,8.381c.9,4.177,1.8,8.359,2.346,12.591.625,4.791-2.312,18.633-2.583,23.451a4.971,4.971,0,0,1-1.012,3.259c-.315.326-.736.592-.88,1.023a1.753,1.753,0,0,0,.194,1.217,13.55,13.55,0,0,0,7.192,6.639c3.081,1.328,10.511,2.484,13.869,2.595a2.765,2.765,0,0,0,1.306-.171,2.5,2.5,0,0,0,1.007-1.151c2.406-4.6.094-19.916.127-25.116.033-4.337,1.057-8.636.869-12.967-.155-3.474-1.106-6.871-1.422-10.329-.553-5.682.487-11.385,1.532-16.995.8-4.3,1.6-8.6,2.622-12.857a24.688,24.688,0,0,1,2.766-7.463c1.106-1.787,2.661-3.281,3.95-4.979a22.461,22.461,0,0,0,4.426-16.453c-.077-.553-8.3,2.086-9.023,2.4a28.239,28.239,0,0,0-8.044,5.178c-1.9,1.809-3.4,4.232-5.068,6.262q-3.535,4.31-6.982,8.686Q938.243,607.333,934.47,612.395Z" transform="translate(-462.274 -324.438)" opacity="0.05"/>
  <circle id="Ellipse_120" data-name="Ellipse 120" cx="13.427" cy="13.427" r="13.427" transform="translate(432.115 191.116)" fill="#fbbebe"/>
  <path id="Path_2126" data-name="Path 2126" d="M901.342,484.871a17.388,17.388,0,0,0,11.147,7.778l-1.012,3.679c-1.748,6.318-3.712,13-8.592,17.382a8.08,8.08,0,0,0-1.361-6.285,23.691,23.691,0,0,0-4.559-4.763l-7.728-6.694a2.329,2.329,0,0,1-.553-.653,1.964,1.964,0,0,1,0-1.472c.985-3.065,3.8-4.979,6.085-7.048a21.074,21.074,0,0,0,3.059-3.563C899.373,481.031,900.33,483.244,901.342,484.871Z" transform="translate(-443.707 -280.893)" fill="#fbbebe"/>
  <path id="Path_2127" data-name="Path 2127" d="M855.147,454.859l-.3-2.523c2.119.553,4.133-1.25,5.488-3.115s2.611-4.061,4.675-4.841c2.506-.94,5.162.553,7.557,1.815a23.894,23.894,0,0,0,8.669,2.821,5.7,5.7,0,0,1,1.433.232c1.56.553,2.3,2.512,2.528,4.287s.166,3.662.935,5.245c.553,1.2,1.582,2.091,2.213,3.275,1.66,3.175.055,7.518,1.787,10.633l-4.3-3.944c-.393-.36-.946-.736-1.383-.432-.343.243-.371.769-.509,1.189a2.26,2.26,0,0,1-3.065,1.106A8.782,8.782,0,0,1,878.1,468.1a16.79,16.79,0,0,0-6.827-5.178,8.763,8.763,0,0,0-7.192.476c-2.008,1.134-3.48,3.779-5.942,3.873-3.375.127-4.78-6.157-6.34-8.641a3.043,3.043,0,0,0,.885-3.806C852.912,454.732,855.1,454.472,855.147,454.859Z" transform="translate(-427.292 -263.815)" fill="#464353"/>
  <path id="Path_2128" data-name="Path 2128" d="M554.143,319.1a26.118,26.118,0,0,0-2.982,3.131,6.268,6.268,0,0,0-1.372,4.022,2.058,2.058,0,0,0,.387,1.178,1,1,0,0,0,1.106.337,1.489,1.489,0,0,0,.553-.487,26.72,26.72,0,0,1,1.859-2.014c.238-.238.553-.487.874-.4a.936.936,0,0,1,.376.249,2.545,2.545,0,0,1,.78,1.217,2.867,2.867,0,0,1-.858,2.357,6.038,6.038,0,0,0-1.444,2.135.945.945,0,0,0,0,.686,1.029,1.029,0,0,0,.432.365,6.174,6.174,0,0,0,5.222.343c1.107-.448,2.091-1.217,3.231-1.615a7.469,7.469,0,0,0,1.427-.553,2.965,2.965,0,0,0,1.267-1.9,7.822,7.822,0,0,0,.083-2.329,26.78,26.78,0,0,0-1.9-8.757,1.107,1.107,0,0,0-.321-.465,1.024,1.024,0,0,0-.553-.149c-1.416-.149-3.74-.874-5.106-.349A3.608,3.608,0,0,0,556,317.181C555.742,317.463,554.143,318.73,554.143,319.1Z" transform="translate(-292.359 -206.553)" fill="#a1616a"/>
  <path id="Path_2129" data-name="Path 2129" d="M540.808,277.656c0-1.35-1.66-4.608.979-4.824,0-1.444-2.041-2.34-1.66-3.873.122-.509.553-.924.6-1.444.166-1.477-2.5-2.279-2.058-3.7.166-.553.752-.874.88-1.422.3-1.278-1.986-1.848-2.03-3.159,0-.443.249-.857.227-1.3,0-.553-.481-.974-.747-1.455-.691-1.234-.354-3.142-1.615-3.778.835.072,1.106-1.167.763-1.925s-1.046-1.416-1.051-2.257a3.407,3.407,0,0,0,0-.918c-.232-.808-1.555-.874-1.776-1.66a7.068,7.068,0,0,1-.028-.907c-.089-.625-.73-1.023-1.333-1.2a5.437,5.437,0,0,1-1.781-.636c-.387-.293-.835-.78-1.25-.553-.155.094-.232.271-.349.4-.5.581-1.449.326-2.075-.1a8.521,8.521,0,0,1-3.159-5.7c-.393-2.2-.382-4.464-.874-6.639a14.191,14.191,0,0,0-.6-1.992,10.479,10.479,0,0,1-.929-1.981c-.1-1.272,2.534-.4,3.535-.277a15.745,15.745,0,0,1,2.871.553,30.7,30.7,0,0,1,2.938,1.289c3.994,1.765,8.818,1.981,12.027,4.946,1.057.974,1.947,2.252,3.319,2.694a15.019,15.019,0,0,1,1.859.481c1.521.714,1.759,2.733,2.589,4.193a8.224,8.224,0,0,1,.68,1.217,4.69,4.69,0,0,1,.221,1.549l.116,3.834a141.382,141.382,0,0,1-.31,19.247c-.221,2.108-.553,4.276.072,6.3.166.553.4,1.073.553,1.632a9.949,9.949,0,0,1,.21,1.992l.089,2.484a.774.774,0,0,1-.122.553.8.8,0,0,1-.669.16c-3.458-.31-6.954-2.257-10.218-1.079" transform="translate(-279.473 -166.359)" fill="#464353"/>
  <ellipse id="Ellipse_121" data-name="Ellipse 121" cx="40.916" cy="5.914" rx="40.916" ry="5.914" transform="translate(378.209 290.33)" fill="#504f60"/>
  <path id="Path_2130" data-name="Path 2130" d="M802.926,440.477c-.719-3.081-1.167-5.787-1.167-5.787a11.924,11.924,0,0,0-1.339-5.87v-.841h0v-6.2a21.12,21.12,0,0,1,1.566-3.247c1.106-1.947,0-9.084,0-9.084s-4.133-10.063-3.131-16.447-8.486-28.347-8.486-28.347a27.988,27.988,0,0,1,.891-6.274,4.787,4.787,0,0,0,.122-1.317v-.111c-.144-4.21-3.474-12.1-3.474-12.1l.448-15.036s2.124-8.852-1.339-20.773c-1.212-4.155-1.986-7.48-2.478-10.047-.055-.288-.111-.553-.155-.835,7.131-1.106,12.58-1.992,12.58-1.992s-4.138-17.31-6.932-20.342S785,263.28,785,263.28s-1.455-12.221.9-15.794,2.683-9.737,2.683-9.737,5.361-3.873,6.036-5.626a28.706,28.706,0,0,0,1.787-7.679c0-2.052-.669-3.873-.448-4.979s-1.566-5.195-.669-7.142a5.24,5.24,0,0,0,.354-1.875.233.233,0,0,0,0-.055h0a26.278,26.278,0,0,0-.47-5.079,14.411,14.411,0,0,0-5.311-2.838l-.116-.465-.3-1.217a5.9,5.9,0,0,0-.526-.31v-.443l-.05-1.759.841-3.95c1.66-6.871-7.518-7.894-7.518-7.894a4.841,4.841,0,0,0-2.6-2.279c-1.842-.647-.3,10.334.553,11.064a43.279,43.279,0,0,1,3.618,5.665h0l.155.277a3.877,3.877,0,0,0-.42.443l.349,2.384.055.365a9.9,9.9,0,0,0-1.466,2.5,5.383,5.383,0,0,1,1.344,3.873,12.405,12.405,0,0,0,.553,4.758c-.1-.116-1.278-1.389-2.456-1.079s-4.47,1.3-4.47,1.3-2.456.432-2.213.974-1.66,2.921-1.66,2.921l-6.605-6.262c-.066-.188-.138-.376-.194-.553a15.23,15.23,0,0,1-.553-2.766,15.108,15.108,0,0,0,2.113-.669,4.559,4.559,0,0,0,1.826-1.173,7.08,7.08,0,0,0,1.068-2.849,41.9,41.9,0,0,1,2.451-5.466,17.769,17.769,0,0,0,1.245-9.836,6.418,6.418,0,0,0-1.012-2.877c-1.079-1.483-3.037-2.086-4.459-3.27s-2.34-2.993-4-3.873a7.932,7.932,0,0,0-5.012-.432,27.014,27.014,0,0,0-9.366,3.408c-.963.553-2.025,1.234-3.131,1.029a4.088,4.088,0,0,1-2.257-1.66.109.109,0,0,0-.044-.177,11.668,11.668,0,0,0-1.029,4.946,6.09,6.09,0,0,0,.033.791v.5h0a1.261,1.261,0,0,1-.05.349,2.517,2.517,0,0,1-.62.891,5.967,5.967,0,0,0-.553.736.912.912,0,0,1,.089-.271,3.934,3.934,0,0,0-.686,2.086,2.131,2.131,0,0,0,.5,1.494,7.194,7.194,0,0,0,1.079.863,12.584,12.584,0,0,0-.2,2.213,12.785,12.785,0,0,0,6.229,10.9c.077.183.149.371.221.553a15.751,15.751,0,0,1,1.2,7.192,3.382,3.382,0,0,1-.077.52c-.028.172-.166.183-.238.277h0s-10.915.111-13.482-2.213-6.484,5.682-6.484,5.682-3.911.758-4.7,0-5.361-.105-5.361-.105a9.864,9.864,0,0,0-6.821-2.489,20.019,20.019,0,0,0-4.979-2.766h0l-.122-.044h0a5.576,5.576,0,0,0-2.462-.31s-5.366-4.426-6.932-6.816-9.017-11.214-9.051-11.253v-.426l-.083-1.283a4.6,4.6,0,0,1-.669.055c-.039-.127-.094-.277-.149-.448a24.739,24.739,0,0,0-1.582-3.635s0-1.621.47-2.03-.194-6.357-.194-6.357-4.835-11.3-9.167-2.866c0,0-8.188,5.46-1.317,11.822,0,0,2.766,1.328,3.131,2.379.254.68,1.184,2.589,1.809,3.873l.282.553-.078.066.1,1.062.044.409c-1.295.736-2.174,1.466-1.958,2.014a12.1,12.1,0,0,1,.78,2.921s9.5,11.905,10.732,16.989c0,0,25.487,15.147,33.868,16.226l-1.483,7.551a60.271,60.271,0,0,0-.332,6.168c.111,1.621-1.007,8.979-1.007,8.979s-1.455,10.821-2.683,12.337-1.007,8.005-1.007,8.005a54.692,54.692,0,0,1-1.66,9.195,23.491,23.491,0,0,0-.338,9.2s-4.243,9.737,5.925,3.137c0,0,4.979-.31,10.744-.509v.553c0,.741,0,1.543-.039,2.384-.078,5.576-.111,13.277.144,19.075.448,10.279,3.579,30.621,3.579,30.621v10.24a13.938,13.938,0,0,0-.3,2.921,19.008,19.008,0,0,0,2.766,10.229l.786,6.816s1.837,4.492,1.87,7.192a3.767,3.767,0,0,1-.077.647,4.355,4.355,0,0,0-.089,1.046c-.105,3.1,1.759,10.511,1.759,10.511s.111,7.463,1.228,7.9c.957.371-1.278,4.3-1.942,5.427a1.539,1.539,0,0,1-.039-.21l-.138.221a5.3,5.3,0,0,0-.349,1.892,2.711,2.711,0,0,0,1.239,2.622c2.124,1.3,3.264,2.379,1.461,2.81a18.773,18.773,0,0,0-1.969.415.852.852,0,0,0-.094-.249,1.184,1.184,0,0,0-.736,1.306,5.531,5.531,0,0,0,.658,2.512,27.4,27.4,0,0,0,3.026,5.532l.857-.094a4.183,4.183,0,0,1-.5.924,3.562,3.562,0,0,1-1.261,1.106,3.9,3.9,0,0,1-1.532.526,4.315,4.315,0,0,0-3.165,1.538c-1.106,1.444-1.815,3.408.387,5.134l7.994,2.766s13.753,1.787,13.023-1.3-1.173-5.787-1.173-5.787a12.2,12.2,0,0,0-1.106-5.471,7.093,7.093,0,0,0-.487-.808l.487-.05s1.007-6.821,2.346-8.116c.31-.3.382-.553.31-.708.138-.371-.216-.586-.664-.714l-.1.271a6.522,6.522,0,0,0-1.333-.149s-.448-3.568,1.007-4.868a1.378,1.378,0,0,0,.282-1.062,5.709,5.709,0,0,0-.155-1.455.72.72,0,0,1-.05.089,52.412,52.412,0,0,0-3.209-8.392s-.111-3.242.786-4.542-.116-17.637-.116-17.637.338-7.894-.669-11.573,1.228-8.011,1.228-8.011v-.288l-.127-1.245a.329.329,0,0,0,0,.077c-.227-2.091-.653-5.881-.968-7.629-.448-2.49.116-14.384.116-14.384l2.008-5.09,3.579,8.769,3.8,11.684a9.982,9.982,0,0,1,1.925,4.979v.365a6.394,6.394,0,0,0-.044.78,6.948,6.948,0,0,0,1.156,4.166s1.007,5.532,2.573,6.921,1.566,4.11,1.566,4.11,1.9,8.011,2.766,9.4c.752,1.184.791,4.426.786,5.438h0v.288s.266,2.866.255,5.267v.857a.236.236,0,0,0,0-.061,8.333,8.333,0,0,1-.232,1.947l-.033.111a1.408,1.408,0,0,1,.039-.4,20.324,20.324,0,0,0-.553,4.979c-.05,2.877.387,6.285,2.13,8.3,3.021,3.463,4.918,3.032,4.918,3.032s-1.449,4.326-3.242,5.195a.842.842,0,0,0-.188.122,1.864,1.864,0,0,0-.044-.255,2.108,2.108,0,0,0-.553,1.615,11.6,11.6,0,0,0,2.213,6.412,3.613,3.613,0,0,0,1.51.885,2.4,2.4,0,0,1-.282.171,6.021,6.021,0,0,1-.614.293,3.224,3.224,0,0,1-.913.238,4.26,4.26,0,0,0-3.164,1.538c-1.106,1.438-1.815,3.4.387,5.128l7.994,2.766S803.645,443.558,802.926,440.477Z" transform="translate(-348.599 -143.945)" fill="url(#linear-gradient)"/>
  <path id="Path_2131" data-name="Path 2131" d="M803.408,651.229l-7.745-2.766c-2.135-1.726-1.455-3.69-.376-5.134a4.138,4.138,0,0,1,3.065-1.538,3.674,3.674,0,0,0,1.477-.526,3.54,3.54,0,0,0,1.228-1.106,5.714,5.714,0,0,0,.88-2.993s8.5-2.49,10.821,0a6.288,6.288,0,0,1,1.029,1.51,12.64,12.64,0,0,1,1.106,5.471s.432,2.7,1.134,5.787S803.408,651.229,803.408,651.229Z" transform="translate(-401.587 -349.586)" fill="#2d293d"/>
  <path id="Path_2132" data-name="Path 2132" d="M871.848,644.32l-7.745-2.766c-2.135-1.726-1.455-3.69-.376-5.128a4.089,4.089,0,0,1,3.059-1.538,2.868,2.868,0,0,0,.885-.238,5.86,5.86,0,0,0,.6-.293c2.163-1.189,2.108-4.11,2.108-4.11s8.492-2.49,10.821,0a6.125,6.125,0,0,1,.813,1.106,12.292,12.292,0,0,1,1.295,5.875s.432,2.705,1.106,5.787S871.848,644.32,871.848,644.32Z" transform="translate(-432.164 -346.494)" fill="#2d293d"/>
  <path id="Path_2133" data-name="Path 2133" d="M818.255,637.155a6.291,6.291,0,0,1,1.029,1.51h0l-12.724,1.477a5.714,5.714,0,0,0,.88-2.993S815.932,634.666,818.255,637.155Z" transform="translate(-407.079 -349.58)" opacity="0.1"/>
  <path id="Path_2134" data-name="Path 2134" d="M886.039,631.373v2.384c-1.981,3.258-11.557,2.545-14.339.913a5.852,5.852,0,0,0,.6-.293c2.163-1.189,2.108-4.11,2.108-4.11s8.492-2.49,10.821,0a6.13,6.13,0,0,1,.813,1.106Z" transform="translate(-436.183 -346.503)" opacity="0.1"/>
  <path id="Path_2135" data-name="Path 2135" d="M848.122,512.433a21.678,21.678,0,0,0-1.51,3.247v8.547c-2.169,3.568-13.416,2.379-14.937.432s-3.109-7.015-1.4-7.895,3.137-5.195,3.137-5.195-1.842.432-4.763-3.032-2.052-11.142-1.51-12.979,0-8.005,0-8.005.111-4.332-.752-5.737-2.705-9.4-2.705-9.4,0-2.705-1.516-4.11-2.49-6.926-2.49-6.926a7.1,7.1,0,0,1-1.079-4.653c.321-2.705-1.842-5.626-1.842-5.626l-3.679-11.69-3.463-8.763-1.947,5.084s-.553,11.9-.105,14.384,1.106,9.089,1.106,9.089-2.163,4.326-1.189,8.005.62,11.584.62,11.584.974,16.331.105,17.631-.758,4.547-.758,4.547,4.426,9.515,3.032,10.815-.974,4.868-.974,4.868,3.026,0,1.732,1.3-2.274,8.116-2.274,8.116L795.876,527.6a27.21,27.21,0,0,1-2.927-5.532c-1.732-4.022.321-3.568,2.063-4.005s.642-1.51-1.416-2.81-.863-4.221-.863-4.221,3.137-5.3,2.052-5.731-1.189-7.9-1.189-7.9-2.163-8.852-1.621-11.253-1.732-8.11-1.732-8.11l-.758-6.816a18.754,18.754,0,0,1-2.379-12.879V447.833s-3.032-20.336-3.463-30.615c-.277-6.583-.2-15.568-.111-21.172.055-3.142.111-5.228.111-5.228l46.736-4.868a39.046,39.046,0,0,0,.846,6.943c.481,2.567,1.228,5.892,2.4,10.046,3.352,11.9,1.3,20.768,1.3,20.768l-.437,15.042s4.11,10.058,3.247,13.521a28.841,28.841,0,0,0-.874,6.285s9.194,21.963,8.221,28.347,3.026,16.447,3.026,16.447S849.207,510.485,848.122,512.433Z" transform="translate(-396.755 -237.842)" fill="#464353"/>
  <path id="Path_2136" data-name="Path 2136" d="M852.05,511.168l14.229-1.9S858.218,517.5,852.05,511.168Z" transform="translate(-427.403 -292.939)" opacity="0.05"/>
  <path id="Path_2137" data-name="Path 2137" d="M871.955,484.14s.487,5.034-2.595,6.926C869.36,491.066,874.876,490.2,871.955,484.14Z" transform="translate(-435.137 -281.711)" opacity="0.1"/>
  <path id="Path_2138" data-name="Path 2138" d="M858.887,455.2s-11.894,9.792-16.22,8.979S858.887,455.2,858.887,455.2Z" transform="translate(-422.944 -268.781)" opacity="0.1"/>
  <path id="Path_2139" data-name="Path 2139" d="M812.651,521s-9.034,2.052-9.305,5.682S812.651,521,812.651,521Z" transform="translate(-405.641 -298.179)" opacity="0.1"/>
  <path id="Path_2140" data-name="Path 2140" d="M815.856,602.56s-12.763,2.379-9.139,4a61.968,61.968,0,0,0,9.576,2.921S820.415,609.7,815.856,602.56Z" transform="translate(-406.86 -334.619)" opacity="0.05"/>
  <g id="Group_1561" data-name="Group 1561" transform="translate(386.695 152.639)" opacity="0.05">
    <path id="Path_2141" data-name="Path 2141" d="M801.254,612.958a2.518,2.518,0,0,1-1.167-1.848l-.133.227s-1.189,2.921.869,4.216c.232.149.459.3.664.443.382-.072.791-.127,1.184-.227C804.413,615.337,803.312,614.258,801.254,612.958Z" transform="translate(-790.67 -491.078)"/>
    <path id="Path_2142" data-name="Path 2142" d="M831.818,611.093c.354-.321.343-1.151.127-2.213a6.22,6.22,0,0,0-.725,3.131A2.7,2.7,0,0,1,831.818,611.093Z" transform="translate(-804.792 -490.081)"/>
    <path id="Path_2143" data-name="Path 2143" d="M828.053,515.59a14.756,14.756,0,0,0-.863,3.978,16.037,16.037,0,0,1,.99-2.733Z" transform="translate(-802.991 -448.401)"/>
    <path id="Path_2144" data-name="Path 2144" d="M881.4,504.374a5.074,5.074,0,0,0,.116-1.184c-.16.808-.271,1.555-.354,2.213C881.232,505.065,881.309,504.745,881.4,504.374Z" transform="translate(-827.104 -442.861)"/>
    <path id="Path_2145" data-name="Path 2145" d="M827.954,583.177a6.933,6.933,0,0,0,.321-2.406,8.171,8.171,0,0,0-.625,3.037,2.907,2.907,0,0,1,.3-.631Z" transform="translate(-803.197 -477.522)"/>
    <path id="Path_2146" data-name="Path 2146" d="M817.983,622a42.936,42.936,0,0,0-1.488,6.639l-13.084,1.51a27.208,27.208,0,0,1-2.927-5.532,10.016,10.016,0,0,1-.371-.952c-.786.36-1.106,1.173-.066,3.546a27.652,27.652,0,0,0,2.932,5.532l13.084-1.516s.974-6.816,2.268-8.116C819,622.487,818.586,622.16,817.983,622Z" transform="translate(-790.57 -495.943)"/>
    <path id="Path_2147" data-name="Path 2147" d="M793.6,500.768s.105,7.463,1.189,7.894h0c.553-1.234.913-2.406.426-2.6-1.106-.432-1.189-7.9-1.189-7.9s-2.163-8.852-1.621-11.253-1.732-8.11-1.732-8.11l-.758-6.816a18.754,18.754,0,0,1-2.379-12.879V448.594s-3.032-20.336-3.463-30.615c-.277-6.583-.2-15.568-.111-21.172,0-1.012.033-1.909.05-2.667l-.371.039s-.061,2.08-.111,5.228c-.088,5.6-.171,14.588.111,21.166.432,10.279,3.458,30.621,3.458,30.621V461.7a18.765,18.765,0,0,0,2.384,12.873l.752,6.816s2.274,5.731,1.732,8.116S793.6,500.768,793.6,500.768Z" transform="translate(-783.448 -394.14)"/>
    <path id="Path_2148" data-name="Path 2148" d="M869.332,627.309a12.652,12.652,0,0,1-2.075-5.139c-1.333,1.206.2,5.886,1.66,7.745,1.51,1.947,12.763,3.137,14.937-.437V627.42C880.905,630.313,870.759,629.152,869.332,627.309Z" transform="translate(-820.664 -496.019)"/>
    <path id="Path_2149" data-name="Path 2149" d="M899.916,609.3a21.855,21.855,0,0,0-1.516,3.247v1.532a22.706,22.706,0,0,1,1.106-2.169,6.638,6.638,0,0,0,.476-2.683S899.932,609.28,899.916,609.3Z" transform="translate(-834.806 -490.238)"/>
    <path id="Path_2150" data-name="Path 2150" d="M867.615,599.538a21.366,21.366,0,0,0,1.068-2.573s-1.842.432-4.763-3.032c-2.124-2.517-2.246-7.275-1.942-10.384-.553,1.842-1.411,9.521,1.51,12.984C865.4,598.8,866.841,599.394,867.615,599.538Z" transform="translate(-818.284 -478.764)"/>
    <path id="Path_2151" data-name="Path 2151" d="M846.988,521.02a57.662,57.662,0,0,1,.216,6.412,8.754,8.754,0,0,1,.221-1c.553-1.842,0-8.005,0-8.005s.111-4.332-.758-5.737-2.678-9.416-2.678-9.416,0-2.705-1.516-4.11-2.49-6.926-2.49-6.926a7.119,7.119,0,0,1-1.107-4.653c.326-2.705-1.837-5.626-1.837-5.626l-3.679-11.684L829.9,461.51l-1.953,5.09s0,.642-.066,1.66l1.582-4.133,3.463,8.746,3.679,11.684s2.163,2.921,1.837,5.626a7.12,7.12,0,0,0,1.106,4.653s.974,5.532,2.49,6.926,1.51,4.11,1.51,4.11,1.842,8.005,2.705,9.4S846.988,521.02,846.988,521.02Z" transform="translate(-803.299 -424.24)"/>
  </g>
  <path id="Path_2152" data-name="Path 2152" d="M870.253,201.05,869.44,205l.05,1.759.033,1.295-4.514.465-.5-.935h0a41.924,41.924,0,0,0-3.5-5.665c-.835-.7-2.324-11.684-.553-11.031a4.719,4.719,0,0,1,2.512,2.274S871.852,194.179,870.253,201.05Z" transform="translate(-430.786 -150.679)" fill="#ffcdd3"/>
  <path id="Path_2153" data-name="Path 2153" d="M873.468,220.468l-4.514.465-.5-.935h0a3.978,3.978,0,0,1,4.979-.819Z" transform="translate(-434.73 -163.093)" opacity="0.1"/>
  <path id="Path_2154" data-name="Path 2154" d="M874.4,222.94l-5.953,1.378-.127-.885-.337-2.384a4.1,4.1,0,0,1,5.765-.786l.3,1.212Z" transform="translate(-434.521 -163.424)" fill="#00a662"/>
  <path id="Path_2155" data-name="Path 2155" d="M693.7,194.725l-6.357,3.408-.553-1.195c-.6-1.267-1.5-3.176-1.754-3.873-.376-1.051-3.026-2.379-3.026-2.379-6.639-6.357,1.272-11.822,1.272-11.822,4.193-8.437,8.852,2.866,8.852,2.866s.653,5.958.194,6.357-.459,2.03-.459,2.03a24.975,24.975,0,0,1,1.532,3.635C693.592,194.354,693.7,194.725,693.7,194.725Z" transform="translate(-350.246 -143.923)" fill="#ffcdd3"/>
  <path id="Path_2156" data-name="Path 2156" d="M699.7,209.249l-6.357,3.408-.553-1.195c.9-.752,4.077-3.319,5.123-3.214a7.655,7.655,0,0,0,1.5.039C699.595,208.878,699.7,209.249,699.7,209.249Z" transform="translate(-356.249 -158.447)" opacity="0.1"/>
  <path id="Path_2157" data-name="Path 2157" d="M700.486,211.521l-7.142,3.518-.144-1.532-.1-1.062s4.138-3.546,5.361-3.408a6.5,6.5,0,0,0,1.864,0l.083,1.283Z" transform="translate(-356.388 -158.799)" fill="#00a662"/>
  <path id="Path_2158" data-name="Path 2158" d="M826.52,237.22s-31.135,3.513-25.315,1.621c4.05-1.322,5.659-3.873,6-6.749a16.213,16.213,0,0,0-1.156-7.192,31.361,31.361,0,0,0-2.766-5.626s23.788-13.089,19.036-1.189a19.187,19.187,0,0,0-1.35,5.637,15.926,15.926,0,0,0,.614,5.709,17,17,0,0,0,4.94,7.789Z" transform="translate(-404.363 -160.61)" fill="#ffcdd3"/>
  <path id="Path_2159" data-name="Path 2159" d="M824.56,218.054a19.185,19.185,0,0,0-1.35,5.637c-2.241,1.886-4.7,1.759-7.856,1.759-2.423,0-5.112.586-7.048-.581a31.361,31.361,0,0,0-2.766-5.626S829.323,206.155,824.56,218.054Z" transform="translate(-406.624 -160.597)" opacity="0.1"/>
  <circle id="Ellipse_122" data-name="Ellipse 122" cx="12.873" cy="12.873" r="12.873" transform="translate(395.437 39.937)" fill="#ffcdd3"/>
  <path id="Path_2160" data-name="Path 2160" d="M826.52,249.321s-31.135,3.513-25.315,1.621c4.05-1.322,5.659-3.873,6-6.749,1.549-1.66,4.664-2.893,6.639-3.535a9.316,9.316,0,0,1,5.643-.094,8.022,8.022,0,0,1,2.052.952A17,17,0,0,0,826.52,249.321Z" transform="translate(-404.363 -172.711)" opacity="0.1"/>
  <path id="Path_2161" data-name="Path 2161" d="M874.67,224.457l-5.953,1.378-.127-.885a5.266,5.266,0,0,1,5.726-1.958Z" transform="translate(-434.793 -164.942)" opacity="0.1"/>
  <path id="Path_2162" data-name="Path 2162" d="M700.566,212.556l-7.142,3.518-.144-1.532a52.091,52.091,0,0,1,7.192-3.192Z" transform="translate(-356.468 -159.834)" opacity="0.1"/>
  <path id="Path_2163" data-name="Path 2163" d="M831.293,392.913c-12.066,1.925-29.216,4.382-31.937,3.552-2.263-.686-9.477-.614-15.756-.4.055-3.142.111-5.228.111-5.228l46.736-4.868A39.053,39.053,0,0,0,831.293,392.913Z" transform="translate(-396.821 -237.851)" opacity="0.1"/>
  <path id="Path_2164" data-name="Path 2164" d="M801.454,312.408s-39.7,6.816-43.964,5.532-26.14.105-26.14.105c-9.847,6.6-5.737-3.137-5.737-3.137a24.2,24.2,0,0,1,.326-9.195,56.173,56.173,0,0,0,1.632-9.206s-.216-6.495.974-8.011,2.6-12.331,2.6-12.331,1.079-7.358.974-8.979.321-6.168.321-6.168l1.411-7.574c-8.116-1.079-32.784-16.226-32.784-16.226-1.189-5.084-10.384-16.984-10.384-16.984a12.523,12.523,0,0,0-.758-2.921c-.647-1.732,9.089-5.195,9.089-5.195s7.247,8.852,8.763,11.253,6.7,6.816,6.7,6.816a5.217,5.217,0,0,1,2.379.31l.127.039h0a19.286,19.286,0,0,1,4.841,2.766,9.4,9.4,0,0,1,6.6,2.49s4.426-.653,5.195.105,4.542,0,4.542,0,3.784-8.005,6.273-5.682,13.051,2.213,13.051,2.213c1.405-1.87,4.83-3.209,6.971-3.873a9.355,9.355,0,0,1,5.643-.094,7.158,7.158,0,0,1,2.213,1.106l6.423,6.274s1.837-2.384,1.621-2.921,2.163-.974,2.163-.974,3.137-.974,4.326-1.3,2.279.963,2.379,1.079a12.936,12.936,0,0,1-.553-4.758,5.62,5.62,0,0,0-1.3-3.873c3.784-9.305,12.331-1.516,12.331-1.516s.974,5.084.111,7.031.863,6.058.647,7.142.437,2.921.437,4.979a30.42,30.42,0,0,1-1.732,7.679c-.625,1.732-5.842,5.626-5.842,5.626s-.326,6.168-2.6,9.737-.846,15.772-.846,15.772,2.163,9.521,4.868,12.553S801.454,312.408,801.454,312.408Z" transform="translate(-354.956 -160.178)" fill="#3f3d56"/>
  <path id="Path_2165" data-name="Path 2165" d="M782.561,259.381s-1.189-3.568-2.274-3.873a25.023,25.023,0,0,1-3.137-1.405l.7-1.333s4.061,1.106,4.713,2.307S782.561,259.381,782.561,259.381Z" transform="translate(-393.94 -178.34)" opacity="0.1"/>
  <path id="Path_2166" data-name="Path 2166" d="M739.667,248.167c-.216,1.106-9.847,2.052-9.847,2.052l4.868-4.879h0l.122.044h0a19.286,19.286,0,0,1,4.857,2.783Z" transform="translate(-372.793 -175.02)" opacity="0.1"/>
  <circle id="Ellipse_123" data-name="Ellipse 123" cx="0.863" cy="0.863" r="0.863" transform="translate(338.151 57.435)" fill="#575988"/>
  <circle id="Ellipse_124" data-name="Ellipse 124" cx="0.863" cy="0.863" r="0.863" transform="translate(339.257 59.167)" fill="#575988"/>
  <circle id="Ellipse_125" data-name="Ellipse 125" cx="0.863" cy="0.863" r="0.863" transform="translate(340.341 60.766)" fill="#575988"/>
  <circle id="Ellipse_126" data-name="Ellipse 126" cx="0.863" cy="0.863" r="0.863" transform="translate(341.475 62.492)" fill="#575988"/>
  <circle id="Ellipse_127" data-name="Ellipse 127" cx="0.703" cy="0.703" r="0.703" transform="translate(443.617 62.558)" fill="#575988"/>
  <circle id="Ellipse_128" data-name="Ellipse 128" cx="0.703" cy="0.703" r="0.703" transform="translate(443.727 64.157)" fill="#575988"/>
  <circle id="Ellipse_129" data-name="Ellipse 129" cx="0.703" cy="0.703" r="0.703" transform="translate(443.821 65.75)" fill="#575988"/>
  <path id="Path_2167" data-name="Path 2167" d="M787,317.72c-.105-.127,24.286,30.671,43.218,12.873C830.234,330.6,800.321,334.654,787,317.72Z" transform="translate(-398.34 -207.358)" opacity="0.1"/>
  <path id="Path_2168" data-name="Path 2168" d="M761.7,346.66s14.594.4,16.121,4.6v4.37a2.8,2.8,0,0,1-2.716,0c-1.472-.8-10.3-5.278-13.4-3.12Z" transform="translate(-387.037 -220.288)" opacity="0.1"/>
  <path id="Path_2169" data-name="Path 2169" d="M762.19,346.66s13.958.382,15.418,4.387v4.16a2.677,2.677,0,0,1-2.6,0c-1.405-.752-9.842-5.029-12.818-2.971Z" transform="translate(-387.256 -220.288)" fill="#3f3d56"/>
  <path id="Path_2170" data-name="Path 2170" d="M776.1,289.38a46.961,46.961,0,0,0,5.659,9.709,38.1,38.1,0,0,0,8.852,8.558S776.343,291.383,776.1,289.38Z" transform="translate(-393.47 -194.696)" opacity="0.1"/>
  <path id="Path_2171" data-name="Path 2171" d="M767.47,258.73s2.434,10.511,8.708,14.079Z" transform="translate(-389.615 -181.002)" opacity="0.1"/>
  <path id="Path_2172" data-name="Path 2172" d="M760.544,260.647c-.061-.194-2.163,8.3,8.088,13.017C768.633,273.665,764.279,272.188,760.544,260.647Z" transform="translate(-386.423 -181.858)" opacity="0.1"/>
  <path id="Path_2173" data-name="Path 2173" d="M875.907,247.9c-.16,0,5.056,3.319,6.478,4.868C882.385,252.773,878.989,247.683,875.907,247.9Z" transform="translate(-438.061 -176.163)" opacity="0.1"/>
  <path id="Path_2174" data-name="Path 2174" d="M807.583,211.314a2.03,2.03,0,0,0,2.213,2.008c3.922.243,8.011.415,11.618-1.106a4.426,4.426,0,0,0,1.77-1.173,7.279,7.279,0,0,0,1.029-2.849,41.416,41.416,0,0,1,2.373-5.466,18.312,18.312,0,0,0,1.278-9.82,6.638,6.638,0,0,0-.985-2.871c-1.04-1.488-2.938-2.091-4.315-3.275s-2.263-2.993-3.873-3.873a7.435,7.435,0,0,0-4.857-.432,25.5,25.5,0,0,0-9.062,3.4c-.935.553-1.958,1.234-3.032,1.029a4.055,4.055,0,0,1-2.213-1.709,11.984,11.984,0,0,0-.924,5.615,2.413,2.413,0,0,1-.028.846,2.547,2.547,0,0,1-.6.891c-.968,1.106-1.571,2.9-.614,4.044.415.492,1.057.763,1.461,1.267.725.9.481,2.213.465,3.364a1.731,1.731,0,0,0,.288,1.14,1.66,1.66,0,0,0,1.588.382,4.321,4.321,0,0,1,1.693-.16,2.838,2.838,0,0,1,1.472,1.106C806.112,206,806.82,208.537,807.583,211.314Z" transform="translate(-402.753 -146.836)" fill="#2d293d"/>
  <g id="Group_1562" data-name="Group 1562" transform="translate(394.124 38.228)" opacity="0.1">
    <path id="Path_2175" data-name="Path 2175" d="M823.644,218.75a4.426,4.426,0,0,1-1.77,1.173c-3.629,1.51-7.712,1.339-11.618,1.106a2.036,2.036,0,0,1-2.218-2.014c-.763-2.766-1.466-5.305-3.281-7.612a2.844,2.844,0,0,0-1.472-1.134,4.537,4.537,0,0,0-1.693.16,1.66,1.66,0,0,1-1.588-.376,1.731,1.731,0,0,1-.288-1.14c0-1.162.26-2.462-.465-3.364-.4-.5-1.046-.775-1.461-1.272a2.523,2.523,0,0,1-.249-2.578c-.692,1.106-.985,2.5-.183,3.447.415.492,1.057.763,1.461,1.267.725.907.481,2.213.465,3.364a1.721,1.721,0,0,0,.282,1.14,1.66,1.66,0,0,0,1.593.382,4.321,4.321,0,0,1,1.693-.16,2.838,2.838,0,0,1,1.472,1.106c1.809,2.307,2.517,4.841,3.281,7.618a2.766,2.766,0,0,0,.957,1.754,2.683,2.683,0,0,0,1.217.266c3.922.243,8.011.42,11.618-1.106a4.382,4.382,0,0,0,1.77-1.173,3.38,3.38,0,0,0,.553-1.04A.273.273,0,0,1,823.644,218.75Z" transform="translate(-796.877 -193.75)"/>
    <path id="Path_2176" data-name="Path 2176" d="M799.971,193.57a1.893,1.893,0,0,0,.393-.653,2.41,2.41,0,0,0,0-.846,12,12,0,0,1,.6-4.658l-.072-.083a11.893,11.893,0,0,0-.924,5.61,4.007,4.007,0,0,1,0,.631Z" transform="translate(-798.243 -187.33)"/>
  </g>
  <path id="Path_2177" data-name="Path 2177" d="M812.08,248.652s16.082,2.135,17.526-.282" transform="translate(-409.546 -176.374)" opacity="0.1"/>
  <path id="Path_2178" data-name="Path 2178" d="M868.59,236.85s8.94,0,10.9,3.364" transform="translate(-434.793 -171.227)" opacity="0.1"/>
  <path id="Path_2179" data-name="Path 2179" d="M949.452,770.749a14.179,14.179,0,0,1-9.654,3.607c-.907,0-2.163.172-2.169,1.079a1.521,1.521,0,0,0,.266.741,8.878,8.878,0,0,0,4.979,3.911,17.6,17.6,0,0,0,6.025.382l5.892-.3c1.106-.061,2.213-.116,3.319-.254s2.313-.365,3.469-.553a45.359,45.359,0,0,1,8.58-.4,2.6,2.6,0,0,0,2.113-.553c.454-.553.221-1.61.05-2.44-.354-1.709,0-3.5-.326-5.217-.553-3.01-3.159-5.316-6.013-6.406-2.656-1.007-7.358-2.163-9.87-.481C953.463,765.626,951.842,768.575,949.452,770.749Z" transform="translate(-465.639 -406.304)" fill="#3f3d56"/>
  <path id="Path_2180" data-name="Path 2180" d="M960.026,584.82c.52,2.473,2.916,4.365,2.982,6.888.061,2.025-1.383,3.723-2.423,5.455a36.39,36.39,0,0,0-2.473,5.6,85.514,85.514,0,0,1-7.258,14.439c-1.383,2.213-2.932,4.575-2.617,7.148a10.708,10.708,0,0,0,1.256,3.419l4.149,8.243a23.874,23.874,0,0,1,2.119,5.206c.36,1.566.393,3.187.6,4.78.653,5.056,3.026,10.146,1.621,15.048-.122.42-.553.929-.891.636,1.372,2.561,2.473,5.139,2.368,8.044-.055,1.521-.52,3.109.039,4.525a4.954,4.954,0,0,1,.647,1.781,11.348,11.348,0,0,1-.238,1.223,2.7,2.7,0,0,0,2.069,2.512c1.112.371,2.323.343,3.447.68,2.158.647,3.7,2.506,5.532,3.8a11.778,11.778,0,0,0,6.373,2.075,1.6,1.6,0,0,0,.94-.188,1.521,1.521,0,0,0,.52-1.14,6.329,6.329,0,0,0-2.279-5.5,2.489,2.489,0,0,1-.846-.885,2.134,2.134,0,0,1-.077-.99A74.564,74.564,0,0,0,975.344,664a20.668,20.668,0,0,1-.216-4.332,17.708,17.708,0,0,0,.349-3.6,19.131,19.131,0,0,0-1.106-3.452c-.642-2.058-.465-4.271-.553-6.423A56.34,56.34,0,0,0,972,635.13a8.367,8.367,0,0,0-1.721-3.994c-.863-.9-2.257-1.765-1.931-2.965a3.513,3.513,0,0,1,.791-1.178,4.73,4.73,0,0,0,.985-3.607,1.621,1.621,0,0,0,1.864-.874,29.169,29.169,0,0,0,14.594-16.6,5.478,5.478,0,0,1,.653-1.483,6.681,6.681,0,0,1,2.672-1.732c3.021-1.521,5.106-4.37,7.02-7.159a12.653,12.653,0,0,0,3.082-8.935l.172-6.5a3.513,3.513,0,0,0-.122-1.272,3.181,3.181,0,0,0-.7-1.029,12.5,12.5,0,0,0-6.893-3.718c-1.77-.315-3.579-.254-5.372-.4-3.474-.288-6.9-1.366-10.378-1.106-5.46.4-10.323,4.188-12.9,9.023C962.914,583.3,961.962,584.787,960.026,584.82Z" transform="translate(-470.359 -321.205)" fill="#464353"/>
  <path id="Path_2181" data-name="Path 2181" d="M909.907,506.747a7.264,7.264,0,0,1-.4,2.96,2.068,2.068,0,0,1-2.429,1.245c.282-.636-.465-1.361-1.162-1.283a2.174,2.174,0,0,0-1.532,1.317,4.9,4.9,0,0,0-.443,3c.221,1.272.957,2.495.763,3.773-.155,1.062-.935,2.119-.52,3.1a5.027,5.027,0,0,0,1,1.2,3.386,3.386,0,0,1-.359,4.647l10.467.21c-.382,1.748.4,3.535,1.3,5.09a32.087,32.087,0,0,0,23.921,15.617,2.08,2.08,0,0,0-.5,3.181,2.956,2.956,0,0,0,3.364.194,23.944,23.944,0,0,0,2.877-2.158,8.851,8.851,0,0,1,5.914-1.593c1.311.127,2.583.553,3.9.62,3.873.2,7.192-2.583,10.921-3.723,2.716-.835,5.8-.835,8.077-2.534a3.219,3.219,0,0,0,1.5-3.115,5.205,5.205,0,0,0-1.106-1.831,31.632,31.632,0,0,1-3.026-5.67,33.919,33.919,0,0,0-7.562-10.135,67.66,67.66,0,0,0-7.5-5.687,12.8,12.8,0,0,0-2.025-1.223,22.71,22.71,0,0,1-2.766-1.106c-1.228-.775-1.936-2.141-2.882-3.242-2.075-2.423-5.261-3.535-7.817-5.438-1.715-1.278-3.231-2.96-5.278-3.574-1-.3-2.052-.326-3.048-.625-2.263-.686-3.911-2.694-6.13-3.507-1.754-.642-3.69-.476-5.532-.7a12.951,12.951,0,0,1-5.781-2.2,6.861,6.861,0,0,0-1.842-1.073c-2.8-.852-3.032,4.37-3.319,6.18A59.608,59.608,0,0,0,909.907,506.747Z" transform="translate(-450.557 -285.398)" fill="#00a662"/>
  <path id="Path_2182" data-name="Path 2182" d="M888.409,543.114c.47,5.1-3.38,10.041-2.257,15.036.238,1.062.7,2.075.863,3.153.47,2.96-1.3,5.765-2.987,8.243l-14.494,21.271a13.377,13.377,0,0,1-2.069,2.556c-2.766,2.462-6.926,2.213-10.567,2.943a18.257,18.257,0,0,0-7.081,3.131.459.459,0,0,0-.089.636,6.086,6.086,0,0,0,5.261,2.473c.382.5,0,1.239-.526,1.6-.775.553-1.848.68-2,2a2.214,2.214,0,0,0,.266,1.328,4.133,4.133,0,0,0,2.534,1.759c5.018,1.538,10.439-1.162,14.2-4.83s6.451-8.3,10.135-12.027c2.041-2.069,4.359-3.834,6.462-5.836,4.193-4,7.457-8.852,10.6-13.714a15.181,15.181,0,0,0,2.3-4.669c.393-1.7.21-3.419.658-5.062.586-2.152,2.163-3.873,3.474-5.676,2.572-3.541,4.293-7.872,3.95-12.237s-3.043-8.669-7.159-10.152a6.434,6.434,0,0,0-4.011-.243,9.5,9.5,0,0,0-4.083,3.253l-2.766,3.175a7.407,7.407,0,0,0-1.555,2.44,2.551,2.551,0,0,0,.553,2.711" transform="translate(-426.325 -304.25)" fill="#fbbebe"/>
  <path id="Path_2183" data-name="Path 2183" d="M925.431,512.03c-1.9.111-4,.3-5.344,1.66a7.607,7.607,0,0,0-1.35,2.113c-1.306,2.661-2.578,5.444-2.672,8.409-.078,2.368.609,4.686.968,7.026.3,1.947-.459,3.933-.6,5.9a40.97,40.97,0,0,0,7.623-2.932,25.531,25.531,0,0,1,4.464-2.318c2.274-.758,6.085.553,8.248,1.6.116-1.516-1.023-4.16-.9-5.682a6.352,6.352,0,0,1,.337-1.881,11.424,11.424,0,0,1,1.145-1.82,7.446,7.446,0,0,0-.669-8.724c-1.92-2.158-4.924-2.965-7.789-3.319a33.7,33.7,0,0,0-5.438-.188" transform="translate(-456.001 -294.089)" fill="#00a662"/>
</svg>
