<svg xmlns="http://www.w3.org/2000/svg" xmlns:xlink="http://www.w3.org/1999/xlink" width="301.998" height="221.554" viewBox="0 0 301.998 221.554">
  <defs>
    <linearGradient id="linear-gradient" x1="0.5" y1="1" x2="0.5" gradientUnits="objectBoundingBox">
      <stop offset="0" stop-color="gray" stop-opacity="0.251"/>
      <stop offset="0.54" stop-color="gray" stop-opacity="0.122"/>
      <stop offset="1" stop-color="gray" stop-opacity="0.102"/>
    </linearGradient>
    <linearGradient id="linear-gradient-2" x1="9.926" x2="9.926" y2="0" xlink:href="#linear-gradient"/>
  </defs>
  <g id="undraw_make_it_rain_iwk4" transform="translate(0 0.001)">
    <path id="Path_2048" data-name="Path 2048" d="M186.458,273.294c-3.972,1.2-7.689,4.105-8.682,8.136-1.135,4.632,1.482,9.3,1.86,14.058,1.222,15.584-20.948,26.578-17.785,41.886,1.256,6.086,6.331,10.564,11.333,14.263,8.012,5.907,16.9,11.125,26.746,12.6,14.942,2.239,30.553-4.341,45.077-.183,11.714,3.355,20.678,13.187,32.311,16.815,8.855,2.763,18.4,1.674,27.6.555,4.961-.6,10.158-1.3,14.16-4.273,7.441-5.541,7.91-16.483,12.892-24.324,7.7-12.092,24.569-14.467,38.717-12.117s27.887,8.136,42.221,7.665a19.271,19.271,0,0,0,8.874-2.022c3.249-1.826,5.445-5.045,7.386-8.229a133.154,133.154,0,0,0,19.307-66.164c.084-4.015-.059-8.2-1.947-11.748-2.387-4.483-7.159-7.166-11.909-8.97-11.407-4.341-24.008-5.051-35.186-9.947-10.781-4.722-19.512-13-28.9-20.1a153.941,153.941,0,0,0-63.4-28.237c-5.392-1.042-10.989-1.786-16.346-.583-6.173,1.386-11.494,5.234-16.278,9.376-12.728,11.02-22.929,24.616-34.659,36.692a197.322,197.322,0,0,1-26.33,22.706c-4.341,3.129-8.955,6.843-13.791,9.156C195.292,272.417,191.14,271.884,186.458,273.294Z" transform="translate(-146.492 -161.053)" fill="#00a662" opacity="0.2"/>
    <path id="Path_2049" data-name="Path 2049" d="M384.042,138.88s-11.984,15.915-3.411,34.466S365.69,221.7,365.69,221.7" transform="translate(-287.341 -124.574)" fill="none" stroke="#535461" stroke-miterlimit="10" stroke-width="2"/>
    <path id="Path_2050" data-name="Path 2050" d="M424.968,101.089c-.952,4.1-5.507,6.536-5.507,6.536s-3.008-4.2-2.056-8.3,3.411-7.023,5.507-6.536S425.92,96.994,424.968,101.089Z" transform="translate(-322.893 -92.74)" fill="#8ed16f"/>
    <ellipse id="Ellipse_52" data-name="Ellipse 52" cx="2.391" cy="0.896" rx="2.391" ry="0.896" transform="translate(96.728 9.557) rotate(-76.9)" fill="#8ed16f"/>
    <ellipse id="Ellipse_53" data-name="Ellipse 53" cx="2.391" cy="0.896" rx="2.391" ry="0.896" transform="translate(96.728 9.557) rotate(-76.9)" opacity="0.3"/>
    <path id="Path_2051" data-name="Path 2051" d="M416.66,160.292c-3.956,1.426-8.48-1.073-8.48-1.073s1.891-4.809,5.851-6.232,7.751-.93,8.48,1.073S420.616,158.865,416.66,160.292Z" transform="translate(-316.657 -133.745)" fill="#8ed16f"/>
    <ellipse id="Ellipse_54" data-name="Ellipse 54" cx="2.391" cy="0.896" rx="2.391" ry="0.896" transform="matrix(0.94, -0.34, 0.34, 0.94, 96.036, 22.517)" fill="#8ed16f"/>
    <ellipse id="Ellipse_55" data-name="Ellipse 55" cx="2.391" cy="0.896" rx="2.391" ry="0.896" transform="matrix(0.94, -0.34, 0.34, 0.94, 96.036, 22.517)" opacity="0.3"/>
    <path id="Path_2052" data-name="Path 2052" d="M413.69,207.062c-3.956,1.426-8.48-1.073-8.48-1.073s1.891-4.809,5.851-6.232,7.751-.93,8.48,1.073S417.647,205.639,413.69,207.062Z" transform="translate(-314.607 -166.013)" fill="#8ed16f"/>
    <ellipse id="Ellipse_56" data-name="Ellipse 56" cx="2.391" cy="0.896" rx="2.391" ry="0.896" transform="translate(95.161 37.233) rotate(-19.8)" fill="#8ed16f"/>
    <ellipse id="Ellipse_57" data-name="Ellipse 57" cx="2.391" cy="0.896" rx="2.391" ry="0.896" transform="translate(95.161 37.233) rotate(-19.8)" opacity="0.3"/>
    <path id="Path_2053" data-name="Path 2053" d="M428.6,261.932c-3.956,1.426-8.48-1.073-8.48-1.073s1.891-4.809,5.851-6.232,7.751-.93,8.48,1.073S432.556,260.515,428.6,261.932Z" transform="translate(-324.894 -203.87)" fill="#8ed16f"/>
    <ellipse id="Ellipse_58" data-name="Ellipse 58" cx="2.391" cy="0.896" rx="2.391" ry="0.896" transform="translate(99.785 54.253) rotate(-19.8)" fill="#8ed16f"/>
    <ellipse id="Ellipse_59" data-name="Ellipse 59" cx="2.391" cy="0.896" rx="2.391" ry="0.896" transform="translate(99.785 54.253) rotate(-19.8)" opacity="0.3"/>
    <path id="Path_2054" data-name="Path 2054" d="M418.9,312.112c-3.956,1.426-8.48-1.073-8.48-1.073s1.891-4.809,5.851-6.232,7.752-.93,8.48,1.073S422.86,310.689,418.9,312.112Z" transform="translate(-318.202 -238.492)" fill="#8ed16f"/>
    <ellipse id="Ellipse_60" data-name="Ellipse 60" cx="2.391" cy="0.896" rx="2.391" ry="0.896" transform="matrix(0.94, -0.34, 0.34, 0.94, 96.785, 69.553)" fill="#8ed16f"/>
    <ellipse id="Ellipse_61" data-name="Ellipse 61" cx="2.391" cy="0.896" rx="2.391" ry="0.896" transform="matrix(0.94, -0.34, 0.34, 0.94, 96.785, 69.553)" opacity="0.3"/>
    <path id="Path_2055" data-name="Path 2055" d="M370.822,172.067c2.921,3.026,8.083,2.791,8.083,2.791s.425-5.15-2.5-8.176-6.539-4.273-8.083-2.791S367.9,169.041,370.822,172.067Z" transform="translate(-288.681 -141.4)" fill="#8ed16f"/>
    <ellipse id="Ellipse_62" data-name="Ellipse 62" cx="0.896" cy="2.391" rx="0.896" ry="2.391" transform="matrix(0.719, -0.695, 0.695, 0.719, 82.741, 26.776)" fill="#8ed16f"/>
    <ellipse id="Ellipse_63" data-name="Ellipse 63" cx="0.896" cy="2.391" rx="0.896" ry="2.391" transform="matrix(0.719, -0.695, 0.695, 0.719, 82.741, 26.776)" opacity="0.3"/>
    <path id="Path_2056" data-name="Path 2056" d="M365.412,327.057c2.921,3.026,8.083,2.791,8.083,2.791s.425-5.15-2.5-8.176-6.539-4.273-8.083-2.791S362.491,324.031,365.412,327.057Z" transform="translate(-284.948 -248.333)" fill="#8ed16f"/>
    <ellipse id="Ellipse_64" data-name="Ellipse 64" cx="0.896" cy="2.391" rx="0.896" ry="2.391" transform="matrix(0.719, -0.695, 0.695, 0.719, 81.059, 74.837)" fill="#8ed16f"/>
    <ellipse id="Ellipse_65" data-name="Ellipse 65" cx="0.896" cy="2.391" rx="0.896" ry="2.391" transform="matrix(0.719, -0.695, 0.695, 0.719, 81.059, 74.837)" opacity="0.3"/>
    <path id="Path_2057" data-name="Path 2057" d="M373.211,227.868c3.764,1.879,8.548-.074,8.548-.074s-1.318-5-5.079-6.874-7.59-1.86-8.548.074S369.447,225.989,373.211,227.868Z" transform="translate(-288.875 -180.216)" fill="#8ed16f"/>
    <ellipse id="Ellipse_66" data-name="Ellipse 66" cx="0.896" cy="2.391" rx="0.896" ry="2.391" transform="translate(83.593 43.775) rotate(-63.48)" fill="#8ed16f"/>
    <ellipse id="Ellipse_67" data-name="Ellipse 67" cx="0.896" cy="2.391" rx="0.896" ry="2.391" transform="translate(83.593 43.775) rotate(-63.48)" opacity="0.3"/>
    <path id="Path_2058" data-name="Path 2058" d="M378.3,282.438c3.764,1.879,8.548-.074,8.548-.074s-1.318-5-5.079-6.874-7.59-1.86-8.548.074S374.555,280.578,378.3,282.438Z" transform="translate(-292.389 -217.866)" fill="#8ed16f"/>
    <ellipse id="Ellipse_68" data-name="Ellipse 68" cx="0.896" cy="2.391" rx="0.896" ry="2.391" transform="translate(85.172 60.697) rotate(-63.48)" fill="#8ed16f"/>
    <ellipse id="Ellipse_69" data-name="Ellipse 69" cx="0.896" cy="2.391" rx="0.896" ry="2.391" transform="translate(85.172 60.697) rotate(-63.48)" opacity="0.3"/>
    <path id="Path_2059" data-name="Path 2059" d="M187.515,249.21s21.887,21.887,9.531,54.366,21.18,86.488,21.18,86.488-.36-.053-1.026-.171c-44.959-7.934-67.283-59.349-42.292-97.542C184.188,278.151,191.831,261.495,187.515,249.21Z" transform="translate(-148.531 -200.695)" fill="#8ed16f"/>
    <path id="Path_2060" data-name="Path 2060" d="M113,534.111s24.975-3.978,27.251,18.405S188.276,578,188.276,578s-.31.2-.859.57c-37.775,24.8-73.884,15.794-68.443-17.131C121,549.2,120.835,536.9,113,534.111Z" transform="translate(-113 -397.072)" fill="#8ed16f"/>
    <g id="Group_1559" data-name="Group 1559" transform="translate(0 136.766)" opacity="0.3">
      <path id="Path_2061" data-name="Path 2061" d="M113,534.111s24.975-3.978,27.251,18.405S188.276,578,188.276,578s-.31.2-.859.57c-37.775,24.8-73.884,15.794-68.443-17.131C121,549.2,120.835,536.9,113,534.111Z" transform="translate(-113 -533.838)" fill="#fff"/>
    </g>
    <ellipse id="Ellipse_70" data-name="Ellipse 70" cx="6.868" cy="17.918" rx="6.868" ry="17.918" transform="translate(25.794 100.927)" fill="#8ed16f"/>
    <ellipse id="Ellipse_71" data-name="Ellipse 71" cx="6.868" cy="17.918" rx="6.868" ry="17.918" transform="translate(25.794 100.927)" opacity="0.3"/>
    <ellipse id="Ellipse_72" data-name="Ellipse 72" cx="4.629" cy="10.303" rx="4.629" ry="10.303" transform="translate(14.191 172.624) rotate(-45)" fill="#8ed16f"/>
    <ellipse id="Ellipse_73" data-name="Ellipse 73" cx="4.629" cy="10.303" rx="4.629" ry="10.303" transform="translate(14.191 172.624) rotate(-45)" opacity="0.3"/>
    <path id="Path_2062" data-name="Path 2062" d="M458.644,358.2H296.067a7.407,7.407,0,0,0-7.407,7.407V460.9a7.407,7.407,0,0,0,7.407,7.407H458.644a7.407,7.407,0,0,0,7.407-7.407V365.607a7.407,7.407,0,0,0-7.407-7.407Z" transform="translate(-234.195 -275.892)" fill="url(#linear-gradient)"/>
    <rect id="Rectangle_579" data-name="Rectangle 579" width="173.215" height="107.513" rx="24.81" transform="translate(56.552 83.604)" fill="#00a662"/>
    <rect id="Rectangle_580" data-name="Rectangle 580" width="173.215" height="19.711" transform="translate(56.552 102.419)" fill="#00a662"/>
    <rect id="Rectangle_581" data-name="Rectangle 581" width="173.215" height="19.711" transform="translate(56.552 102.419)" opacity="0.3"/>
    <rect id="Rectangle_582" data-name="Rectangle 582" width="140.364" height="9.556" transform="translate(72.979 136.764)" fill="#d6d6e3"/>
    <circle id="Ellipse_74" data-name="Ellipse 74" cx="13.739" cy="13.739" r="13.739" transform="translate(70.886 156.474)" fill="#00a662"/>
    <circle id="Ellipse_75" data-name="Ellipse 75" cx="13.739" cy="13.739" r="13.739" transform="translate(70.886 156.474)" opacity="0.3"/>
    <path id="Path_2063" data-name="Path 2063" d="M822.168,227.673a3.007,3.007,0,0,0,1.324,1.674c2.849,1.882,9.044,1.482,9.789,1.482.158,0,.366.282.6.757a52.348,52.348,0,0,1,2.905,10.362c.152,1.8,1.826,10.232,4.567,13.373.084.1.167.186.248.27,2.688,2.7,5.841-.27,5.841-.27l.453-1.572c-.127.62-.27,1.343-.412,2.152-.071.406-.143.837-.211,1.281a49.077,49.077,0,0,0-.642,7.556,27.407,27.407,0,0,0,.118,2.753c.025.254.053.505.087.75a26.283,26.283,0,0,1,.2,3.361,91.373,91.373,0,0,1-1.727,14.973l.065-.022c-.04.208-.065.31-.065.31l.1-.031q-.071.462-.136.946c-.577,4.186-.908,9.395-1.067,12.4a24.831,24.831,0,0,0,.211,4.75l3.026,21.3v9.922a17.517,17.517,0,0,0,.546,4.459c.986,3.749.174,16.833-.282,23.041-.127,1.693-.226,2.877-.254,3.218v.1l.087-.034v.109a1.754,1.754,0,0,1,.4-.118c-1.2,1.86-3.373,4.936-5.045,5.454a5.293,5.293,0,0,0-2.521,1.671l-.043.059-.062.087a1.861,1.861,0,0,0-.363.949,1.047,1.047,0,0,1-.056-.183c-.127.691.288,1.324,1.594,1.631a10.73,10.73,0,0,0,2.31.186c4.527,0,12.561-1.392,13.447-2.89v-5.166l.146.047v.047l.555.183,1.522-5.11c1.826-1.352.31-25.546,0-31.105-.279-5.066,2.856-25.22,3.411-28.77l-.074-.09.084-.518a2.2,2.2,0,0,1,.31.273,4.045,4.045,0,0,1,.474.7,9.369,9.369,0,0,1,.673,1.389c3.063,7.64,4.443,29.487,4.443,31.446v20.545a21.393,21.393,0,0,0,.837,5.993,25.725,25.725,0,0,1,.651,3.119c.065.412.121.822.174,1.212s.105.837.146,1.2a2.493,2.493,0,0,0,.031.276.544.544,0,0,1,0,.127c.084.809.127,1.339.127,1.339a.31.31,0,0,1,.062-.121l.016.2a.418.418,0,0,1,.121-.192,2.936,2.936,0,0,1,.409-.335V373.2l-.074-.056v.45c3.156,2.381,8.294,3.1,12.238,3.073a15.655,15.655,0,0,0,5.349-.67c1.029-.505.465-1.684-.471-2.586a3.537,3.537,0,0,0-2.27-1.172c-1,.109-4.412-3.758-6.2-5.876l.2-.09.285-.124V331.89s.459-13.525,1.826-26.9a47.588,47.588,0,0,0-2.341-19.955l-.043-.127.415.065c.44.068.676.108.676.108a2.578,2.578,0,0,0-.028-.31h.028s-.533-5.8-.539-13.088c0-8.26.7-18.331,3.584-24.03a16.952,16.952,0,0,0,2.17-7.95,8.316,8.316,0,0,0-1.485-5.085,4.031,4.031,0,0,0-1.708-1.352l-.059-.034h-.031a4.248,4.248,0,0,0-1.569-.31h-6.235a4.164,4.164,0,0,1-2.059-.543L870.537,231a12.377,12.377,0,0,1-.756-6.043c0-.164.031-.329.047-.49l.177-.186c.136-.146.263-.31.388-.45a3.461,3.461,0,0,1-.028.366c-.031.2-.084.31-.167.335,1.333-.174,2.822-.437,3.64-1.467.034-.04.065-.084.1-.127a6.643,6.643,0,0,0,.6-1.24,3.6,3.6,0,0,1,.456-.831c.2-.267.471-.484.691-.738l.037-.043a5.354,5.354,0,0,0,.837-3.479c.016-2.952-.071-6.2-2.046-8.415-1.64-1.842-4.257-2.539-6.741-2.62s-4.961.366-7.441.378c-1.687,0-3.721-.028-4.651,1.367-.456.685-.512,1.581-1.008,2.239-.285.378-.722.7-.747,1.175a1.207,1.207,0,0,0,.161.62v.022a4.386,4.386,0,0,0,3.212,2.155,8.011,8.011,0,0,0-.62.856,8.148,8.148,0,0,0-1.24,4.341,5.092,5.092,0,0,0,.019.533,8.2,8.2,0,0,0,2.6,5.46c-.025.174-.05.347-.078.518l.056.05q.264.239.549.453l.068.053v.31a5.2,5.2,0,0,1-.019.54c-.019.177,0,.285-.019.428l-.04-.034-3.029-2.53-4.871-4.508s-12.179-8.865-12.79-4.651a3.035,3.035,0,0,0,.58,2.1c2.236,3.411,9.922,6.313,9.922,6.313a64.958,64.958,0,0,1,7.649,10.071c-.109.059-.217.115-.332.167-2.728,1.268-6.71.732-6.71.732-4.6.716-5.014,5.755-4.989,7.792v.422l-6.1-14.328-.019-.043a3.017,3.017,0,0,0-2.282-1.792C831.513,226.091,821.315,224.662,822.168,227.673Zm25.546,139.217a2.657,2.657,0,0,1,.27-.05l-.028.043Z" transform="translate(-602.249 -170.579)" fill="url(#linear-gradient-2)"/>
    <path id="Path_2064" data-name="Path 2064" d="M986.828,716.43s5.78,7.265,7.116,7.116,4.446,2.815,2.67,3.721-12.005,1.482-17.053-2.372v-5.807Z" transform="translate(-710.875 -523.049)" fill="#aca9c9"/>
    <path id="Path_2065" data-name="Path 2065" d="M889.483,717.86s-3.411,6.077-5.779,6.821-4.446,3.411-1.333,4.152,14.232-.89,15.267-2.67V718.3Z" transform="translate(-642.735 -524.036)" fill="#aca9c9"/>
    <path id="Path_2066" data-name="Path 2066" d="M894.456,473.392l2.946,21.016v9.77a17.512,17.512,0,0,0,.533,4.4c.961,3.7.171,16.6-.276,22.727-.146,2-.257,3.274-.257,3.274,1.925-.89,10.08,1.925,10.08,1.925l.825-2.806.657-2.232c1.78-1.333.31-25.2,0-30.7-.2-3.755,1.473-15.928,2.546-23.223.31-2.062.561-3.721.713-4.719.1-.62.149-.964.149-.964a3.245,3.245,0,0,1,.8.964,9.281,9.281,0,0,1,.654,1.37c2.983,7.538,4.341,29.087,4.341,31.006v20.266a21.37,21.37,0,0,0,.815,5.913,30.986,30.986,0,0,1,.8,4.27c.211,1.609.31,2.905.31,2.905.149-.89,9.339-4.893,9.339-4.893v-33.8s.443-13.333,1.78-26.535a47.34,47.34,0,0,0-1.705-17.853c-.369-1.262-.738-2.332-1.057-3.178-.543-1.442-.93-2.239-.93-2.239H897.246c-.509.1-.93,1.119-1.312,2.673-.248,1.042-.465,2.319-.654,3.721-.561,4.127-.884,9.265-1.039,12.235a24.76,24.76,0,0,0,.214,4.7Z" transform="translate(-651.989 -339.27)" fill="#618fd8"/>
    <g id="Group_1560" data-name="Group 1560" transform="translate(245.487 110.883)" opacity="0.1">
      <path id="Path_2067" data-name="Path 2067" d="M986.523,533.965v-33.8s.443-13.333,1.78-26.535a46.226,46.226,0,0,0-3.721-23.273h.592a46.494,46.494,0,0,1,3.721,23.273c-1.318,13.193-1.78,26.535-1.78,26.535v33.8s-9.19,4-9.339,4.893a4.438,4.438,0,0,0-.047-.539A86.412,86.412,0,0,1,986.523,533.965Z" transform="translate(-955.099 -450.36)"/>
      <path id="Path_2068" data-name="Path 2068" d="M905.556,722.323a2.3,2.3,0,0,0-.816.167v-.149A5.3,5.3,0,0,1,905.556,722.323Z" transform="translate(-904.74 -637.993)"/>
      <path id="Path_2069" data-name="Path 2069" d="M936.946,580.22c1.78-1.333.31-25.2,0-30.7s3.411-28.9,3.411-28.9a2.587,2.587,0,0,1,.512.527c-.546,3.5-3.6,23.382-3.327,28.377.31,5.485,1.78,29.35,0,30.7l-1.482,5.038-.54-.18Z" transform="translate(-925.976 -498.835)"/>
    </g>
    <path id="Path_2070" data-name="Path 2070" d="M852.722,291.76l-3.1,10.97s-3.262,3.1-5.928,0-4.31-11.413-4.471-13.193-2.521-10.97-3.411-10.97-9.782.592-10.821-3.1c-.831-2.97,9.1-1.55,13.072-.884a2.946,2.946,0,0,1,2.223,1.767l6.1,14.557S849.609,287.165,852.722,291.76Z" transform="translate(-604.197 -217.56)" fill="#f7c4a7"/>
    <path id="Path_2071" data-name="Path 2071" d="M942.458,249.82S938.6,260.641,943.5,264.5s-17.5,4.893-17.5,4.893l3.039-2.89s2.149-8.524.667-15.639Z" transform="translate(-673.921 -201.116)" fill="#f7c4a7"/>
    <path id="Path_2072" data-name="Path 2072" d="M915.365,292.7s3.928-.964,3.928-2l3.482,2h8.747s6.375,3.556,1.039,14.232-2.964,36.9-2.964,36.9-18.972-3.411-34.686,1.78c0,0,2.372-11.711,1.482-18.38s1.482-16.008,1.482-16.008l1.333-5.634s-.074-5.271-5.559-2.6c0,0-.815-7.634,4.818-8.523,0,0,6.511.89,8.449-2.372C906.916,292.108,911.217,294.628,915.365,292.7Z" transform="translate(-651.573 -229.321)" opacity="0.1"/>
    <path id="Path_2073" data-name="Path 2073" d="M915.365,291.75s3.928-.964,3.928-2l2.552,1.467a4.03,4.03,0,0,0,2,.533h6.118a4.031,4.031,0,0,1,3.277,1.668c1.4,1.975,2.663,5.869-.682,12.564-5.336,10.672-2.964,36.9-2.964,36.9s-18.973-3.411-34.686,1.78c0,0,2.372-11.711,1.482-18.38s1.482-15.987,1.482-15.987l1.333-5.634s-.074-5.271-5.559-2.6c0,0-.794-7.423,4.586-8.483a1.52,1.52,0,0,1,.456-.031c1.15.121,6.511.509,8.229-2.4C906.916,291.155,911.216,293.675,915.365,291.75Z" transform="translate(-651.572 -228.666)" fill="#e14b5a"/>
    <path id="Path_2074" data-name="Path 2074" d="M958.958,313.774s-4.744,2.964-12.452,0c0,0-8.449-3.1-11.119-9.19s13.488,1.039,13.488,1.039,3.411,0,4.446-.741S961.625,310.512,958.958,313.774Z" transform="translate(-680.193 -237.202)" opacity="0.1"/>
    <path id="Path_2075" data-name="Path 2075" d="M917.014,267.994s-4.744,2.964-12.452,0c0,0-8.449-3.1-11.119-9.19s-8.893-12.759-8.893-12.759-10.821-4.152-10.232-8.3,12.452,4.6,12.452,4.6l4.744,4.446L906.93,259.83s3.411,0,4.446-.741S919.68,264.732,917.014,267.994Z" transform="translate(-638.248 -192.014)" fill="#f7c4a7"/>
    <path id="Path_2076" data-name="Path 2076" d="M937.49,252.289l12.747-1.039a29.263,29.263,0,0,0-1.33,6.037,8.145,8.145,0,0,1-11.41.31A14.488,14.488,0,0,0,937.49,252.289Z" transform="translate(-681.849 -202.103)" opacity="0.1"/>
    <circle id="Ellipse_76" data-name="Ellipse 76" cx="8.151" cy="8.151" r="8.151" transform="translate(253.198 40.924)" fill="#f7c4a7"/>
    <path id="Path_2077" data-name="Path 2077" d="M938.931,224.578c-.477-.788.493-1.814.174-2.676-.295-.794-1.467-.93-1.86-1.671-.31-.6,0-1.333-.124-1.994a2.048,2.048,0,0,0-1.966-1.426,7.014,7.014,0,0,0-2.539.561,9.749,9.749,0,0,1-4.183.645,4.386,4.386,0,0,1-3.454-2.192,1.241,1.241,0,0,1-.158-.6c.025-.465.453-.784.729-1.157.484-.648.54-1.532.98-2.208.9-1.377,2.874-1.343,4.518-1.349,2.418,0,4.825-.453,7.243-.372s4.961.766,6.564,2.583c1.922,2.186,2.009,5.386,1.994,8.3a5.284,5.284,0,0,1-.815,3.432c-.223.27-.5.493-.71.769-.465.62-.589,1.414-1.026,2.043-.775,1.119-2.288,1.392-3.637,1.572.4-.053.068-2.71,0-2.955C940.4,224.662,940.115,224.687,938.931,224.578Z" transform="translate(-673.107 -173.732)" opacity="0.1"/>
    <path id="Path_2078" data-name="Path 2078" d="M938.931,223.628c-.477-.788.493-1.814.174-2.676-.295-.794-1.467-.93-1.86-1.671-.31-.6,0-1.333-.124-1.994a2.048,2.048,0,0,0-1.966-1.426,7.014,7.014,0,0,0-2.539.561,9.75,9.75,0,0,1-4.183.645,4.386,4.386,0,0,1-3.454-2.192,1.241,1.241,0,0,1-.158-.6c.025-.465.453-.784.729-1.157.484-.648.54-1.532.98-2.208.9-1.377,2.874-1.343,4.518-1.349,2.418,0,4.825-.453,7.243-.372s4.961.766,6.564,2.583c1.922,2.186,2.009,5.386,1.994,8.3a5.284,5.284,0,0,1-.815,3.432c-.223.27-.5.493-.71.769-.465.62-.589,1.414-1.026,2.043-.775,1.119-2.288,1.392-3.637,1.572.4-.053.068-2.71,0-2.955C940.4,223.7,940.115,223.734,938.931,223.628Z" transform="translate(-673.107 -173.076)" fill="#281c1c"/>
    <path id="Path_2079" data-name="Path 2079" d="M994.545,316.861s-4-10.378-7.116-10.672,5.928,0,5.928,0l2.964,5.336Z" transform="translate(-715.854 -239.917)" opacity="0.1"/>
    <path id="Path_2080" data-name="Path 2080" d="M995.5,316.861s-4-10.378-7.116-10.672,5.928,0,5.928,0l2.964,5.336Z" transform="translate(-716.516 -239.917)" fill="#e14b5a"/>
    <path id="Path_2081" data-name="Path 2081" d="M976.65,716.39c.211,1.609.31,2.905.31,2.905.149-.89,9.339-4.893,9.339-4.893v-2.409a4.083,4.083,0,0,0-.7.034,13.222,13.222,0,0,0-4.961,2.028A45.255,45.255,0,0,1,976.65,716.39Z" transform="translate(-708.867 -519.987)" fill="#618fd8"/>
    <path id="Path_2082" data-name="Path 2082" d="M976.65,716.39c.211,1.609.31,2.905.31,2.905.149-.89,9.339-4.893,9.339-4.893v-2.409a4.083,4.083,0,0,0-.7.034,13.222,13.222,0,0,0-4.961,2.028A45.255,45.255,0,0,1,976.65,716.39Z" transform="translate(-708.867 -519.987)" opacity="0.3"/>
    <path id="Path_2083" data-name="Path 2083" d="M904.5,714.922c1.925-.89,10.08,1.925,10.08,1.925l.825-2.806c-1.423-.288-2.837-.648-4.226-1.076a14.072,14.072,0,0,1-1.9-.7,12.7,12.7,0,0,0-1.265-.589,6.563,6.563,0,0,0-3.262-.028C904.612,713.644,904.5,714.922,904.5,714.922Z" transform="translate(-659.088 -519.615)" fill="#618fd8"/>
    <path id="Path_2084" data-name="Path 2084" d="M904.5,714.922c1.925-.89,10.08,1.925,10.08,1.925l.825-2.806c-1.423-.288-2.837-.648-4.226-1.076a14.072,14.072,0,0,1-1.9-.7,12.7,12.7,0,0,0-1.265-.589,6.563,6.563,0,0,0-3.262-.028C904.612,713.644,904.5,714.922,904.5,714.922Z" transform="translate(-659.088 -519.615)" opacity="0.3"/>
    <path id="Path_2085" data-name="Path 2085" d="M996.353,744.612a.887.887,0,0,0,.509-.589.871.871,0,0,1-.509,1.032c-1.78.89-12.005,1.482-17.053-2.372v-.443C984.348,746.094,994.574,745.5,996.353,744.612Z" transform="translate(-710.695 -540.857)" fill="#fff" opacity="0.4"/>
    <path id="Path_2086" data-name="Path 2086" d="M882.121,745.86c3.1.741,14.232-.89,15.267-2.67v.443c-1.039,1.78-12.154,3.411-15.267,2.67-1.271-.31-1.677-.93-1.55-1.609C880.67,745.2,881.135,745.612,882.121,745.86Z" transform="translate(-642.563 -541.512)" fill="#fff" opacity="0.4"/>
    <path id="Path_2087" data-name="Path 2087" d="M915.8,402.5s-3.262-1.039-4.152,0-8.5,3.473-8.5,3.473" transform="translate(-658.156 -306.14)" opacity="0.1"/>
    <rect id="Rectangle_583" data-name="Rectangle 583" width="15.86" height="0.335" transform="translate(236.594 55.634) rotate(180)" fill="#8ed16f"/>
    <rect id="Rectangle_584" data-name="Rectangle 584" width="15.86" height="0.335" transform="translate(236.594 55.968) rotate(180)" fill="#8ed16f"/>
    <rect id="Rectangle_585" data-name="Rectangle 585" width="15.86" height="0.335" transform="translate(236.594 55.968) rotate(180)" opacity="0.1"/>
    <rect id="Rectangle_586" data-name="Rectangle 586" width="15.86" height="0.335" transform="translate(236.594 56.303) rotate(180)" fill="#8ed16f"/>
    <rect id="Rectangle_587" data-name="Rectangle 587" width="15.86" height="0.335" transform="translate(236.594 56.635) rotate(180)" fill="#8ed16f"/>
    <rect id="Rectangle_588" data-name="Rectangle 588" width="15.86" height="0.335" transform="translate(236.594 56.635) rotate(180)" opacity="0.1"/>
    <rect id="Rectangle_589" data-name="Rectangle 589" width="15.86" height="0.335" transform="translate(236.594 56.97) rotate(180)" fill="#8ed16f"/>
    <rect id="Rectangle_590" data-name="Rectangle 590" width="15.86" height="0.335" transform="translate(236.594 57.302) rotate(180)" fill="#8ed16f"/>
    <rect id="Rectangle_591" data-name="Rectangle 591" width="15.86" height="0.335" transform="translate(236.594 57.302) rotate(180)" opacity="0.1"/>
    <rect id="Rectangle_592" data-name="Rectangle 592" width="15.86" height="0.335" transform="translate(236.594 57.637) rotate(180)" fill="#8ed16f"/>
    <rect id="Rectangle_593" data-name="Rectangle 593" width="15.86" height="0.335" transform="translate(236.594 57.968) rotate(180)" fill="#8ed16f"/>
    <rect id="Rectangle_594" data-name="Rectangle 594" width="15.86" height="0.335" transform="translate(236.594 57.968) rotate(180)" opacity="0.1"/>
    <rect id="Rectangle_595" data-name="Rectangle 595" width="15.86" height="0.335" transform="translate(236.594 52.967) rotate(180)" fill="#8ed16f"/>
    <rect id="Rectangle_596" data-name="Rectangle 596" width="15.86" height="0.335" transform="matrix(-0.769, -0.639, 0.639, -0.769, 244.147, 55.18)" fill="#8ed16f"/>
    <rect id="Rectangle_597" data-name="Rectangle 597" width="15.86" height="0.335" transform="matrix(-0.769, -0.639, 0.639, -0.769, 233.03, 49.845)" fill="#8ed16f"/>
    <rect id="Rectangle_598" data-name="Rectangle 598" width="15.86" height="0.335" transform="translate(236.594 53.299) rotate(180)" fill="#8ed16f"/>
    <rect id="Rectangle_599" data-name="Rectangle 599" width="15.86" height="0.335" transform="translate(236.594 53.299) rotate(180)" opacity="0.1"/>
    <rect id="Rectangle_600" data-name="Rectangle 600" width="15.86" height="0.335" transform="translate(236.594 53.637) rotate(180)" fill="#8ed16f"/>
    <rect id="Rectangle_601" data-name="Rectangle 601" width="15.86" height="0.335" transform="translate(236.594 53.969) rotate(180)" fill="#8ed16f"/>
    <rect id="Rectangle_602" data-name="Rectangle 602" width="15.86" height="0.335" transform="translate(236.594 53.969) rotate(180)" opacity="0.1"/>
    <rect id="Rectangle_603" data-name="Rectangle 603" width="15.86" height="0.335" transform="translate(236.594 54.3) rotate(180)" fill="#8ed16f"/>
    <rect id="Rectangle_604" data-name="Rectangle 604" width="15.86" height="0.335" transform="translate(236.594 54.635) rotate(180)" fill="#8ed16f"/>
    <rect id="Rectangle_605" data-name="Rectangle 605" width="15.86" height="0.335" transform="translate(236.594 54.635) rotate(180)" opacity="0.1"/>
    <rect id="Rectangle_606" data-name="Rectangle 606" width="15.86" height="0.335" transform="translate(236.594 54.967) rotate(180)" fill="#8ed16f"/>
    <rect id="Rectangle_607" data-name="Rectangle 607" width="15.86" height="0.335" transform="translate(236.594 55.302) rotate(180)" fill="#8ed16f"/>
    <rect id="Rectangle_608" data-name="Rectangle 608" width="15.86" height="0.335" transform="translate(236.594 55.302) rotate(180)" opacity="0.1"/>
    <rect id="Rectangle_609" data-name="Rectangle 609" width="5.78" height="11.264" transform="translate(224.407 69.359) rotate(-169.48)" fill="#8ed16f"/>
    <ellipse id="Ellipse_77" data-name="Ellipse 77" cx="2.372" cy="1.184" rx="2.372" ry="1.184" transform="translate(221.076 65.445) rotate(-79.48)" fill="#8ed16f"/>
    <ellipse id="Ellipse_78" data-name="Ellipse 78" cx="2.372" cy="1.184" rx="2.372" ry="1.184" transform="translate(221.076 65.445) rotate(-79.48)" opacity="0.1"/>
    <rect id="Rectangle_610" data-name="Rectangle 610" width="5.78" height="11.264" transform="translate(225.379 92.735) rotate(-169.48)" fill="#8ed16f"/>
    <ellipse id="Ellipse_79" data-name="Ellipse 79" cx="2.372" cy="1.184" rx="2.372" ry="1.184" transform="translate(222.045 88.819) rotate(-79.48)" fill="#8ed16f"/>
    <ellipse id="Ellipse_80" data-name="Ellipse 80" cx="2.372" cy="1.184" rx="2.372" ry="1.184" transform="translate(222.045 88.819) rotate(-79.48)" opacity="0.1"/>
    <rect id="Rectangle_611" data-name="Rectangle 611" width="5.78" height="11.264" transform="matrix(0.476, -0.879, 0.879, 0.476, 196.393, 39.305)" fill="#8ed16f"/>
    <ellipse id="Ellipse_81" data-name="Ellipse 81" cx="1.187" cy="2.378" rx="1.187" ry="2.378" transform="translate(201.031 39.565) rotate(-61.39)" fill="#8ed16f"/>
    <ellipse id="Ellipse_82" data-name="Ellipse 82" cx="1.187" cy="2.378" rx="1.187" ry="2.378" transform="translate(201.031 39.565) rotate(-61.39)" opacity="0.1"/>
    <rect id="Rectangle_612" data-name="Rectangle 612" width="5.78" height="11.264" transform="matrix(0.476, -0.879, 0.879, 0.476, 174.64, 139.616)" fill="#8ed16f"/>
    <ellipse id="Ellipse_83" data-name="Ellipse 83" cx="1.184" cy="2.372" rx="1.184" ry="2.372" transform="matrix(0.476, -0.879, 0.879, 0.476, 178.287, 139.736)" fill="#8ed16f"/>
    <ellipse id="Ellipse_84" data-name="Ellipse 84" cx="1.184" cy="2.372" rx="1.184" ry="2.372" transform="matrix(0.476, -0.879, 0.879, 0.476, 178.287, 139.736)" opacity="0.1"/>
    <rect id="Rectangle_613" data-name="Rectangle 613" width="5.78" height="11.264" transform="matrix(0.476, -0.879, 0.879, 0.476, 161.331, 56.836)" fill="#8ed16f"/>
    <ellipse id="Ellipse_85" data-name="Ellipse 85" cx="1.184" cy="2.372" rx="1.184" ry="2.372" transform="matrix(0.476, -0.879, 0.879, 0.476, 164.975, 56.951)" fill="#8ed16f"/>
    <ellipse id="Ellipse_86" data-name="Ellipse 86" cx="1.184" cy="2.372" rx="1.184" ry="2.372" transform="matrix(0.476, -0.879, 0.879, 0.476, 164.975, 56.951)" opacity="0.1"/>
    <rect id="Rectangle_614" data-name="Rectangle 614" width="5.78" height="11.264" transform="matrix(0.476, -0.879, 0.879, 0.476, 178.012, 39.303)" fill="#8ed16f"/>
    <ellipse id="Ellipse_87" data-name="Ellipse 87" cx="1.184" cy="2.372" rx="1.184" ry="2.372" transform="matrix(0.476, -0.879, 0.879, 0.476, 181.656, 39.418)" fill="#8ed16f"/>
    <ellipse id="Ellipse_88" data-name="Ellipse 88" cx="1.184" cy="2.372" rx="1.184" ry="2.372" transform="matrix(0.476, -0.879, 0.879, 0.476, 181.656, 39.418)" opacity="0.1"/>
    <rect id="Rectangle_615" data-name="Rectangle 615" width="5.78" height="11.264" transform="matrix(0.994, -0.109, 0.109, 0.994, 191.673, 55.536)" fill="#8ed16f"/>
    <ellipse id="Ellipse_89" data-name="Ellipse 89" cx="1.184" cy="2.372" rx="1.184" ry="2.372" transform="matrix(0.994, -0.109, 0.109, 0.994, 193.646, 58.601)" fill="#8ed16f"/>
    <ellipse id="Ellipse_90" data-name="Ellipse 90" cx="1.184" cy="2.372" rx="1.184" ry="2.372" transform="matrix(0.994, -0.109, 0.109, 0.994, 193.646, 58.601)" opacity="0.1"/>
    <rect id="Rectangle_616" data-name="Rectangle 616" width="5.78" height="11.264" transform="matrix(0.994, -0.109, 0.109, 0.994, 231.063, 116.853)" fill="#8ed16f"/>
    <ellipse id="Ellipse_91" data-name="Ellipse 91" cx="1.184" cy="2.372" rx="1.184" ry="2.372" transform="matrix(0.994, -0.109, 0.109, 0.994, 233.039, 119.919)" fill="#8ed16f"/>
    <ellipse id="Ellipse_92" data-name="Ellipse 92" cx="1.184" cy="2.372" rx="1.184" ry="2.372" transform="matrix(0.994, -0.109, 0.109, 0.994, 233.039, 119.919)" opacity="0.1"/>
    <rect id="Rectangle_617" data-name="Rectangle 617" width="5.78" height="11.264" transform="matrix(0.476, -0.879, 0.879, 0.476, 172.169, 83.777)" fill="#8ed16f"/>
    <ellipse id="Ellipse_93" data-name="Ellipse 93" cx="1.184" cy="2.372" rx="1.184" ry="2.372" transform="matrix(0.476, -0.879, 0.879, 0.476, 175.811, 83.897)" fill="#8ed16f"/>
    <ellipse id="Ellipse_94" data-name="Ellipse 94" cx="1.184" cy="2.372" rx="1.184" ry="2.372" transform="matrix(0.476, -0.879, 0.879, 0.476, 175.811, 83.897)" opacity="0.1"/>
    <rect id="Rectangle_618" data-name="Rectangle 618" width="5.78" height="11.264" transform="matrix(0.476, -0.879, 0.879, 0.476, 147.169, 76.637)" fill="#8ed16f"/>
    <ellipse id="Ellipse_95" data-name="Ellipse 95" cx="1.187" cy="2.378" rx="1.187" ry="2.378" transform="translate(151.63 77.075) rotate(-61.39)" fill="#8ed16f"/>
    <ellipse id="Ellipse_96" data-name="Ellipse 96" cx="1.187" cy="2.378" rx="1.187" ry="2.378" transform="translate(151.63 77.075) rotate(-61.39)" opacity="0.1"/>
    <rect id="Rectangle_619" data-name="Rectangle 619" width="5.78" height="11.264" transform="matrix(0.476, -0.879, 0.879, 0.476, 139.162, 196.849)" fill="#8ed16f"/>
    <ellipse id="Ellipse_97" data-name="Ellipse 97" cx="1.184" cy="2.372" rx="1.184" ry="2.372" transform="matrix(0.476, -0.879, 0.879, 0.476, 142.806, 196.966)" fill="#8ed16f"/>
    <ellipse id="Ellipse_98" data-name="Ellipse 98" cx="1.184" cy="2.372" rx="1.184" ry="2.372" transform="matrix(0.476, -0.879, 0.879, 0.476, 142.806, 196.966)" opacity="0.1"/>
    <rect id="Rectangle_620" data-name="Rectangle 620" width="5.78" height="11.264" transform="translate(133.651 199.409) rotate(-79.49)" fill="#8ed16f"/>
    <rect id="Rectangle_621" data-name="Rectangle 621" width="5.78" height="11.264" transform="translate(133.651 199.409) rotate(-79.49)" opacity="0.05"/>
    <ellipse id="Ellipse_99" data-name="Ellipse 99" cx="1.184" cy="2.372" rx="1.184" ry="2.372" transform="translate(137.157 198.399) rotate(-79.49)" fill="#8ed16f"/>
    <ellipse id="Ellipse_100" data-name="Ellipse 100" cx="1.184" cy="2.372" rx="1.184" ry="2.372" transform="translate(137.157 198.399) rotate(-79.49)" opacity="0.1"/>
    <rect id="Rectangle_622" data-name="Rectangle 622" width="5.78" height="11.264" transform="translate(134.689 202.817) rotate(-79.49)" fill="#8ed16f"/>
    <ellipse id="Ellipse_101" data-name="Ellipse 101" cx="1.184" cy="2.372" rx="1.184" ry="2.372" transform="translate(138.191 201.807) rotate(-79.49)" fill="#8ed16f"/>
    <ellipse id="Ellipse_102" data-name="Ellipse 102" cx="1.184" cy="2.372" rx="1.184" ry="2.372" transform="translate(138.191 201.807) rotate(-79.49)" opacity="0.1"/>
    <rect id="Rectangle_623" data-name="Rectangle 623" width="5.78" height="11.264" transform="matrix(0.476, -0.879, 0.879, 0.476, 150.848, 211.459)" fill="#8ed16f"/>
    <ellipse id="Ellipse_103" data-name="Ellipse 103" cx="1.184" cy="2.372" rx="1.184" ry="2.372" transform="matrix(0.476, -0.879, 0.879, 0.476, 154.495, 211.575)" fill="#8ed16f"/>
    <ellipse id="Ellipse_104" data-name="Ellipse 104" cx="1.184" cy="2.372" rx="1.184" ry="2.372" transform="matrix(0.476, -0.879, 0.879, 0.476, 154.495, 211.575)" opacity="0.1"/>
    <rect id="Rectangle_624" data-name="Rectangle 624" width="5.78" height="11.264" transform="translate(145.339 214.015) rotate(-79.49)" fill="#8ed16f"/>
    <rect id="Rectangle_625" data-name="Rectangle 625" width="5.78" height="11.264" transform="translate(145.339 214.015) rotate(-79.49)" opacity="0.05"/>
    <ellipse id="Ellipse_105" data-name="Ellipse 105" cx="1.184" cy="2.372" rx="1.184" ry="2.372" transform="translate(148.842 213.005) rotate(-79.49)" fill="#8ed16f"/>
    <ellipse id="Ellipse_106" data-name="Ellipse 106" cx="1.184" cy="2.372" rx="1.184" ry="2.372" transform="translate(148.842 213.005) rotate(-79.49)" opacity="0.1"/>
    <rect id="Rectangle_626" data-name="Rectangle 626" width="5.78" height="11.264" transform="translate(146.377 217.426) rotate(-79.49)" fill="#8ed16f"/>
    <ellipse id="Ellipse_107" data-name="Ellipse 107" cx="1.184" cy="2.372" rx="1.184" ry="2.372" transform="translate(149.882 216.416) rotate(-79.49)" fill="#8ed16f"/>
    <ellipse id="Ellipse_108" data-name="Ellipse 108" cx="1.184" cy="2.372" rx="1.184" ry="2.372" transform="translate(149.882 216.416) rotate(-79.49)" opacity="0.1"/>
    <rect id="Rectangle_627" data-name="Rectangle 627" width="5.78" height="11.264" transform="matrix(0.476, -0.879, 0.879, 0.476, 168.381, 202.044)" fill="#8ed16f"/>
    <ellipse id="Ellipse_109" data-name="Ellipse 109" cx="1.184" cy="2.372" rx="1.184" ry="2.372" transform="matrix(0.476, -0.879, 0.879, 0.476, 172.022, 202.159)" fill="#8ed16f"/>
    <ellipse id="Ellipse_110" data-name="Ellipse 110" cx="1.184" cy="2.372" rx="1.184" ry="2.372" transform="matrix(0.476, -0.879, 0.879, 0.476, 172.022, 202.159)" opacity="0.1"/>
    <rect id="Rectangle_628" data-name="Rectangle 628" width="5.78" height="11.264" transform="translate(162.871 204.601) rotate(-79.49)" fill="#8ed16f"/>
    <rect id="Rectangle_629" data-name="Rectangle 629" width="5.78" height="11.264" transform="translate(162.871 204.601) rotate(-79.49)" opacity="0.05"/>
    <ellipse id="Ellipse_111" data-name="Ellipse 111" cx="1.184" cy="2.372" rx="1.184" ry="2.372" transform="translate(166.373 203.591) rotate(-79.49)" fill="#8ed16f"/>
    <ellipse id="Ellipse_112" data-name="Ellipse 112" cx="1.184" cy="2.372" rx="1.184" ry="2.372" transform="translate(166.373 203.591) rotate(-79.49)" opacity="0.1"/>
    <rect id="Rectangle_630" data-name="Rectangle 630" width="5.78" height="11.264" transform="translate(163.908 208.012) rotate(-79.49)" fill="#8ed16f"/>
    <ellipse id="Ellipse_113" data-name="Ellipse 113" cx="1.184" cy="2.372" rx="1.184" ry="2.372" transform="translate(167.414 207.003) rotate(-79.49)" fill="#8ed16f"/>
    <ellipse id="Ellipse_114" data-name="Ellipse 114" cx="1.184" cy="2.372" rx="1.184" ry="2.372" transform="translate(167.414 207.003) rotate(-79.49)" opacity="0.1"/>
  </g>
</svg>
