<svg xmlns="http://www.w3.org/2000/svg" width="110" height="110" viewBox="0 0 110 110">
  <g id="Group_1756" data-name="Group 1756" transform="translate(-248 -314)">
    <path id="Path_2337" data-name="Path 2337" d="M52,0h6a52,52,0,0,1,52,52v6a52,52,0,0,1-52,52H52A52,52,0,0,1,0,58V52A52,52,0,0,1,52,0Z" transform="translate(248 314)" fill="#fa3c04" opacity="0.11"/>
    <g id="buyer" transform="translate(270 336)">
      <path id="Path_2357" data-name="Path 2357" d="M34.243,36.409a3.57,3.57,0,0,0-.124-6.326L23.254,24.65a11.392,11.392,0,0,0-4.462-1.162,8.256,8.256,0,1,0-10.569.2A9.3,9.3,0,0,0,1,32.742V43.065a5.167,5.167,0,0,0,5.161,5.161V60.613a4.112,4.112,0,0,0,7.226,2.7,4.112,4.112,0,0,0,7.226-2.7v-28.8L31.038,36.55a3.522,3.522,0,0,0,1.181.289l4.649,15.808a3.081,3.081,0,0,0-.017,5.6,4.137,4.137,0,1,0,6.93.3H55.252a4.077,4.077,0,0,0-.575,2.065,4.129,4.129,0,1,0,4.129-4.129H38.161a1.032,1.032,0,0,1,0-2.065h24.57l2.245-10.1L65,42.032H35.9ZM7.194,17.258a6.194,6.194,0,1,1,6.194,6.194A6.2,6.2,0,0,1,7.194,17.258ZM20.837,29.645H18.548V60.613a2.065,2.065,0,0,1-4.129,0V41H12.355V60.613a2.065,2.065,0,0,1-4.129,0V30.677H6.161V46.161a3.1,3.1,0,0,1-3.1-3.1V32.742a7.234,7.234,0,0,1,7.226-7.226h7.886a9.341,9.341,0,0,1,4.154.981L33.2,31.93a1.518,1.518,0,0,1-1.3,2.742ZM42.29,60.613a2.065,2.065,0,1,1-2.065-2.065A2.067,2.067,0,0,1,42.29,60.613Zm18.581,0a2.065,2.065,0,1,1-2.065-2.065A2.067,2.067,0,0,1,60.871,60.613ZM62.911,44.1l-1.834,8.258H38.934L36.506,44.1Z" transform="translate(0 0.258)" fill="#fa3c04"/>
      <path id="Path_2358" data-name="Path 2358" d="M48.355,27.71A11.355,11.355,0,1,0,37,16.355,11.368,11.368,0,0,0,48.355,27.71Zm0-20.645a9.29,9.29,0,1,1-9.29,9.29A9.3,9.3,0,0,1,48.355,7.065Z" transform="translate(1.161 0.129)" fill="#fa3c04"/>
      <path id="Path_2359" data-name="Path 2359" d="M48.1,19.323a1.033,1.033,0,0,1-1.032-1.032H45A3.093,3.093,0,0,0,47.065,21.2v2.254h2.065V21.387h2.065v-3.1a3.1,3.1,0,0,0-3.1-3.1,1.033,1.033,0,0,1-1.032-1.032V13.129H48.1a1.033,1.033,0,0,1,1.032,1.032h2.065a3.093,3.093,0,0,0-2.065-2.907V9H47.065v2.065H45v3.1a3.1,3.1,0,0,0,3.1,3.1,1.033,1.033,0,0,1,1.032,1.032v1.032Z" transform="translate(1.419 0.258)" fill="#fa3c04"/>
      <path id="Path_2360" data-name="Path 2360" d="M53,15h2.065v2.065H53Z" transform="translate(1.677 0.452)" fill="#fa3c04"/>
      <path id="Path_2361" data-name="Path 2361" d="M41,15h2.065v2.065H41Z" transform="translate(1.29 0.452)" fill="#fa3c04"/>
      <path id="Path_2362" data-name="Path 2362" d="M41.258,30.167V41.9l7.226-3.613L55.71,41.9V30.167a15.484,15.484,0,1,0-14.452,0Zm2.065.9a15.339,15.339,0,0,0,4.129.851V36.49l-4.129,2.065Zm10.323,7.491-4.129-2.065V31.916a15.379,15.379,0,0,0,4.129-.851ZM48.484,3.065A13.419,13.419,0,1,1,35.065,16.484,13.435,13.435,0,0,1,48.484,3.065Z" transform="translate(1.032)" fill="#fa3c04"/>
      <path id="Path_2363" data-name="Path 2363" d="M53,45h2.065v4.129H53Z" transform="translate(1.677 1.419)" fill="#fa3c04"/>
      <path id="Path_2364" data-name="Path 2364" d="M47,45h2.065v4.129H47Z" transform="translate(1.484 1.419)" fill="#fa3c04"/>
      <path id="Path_2365" data-name="Path 2365" d="M41,45h2.065v4.129H41Z" transform="translate(1.29 1.419)" fill="#fa3c04"/>
    </g>
  </g>
</svg>
