<svg xmlns="http://www.w3.org/2000/svg" width="69.72" height="61.176" viewBox="0 0 69.72 61.176">
  <g id="Group_1758" data-name="Group 1758" transform="translate(-1143.798 -402.128)">
    <g id="Group_1648" data-name="Group 1648" transform="translate(1143.798 402.128)">
      <rect id="Rectangle_570" data-name="Rectangle 570" width="69.72" height="61.175" rx="30.588" transform="translate(0 0)" fill="#c70000"/>
    </g>
    <g id="_29-method" data-name="29-method" transform="translate(1160.534 411.333)">
      <g id="linear_color" data-name="linear color" transform="translate(0 0)">
        <path id="Path_2290" data-name="Path 2290" d="M51.925,300.131h-.511v-5.279a.851.851,0,0,0-.851-.852H35.576A3.58,3.58,0,0,0,32,297.576v10.9a3.58,3.58,0,0,0,3.576,3.576H50.563a.851.851,0,0,0,.851-.852v-5.279h.511a.851.851,0,0,0,.852-.852v-4.087A.852.852,0,0,0,51.925,300.131Zm-4.087,4.087a.511.511,0,0,1-.511-.511v-1.362a.511.511,0,0,1,.511-.511h3.236v2.384Zm1.873,6.131H35.576a1.875,1.875,0,0,1-1.873-1.873v-10.9a1.875,1.875,0,0,1,1.873-1.873H49.711v4.428H47.838a2.216,2.216,0,0,0-2.214,2.214v1.362a2.216,2.216,0,0,0,2.214,2.214h1.873Z" transform="translate(-32 -269.477)" fill="#f8fffc"/>
        <path id="Path_2291" data-name="Path 2291" d="M82.957,329.065H85a.511.511,0,0,1,.511.511.851.851,0,0,0,1.7,0A2.216,2.216,0,0,0,85,327.362H84.49v-.511a.851.851,0,0,0-1.7,0v.516a2.9,2.9,0,0,0,.17,5.785h1.362a1.192,1.192,0,1,1,0,2.384H82.361a.511.511,0,0,1-.511-.511.851.851,0,0,0-1.7,0,2.216,2.216,0,0,0,2.214,2.214h.426v.511a.851.851,0,0,0,1.7,0v-.516a2.9,2.9,0,0,0-.17-5.785H82.957a1.192,1.192,0,0,1,0-2.384Z" transform="translate(-75.975 -298.752)" fill="#f8fffc"/>
        <path id="Path_2292" data-name="Path 2292" d="M269.2,14.429a.851.851,0,0,0,.852-.851V12.3a.851.851,0,0,0-.379-.708L261.5,6.142a.851.851,0,0,0-.945,0l-8.174,5.45A.851.851,0,0,0,252,12.3v1.277a.852.852,0,0,0,.852.851h.511v7.919h-.511a.852.852,0,1,0,0,1.7H269.2a.851.851,0,1,0,0-1.7h-.511V14.429Zm-8.174-6.555,7.278,4.852H253.748Zm-5.96,6.64h1.022v7.834h-1.022Zm2.725,0h6.471v7.834H257.79Zm8.174,7.834V14.514h1.022v7.834Z" transform="translate(-233.267 -5.999)" fill="#f8fffc"/>
        <path id="Path_2293" data-name="Path 2293" d="M321.212,246a.852.852,0,0,0-.852.852,14.082,14.082,0,0,1-7.328,12.39l.536-2.145a.851.851,0,1,0-1.652-.413l-.991,3.965a.852.852,0,0,0,.637,1.037l3.986.909a.851.851,0,1,0,.379-1.66l-1.732-.395a15.826,15.826,0,0,0,7.869-13.688A.852.852,0,0,0,321.212,246Z" transform="translate(-287.152 -225.564)" fill="#f8fffc"/>
        <path id="Path_2294" data-name="Path 2294" d="M70.851,87.479a.852.852,0,0,0,.852-.851,14.082,14.082,0,0,1,7.328-12.39l-.536,2.145a.851.851,0,1,0,1.652.413l.991-3.965a.851.851,0,0,0-.637-1.037l-3.985-.909a.852.852,0,0,0-.379,1.66l1.732.395A15.826,15.826,0,0,0,70,86.628.851.851,0,0,0,70.851,87.479Z" transform="translate(-66.764 -65.34)" fill="#f8fffc"/>
      </g>
    </g>
  </g>
</svg>
