<svg xmlns="http://www.w3.org/2000/svg" width="110" height="110" viewBox="0 0 110 110">
  <g id="Group_1761" data-name="Group 1761" transform="translate(-883 -314)">
    <g id="Group_1759" data-name="Group 1759">
      <g id="Group_1760" data-name="Group 1760">
        <rect id="Rectangle_1517" data-name="Rectangle 1517" width="110" height="110" rx="52" transform="translate(883 314)" fill="#fa8fec" opacity="0.1"/>
      </g>
    </g>
    <g id="_29-method" data-name="29-method" transform="translate(873 325.001)">
      <g id="linear_color" data-name="linear color" transform="translate(32 5.999)">
        <path id="Path_2290" data-name="Path 2290" d="M67.738,305h-.916v-9.469A1.527,1.527,0,0,0,65.294,294H38.415A6.422,6.422,0,0,0,32,300.415v19.549a6.422,6.422,0,0,0,6.415,6.415h26.88a1.527,1.527,0,0,0,1.527-1.527v-9.469h.916a1.527,1.527,0,0,0,1.527-1.527v-7.331A1.527,1.527,0,0,0,67.738,305Zm-7.331,7.331a.917.917,0,0,1-.916-.916v-2.444a.917.917,0,0,1,.916-.916h5.8v4.276Zm3.36,11H38.415a3.364,3.364,0,0,1-3.36-3.36V300.415a3.364,3.364,0,0,1,3.36-3.36H63.767V305h-3.36a3.975,3.975,0,0,0-3.971,3.971v2.444a3.975,3.975,0,0,0,3.971,3.971h3.36Z" transform="translate(-32 -250.015)" fill="#dc5cc2"/>
        <path id="Path_2291" data-name="Path 2291" d="M85.25,331.5h3.665a.917.917,0,0,1,.916.916,1.527,1.527,0,0,0,3.055,0,3.975,3.975,0,0,0-3.971-3.971H88v-.916a1.527,1.527,0,0,0-3.055,0v.926a5.193,5.193,0,0,0,.305,10.376h2.444a2.138,2.138,0,1,1,0,4.276H84.181a.917.917,0,0,1-.916-.916,1.527,1.527,0,1,0-3.055,0,3.975,3.975,0,0,0,3.971,3.971h.764v.916a1.527,1.527,0,0,0,3.055,0v-.926a5.193,5.193,0,0,0-.305-10.376H85.25a2.138,2.138,0,0,1,0-4.276Z" transform="translate(-72.726 -277.127)" fill="#dc5cc2"/>
        <path id="Path_2292" data-name="Path 2292" d="M282.851,21.119a1.527,1.527,0,0,0,1.527-1.527V17.3a1.527,1.527,0,0,0-.68-1.271L269.036,6.256a1.526,1.526,0,0,0-1.694,0L252.68,16.03A1.527,1.527,0,0,0,252,17.3v2.291a1.527,1.527,0,0,0,1.527,1.527h.916v14.2h-.916a1.527,1.527,0,1,0,0,3.055h29.323a1.527,1.527,0,0,0,0-3.055h-.916v-14.2ZM268.189,9.362l13.054,8.7H255.135ZM257.5,21.272h1.833V35.323H257.5Zm4.887,0h11.607V35.323H262.385Zm14.662,14.051V21.272h1.833V35.323Z" transform="translate(-218.4 -5.999)" fill="#dc5cc2"/>
        <path id="Path_2293" data-name="Path 2293" d="M329.4,246a1.527,1.527,0,0,0-1.527,1.527,25.258,25.258,0,0,1-13.143,22.223l.962-3.847a1.527,1.527,0,1,0-2.963-.741l-1.778,7.112a1.527,1.527,0,0,0,1.142,1.86l7.149,1.63a1.527,1.527,0,0,0,.679-2.978l-3.107-.708a28.387,28.387,0,0,0,14.113-24.55A1.527,1.527,0,0,0,329.4,246Z" transform="translate(-268.305 -209.346)" fill="#dc5cc2"/>
        <path id="Path_2294" data-name="Path 2294" d="M71.527,100.666a1.527,1.527,0,0,0,1.527-1.527A25.258,25.258,0,0,1,86.2,76.916l-.962,3.847A1.527,1.527,0,1,0,88.2,81.5l1.778-7.112a1.527,1.527,0,0,0-1.142-1.86L81.686,70.9a1.527,1.527,0,1,0-.679,2.978l3.107.708A28.387,28.387,0,0,0,70,99.139,1.527,1.527,0,0,0,71.527,100.666Z" transform="translate(-64.196 -60.957)" fill="#dc5cc2"/>
      </g>
    </g>
  </g>
</svg>
