<svg xmlns="http://www.w3.org/2000/svg" width="315.627" height="205.303" viewBox="0 0 315.627 205.303">
  <g id="undraw_throw_away_ldjd_1_" data-name="undraw_throw_away_ldjd (1)" transform="translate(0 0)">
    <path id="Path_2439" data-name="Path 2439" d="M277.665,657.315H185s-1.878-27.548,9.235-27.861,9.861,12.209,23.792-5.009,30.835-16.279,33.027-6.1-4.226,18.313,7.513,15.809S287.213,638.219,277.665,657.315Z" transform="translate(-171.208 -452.464)" fill="#00a662"/>
    <path id="Path_2440" data-name="Path 2440" d="M313.568,657.017l-.313-.013c.729-18.138,4.528-29.791,7.586-36.374,3.32-7.147,6.52-10.04,6.552-10.069l.208.234c-.031.028-3.194,2.893-6.488,9.991C318.073,627.342,314.295,638.948,313.568,657.017Z" transform="translate(-255.007 -452.159)" fill="#f2f2f2"/>
    <path id="Path_2441" data-name="Path 2441" d="M410.177,706.054l-.3-.087A48.562,48.562,0,0,1,422.1,685.626l.21.232A48.233,48.233,0,0,0,410.177,706.054Z" transform="translate(-318.079 -501.159)" fill="#f2f2f2"/>
    <path id="Path_2442" data-name="Path 2442" d="M211.814,693.147l-.31-.043a34.1,34.1,0,0,0-3.067-19.928,27.441,27.441,0,0,0-4.84-7.062l.217-.226a27.783,27.783,0,0,1,4.9,7.15A34.411,34.411,0,0,1,211.814,693.147Z" transform="translate(-183.424 -488.274)" fill="#f2f2f2"/>
    <path id="Path_2443" data-name="Path 2443" d="M271.325,636.395H156.092l-.027-.39c-.066-.971-1.536-23.876,5.885-32.049a8.129,8.129,0,0,1,5.94-2.85c4.838-.138,7.878,1.674,10.33,3.129,4.622,2.742,7.675,4.553,18.776-9.168C209.023,580.2,222,577,229.458,578.783a11.578,11.578,0,0,1,9.114,8.91,39.542,39.542,0,0,1,.392,11.517c-.252,3.453-.451,6.18.967,7.416,1.184,1.031,3.546,1.125,7.435.3,7.91-1.687,18.946-.244,24.486,6.914,2.98,3.851,5.328,10.85-.411,22.329Zm-114.447-.838H270.806c4.277-8.677,4.41-16.006.383-21.21-5.082-6.566-15.743-8.294-23.649-6.607-4.225.9-6.742.753-8.16-.483-1.734-1.511-1.521-4.422-1.252-8.108a38.844,38.844,0,0,0-.375-11.28,10.769,10.769,0,0,0-8.489-8.272c-7.221-1.723-19.835,1.435-31.616,16-11.556,14.283-15.037,12.219-19.855,9.361-2.482-1.472-5.3-3.142-9.879-3.012a7.321,7.321,0,0,0-5.344,2.576C155.9,611.863,156.715,632.46,156.878,635.557Z" transform="translate(-152.292 -431.125)" fill="#cfcce0"/>
    <path id="Path_2444" data-name="Path 2444" d="M753.215,495.486l-33.524-5.829c5.992-12.428,8.731-24.708,6.391-36.755l33.524,5.829a74.485,74.485,0,0,0-6.391,36.755Z" transform="translate(-520.318 -349.242)" fill="#f2f2f2"/>
    <rect id="Rectangle_1563" data-name="Rectangle 1563" width="17.629" height="0.82" transform="translate(212.683 111.729) rotate(9.864)" fill="#3f3d56"/>
    <rect id="Rectangle_1564" data-name="Rectangle 1564" width="17.629" height="0.82" transform="translate(212.122 114.961) rotate(9.864)" fill="#3f3d56"/>
    <rect id="Rectangle_1565" data-name="Rectangle 1565" width="17.629" height="0.82" transform="translate(211.56 118.192) rotate(9.864)" fill="#3f3d56"/>
    <rect id="Rectangle_1566" data-name="Rectangle 1566" width="17.629" height="0.82" transform="translate(210.998 121.423) rotate(9.864)" fill="#3f3d56"/>
    <rect id="Rectangle_1567" data-name="Rectangle 1567" width="17.629" height="0.82" transform="translate(210.436 124.655) rotate(9.864)" fill="#3f3d56"/>
    <rect id="Rectangle_1568" data-name="Rectangle 1568" width="17.629" height="0.82" transform="translate(209.874 127.886) rotate(9.864)" fill="#3f3d56"/>
    <rect id="Rectangle_1569" data-name="Rectangle 1569" width="17.629" height="0.82" transform="translate(209.312 131.117) rotate(9.864)" fill="#3f3d56"/>
    <rect id="Rectangle_1570" data-name="Rectangle 1570" width="17.629" height="0.82" transform="translate(208.75 134.348) rotate(9.864)" fill="#3f3d56"/>
    <path id="Path_2445" data-name="Path 2445" d="M796.215,529.486l-33.524-5.829c5.992-12.428,8.73-24.708,6.391-36.755l33.524,5.829a74.485,74.485,0,0,0-6.391,36.755Z" transform="translate(-548.387 -371.437)" fill="#f2f2f2"/>
    <rect id="Rectangle_1571" data-name="Rectangle 1571" width="17.629" height="0.82" transform="translate(227.614 123.535) rotate(9.864)" fill="#3f3d56"/>
    <rect id="Rectangle_1572" data-name="Rectangle 1572" width="17.629" height="0.82" transform="translate(227.052 126.766) rotate(9.864)" fill="#3f3d56"/>
    <rect id="Rectangle_1573" data-name="Rectangle 1573" width="17.629" height="0.82" transform="translate(226.49 129.998) rotate(9.864)" fill="#3f3d56"/>
    <rect id="Rectangle_1574" data-name="Rectangle 1574" width="17.629" height="0.82" transform="translate(225.929 133.229) rotate(9.864)" fill="#3f3d56"/>
    <rect id="Rectangle_1575" data-name="Rectangle 1575" width="17.629" height="0.82" transform="translate(225.367 136.46) rotate(9.864)" fill="#3f3d56"/>
    <rect id="Rectangle_1576" data-name="Rectangle 1576" width="17.629" height="0.82" transform="translate(224.805 139.691) rotate(9.864)" fill="#3f3d56"/>
    <rect id="Rectangle_1577" data-name="Rectangle 1577" width="17.629" height="0.82" transform="translate(224.243 142.923) rotate(9.864)" fill="#3f3d56"/>
    <rect id="Rectangle_1578" data-name="Rectangle 1578" width="17.629" height="0.82" transform="translate(223.681 146.154) rotate(9.864)" fill="#3f3d56"/>
    <path id="Path_2446" data-name="Path 2446" d="M767.75,590.1h-59.8l-.012-.335L705.086,508.1h65.531Zm-59.127-.694h58.456l2.819-80.6H705.8Z" transform="translate(-510.784 -385.277)" fill="#3f3d56"/>
    <path id="Path_2447" data-name="Path 2447" d="M625.708,439.595H572.459l-2.56-73.217h58.369Z" transform="translate(-372.016 -239.163)" fill="#3f3d56"/>
    <g id="Group_1739" data-name="Group 1739" transform="translate(206.885 137.956)" opacity="0.2">
      <rect id="Rectangle_1579" data-name="Rectangle 1579" width="4.548" height="56.284" fill="#fff"/>
      <rect id="Rectangle_1580" data-name="Rectangle 1580" width="4.548" height="56.284" transform="translate(17.908)" fill="#fff"/>
      <rect id="Rectangle_1581" data-name="Rectangle 1581" width="4.548" height="56.284" transform="translate(35.817)" fill="#fff"/>
    </g>
    <rect id="Rectangle_1582" data-name="Rectangle 1582" width="11.371" height="87.553" transform="matrix(0.534, -0.845, 0.845, 0.534, 222.005, 100.614)" fill="#3f3d56"/>
    <path id="Path_2448" data-name="Path 2448" d="M892.073,445.657a13.354,13.354,0,0,0-20.354,13.219l3.54,2.238a10.536,10.536,0,1,1,10.063,6.362l3.54,2.238a13.354,13.354,0,0,0,3.211-24.057Z" transform="translate(-619.466 -343.162)" fill="#3f3d56"/>
    <rect id="Rectangle_1583" data-name="Rectangle 1583" width="315.627" height="0.694" transform="translate(0 204.342)" fill="#3f3d56"/>
    <path id="Path_2449" data-name="Path 2449" d="M617.643,402.865s13.542,10.069,7.986,11.806-12.5-5.9-12.153-7.986S617.643,402.865,617.643,402.865Z" transform="translate(-450.976 -316.58)" fill="#ffb8b8"/>
    <path id="Path_2450" data-name="Path 2450" d="M444.042,211.5l13.889,12.847-5.556,5.9L443,223.306Z" transform="translate(-289.18 -138.062)" fill="#575a89"/>
    <path id="Path_2451" data-name="Path 2451" d="M627.175,424.225,598.54,405.843c10.346-9.129,17.635-19.384,20.154-31.395l28.635,18.382a74.485,74.485,0,0,0-20.154,31.395Z" transform="translate(-441.233 -298.03)" fill="#00a662"/>
    <rect id="Rectangle_1584" data-name="Rectangle 1584" width="17.629" height="0.82" transform="translate(180.705 86.54) rotate(32.698)" fill="#3f3d56"/>
    <rect id="Rectangle_1585" data-name="Rectangle 1585" width="17.629" height="0.82" transform="translate(178.933 89.3) rotate(32.698)" fill="#3f3d56"/>
    <rect id="Rectangle_1586" data-name="Rectangle 1586" width="17.629" height="0.82" transform="translate(177.162 92.061) rotate(32.698)" fill="#3f3d56"/>
    <rect id="Rectangle_1587" data-name="Rectangle 1587" width="17.629" height="0.82" transform="translate(175.39 94.82) rotate(32.698)" fill="#3f3d56"/>
    <rect id="Rectangle_1588" data-name="Rectangle 1588" width="17.629" height="0.82" transform="translate(173.618 97.58) rotate(32.698)" fill="#3f3d56"/>
    <rect id="Rectangle_1589" data-name="Rectangle 1589" width="17.629" height="0.82" transform="translate(171.846 100.34) rotate(32.698)" fill="#3f3d56"/>
    <rect id="Rectangle_1590" data-name="Rectangle 1590" width="17.629" height="0.82" transform="translate(170.075 103.1) rotate(32.698)" fill="#3f3d56"/>
    <rect id="Rectangle_1591" data-name="Rectangle 1591" width="17.629" height="0.82" transform="translate(168.303 105.86) rotate(32.698)" fill="#3f3d56"/>
    <path id="Path_2452" data-name="Path 2452" d="M293.257,490.416l-5.27,11.088,14.743,3.528-.411-10.689Z" transform="translate(-187.991 -320.132)" fill="#ffb8b8"/>
    <path id="Path_2453" data-name="Path 2453" d="M455,530.236l1.736,12.153,14.236-5.208-6.25-8.681Z" transform="translate(-297.013 -344.992)" fill="#ffb8b8"/>
    <path id="Path_2454" data-name="Path 2454" d="M465.256,358.271s-2.182,13.969-1.588,20.613-1.747,34.673-1.747,34.673-10.47,11.389-12.846,24.4a108.57,108.57,0,0,1-7.455,23.8l12.336,4.015L478.4,419.488s17.532-38.371,15.79-42.026-4.474-18.383-4.474-18.383Z" transform="translate(-338.8 -287.47)" fill="#2f2e41"/>
    <path id="Path_2455" data-name="Path 2455" d="M426.244,660.409s-.015-6.26-2.223-3.558-9.419,7.919-5.173,11.569,29.043,23.429,30.378,17.647c.741-3.21-11.626-24.875-11.626-24.875s-4.13.259-4.416,1.319S426.244,660.409,426.244,660.409Z" transform="translate(-323.077 -481.934)" fill="#2f2e41"/>
    <path id="Path_2456" data-name="Path 2456" d="M406.375,40.5,397,51.264l9.375,9.722,8.681-13.195Z" transform="translate(-259.152 -26.437)" fill="#ffb8b8"/>
    <path id="Path_2457" data-name="Path 2457" d="M580.234,179.238a9.379,9.379,0,1,1-.17-1.774A9.379,9.379,0,0,1,580.234,179.238Z" transform="translate(-417.039 -164.481)" fill="#ffb8b8"/>
    <path id="Path_2458" data-name="Path 2458" d="M562.026,174.363a14.886,14.886,0,0,1,10.52-.273,11.352,11.352,0,0,1,5.231,3,5.731,5.731,0,0,1,1.355,5.647l-2.838-2.146-.26,1.891c-1.873-2.922-5.43-4.191-8.729-5.268-1.032-.337-2.4-.567-3,.341-.251.383-.279.882-.546,1.254-.5.7-1.545.635-2.31,1.021a4.045,4.045,0,0,0-1.537,1.8c-.386.7-.215,1.689-.915,2.082-2.807,1.577-1.152-4.495-.694-5.556A6.111,6.111,0,0,1,562.026,174.363Z" transform="translate(-414.381 -166.703)" fill="#2f2e41"/>
    <path id="Path_2459" data-name="Path 2459" d="M493,391.212s5.9,12.847,10.069,18.056,17.708,29.861,17.708,29.861-2.43,15.278,2.778,27.431a108.564,108.564,0,0,1,6.944,23.958l12.5-3.472-5.208-52.084s-6.6-41.667-10.07-43.75-13.889-12.847-13.889-12.847Z" transform="translate(-372.34 -300.587)" fill="#2f2e41"/>
    <path id="Path_2460" data-name="Path 2460" d="M517.533,229.866s-5.9-15.625-13.889-10.764-14.236,48.264-14.236,48.264-7.292,19.792,0,21.875,13.195,4.861,14.236,1.042.347-10.417,2.083-6.944,1.042,7.639,4.514,7.639,17.014-1.736,16.667-4.167S517.533,229.866,517.533,229.866Z" transform="translate(-367.879 -196.012)" fill="#575a89"/>
    <path id="Path_2461" data-name="Path 2461" d="M490.537,428.621s-4.514,13.542,1.736,13.542,5.347-13.672,5.347-13.672Z" transform="translate(-369.703 -333.308)" fill="#ffb8b8"/>
    <path id="Path_2462" data-name="Path 2462" d="M599.086,700.294s-3.472-5.208-3.819-1.736-3.472,11.806,2.083,12.5,37.153,3.472,35.07-2.083c-1.157-3.084-23.438-14.3-23.438-14.3s-3.3,2.5-2.951,3.54S599.086,700.294,599.086,700.294Z" transform="translate(-438.321 -507.063)" fill="#2f2e41"/>
    <path id="Path_2463" data-name="Path 2463" d="M586,171.379s-1.646,1.413-3.781-1.382a13.552,13.552,0,0,1-1.427-2.438,9.535,9.535,0,0,0-6.445-2.767q-.245-.01-.5-.01c-4.514,0-5.556-3.125-5.556-3.125L561,164.087s1.042-9.722,11.111-9.722,10.417,8.333,10.417,8.333S590.514,165.823,586,171.379Z" transform="translate(-416.728 -154.365)" fill="#575a89"/>
    <path id="Path_2464" data-name="Path 2464" d="M607.311,187.985a13.548,13.548,0,0,1-1.427-2.438,9.535,9.535,0,0,0-6.445-2.767c2.538-.8,6.952-1.719,8.875.684C610.086,185.676,608.614,187.183,607.311,187.985Z" transform="translate(-441.821 -172.353)" opacity="0.2"/>
    <path id="Path_2465" data-name="Path 2465" d="M500.945,228.583s-9.375-1.736-11.806,6.6-7.639,32.986-7.639,32.986l3.125,25.347-.347,6.25h10.069v-6.6c0-.694,1.389-27.778,1.389-27.778l11.458-26.042S509.625,231.013,500.945,228.583Z" transform="translate(-364.833 -202.714)" fill="#575a89"/>
    <path id="Path_2466" data-name="Path 2466" d="M386.315,116l-11.458,22.57-1.406,32.336,3.836-32.683Z" transform="translate(-243.78 -75.722)" opacity="0.2"/>
    <path id="Path_2467" data-name="Path 2467" d="M450.525,215.686l2.6,13.336-1.3-12.133Z" transform="translate(-294.092 -140.795)" opacity="0.2"/>
    <path id="Path_2468" data-name="Path 2468" d="M365.5,305.5l14.931,21.181-1.563,3.125Z" transform="translate(-238.59 -199.423)" opacity="0.2"/>
  </g>
</svg>
