<svg xmlns="http://www.w3.org/2000/svg" width="31.172" height="42" viewBox="0 0 31.172 42">
  <g id="arrival" transform="translate(-66)">
    <path id="Path_2371" data-name="Path 2371" d="M95.769,9.086a15.6,15.6,0,0,0-28.543.433A15.5,15.5,0,0,0,66,15.586a13.714,13.714,0,0,0,.67,3.931,29.165,29.165,0,0,0,1.722,4.236A59.453,59.453,0,0,0,72.144,30.2c1.211,1.834,2.6,3.773,4.123,5.764,1.42,1.853,2.675,3.38,3.535,4.4H74.863a.82.82,0,1,0,0,1.641H88.322a.82.82,0,1,0,0-1.641H83.381c.945-1.121,2.371-2.857,3.949-4.942,1.637-2.164,3.1-4.252,4.351-6.208a51.825,51.825,0,0,0,3.74-6.8.821.821,0,1,0-1.5-.662,69.727,69.727,0,0,1-7.9,12.683c-1.43,1.889-2.727,3.477-3.562,4.476-.3.356-.589.7-.868,1.025a115.265,115.265,0,0,1-7.4-9.626,58.593,58.593,0,0,1-4.577-7.791,17.3,17.3,0,0,1-1.975-6.928A13.948,13.948,0,0,1,81.593,1.641h0A13.91,13.91,0,0,1,95.532,14.986a.817.817,0,0,0,.819.786h.035a.821.821,0,0,0,.785-.854,15.47,15.47,0,0,0-1.4-5.832Z" transform="translate(0 0)" fill="#0085c7"/>
    <path id="Path_2372" data-name="Path 2372" d="M200.373,135.149a.821.821,0,0,0-1.144.2l-4.334,6.137-3.415-3.755a.82.82,0,0,0-1.214,1.1l4.1,4.512a.822.822,0,0,0,1.278-.079l4.924-6.973A.82.82,0,0,0,200.373,135.149Z" transform="translate(-113.876 -123.925)" fill="#00a662"/>
    <ellipse id="Ellipse_373" data-name="Ellipse 373" cx="0.821" cy="0.82" rx="0.821" ry="0.82" transform="translate(95.102 17.783)"/>
    <path id="Path_2373" data-name="Path 2373" d="M127.511,50A11.484,11.484,0,1,0,139,61.484,11.487,11.487,0,0,0,127.511,50Zm0,21.328a9.844,9.844,0,1,1,9.848-9.844A9.846,9.846,0,0,1,127.511,71.328Z" transform="translate(-45.919 -45.898)" fill="#0085c7"/>
  </g>
</svg>
